<svg width="15" height="13" viewBox="0 0 15 13" fill="none" xmlns="http://www.w3.org/2000/svg">
<path d="M15 6.49923C15 6.74544 14.9052 6.98156 14.7364 7.15566C14.5676 7.32976 14.3387 7.42757 14.1 7.42757H3.07556L6.93938 11.4125C7.10845 11.5869 7.20343 11.8234 7.20343 12.07C7.20343 12.3167 7.10845 12.5532 6.93938 12.7276C6.77031 12.902 6.54101 13 6.30191 13C6.06281 13 5.83351 12.902 5.66444 12.7276L0.264697 7.15757C0.180797 7.07133 0.114227 6.96885 0.0688043 6.856C0.0233817 6.74316 0 6.62218 0 6.5C0 6.37782 0.0233817 6.25684 0.0688043 6.14399C0.114227 6.03115 0.180797 5.92867 0.264697 5.84242L5.66444 0.272376C5.74815 0.186022 5.84754 0.117523 5.95691 0.0707882C6.06629 0.0240537 6.18352 0 6.30191 0C6.4203 0 6.53753 0.0240537 6.64691 0.0707882C6.75628 0.117523 6.85567 0.186022 6.93938 0.272376C7.02309 0.35873 7.0895 0.461248 7.13481 0.574074C7.18011 0.686901 7.20343 0.807828 7.20343 0.929951C7.20343 1.05207 7.18011 1.173 7.13481 1.28583C7.0895 1.39866 7.02309 1.50117 6.93938 1.58753L3.07556 5.57088H14.1C14.3387 5.57088 14.5676 5.66869 14.7364 5.84279C14.9052 6.01689 15 6.25302 15 6.49923Z" fill="#C45500"/>
</svg>
