<svg width="82" height="37" viewBox="0 0 82 37" fill="none" xmlns="http://www.w3.org/2000/svg">
<mask id="path-1-outside-1_259_5336" maskUnits="userSpaceOnUse" x="-0.255066" y="8" width="83" height="21" fill="black">
<rect fill="white" x="-0.255066" y="8" width="83" height="21"/>
<path d="M10.4299 27.264C8.38187 27.264 6.67787 26.928 5.31787 26.256C3.95787 25.568 2.94187 24.608 2.26987 23.376C1.61387 22.144 1.28587 20.704 1.28587 19.056C1.28587 17.232 1.66187 15.64 2.41387 14.28C3.16587 12.904 4.24587 11.84 5.65387 11.088C7.07787 10.336 8.78987 9.96 10.7899 9.96C12.6619 9.96 14.0939 10.336 15.0859 11.088C16.0939 11.824 16.5979 12.84 16.5979 14.136C16.5979 15.08 16.3339 15.832 15.8059 16.392C15.2939 16.936 14.5419 17.208 13.5499 17.208C13.0059 17.208 12.5339 17.136 12.1339 16.992C11.7339 16.848 11.3339 16.712 10.9339 16.584C10.5339 16.44 10.0699 16.368 9.54187 16.368C9.09387 16.368 8.66987 16.44 8.26987 16.584C7.88587 16.712 7.57387 16.944 7.33387 17.28C7.10987 17.6 6.99787 18.048 6.99787 18.624C6.99787 19.376 7.22187 19.912 7.66987 20.232C8.13387 20.552 8.74187 20.712 9.49387 20.712C9.87787 20.712 10.3099 20.688 10.7899 20.64C11.2699 20.576 11.7419 20.52 12.2059 20.472C12.6859 20.424 13.0939 20.4 13.4299 20.4C14.2779 20.4 14.9499 20.64 15.4459 21.12C15.9579 21.584 16.2139 22.288 16.2139 23.232C16.2139 24.464 15.7419 25.448 14.7979 26.184C13.8699 26.904 12.4139 27.264 10.4299 27.264ZM23.7547 9.84C24.4427 9.84 24.9707 10.144 25.3387 10.752C25.7227 11.36 25.9147 12.28 25.9147 13.512C25.9147 14.056 25.8587 14.688 25.7467 15.408C25.6347 16.112 25.4667 16.784 25.2427 17.424L24.0187 17.352C24.9947 17.08 25.9947 16.952 27.0187 16.968C28.0587 16.984 28.9947 17.144 29.8267 17.448L28.7947 17.256C28.6507 16.616 28.5387 15.984 28.4587 15.36C28.3947 14.736 28.3627 14.184 28.3627 13.704C28.3627 12.616 28.5547 11.8 28.9387 11.256C29.3387 10.696 29.9307 10.416 30.7147 10.416C31.5307 10.416 32.1947 10.688 32.7067 11.232C33.2347 11.776 33.6107 12.592 33.8347 13.68C33.9627 14.32 34.0747 15.096 34.1707 16.008C34.2667 16.92 34.3147 17.84 34.3147 18.768C34.3147 19.744 34.2747 20.736 34.1947 21.744C34.1147 22.736 34.0027 23.664 33.8587 24.528C33.6827 25.6 33.3467 26.384 32.8507 26.88C32.3547 27.36 31.6107 27.6 30.6187 27.6C29.7387 27.6 29.1067 27.28 28.7227 26.64C28.3387 26 28.1467 24.968 28.1467 23.544C28.1467 22.92 28.2267 22.272 28.3867 21.6C28.5467 20.928 28.7707 20.264 29.0587 19.608L29.9227 19.92C29.0427 20.176 28.0987 20.304 27.0907 20.304C26.0987 20.288 25.1307 20.16 24.1867 19.92L25.3147 19.536C25.5227 20.112 25.6827 20.704 25.7947 21.312C25.9067 21.904 25.9627 22.504 25.9627 23.112C25.9627 24.696 25.6587 25.856 25.0507 26.592C24.4427 27.312 23.6187 27.672 22.5787 27.672C21.9867 27.672 21.5067 27.472 21.1387 27.072C20.7867 26.688 20.5147 26.008 20.3227 25.032C20.2107 24.392 20.1227 23.6 20.0587 22.656C19.9947 21.696 19.9627 20.688 19.9627 19.632C19.9627 18.336 20.0347 17.088 20.1787 15.888C20.3387 14.672 20.5467 13.624 20.8027 12.744C21.0747 11.848 21.4347 11.144 21.8827 10.632C22.3467 10.104 22.9707 9.84 23.7547 9.84ZM41.6692 25.992C40.9972 25.992 40.4132 25.76 39.9172 25.296C39.4372 24.816 39.0612 23.992 38.7892 22.824C38.6612 22.248 38.5492 21.592 38.4532 20.856C38.3572 20.104 38.2852 19.352 38.2372 18.6C38.1892 17.848 38.1652 17.184 38.1652 16.608C38.1652 14.72 38.2852 13.272 38.5252 12.264C38.7652 11.256 39.1252 10.56 39.6052 10.176C40.1012 9.792 40.7172 9.6 41.4532 9.6C42.1572 9.6 42.7252 9.832 43.1572 10.296C43.5892 10.76 43.9572 11.56 44.2612 12.696C44.3732 13.144 44.4772 13.672 44.5732 14.28C44.6692 14.872 44.7492 15.488 44.8132 16.128C44.8772 16.752 44.9252 17.36 44.9572 17.952C44.9892 18.544 45.0052 19.056 45.0052 19.488C45.0052 20.848 44.9092 22.016 44.7172 22.992C44.5412 23.952 44.2132 24.696 43.7332 25.224C43.2532 25.736 42.5652 25.992 41.6692 25.992ZM51.4123 27.24C50.8683 27.24 50.4203 27.12 50.0683 26.88C49.7323 26.64 49.4923 26.28 49.3483 25.8C49.2043 25.32 49.0843 24.536 48.9883 23.448C48.8923 22.344 48.8443 21.152 48.8443 19.872C48.8443 18.496 48.8763 17.16 48.9403 15.864C49.0203 14.552 49.1563 13.4 49.3483 12.408C49.5243 11.512 49.8043 10.848 50.1883 10.416C50.5883 9.984 51.1803 9.768 51.9643 9.768C52.5883 9.768 53.1003 9.904 53.5003 10.176C53.9163 10.432 54.2283 10.864 54.4363 11.472C54.6443 12.064 54.7483 12.864 54.7483 13.872C54.7483 14.112 54.7403 14.368 54.7243 14.64C54.7243 14.912 54.7083 15.2 54.6763 15.504H54.7723C55.4923 13.92 56.2123 12.688 56.9323 11.808C57.6523 10.928 58.3563 10.312 59.0443 9.96C59.7323 9.608 60.3803 9.432 60.9883 9.432C61.7403 9.432 62.3163 9.688 62.7163 10.2C63.1323 10.712 63.3403 11.344 63.3403 12.096C63.3403 13.152 62.8763 14.152 61.9483 15.096C61.0363 16.04 59.5403 17.056 57.4603 18.144L57.6523 17.52C59.4603 18.736 60.7803 19.888 61.6123 20.976C62.4443 22.048 62.8603 23.184 62.8603 24.384C62.8603 25.168 62.6123 25.8 62.1163 26.28C61.6203 26.744 60.9243 26.976 60.0283 26.976C59.2603 26.976 58.5403 26.752 57.8683 26.304C57.1963 25.856 56.5803 25.128 56.0203 24.12C55.4603 23.096 54.9563 21.728 54.5083 20.016H54.4123C54.4283 20.224 54.4363 20.44 54.4363 20.664C54.4523 20.872 54.4523 21.08 54.4363 21.288C54.4363 23.416 54.2123 24.944 53.7643 25.872C53.3323 26.784 52.5483 27.24 51.4123 27.24ZM69.2632 28.128C68.3512 28.128 67.6552 27.856 67.1752 27.312C66.6952 26.784 66.4552 25.824 66.4552 24.432C66.4552 23.808 66.5192 23.12 66.6472 22.368C66.7752 21.6 66.9672 20.8 67.2232 19.968C67.4952 19.12 67.8232 18.256 68.2072 17.376C68.5912 16.496 69.0392 15.624 69.5512 14.76C70.1592 13.736 70.7512 12.912 71.3272 12.288C71.9192 11.648 72.5352 11.184 73.1752 10.896C73.8312 10.608 74.5672 10.464 75.3832 10.464C76.4392 10.464 77.3752 10.88 78.1912 11.712C79.0072 12.544 79.6552 13.76 80.1352 15.36C80.3752 16.144 80.5752 16.976 80.7352 17.856C80.8952 18.72 81.0152 19.6 81.0952 20.496C81.1752 21.376 81.2152 22.24 81.2152 23.088C81.2152 24.736 80.9192 25.912 80.3272 26.616C79.7352 27.304 78.9032 27.648 77.8312 27.648C76.9352 27.648 76.2232 27.408 75.6952 26.928C75.1672 26.448 74.8472 25.648 74.7352 24.528C74.6712 23.92 74.6392 23.296 74.6392 22.656C74.6392 22 74.6712 21.376 74.7352 20.784L76.2472 23.064C75.8472 23.192 75.3432 23.272 74.7352 23.304C74.1272 23.336 73.4952 23.32 72.8392 23.256C72.1992 23.192 71.5992 23.072 71.0392 22.896L73.1752 20.592C73.1432 21.376 73.0872 22.144 73.0072 22.896C72.9272 23.648 72.8232 24.328 72.6952 24.936C72.5672 25.624 72.3672 26.208 72.0952 26.688C71.8232 27.168 71.4552 27.528 70.9912 27.768C70.5432 28.008 69.9672 28.128 69.2632 28.128ZM74.0632 19.584C74.7832 19.584 75.3512 19.36 75.7672 18.912C76.1992 18.448 76.4152 17.848 76.4152 17.112C76.4152 16.792 76.3752 16.496 76.2952 16.224C76.2312 15.952 76.1192 15.712 75.9592 15.504C75.8152 15.296 75.6232 15.136 75.3832 15.024C75.1592 14.896 74.8952 14.832 74.5912 14.832C74.2392 14.832 73.9192 14.92 73.6312 15.096C73.3432 15.272 73.0952 15.504 72.8872 15.792C72.6792 16.08 72.5192 16.4 72.4072 16.752C72.2952 17.104 72.2392 17.448 72.2392 17.784C72.2392 18.296 72.4072 18.728 72.7432 19.08C73.0792 19.416 73.5192 19.584 74.0632 19.584Z"/>
</mask>
<path d="M10.4299 27.264C8.38187 27.264 6.67787 26.928 5.31787 26.256C3.95787 25.568 2.94187 24.608 2.26987 23.376C1.61387 22.144 1.28587 20.704 1.28587 19.056C1.28587 17.232 1.66187 15.64 2.41387 14.28C3.16587 12.904 4.24587 11.84 5.65387 11.088C7.07787 10.336 8.78987 9.96 10.7899 9.96C12.6619 9.96 14.0939 10.336 15.0859 11.088C16.0939 11.824 16.5979 12.84 16.5979 14.136C16.5979 15.08 16.3339 15.832 15.8059 16.392C15.2939 16.936 14.5419 17.208 13.5499 17.208C13.0059 17.208 12.5339 17.136 12.1339 16.992C11.7339 16.848 11.3339 16.712 10.9339 16.584C10.5339 16.44 10.0699 16.368 9.54187 16.368C9.09387 16.368 8.66987 16.44 8.26987 16.584C7.88587 16.712 7.57387 16.944 7.33387 17.28C7.10987 17.6 6.99787 18.048 6.99787 18.624C6.99787 19.376 7.22187 19.912 7.66987 20.232C8.13387 20.552 8.74187 20.712 9.49387 20.712C9.87787 20.712 10.3099 20.688 10.7899 20.64C11.2699 20.576 11.7419 20.52 12.2059 20.472C12.6859 20.424 13.0939 20.4 13.4299 20.4C14.2779 20.4 14.9499 20.64 15.4459 21.12C15.9579 21.584 16.2139 22.288 16.2139 23.232C16.2139 24.464 15.7419 25.448 14.7979 26.184C13.8699 26.904 12.4139 27.264 10.4299 27.264ZM23.7547 9.84C24.4427 9.84 24.9707 10.144 25.3387 10.752C25.7227 11.36 25.9147 12.28 25.9147 13.512C25.9147 14.056 25.8587 14.688 25.7467 15.408C25.6347 16.112 25.4667 16.784 25.2427 17.424L24.0187 17.352C24.9947 17.08 25.9947 16.952 27.0187 16.968C28.0587 16.984 28.9947 17.144 29.8267 17.448L28.7947 17.256C28.6507 16.616 28.5387 15.984 28.4587 15.36C28.3947 14.736 28.3627 14.184 28.3627 13.704C28.3627 12.616 28.5547 11.8 28.9387 11.256C29.3387 10.696 29.9307 10.416 30.7147 10.416C31.5307 10.416 32.1947 10.688 32.7067 11.232C33.2347 11.776 33.6107 12.592 33.8347 13.68C33.9627 14.32 34.0747 15.096 34.1707 16.008C34.2667 16.92 34.3147 17.84 34.3147 18.768C34.3147 19.744 34.2747 20.736 34.1947 21.744C34.1147 22.736 34.0027 23.664 33.8587 24.528C33.6827 25.6 33.3467 26.384 32.8507 26.88C32.3547 27.36 31.6107 27.6 30.6187 27.6C29.7387 27.6 29.1067 27.28 28.7227 26.64C28.3387 26 28.1467 24.968 28.1467 23.544C28.1467 22.92 28.2267 22.272 28.3867 21.6C28.5467 20.928 28.7707 20.264 29.0587 19.608L29.9227 19.92C29.0427 20.176 28.0987 20.304 27.0907 20.304C26.0987 20.288 25.1307 20.16 24.1867 19.92L25.3147 19.536C25.5227 20.112 25.6827 20.704 25.7947 21.312C25.9067 21.904 25.9627 22.504 25.9627 23.112C25.9627 24.696 25.6587 25.856 25.0507 26.592C24.4427 27.312 23.6187 27.672 22.5787 27.672C21.9867 27.672 21.5067 27.472 21.1387 27.072C20.7867 26.688 20.5147 26.008 20.3227 25.032C20.2107 24.392 20.1227 23.6 20.0587 22.656C19.9947 21.696 19.9627 20.688 19.9627 19.632C19.9627 18.336 20.0347 17.088 20.1787 15.888C20.3387 14.672 20.5467 13.624 20.8027 12.744C21.0747 11.848 21.4347 11.144 21.8827 10.632C22.3467 10.104 22.9707 9.84 23.7547 9.84ZM41.6692 25.992C40.9972 25.992 40.4132 25.76 39.9172 25.296C39.4372 24.816 39.0612 23.992 38.7892 22.824C38.6612 22.248 38.5492 21.592 38.4532 20.856C38.3572 20.104 38.2852 19.352 38.2372 18.6C38.1892 17.848 38.1652 17.184 38.1652 16.608C38.1652 14.72 38.2852 13.272 38.5252 12.264C38.7652 11.256 39.1252 10.56 39.6052 10.176C40.1012 9.792 40.7172 9.6 41.4532 9.6C42.1572 9.6 42.7252 9.832 43.1572 10.296C43.5892 10.76 43.9572 11.56 44.2612 12.696C44.3732 13.144 44.4772 13.672 44.5732 14.28C44.6692 14.872 44.7492 15.488 44.8132 16.128C44.8772 16.752 44.9252 17.36 44.9572 17.952C44.9892 18.544 45.0052 19.056 45.0052 19.488C45.0052 20.848 44.9092 22.016 44.7172 22.992C44.5412 23.952 44.2132 24.696 43.7332 25.224C43.2532 25.736 42.5652 25.992 41.6692 25.992ZM51.4123 27.24C50.8683 27.24 50.4203 27.12 50.0683 26.88C49.7323 26.64 49.4923 26.28 49.3483 25.8C49.2043 25.32 49.0843 24.536 48.9883 23.448C48.8923 22.344 48.8443 21.152 48.8443 19.872C48.8443 18.496 48.8763 17.16 48.9403 15.864C49.0203 14.552 49.1563 13.4 49.3483 12.408C49.5243 11.512 49.8043 10.848 50.1883 10.416C50.5883 9.984 51.1803 9.768 51.9643 9.768C52.5883 9.768 53.1003 9.904 53.5003 10.176C53.9163 10.432 54.2283 10.864 54.4363 11.472C54.6443 12.064 54.7483 12.864 54.7483 13.872C54.7483 14.112 54.7403 14.368 54.7243 14.64C54.7243 14.912 54.7083 15.2 54.6763 15.504H54.7723C55.4923 13.92 56.2123 12.688 56.9323 11.808C57.6523 10.928 58.3563 10.312 59.0443 9.96C59.7323 9.608 60.3803 9.432 60.9883 9.432C61.7403 9.432 62.3163 9.688 62.7163 10.2C63.1323 10.712 63.3403 11.344 63.3403 12.096C63.3403 13.152 62.8763 14.152 61.9483 15.096C61.0363 16.04 59.5403 17.056 57.4603 18.144L57.6523 17.52C59.4603 18.736 60.7803 19.888 61.6123 20.976C62.4443 22.048 62.8603 23.184 62.8603 24.384C62.8603 25.168 62.6123 25.8 62.1163 26.28C61.6203 26.744 60.9243 26.976 60.0283 26.976C59.2603 26.976 58.5403 26.752 57.8683 26.304C57.1963 25.856 56.5803 25.128 56.0203 24.12C55.4603 23.096 54.9563 21.728 54.5083 20.016H54.4123C54.4283 20.224 54.4363 20.44 54.4363 20.664C54.4523 20.872 54.4523 21.08 54.4363 21.288C54.4363 23.416 54.2123 24.944 53.7643 25.872C53.3323 26.784 52.5483 27.24 51.4123 27.24ZM69.2632 28.128C68.3512 28.128 67.6552 27.856 67.1752 27.312C66.6952 26.784 66.4552 25.824 66.4552 24.432C66.4552 23.808 66.5192 23.12 66.6472 22.368C66.7752 21.6 66.9672 20.8 67.2232 19.968C67.4952 19.12 67.8232 18.256 68.2072 17.376C68.5912 16.496 69.0392 15.624 69.5512 14.76C70.1592 13.736 70.7512 12.912 71.3272 12.288C71.9192 11.648 72.5352 11.184 73.1752 10.896C73.8312 10.608 74.5672 10.464 75.3832 10.464C76.4392 10.464 77.3752 10.88 78.1912 11.712C79.0072 12.544 79.6552 13.76 80.1352 15.36C80.3752 16.144 80.5752 16.976 80.7352 17.856C80.8952 18.72 81.0152 19.6 81.0952 20.496C81.1752 21.376 81.2152 22.24 81.2152 23.088C81.2152 24.736 80.9192 25.912 80.3272 26.616C79.7352 27.304 78.9032 27.648 77.8312 27.648C76.9352 27.648 76.2232 27.408 75.6952 26.928C75.1672 26.448 74.8472 25.648 74.7352 24.528C74.6712 23.92 74.6392 23.296 74.6392 22.656C74.6392 22 74.6712 21.376 74.7352 20.784L76.2472 23.064C75.8472 23.192 75.3432 23.272 74.7352 23.304C74.1272 23.336 73.4952 23.32 72.8392 23.256C72.1992 23.192 71.5992 23.072 71.0392 22.896L73.1752 20.592C73.1432 21.376 73.0872 22.144 73.0072 22.896C72.9272 23.648 72.8232 24.328 72.6952 24.936C72.5672 25.624 72.3672 26.208 72.0952 26.688C71.8232 27.168 71.4552 27.528 70.9912 27.768C70.5432 28.008 69.9672 28.128 69.2632 28.128ZM74.0632 19.584C74.7832 19.584 75.3512 19.36 75.7672 18.912C76.1992 18.448 76.4152 17.848 76.4152 17.112C76.4152 16.792 76.3752 16.496 76.2952 16.224C76.2312 15.952 76.1192 15.712 75.9592 15.504C75.8152 15.296 75.6232 15.136 75.3832 15.024C75.1592 14.896 74.8952 14.832 74.5912 14.832C74.2392 14.832 73.9192 14.92 73.6312 15.096C73.3432 15.272 73.0952 15.504 72.8872 15.792C72.6792 16.08 72.5192 16.4 72.4072 16.752C72.2952 17.104 72.2392 17.448 72.2392 17.784C72.2392 18.296 72.4072 18.728 72.7432 19.08C73.0792 19.416 73.5192 19.584 74.0632 19.584Z" fill="url(#paint0_linear_259_5336)"/>
<path d="M5.31787 26.256L5.00187 26.8807L5.00778 26.8836L5.31787 26.256ZM2.26987 23.376L1.65197 23.705L1.65535 23.7112L2.26987 23.376ZM2.41387 14.28L3.02647 14.6187L3.02813 14.6157L2.41387 14.28ZM5.65387 11.088L5.32699 10.469L5.3241 10.4705L5.65387 11.088ZM15.0859 11.088L14.6629 11.6459L14.6731 11.6533L15.0859 11.088ZM15.8059 16.392L15.2966 15.9118L15.2961 15.9122L15.8059 16.392ZM12.1339 16.992L11.8968 17.6506L11.8968 17.6506L12.1339 16.992ZM10.9339 16.584L10.6968 17.2426L10.7086 17.2469L10.7205 17.2507L10.9339 16.584ZM8.26987 16.584L8.49123 17.2481L8.49914 17.2454L8.50698 17.2426L8.26987 16.584ZM7.33387 17.28L6.76423 16.8731L6.76041 16.8786L7.33387 17.28ZM7.66987 20.232L7.26295 20.8017L7.27246 20.8082L7.66987 20.232ZM10.7899 20.64L10.8595 21.3365L10.871 21.3354L10.8824 21.3339L10.7899 20.64ZM12.2059 20.472L12.1362 19.7755L12.1338 19.7757L12.2059 20.472ZM15.4459 21.12L14.9591 21.623L14.9673 21.631L14.9758 21.6387L15.4459 21.12ZM14.7979 26.184L15.227 26.7371L15.2283 26.736L14.7979 26.184ZM10.4299 27.264V26.564C8.45362 26.564 6.86388 26.2391 5.62797 25.6284L5.31787 26.256L5.00778 26.8836C6.49186 27.6169 8.31013 27.964 10.4299 27.964V27.264ZM5.31787 26.256L5.63386 25.6314C4.38897 25.0016 3.48262 24.1375 2.8844 23.0408L2.26987 23.376L1.65535 23.7112C2.40113 25.0785 3.52678 26.1344 5.00189 26.8806L5.31787 26.256ZM2.26987 23.376L2.88774 23.047C2.29463 21.9331 1.98587 20.61 1.98587 19.056H1.28587H0.585873C0.585873 20.798 0.933113 22.3549 1.652 23.705L2.26987 23.376ZM1.28587 19.056H1.98587C1.98587 17.3298 2.34103 15.8583 3.02646 14.6187L2.41387 14.28L1.80128 13.9413C0.982717 15.4217 0.585873 17.1342 0.585873 19.056H1.28587ZM2.41387 14.28L3.02813 14.6157C3.71352 13.3616 4.69359 12.3945 5.98365 11.7055L5.65387 11.088L5.3241 10.4705C3.79815 11.2855 2.61822 12.4464 1.79962 13.9443L2.41387 14.28ZM5.65387 11.088L5.98076 11.707C7.2825 11.0195 8.87671 10.66 10.7899 10.66V9.96V9.26C8.70304 9.26 6.87324 9.65245 5.32699 10.469L5.65387 11.088ZM10.7899 9.96V10.66C12.5823 10.66 13.8403 11.0222 14.663 11.6458L15.0859 11.088L15.5087 10.5302C14.3474 9.64981 12.7414 9.26 10.7899 9.26V9.96ZM15.0859 11.088L14.6731 11.6533C15.4926 12.2517 15.8979 13.0534 15.8979 14.136H16.5979H17.2979C17.2979 12.6266 16.6952 11.3963 15.4987 10.5227L15.0859 11.088ZM16.5979 14.136H15.8979C15.8979 14.9441 15.6757 15.5097 15.2966 15.9118L15.8059 16.392L16.3152 16.8722C16.9921 16.1543 17.2979 15.2159 17.2979 14.136H16.5979ZM15.8059 16.392L15.2961 15.9122C14.9558 16.2739 14.415 16.508 13.5499 16.508V17.208V17.908C14.6688 17.908 15.632 17.5981 16.3156 16.8718L15.8059 16.392ZM13.5499 17.208V16.508C13.0652 16.508 12.677 16.4436 12.371 16.3334L12.1339 16.992L11.8968 17.6506C12.3907 17.8284 12.9466 17.908 13.5499 17.908V17.208ZM12.1339 16.992L12.371 16.3334C11.9632 16.1866 11.5553 16.0479 11.1472 15.9173L10.9339 16.584L10.7205 17.2507C11.1125 17.3761 11.5045 17.5094 11.8968 17.6506L12.1339 16.992ZM10.9339 16.584L11.171 15.9254C10.679 15.7483 10.1319 15.668 9.54187 15.668V16.368V17.068C10.0078 17.068 10.3887 17.1317 10.6968 17.2426L10.9339 16.584ZM9.54187 16.368V15.668C9.01743 15.668 8.51284 15.7526 8.03277 15.9254L8.26987 16.584L8.50698 17.2426C8.8269 17.1274 9.17032 17.068 9.54187 17.068V16.368ZM8.26987 16.584L8.04851 15.9199C7.52117 16.0957 7.08839 16.4193 6.76426 16.8731L7.33387 17.28L7.90349 17.6869C8.05935 17.4687 8.25058 17.3283 8.49123 17.2481L8.26987 16.584ZM7.33387 17.28L6.76041 16.8786C6.42343 17.36 6.29787 17.9691 6.29787 18.624H6.99787H7.69787C7.69787 18.1269 7.79632 17.84 7.90734 17.6814L7.33387 17.28ZM6.99787 18.624H6.29787C6.29787 19.5124 6.56851 20.3055 7.26301 20.8016L7.66987 20.232L8.07674 19.6624C7.87523 19.5185 7.69787 19.2396 7.69787 18.624H6.99787ZM7.66987 20.232L7.27246 20.8082C7.88659 21.2318 8.64657 21.412 9.49387 21.412V20.712V20.012C8.83718 20.012 8.38115 19.8722 8.06729 19.6558L7.66987 20.232ZM9.49387 20.712V21.412C9.90613 21.412 10.3619 21.3863 10.8595 21.3365L10.7899 20.64L10.7202 19.9435C10.2578 19.9897 9.84962 20.012 9.49387 20.012V20.712ZM10.7899 20.64L10.8824 21.3339C11.3558 21.2707 11.821 21.2155 12.2779 21.1683L12.2059 20.472L12.1338 19.7757C11.6628 19.8244 11.1839 19.8813 10.6974 19.9461L10.7899 20.64ZM12.2059 20.472L12.2755 21.1685C12.7414 21.1219 13.1247 21.1 13.4299 21.1V20.4V19.7C13.063 19.7 12.6303 19.7261 12.1362 19.7755L12.2059 20.472ZM13.4299 20.4V21.1C14.1401 21.1 14.6221 21.2969 14.9591 21.623L15.4459 21.12L15.9327 20.617C15.2776 19.9831 14.4157 19.7 13.4299 19.7V20.4ZM15.4459 21.12L14.9758 21.6387C15.2936 21.9267 15.5139 22.4103 15.5139 23.232H16.2139H16.9139C16.9139 22.1657 16.6221 21.2413 15.9159 20.6013L15.4459 21.12ZM16.2139 23.232H15.5139C15.5139 24.2556 15.1356 25.0331 14.3675 25.632L14.7979 26.184L15.2283 26.736C16.3481 25.8629 16.9139 24.6724 16.9139 23.232H16.2139ZM14.7979 26.184L14.3688 25.6309C13.623 26.2096 12.3558 26.564 10.4299 26.564V27.264V27.964C12.472 27.964 14.1168 27.5984 15.227 26.7371L14.7979 26.184ZM25.3387 10.752L24.7398 11.1145L24.7469 11.1258L25.3387 10.752ZM25.7467 15.408L26.4381 15.518L26.4384 15.5156L25.7467 15.408ZM25.2427 17.424L25.2016 18.1228L25.729 18.1538L25.9034 17.6552L25.2427 17.424ZM24.0187 17.352L23.8308 16.6777L23.9776 18.0508L24.0187 17.352ZM27.0187 16.968L27.0078 17.6679L27.008 17.6679L27.0187 16.968ZM29.8267 17.448L29.6987 18.1362L30.067 16.7905L29.8267 17.448ZM28.7947 17.256L28.1118 17.4097L28.2131 17.8598L28.6667 17.9442L28.7947 17.256ZM28.4587 15.36L27.7624 15.4314L27.7633 15.4402L27.7644 15.449L28.4587 15.36ZM28.9387 11.256L28.3691 10.8491L28.3669 10.8523L28.9387 11.256ZM32.7067 11.232L32.1969 11.7118L32.2044 11.7195L32.7067 11.232ZM33.8347 13.68L34.5212 13.5427L34.5204 13.5388L33.8347 13.68ZM34.1707 16.008L34.8669 15.9347L34.8669 15.9347L34.1707 16.008ZM34.1947 21.744L34.8925 21.8003L34.8926 21.7994L34.1947 21.744ZM33.8587 24.528L33.1683 24.4129L33.168 24.4146L33.8587 24.528ZM32.8507 26.88L33.3376 27.3831L33.3457 27.375L32.8507 26.88ZM28.7227 26.64L28.1225 27.0001L28.1225 27.0001L28.7227 26.64ZM28.3867 21.6L29.0677 21.7621L29.0677 21.7621L28.3867 21.6ZM29.0587 19.608L29.2965 18.9496L28.6809 18.7273L28.4178 19.3266L29.0587 19.608ZM29.9227 19.92L30.1183 20.5921L32.1823 19.9917L30.1605 19.2616L29.9227 19.92ZM27.0907 20.304L27.0795 21.004H27.0907V20.304ZM24.1867 19.92L23.9612 19.2573L21.7287 20.0173L24.0143 20.5984L24.1867 19.92ZM25.3147 19.536L25.9731 19.2982L25.7397 18.6519L25.0892 18.8733L25.3147 19.536ZM25.7947 21.312L25.1063 21.4388L25.1069 21.4421L25.7947 21.312ZM25.0507 26.592L25.5856 27.0437L25.5904 27.0378L25.0507 26.592ZM21.1387 27.072L20.6227 27.545L20.6236 27.5459L21.1387 27.072ZM20.3227 25.032L19.6332 25.1527L19.6345 25.1599L19.6359 25.1671L20.3227 25.032ZM20.0587 22.656L19.3603 22.7026L19.3604 22.7033L20.0587 22.656ZM20.1787 15.888L19.4847 15.7967L19.4837 15.8046L20.1787 15.888ZM20.8027 12.744L20.1329 12.5406L20.1306 12.5485L20.8027 12.744ZM21.8827 10.632L21.3569 10.1699L21.3559 10.171L21.8827 10.632ZM23.7547 9.84V10.54C24.1881 10.54 24.4936 10.7075 24.7399 11.1145L25.3387 10.752L25.9376 10.3895C25.4479 9.58046 24.6974 9.14 23.7547 9.14V9.84ZM25.3387 10.752L24.7469 11.1258C25.0261 11.5678 25.2147 12.329 25.2147 13.512H25.9147H26.6147C26.6147 12.231 26.4194 11.1522 25.9306 10.3782L25.3387 10.752ZM25.9147 13.512H25.2147C25.2147 14.0102 25.1633 14.6049 25.0551 15.3004L25.7467 15.408L26.4384 15.5156C26.5542 14.7711 26.6147 14.1018 26.6147 13.512H25.9147ZM25.7467 15.408L25.0554 15.298C24.9497 15.9629 24.7916 16.5941 24.582 17.1928L25.2427 17.424L25.9034 17.6552C26.1419 16.9739 26.3198 16.2611 26.4381 15.518L25.7467 15.408ZM25.2427 17.424L25.2839 16.7252L24.0599 16.6532L24.0187 17.352L23.9776 18.0508L25.2016 18.1228L25.2427 17.424ZM24.0187 17.352L24.2067 18.0263C25.1173 17.7725 26.0502 17.653 27.0078 17.6679L27.0187 16.968L27.0297 16.2681C25.9392 16.251 24.8722 16.3875 23.8308 16.6777L24.0187 17.352ZM27.0187 16.968L27.008 17.6679C27.983 17.6829 28.8396 17.8326 29.5865 18.1055L29.8267 17.448L30.067 16.7905C29.1498 16.4554 28.1345 16.2851 27.0295 16.2681L27.0187 16.968ZM29.8267 17.448L29.9548 16.7598L28.9228 16.5678L28.7947 17.256L28.6667 17.9442L29.6987 18.1362L29.8267 17.448ZM28.7947 17.256L29.4777 17.1023C29.3383 16.4828 29.2302 15.8724 29.1531 15.271L28.4587 15.36L27.7644 15.449C27.8473 16.0956 27.9632 16.7492 28.1118 17.4097L28.7947 17.256ZM28.4587 15.36L29.1551 15.2886C29.0928 14.6816 29.0627 14.1542 29.0627 13.704H28.3627H27.6627C27.6627 14.2138 27.6967 14.7904 27.7624 15.4314L28.4587 15.36ZM28.3627 13.704H29.0627C29.0627 12.677 29.2478 12.032 29.5106 11.6597L28.9387 11.256L28.3669 10.8523C27.8617 11.568 27.6627 12.555 27.6627 13.704H28.3627ZM28.9387 11.256L29.5084 11.6629C29.7572 11.3145 30.1205 11.116 30.7147 11.116V10.416V9.716C29.741 9.716 28.9203 10.0775 28.3691 10.8491L28.9387 11.256ZM30.7147 10.416V11.116C31.3575 11.116 31.8303 11.3221 32.197 11.7118L32.7067 11.232L33.2165 10.7522C32.5592 10.0539 31.704 9.716 30.7147 9.716V10.416ZM32.7067 11.232L32.2044 11.7195C32.6059 12.1332 32.9402 12.8065 33.1491 13.8212L33.8347 13.68L34.5204 13.5388C34.2813 12.3775 33.8636 11.4188 33.2091 10.7445L32.7067 11.232ZM33.8347 13.68L33.1483 13.8173C33.2708 14.4296 33.38 15.1829 33.4746 16.0813L34.1707 16.008L34.8669 15.9347C34.7695 15.0091 34.6547 14.2104 34.5212 13.5427L33.8347 13.68ZM34.1707 16.008L33.4746 16.0813C33.568 16.9686 33.6147 17.8642 33.6147 18.768H34.3147H35.0147C35.0147 17.8158 34.9655 16.8714 34.8669 15.9347L34.1707 16.008ZM34.3147 18.768H33.6147C33.6147 19.7249 33.5755 20.6984 33.4969 21.6886L34.1947 21.744L34.8926 21.7994C34.974 20.7736 35.0147 19.7631 35.0147 18.768H34.3147ZM34.1947 21.744L33.497 21.6877C33.4184 22.6626 33.3086 23.5708 33.1683 24.4129L33.8587 24.528L34.5492 24.6431C34.6969 23.7572 34.8111 22.8094 34.8925 21.8003L34.1947 21.744ZM33.8587 24.528L33.168 24.4146C33.0036 25.4161 32.7054 26.0354 32.3558 26.385L32.8507 26.88L33.3457 27.375C33.9881 26.7326 34.3619 25.7839 34.5495 24.6414L33.8587 24.528ZM32.8507 26.88L32.364 26.377C32.0462 26.6845 31.5085 26.9 30.6187 26.9V27.6V28.3C31.713 28.3 32.6633 28.0355 33.3375 27.383L32.8507 26.88ZM30.6187 27.6V26.9C29.9327 26.9 29.5559 26.668 29.323 26.2799L28.7227 26.64L28.1225 27.0001C28.6576 27.892 29.5448 28.3 30.6187 28.3V27.6ZM28.7227 26.64L29.323 26.2799C29.0405 25.809 28.8467 24.9376 28.8467 23.544H28.1467H27.4467C27.4467 24.9984 27.637 26.191 28.1225 27.0001L28.7227 26.64ZM28.1467 23.544H28.8467C28.8467 22.9801 28.919 22.3866 29.0677 21.7621L28.3867 21.6L27.7058 21.4379C27.5345 22.1574 27.4467 22.8599 27.4467 23.544H28.1467ZM28.3867 21.6L29.0677 21.7621C29.2176 21.1325 29.428 20.5083 29.6997 19.8894L29.0587 19.608L28.4178 19.3266C28.1135 20.0197 27.8759 20.7235 27.7058 21.4379L28.3867 21.6ZM29.0587 19.608L28.821 20.2664L29.685 20.5784L29.9227 19.92L30.1605 19.2616L29.2965 18.9496L29.0587 19.608ZM29.9227 19.92L29.7272 19.2479C28.9167 19.4836 28.0391 19.604 27.0907 19.604V20.304V21.004C28.1584 21.004 29.1688 20.8684 30.1183 20.5921L29.9227 19.92ZM27.0907 20.304L27.102 19.6041C26.1634 19.589 25.2495 19.4679 24.3592 19.2416L24.1867 19.92L24.0143 20.5984C25.012 20.8521 26.0341 20.987 27.0795 21.0039L27.0907 20.304ZM24.1867 19.92L24.4123 20.5827L25.5403 20.1987L25.3147 19.536L25.0892 18.8733L23.9612 19.2573L24.1867 19.92ZM25.3147 19.536L24.6564 19.7738C24.8512 20.3133 25.0012 20.8682 25.1063 21.4388L25.7947 21.312L26.4832 21.1852C26.3643 20.5398 26.1943 19.9107 25.9731 19.2982L25.3147 19.536ZM25.7947 21.312L25.1069 21.4421C25.2108 21.9908 25.2627 22.5473 25.2627 23.112H25.9627H26.6627C26.6627 22.4607 26.6027 21.8172 26.4825 21.1819L25.7947 21.312ZM25.9627 23.112H25.2627C25.2627 24.6322 24.9663 25.5951 24.5111 26.1462L25.0507 26.592L25.5904 27.0378C26.3512 26.1169 26.6627 24.7597 26.6627 23.112H25.9627ZM25.0507 26.592L24.5159 26.1404C24.0557 26.6853 23.4367 26.972 22.5787 26.972V27.672V28.372C23.8008 28.372 24.8298 27.9387 25.5856 27.0436L25.0507 26.592ZM22.5787 27.672V26.972C22.163 26.972 21.8767 26.8402 21.6539 26.5981L21.1387 27.072L20.6236 27.5459C21.1368 28.1038 21.8105 28.372 22.5787 28.372V27.672ZM21.1387 27.072L21.6548 26.599C21.438 26.3626 21.1957 25.8429 21.0096 24.8969L20.3227 25.032L19.6359 25.1671C19.8338 26.1731 20.1355 27.0134 20.6227 27.545L21.1387 27.072ZM20.3227 25.032L21.0123 24.9113C20.9059 24.3038 20.8202 23.5381 20.7571 22.6087L20.0587 22.656L19.3604 22.7033C19.4253 23.6619 19.5155 24.4802 19.6332 25.1527L20.3227 25.032ZM20.0587 22.656L20.7572 22.6094C20.6943 21.6663 20.6627 20.6739 20.6627 19.632H19.9627H19.2627C19.2627 20.7021 19.2952 21.7257 19.3603 22.7026L20.0587 22.656ZM19.9627 19.632H20.6627C20.6627 18.3619 20.7333 17.1418 20.8738 15.9714L20.1787 15.888L19.4837 15.8046C19.3362 17.0342 19.2627 18.3101 19.2627 19.632H19.9627ZM20.1787 15.888L20.8728 15.9793C21.0296 14.7876 21.2315 13.7762 21.4749 12.9395L20.8027 12.744L20.1306 12.5485C19.862 13.4718 19.6479 14.5564 19.4847 15.7967L20.1787 15.888ZM20.8027 12.744L21.4726 12.9473C21.7259 12.1128 22.0467 11.5077 22.4096 11.093L21.8827 10.632L21.3559 10.171C20.8228 10.7803 20.4236 11.5832 20.1329 12.5407L20.8027 12.744ZM21.8827 10.632L22.4086 11.0941C22.7234 10.7358 23.1461 10.54 23.7547 10.54V9.84V9.14C22.7954 9.14 21.9701 9.47222 21.3569 10.1699L21.8827 10.632ZM39.9172 25.296L39.4223 25.791L39.4305 25.7992L39.439 25.8072L39.9172 25.296ZM38.7892 22.824L38.1059 22.9759L38.1075 22.9828L38.7892 22.824ZM38.4532 20.856L37.7589 20.9446L37.7591 20.9465L38.4532 20.856ZM38.2372 18.6L38.9358 18.5554L38.9358 18.5554L38.2372 18.6ZM38.5252 12.264L39.2062 12.4261L39.2062 12.4261L38.5252 12.264ZM39.6052 10.176L39.1767 9.62242L39.168 9.62939L39.6052 10.176ZM43.1572 10.296L42.6449 10.773L42.6449 10.773L43.1572 10.296ZM44.2612 12.696L44.9404 12.5262L44.9375 12.515L44.2612 12.696ZM44.5732 14.28L43.8818 14.3892L43.8823 14.392L44.5732 14.28ZM44.8132 16.128L44.1167 16.1977L44.1169 16.1994L44.8132 16.128ZM44.9572 17.952L45.6562 17.9142L45.6562 17.9142L44.9572 17.952ZM44.7172 22.992L44.0304 22.8569L44.0287 22.8658L44.7172 22.992ZM43.7332 25.224L44.244 25.7028L44.2512 25.6949L43.7332 25.224ZM41.6692 25.992V25.292C41.1769 25.292 40.7633 25.1289 40.3955 24.7848L39.9172 25.296L39.439 25.8072C40.0632 26.3911 40.8176 26.692 41.6692 26.692V25.992ZM39.9172 25.296L40.4122 24.801C40.0713 24.4601 39.7331 23.7909 39.471 22.6652L38.7892 22.824L38.1075 22.9828C38.3894 24.1931 38.8032 25.1719 39.4223 25.791L39.9172 25.296ZM38.7892 22.824L39.4726 22.6721C39.3501 22.1208 39.2413 21.4859 39.1474 20.7655L38.4532 20.856L37.7591 20.9465C37.8572 21.6981 37.9724 22.3752 38.1059 22.9759L38.7892 22.824ZM38.4532 20.856L39.1476 20.7674C39.0535 20.0299 38.9829 19.2926 38.9358 18.5554L38.2372 18.6L37.5387 18.6446C37.5876 19.4114 37.661 20.1781 37.7589 20.9446L38.4532 20.856ZM38.2372 18.6L38.9358 18.5554C38.8885 17.814 38.8652 17.1654 38.8652 16.608H38.1652H37.4652C37.4652 17.2026 37.49 17.882 37.5387 18.6446L38.2372 18.6ZM38.1652 16.608H38.8652C38.8652 14.7378 38.9852 13.3543 39.2062 12.4261L38.5252 12.264L37.8443 12.1019C37.5853 13.1897 37.4652 14.7022 37.4652 16.608H38.1652ZM38.5252 12.264L39.2062 12.4261C39.4326 11.4752 39.7431 10.9621 40.0425 10.7226L39.6052 10.176L39.168 9.62939C38.5074 10.1579 38.0979 11.0368 37.8443 12.1019L38.5252 12.264ZM39.6052 10.176L40.0338 10.7295C40.3867 10.4563 40.8444 10.3 41.4532 10.3V9.6V8.9C40.5901 8.9 39.8158 9.12773 39.1767 9.62249L39.6052 10.176ZM41.4532 9.6V10.3C41.9867 10.3 42.3607 10.4677 42.6449 10.773L43.1572 10.296L43.6696 9.81901C43.0898 9.19626 42.3278 8.9 41.4532 8.9V9.6ZM43.1572 10.296L42.6449 10.773C42.9574 11.1087 43.2894 11.7721 43.585 12.877L44.2612 12.696L44.9375 12.515C44.6251 11.3479 44.221 10.4113 43.6696 9.81901L43.1572 10.296ZM44.2612 12.696L43.5821 12.8658C43.6878 13.2885 43.788 13.7953 43.8818 14.3892L44.5732 14.28L45.2647 14.1708C45.1664 13.5487 45.0587 12.9995 44.9403 12.5262L44.2612 12.696ZM44.5732 14.28L43.8823 14.392C43.9758 14.969 44.054 15.5708 44.1167 16.1977L44.8132 16.128L45.5098 16.0583C45.4445 15.4052 45.3627 14.775 45.2642 14.1679L44.5732 14.28ZM44.8132 16.128L44.1169 16.1994C44.1798 16.8129 44.2269 17.4096 44.2583 17.9898L44.9572 17.952L45.6562 17.9142C45.6236 17.3104 45.5747 16.6911 45.5096 16.0566L44.8132 16.128ZM44.9572 17.952L44.2583 17.9898C44.2898 18.5735 44.3052 19.0722 44.3052 19.488H45.0052H45.7052C45.7052 19.0398 45.6887 18.5145 45.6562 17.9142L44.9572 17.952ZM45.0052 19.488H44.3052C44.3052 20.8179 44.2111 21.9382 44.0304 22.8569L44.7172 22.992L45.4041 23.1271C45.6074 22.0938 45.7052 20.8781 45.7052 19.488H45.0052ZM44.7172 22.992L44.0287 22.8658C43.8679 23.7428 43.5807 24.3512 43.2153 24.7531L43.7332 25.224L44.2512 25.6949C44.8458 25.0408 45.2146 24.1612 45.4058 23.1182L44.7172 22.992ZM43.7332 25.224L43.2226 24.7452C42.9093 25.0794 42.4285 25.292 41.6692 25.292V25.992V26.692C42.702 26.692 43.5972 26.3926 44.2439 25.7028L43.7332 25.224ZM50.0683 26.88L49.6614 27.4496L49.6677 27.4541L49.674 27.4584L50.0683 26.88ZM49.3483 25.8L50.0188 25.5989L50.0188 25.5989L49.3483 25.8ZM48.9883 23.448L48.2909 23.5086L48.291 23.5095L48.9883 23.448ZM48.9403 15.864L48.2416 15.8214L48.2412 15.8295L48.9403 15.864ZM49.3483 12.408L48.6614 12.2731L48.6611 12.275L49.3483 12.408ZM50.1883 10.416L49.6747 9.94041L49.6698 9.94563L49.6651 9.95094L50.1883 10.416ZM53.5003 10.176L53.1067 10.7548L53.1199 10.7638L53.1334 10.7722L53.5003 10.176ZM54.4363 11.472L53.774 11.6986L53.7759 11.704L54.4363 11.472ZM54.7243 14.64L54.0255 14.5989L54.0243 14.6194V14.64H54.7243ZM54.6763 15.504L53.9802 15.4307L53.8988 16.204H54.6763V15.504ZM54.7723 15.504V16.204H55.2231L55.4096 15.7937L54.7723 15.504ZM56.9323 11.808L57.4741 12.2513L57.4741 12.2513L56.9323 11.808ZM62.7163 10.2L62.1646 10.631L62.173 10.6414L62.7163 10.2ZM61.9483 15.096L61.4491 14.6053L61.4449 14.6096L61.9483 15.096ZM57.4603 18.144L56.7913 17.9381L56.2977 19.5421L57.7848 18.7643L57.4603 18.144ZM57.6523 17.52L58.043 16.9392L57.2606 16.4129L56.9833 17.3141L57.6523 17.52ZM61.6123 20.976L61.0562 21.4012L61.0593 21.4052L61.6123 20.976ZM62.1163 26.28L62.5946 26.7913L62.6031 26.783L62.1163 26.28ZM57.8683 26.304L57.48 26.8864L57.48 26.8864L57.8683 26.304ZM56.0203 24.12L55.4061 24.4559L55.4084 24.46L56.0203 24.12ZM54.5083 20.016L55.1855 19.8388L55.0487 19.316H54.5083V20.016ZM54.4123 20.016V19.316H53.6564L53.7144 20.0697L54.4123 20.016ZM54.4363 20.664H53.7363V20.6909L53.7384 20.7177L54.4363 20.664ZM54.4363 21.288L53.7384 21.2343L53.7363 21.2611V21.288H54.4363ZM53.7643 25.872L53.1339 25.5677L53.1317 25.5723L53.7643 25.872ZM51.4123 27.24V26.54C50.9702 26.54 50.67 26.443 50.4626 26.3016L50.0683 26.88L49.674 27.4584C50.1706 27.797 50.7665 27.94 51.4123 27.94V27.24ZM50.0683 26.88L50.4752 26.3104C50.2907 26.1786 50.128 25.9629 50.0188 25.5989L49.3483 25.8L48.6778 26.0011C48.8566 26.5971 49.174 27.1014 49.6614 27.4496L50.0683 26.88ZM49.3483 25.8L50.0188 25.5989C49.8968 25.1921 49.7811 24.4691 49.6856 23.3865L48.9883 23.448L48.291 23.5095C48.3875 24.6029 48.5119 25.4479 48.6778 26.0011L49.3483 25.8ZM48.9883 23.448L49.6857 23.3874C49.5917 22.3063 49.5443 21.1348 49.5443 19.872H48.8443H48.1443C48.1443 21.1692 48.1929 22.3817 48.2909 23.5086L48.9883 23.448ZM48.8443 19.872H49.5443C49.5443 18.5068 49.5761 17.1824 49.6395 15.8985L48.9403 15.864L48.2412 15.8295C48.1766 17.1376 48.1443 18.4852 48.1443 19.872H48.8443ZM48.9403 15.864L49.639 15.9066C49.7177 14.6165 49.8508 13.4958 50.0356 12.541L49.3483 12.408L48.6611 12.275C48.4619 13.3042 48.3229 14.4875 48.2416 15.8214L48.9403 15.864ZM49.3483 12.408L50.0352 12.5429C50.1998 11.705 50.4455 11.1803 50.7115 10.8811L50.1883 10.416L49.6651 9.95094C49.1631 10.5157 48.8488 11.319 48.6614 12.2731L49.3483 12.408ZM50.1883 10.416L50.7019 10.8916C50.9296 10.6457 51.3076 10.468 51.9643 10.468V9.768V9.068C51.053 9.068 50.247 9.32227 49.6747 9.94041L50.1883 10.416ZM51.9643 9.768V10.468C52.4884 10.468 52.8522 10.5818 53.1067 10.7548L53.5003 10.176L53.8939 9.59715C53.3484 9.22618 52.6883 9.068 51.9643 9.068V9.768ZM53.5003 10.176L53.1334 10.7722C53.3726 10.9193 53.6018 11.1953 53.774 11.6986L54.4363 11.472L55.0986 11.2454C54.8548 10.5327 54.46 9.94468 53.8672 9.57984L53.5003 10.176ZM54.4363 11.472L53.7759 11.704C53.9467 12.1902 54.0483 12.9011 54.0483 13.872H54.7483H55.4483C55.4483 12.8269 55.3419 11.9378 55.0967 11.24L54.4363 11.472ZM54.7483 13.872H54.0483C54.0483 14.0966 54.0408 14.3388 54.0255 14.5989L54.7243 14.64L55.4231 14.6811C55.4398 14.3972 55.4483 14.1274 55.4483 13.872H54.7483ZM54.7243 14.64H54.0243C54.0243 14.8847 54.0099 15.1481 53.9802 15.4307L54.6763 15.504L55.3725 15.5773C55.4067 15.2519 55.4243 14.9393 55.4243 14.64H54.7243ZM54.6763 15.504V16.204H54.7723V15.504V14.804H54.6763V15.504ZM54.7723 15.504L55.4096 15.7937C56.1163 14.2389 56.807 13.0666 57.4741 12.2513L56.9323 11.808L56.3905 11.3647C55.6176 12.3094 54.8684 13.6011 54.1351 15.2143L54.7723 15.504ZM56.9323 11.808L57.4741 12.2513C58.1593 11.4138 58.7917 10.8756 59.3631 10.5832L59.0443 9.96L58.7255 9.33683C57.921 9.74844 57.1453 10.4422 56.3905 11.3647L56.9323 11.808ZM59.0443 9.96L59.3631 10.5832C59.9785 10.2683 60.5171 10.132 60.9883 10.132V9.432V8.732C60.2435 8.732 59.4861 8.94765 58.7255 9.33683L59.0443 9.96ZM60.9883 9.432V10.132C61.5631 10.132 61.9193 10.3168 62.1647 10.631L62.7163 10.2L63.2679 9.76905C62.7134 9.0592 61.9175 8.732 60.9883 8.732V9.432ZM62.7163 10.2L62.173 10.6414C62.4736 11.0114 62.6403 11.481 62.6403 12.096H63.3403H64.0403C64.0403 11.207 63.791 10.4126 63.2596 9.75858L62.7163 10.2ZM63.3403 12.096H62.6403C62.6403 12.9246 62.2828 13.7573 61.4491 14.6053L61.9483 15.096L62.4475 15.5867C63.4699 14.5467 64.0403 13.3794 64.0403 12.096H63.3403ZM61.9483 15.096L61.4449 14.6096C60.6108 15.473 59.1931 16.4476 57.1359 17.5237L57.4603 18.144L57.7848 18.7643C59.8875 17.6644 61.4619 16.607 62.4517 15.5824L61.9483 15.096ZM57.4603 18.144L58.1294 18.3499L58.3214 17.7259L57.6523 17.52L56.9833 17.3141L56.7913 17.9381L57.4603 18.144ZM57.6523 17.52L57.2617 18.1008C59.0392 19.2963 60.2896 20.3987 61.0563 21.4012L61.6123 20.976L62.1684 20.5508C61.271 19.3773 59.8815 18.1757 58.043 16.9392L57.6523 17.52ZM61.6123 20.976L61.0593 21.4052C61.8091 22.3713 62.1603 23.3595 62.1603 24.384H62.8603H63.5603C63.5603 23.0085 63.0795 21.7247 62.1653 20.5468L61.6123 20.976ZM62.8603 24.384H62.1603C62.1603 25.0066 61.9702 25.4472 61.6295 25.777L62.1163 26.28L62.6031 26.783C63.2544 26.1528 63.5603 25.3294 63.5603 24.384H62.8603ZM62.1163 26.28L61.6381 25.7688C61.3088 26.0769 60.8049 26.276 60.0283 26.276V26.976V27.676C61.0437 27.676 61.9318 27.4111 62.5945 26.7912L62.1163 26.28ZM60.0283 26.976V26.276C59.4058 26.276 58.8199 26.0971 58.2566 25.7216L57.8683 26.304L57.48 26.8864C58.2608 27.4069 59.1148 27.676 60.0283 27.676V26.976ZM57.8683 26.304L58.2566 25.7216C57.7085 25.3562 57.1597 24.7295 56.6322 23.78L56.0203 24.12L55.4084 24.46C56.0009 25.5265 56.6841 26.3558 57.48 26.8864L57.8683 26.304ZM56.0203 24.12L56.6345 23.7841C56.1121 22.8289 55.6257 21.5208 55.1855 19.8388L54.5083 20.016L53.8311 20.1932C54.287 21.9352 54.8085 23.3631 55.4062 24.4559L56.0203 24.12ZM54.5083 20.016V19.316H54.4123V20.016V20.716H54.5083V20.016ZM54.4123 20.016L53.7144 20.0697C53.7289 20.2586 53.7363 20.4566 53.7363 20.664H54.4363H55.1363C55.1363 20.4234 55.1277 20.1894 55.1103 19.9623L54.4123 20.016ZM54.4363 20.664L53.7384 20.7177C53.7516 20.8899 53.7516 21.0621 53.7384 21.2343L54.4363 21.288L55.1343 21.3417C55.153 21.0979 55.153 20.8541 55.1343 20.6103L54.4363 20.664ZM54.4363 21.288H53.7363C53.7363 23.3996 53.5088 24.7911 53.1339 25.5677L53.7643 25.872L54.3947 26.1763C54.9158 25.0969 55.1363 23.4324 55.1363 21.288H54.4363ZM53.7643 25.872L53.1317 25.5723C52.9691 25.9155 52.7565 26.1439 52.5004 26.2929C52.2391 26.4449 51.8875 26.54 51.4123 26.54V27.24V27.94C52.0731 27.94 52.6815 27.8071 53.2043 27.5031C53.7321 27.1961 54.1275 26.7405 54.3969 26.1717L53.7643 25.872ZM67.1752 27.312L67.7002 26.8488L67.6932 26.8411L67.1752 27.312ZM66.6472 22.368L67.3373 22.4855L67.3377 22.4831L66.6472 22.368ZM67.2232 19.968L66.5566 19.7542L66.5542 19.7621L67.2232 19.968ZM68.2072 17.376L68.8488 17.656L68.8488 17.656L68.2072 17.376ZM69.5512 14.76L68.9493 14.4026L68.949 14.4031L69.5512 14.76ZM71.3272 12.288L70.8134 11.8127L70.8129 11.8132L71.3272 12.288ZM73.1752 10.896L72.8938 10.255L72.888 10.2577L73.1752 10.896ZM80.1352 15.36L79.4648 15.5611L79.4659 15.5649L80.1352 15.36ZM80.7352 17.856L80.0465 17.9812L80.0469 17.9835L80.7352 17.856ZM81.0952 20.496L80.398 20.5583L80.3981 20.5594L81.0952 20.496ZM80.3272 26.616L80.8579 27.0726L80.863 27.0665L80.3272 26.616ZM75.6952 26.928L75.2244 27.446L75.2244 27.446L75.6952 26.928ZM74.7352 24.528L75.4318 24.4583L75.4314 24.4547L74.7352 24.528ZM74.7352 20.784L75.3186 20.3971L74.2476 18.7821L74.0393 20.7088L74.7352 20.784ZM76.2472 23.064L76.4606 23.7307L77.3422 23.4486L76.8306 22.6771L76.2472 23.064ZM74.7352 23.304L74.6985 22.605L74.6985 22.605L74.7352 23.304ZM72.8392 23.256L72.7696 23.9525L72.7713 23.9527L72.8392 23.256ZM71.0392 22.896L70.5259 22.4201L69.7733 23.2319L70.8294 23.5638L71.0392 22.896ZM73.1752 20.592L73.8747 20.6205L73.9521 18.7245L72.6619 20.1161L73.1752 20.592ZM73.0072 22.896L73.7033 22.9701L73.0072 22.896ZM72.6952 24.936L72.0103 24.7918L72.0086 24.7999L72.0071 24.808L72.6952 24.936ZM72.0952 26.688L71.4862 26.3429L71.4862 26.3429L72.0952 26.688ZM70.9912 27.768L70.6696 27.1462L70.6607 27.151L70.9912 27.768ZM75.7672 18.912L75.2549 18.435L75.2543 18.4357L75.7672 18.912ZM76.2952 16.224L75.6139 16.3843L75.6183 16.4031L75.6237 16.4215L76.2952 16.224ZM75.9592 15.504L75.3837 15.9024L75.3937 15.9169L75.4044 15.9308L75.9592 15.504ZM75.3832 15.024L75.0359 15.6318L75.061 15.6461L75.0872 15.6583L75.3832 15.024ZM72.8872 15.792L73.4547 16.2018L73.4547 16.2018L72.8872 15.792ZM72.4072 16.752L73.0743 16.9642L73.0743 16.9642L72.4072 16.752ZM72.7432 19.08L72.2369 19.5633L72.2425 19.5692L72.2483 19.575L72.7432 19.08ZM69.2632 28.128V27.428C68.4965 27.428 68.0145 27.2051 67.7001 26.8489L67.1752 27.312L66.6504 27.7751C67.296 28.5069 68.206 28.828 69.2632 28.828V28.128ZM67.1752 27.312L67.6932 26.8411C67.4002 26.5188 67.1552 25.7934 67.1552 24.432H66.4552H65.7552C65.7552 25.8546 65.9903 27.0492 66.6573 27.7829L67.1752 27.312ZM66.4552 24.432H67.1552C67.1552 23.8549 67.2145 23.2069 67.3373 22.4855L66.6472 22.368L65.9572 22.2505C65.824 23.0331 65.7552 23.7611 65.7552 24.432H66.4552ZM66.6472 22.368L67.3377 22.4831C67.46 21.7491 67.6444 20.9795 67.8923 20.1739L67.2232 19.968L66.5542 19.7621C66.2901 20.6205 66.0904 21.4509 65.9568 22.2529L66.6472 22.368ZM67.2232 19.968L67.8898 20.1818C68.1541 19.3579 68.4735 18.516 68.8488 17.656L68.2072 17.376L67.5657 17.096C67.173 17.996 66.8364 18.8821 66.5567 19.7542L67.2232 19.968ZM68.2072 17.376L68.8488 17.656C69.2208 16.8036 69.6555 15.9572 70.1534 15.1169L69.5512 14.76L68.949 14.4031C68.423 15.2908 67.9617 16.1884 67.5657 17.096L68.2072 17.376ZM69.5512 14.76L70.1531 15.1174C70.7453 14.1201 71.3091 13.3397 71.8416 12.7628L71.3272 12.288L70.8129 11.8132C70.1934 12.4843 69.5732 13.3519 68.9493 14.4026L69.5512 14.76ZM71.3272 12.288L71.8411 12.7633C72.3843 12.1761 72.9263 11.7756 73.4625 11.5343L73.1752 10.896L72.888 10.2577C72.1442 10.5924 71.4542 11.1199 70.8134 11.8127L71.3272 12.288ZM73.1752 10.896L73.4566 11.537C74.0124 11.2929 74.6507 11.164 75.3832 11.164V10.464V9.764C74.4838 9.764 73.6501 9.92305 72.8939 10.255L73.1752 10.896ZM75.3832 10.464V11.164C76.2308 11.164 76.9921 11.4891 77.6915 12.2021L78.1912 11.712L78.691 11.2219C77.7584 10.2709 76.6477 9.764 75.3832 9.764V10.464ZM78.1912 11.712L77.6915 12.2021C78.401 12.9256 79.0042 14.0258 79.4648 15.5611L80.1352 15.36L80.8057 15.1589C80.3063 13.4942 79.6135 12.1624 78.691 11.2219L78.1912 11.712ZM80.1352 15.36L79.4659 15.5649C79.6972 16.3205 79.891 17.1257 80.0465 17.9812L80.7352 17.856L81.424 17.7308C81.2595 16.8263 81.0533 15.9675 80.8046 15.1551L80.1352 15.36ZM80.7352 17.856L80.0469 17.9835C80.2029 18.8254 80.3199 19.6836 80.398 20.5583L81.0952 20.496L81.7925 20.4337C81.7106 19.5164 81.5876 18.6146 81.4235 17.7285L80.7352 17.856ZM81.0952 20.496L80.3981 20.5594C80.4763 21.4192 80.5152 22.262 80.5152 23.088H81.2152H81.9152C81.9152 22.218 81.8742 21.3328 81.7924 20.4326L81.0952 20.496ZM81.2152 23.088H80.5152C80.5152 24.6878 80.221 25.6548 79.7915 26.1655L80.3272 26.616L80.863 27.0665C81.6175 26.1692 81.9152 24.7842 81.9152 23.088H81.2152ZM80.3272 26.616L79.7966 26.1594C79.3621 26.6645 78.7401 26.948 77.8312 26.948V27.648V28.348C79.0664 28.348 80.1084 27.9435 80.8579 27.0726L80.3272 26.616ZM77.8312 27.648V26.948C77.0631 26.948 76.5347 26.7451 76.1661 26.41L75.6952 26.928L75.2244 27.446C75.9118 28.0709 76.8074 28.348 77.8312 28.348V27.648ZM75.6952 26.928L76.1661 26.41C75.8225 26.0976 75.536 25.501 75.4318 24.4583L74.7352 24.528L74.0387 24.5977C74.1585 25.795 74.512 26.7984 75.2244 27.446L75.6952 26.928ZM74.7352 24.528L75.4314 24.4547C75.3701 23.8722 75.3392 23.2727 75.3392 22.656H74.6392H73.9392C73.9392 23.3193 73.9724 23.9678 74.0391 24.6013L74.7352 24.528ZM74.6392 22.656H75.3392C75.3392 22.0226 75.3701 21.4239 75.4312 20.8592L74.7352 20.784L74.0393 20.7088C73.9723 21.3281 73.9392 21.9774 73.9392 22.656H74.6392ZM74.7352 20.784L74.1519 21.1709L75.6639 23.4509L76.2472 23.064L76.8306 22.6771L75.3186 20.3971L74.7352 20.784ZM76.2472 23.064L76.0339 22.3973C75.7104 22.5008 75.2708 22.5748 74.6985 22.605L74.7352 23.304L74.772 24.003C75.4157 23.9692 75.9841 23.8832 76.4606 23.7307L76.2472 23.064ZM74.7352 23.304L74.6985 22.605C74.1281 22.635 73.5312 22.6202 72.9072 22.5593L72.8392 23.256L72.7713 23.9527C73.4593 24.0198 74.1264 24.037 74.772 24.003L74.7352 23.304ZM72.8392 23.256L72.9089 22.5595C72.312 22.4998 71.7594 22.3886 71.2491 22.2282L71.0392 22.896L70.8294 23.5638C71.4391 23.7554 72.0865 23.8842 72.7696 23.9525L72.8392 23.256ZM71.0392 22.896L71.5526 23.3719L73.6886 21.0679L73.1752 20.592L72.6619 20.1161L70.5259 22.4201L71.0392 22.896ZM73.1752 20.592L72.4758 20.5635C72.4444 21.3328 72.3895 22.0856 72.3112 22.8219L73.0072 22.896L73.7033 22.9701C73.785 22.2024 73.8421 21.4192 73.8747 20.6205L73.1752 20.592ZM73.0072 22.896L72.3112 22.8219C72.2332 23.5552 72.1325 24.2113 72.0103 24.7918L72.6952 24.936L73.3802 25.0802C73.514 24.4447 73.6213 23.7408 73.7033 22.9701L73.0072 22.896ZM72.6952 24.936L72.0071 24.808C71.8896 25.4392 71.7113 25.9457 71.4862 26.3429L72.0952 26.688L72.7043 27.0331C73.0232 26.4703 73.2449 25.8088 73.3834 25.064L72.6952 24.936ZM72.0952 26.688L71.4862 26.3429C71.2772 26.7117 71.0061 26.9722 70.6696 27.1462L70.9912 27.768L71.3128 28.3898C71.9044 28.0838 72.3693 27.6243 72.7043 27.0331L72.0952 26.688ZM70.9912 27.768L70.6607 27.151C70.3459 27.3196 69.894 27.428 69.2632 27.428V28.128V28.828C70.0405 28.828 70.7406 28.6964 71.3218 28.385L70.9912 27.768ZM74.0632 19.584V20.284C74.9402 20.284 75.7081 20.0044 76.2802 19.3883L75.7672 18.912L75.2543 18.4357C74.9944 18.7156 74.6263 18.884 74.0632 18.884V19.584ZM75.7672 18.912L76.2796 19.389C76.8515 18.7747 77.1152 17.9945 77.1152 17.112H76.4152H75.7152C75.7152 17.7015 75.547 18.1213 75.2549 18.435L75.7672 18.912ZM76.4152 17.112H77.1152C77.1152 16.7336 77.0679 16.3703 76.9668 16.0265L76.2952 16.224L75.6237 16.4215C75.6826 16.6217 75.7152 16.8504 75.7152 17.112H76.4152ZM76.2952 16.224L76.9766 16.0637C76.8914 15.7013 76.7386 15.3691 76.5141 15.0772L75.9592 15.504L75.4044 15.9308C75.4999 16.0549 75.5711 16.2027 75.6139 16.3843L76.2952 16.224ZM75.9592 15.504L76.5348 15.1056C76.3168 14.7907 76.0262 14.5516 75.6793 14.3897L75.3832 15.024L75.0872 15.6583C75.2203 15.7204 75.3137 15.8013 75.3837 15.9024L75.9592 15.504ZM75.3832 15.024L75.7305 14.4162C75.3833 14.2178 74.9952 14.132 74.5912 14.132V14.832V15.532C74.7953 15.532 74.9352 15.5742 75.0359 15.6318L75.3832 15.024ZM74.5912 14.832V14.132C74.1162 14.132 73.669 14.2526 73.2662 14.4987L73.6312 15.096L73.9963 15.6933C74.1695 15.5874 74.3623 15.532 74.5912 15.532V14.832ZM73.6312 15.096L73.2662 14.4987C72.8948 14.7257 72.5792 15.0229 72.3198 15.3822L72.8872 15.792L73.4547 16.2018C73.6112 15.9851 73.7916 15.8183 73.9963 15.6933L73.6312 15.096ZM72.8872 15.792L72.3198 15.3822C72.0666 15.7327 71.8738 16.1199 71.7402 16.5398L72.4072 16.752L73.0743 16.9642C73.1647 16.6801 73.2919 16.4273 73.4547 16.2018L72.8872 15.792ZM72.4072 16.752L71.7402 16.5398C71.6085 16.9536 71.5392 17.3692 71.5392 17.784H72.2392H72.9392C72.9392 17.5268 72.982 17.2544 73.0743 16.9642L72.4072 16.752ZM72.2392 17.784H71.5392C71.5392 18.4657 71.7696 19.0738 72.2369 19.5633L72.7432 19.08L73.2496 18.5967C73.0449 18.3822 72.9392 18.1263 72.9392 17.784H72.2392ZM72.7432 19.08L72.2483 19.575C72.7348 20.0615 73.3628 20.284 74.0632 20.284V19.584V18.884C73.6757 18.884 73.4236 18.7705 73.2382 18.585L72.7432 19.08Z" fill="#C45500" mask="url(#path-1-outside-1_259_5336)"/>
<defs>
<linearGradient id="paint0_linear_259_5336" x1="41.1256" y1="5.74047" x2="41.1256" y2="31.0691" gradientUnits="userSpaceOnUse">
<stop stop-color="#FEFAAC"/>
<stop offset="1" stop-color="#FF9900"/>
</linearGradient>
</defs>
</svg>
