<svg width="136" height="285" viewBox="0 0 136 285" fill="none" xmlns="http://www.w3.org/2000/svg">
<path d="M40.3479 157.78C40.3479 157.78 35.1959 178.826 32.8179 185.508C30.4399 192.19 24.0989 213.236 24.0989 213.236L30.1429 213.737C30.1429 213.737 42.7269 186.51 43.9159 183.671C45.1049 180.831 49.8609 160.954 49.8609 160.954L40.3479 157.78Z" fill="#E8AE8B"/>
<path d="M34.6849 158.253C34.0989 160.27 51.4849 162.453 51.4849 162.453L58.9849 138.153C58.9849 138.153 40.0849 139.653 34.6849 158.253Z" fill="#F36C36"/>
<path d="M35.4349 156.753C35.4349 156.753 45.7849 159.753 50.8849 159.753" stroke="#333333" stroke-width="1.1339" stroke-miterlimit="10" stroke-linecap="round" stroke-linejoin="round"/>
<path d="M103.41 155.98C103.41 155.98 106.977 168.307 109.355 174.988C120.176 160.855 125.13 155.307 125.13 155.307L129.49 158.478C129.49 158.478 106.106 213.37 99.0499 177.115C98.4619 174.093 93.8979 159.154 93.8979 159.154L103.41 155.98Z" fill="#E8AE8B"/>
<path d="M83.2849 136.353L91.0849 162.153L107.285 157.053C107.285 157.053 103.985 141.153 83.2849 136.353Z" fill="#F36C36"/>
<path d="M123.874 161.705C121.409 160.706 120.103 157.735 120.147 155.855C120.183 154.314 120.552 151.756 120.628 150.533C120.651 150.163 120.98 149.884 121.407 149.855C121.415 149.854 121.424 149.854 121.432 149.853C121.928 149.82 122.391 150.142 122.481 150.574L123.148 153.758C123.148 153.758 125.41 146.7 126.799 147.107C128.188 147.514 126.001 153.502 126.001 153.502C126.001 153.502 128.643 146.982 130.309 147.59C131.942 148.186 128.566 155.137 128.566 155.137C128.566 155.137 131.01 148.402 133.153 149.127C134.415 149.554 131.663 154.87 131.663 154.87L131.122 156.303C131.122 156.303 133.91 150.801 134.985 151.393C136.06 151.985 133.216 157.234 133.216 157.234C133.216 157.234 130.471 163.417 127.204 162.924C123.94 162.427 123.874 161.705 123.874 161.705Z" fill="#E8AE8B"/>
<path d="M91.085 159.453L106.235 155.253" stroke="#333333" stroke-width="1.1339" stroke-miterlimit="10" stroke-linecap="round" stroke-linejoin="round"/>
<path d="M92.7879 208.925C92.7879 208.925 95.5849 261.992 97.0319 277.441C89.0759 278.042 88.6969 277.211 88.6969 277.211C88.6969 277.211 82.0129 256.129 81.0359 245.217C80.7379 241.889 80.1479 238.675 79.4129 235.589C76.1779 221.998 77.0319 212.037 77.0319 212.037L92.7879 208.925Z" fill="#E8AE8B"/>
<path d="M97.0489 277.492C97.0489 277.492 99.1729 280.189 104.229 279.969C109.285 279.749 111.326 281.927 110.319 284.133C105.784 285.824 99.6679 283.306 97.3589 283.892C95.0499 284.478 87.6129 284.662 86.6679 283.475C85.7159 279.611 88.7199 277.316 88.7199 277.316L97.0489 277.492Z" fill="#7A8367"/>
<path d="M53.2989 208.925C53.2989 208.925 50.5019 261.992 49.0559 277.441C57.0119 278.042 57.3909 277.211 57.3909 277.211C57.3909 277.211 64.0749 256.129 65.0519 245.217C65.3499 241.889 65.9399 238.675 66.6749 235.589C69.9099 221.998 69.0559 212.037 69.0559 212.037L53.2989 208.925Z" fill="#E8AE8B"/>
<path d="M95.4859 255.833C91.3249 256.05 87.1549 256.225 82.9769 256.331C85.2689 266.398 88.696 277.211 88.696 277.211C88.696 277.211 89.0749 278.042 97.0309 277.441C96.6219 273.066 96.0589 264.909 95.4859 255.833Z" fill="#29ABE2"/>
<path d="M49.0549 277.441C57.0109 278.042 57.39 277.211 57.39 277.211C57.39 277.211 60.8639 266.251 63.1559 256.126C58.9689 255.9 54.798 255.55 50.653 255.001C50.062 264.408 49.4779 272.93 49.0549 277.441Z" fill="#29ABE2"/>
<path d="M49.0379 277.492C49.0379 277.492 46.914 280.189 41.858 279.969C36.802 279.749 34.76 281.927 35.768 284.133C40.303 285.824 46.419 283.306 48.728 283.892C51.037 284.478 58.474 284.662 59.419 283.475C60.371 279.611 57.367 277.316 57.367 277.316L49.0379 277.492Z" fill="#7A8367"/>
<path d="M50.6499 258.567L61.9769 259.625" stroke="#333333" stroke-width="1.1339" stroke-miterlimit="10" stroke-linecap="round" stroke-linejoin="round"/>
<path d="M50.3949 261.768L61.0989 262.851" stroke="#333333" stroke-width="1.1339" stroke-miterlimit="10" stroke-linecap="round" stroke-linejoin="round"/>
<path d="M95.3139 258.567L83.9869 259.625" stroke="#333333" stroke-width="1.1339" stroke-miterlimit="10" stroke-linecap="round" stroke-linejoin="round"/>
<path d="M95.5679 261.768L84.8629 262.851" stroke="#333333" stroke-width="1.1339" stroke-miterlimit="10" stroke-linecap="round" stroke-linejoin="round"/>
<path d="M27.8769 212.719C30.5159 213.043 32.5499 215.573 32.9959 217.4C33.3609 218.897 33.6699 221.463 33.9149 222.664C33.9889 223.028 33.7439 223.382 33.3389 223.522C33.3309 223.525 33.3229 223.527 33.3149 223.53C32.8449 223.69 32.3139 223.5 32.1139 223.107L30.6419 220.206C30.6419 220.206 30.2919 227.609 28.8449 227.577C27.3979 227.545 27.9539 221.195 27.9539 221.195C27.9539 221.195 27.0969 228.178 25.3299 228.024C23.5979 227.873 25.0519 220.284 25.0519 220.284C25.0519 220.284 24.4429 227.423 22.1839 227.279C20.8549 227.194 22.1309 221.346 22.1309 221.346L22.2809 219.822C22.2809 219.822 21.0189 225.86 19.8269 225.568C18.6349 225.276 20.0169 219.468 20.0169 219.468C20.0169 219.468 21.0599 212.784 24.3429 212.412C27.6249 212.038 27.8769 212.719 27.8769 212.719Z" fill="#E8AE8B"/>
<path d="M49.9849 193.053L50.8849 210.453L48.4849 245.253L67.9849 246.753C67.9849 246.753 73.6849 208.353 73.6849 210.453C73.6849 212.553 77.5849 247.053 78.4849 246.753C79.3849 246.453 97.9849 243.453 97.9849 243.453C97.9849 243.453 94.6849 204.453 94.6849 203.553C94.6849 202.653 91.9849 190.653 91.9849 190.653L49.9849 193.053Z" fill="#824737"/>
<path opacity="0.1" d="M73.3139 206.51C68.0349 207.581 76.0409 195.603 67.0379 201.202C66.6369 201.451 64.2979 206.037 63.3869 202.936C62.6229 200.332 67.1509 197.995 68.4109 200.05C69.4599 199.023 70.5099 197.997 71.5589 196.97C70.8619 196.553 67.7539 195.824 67.3399 195.303C67.5989 195.629 65.5469 192.397 66.9469 193.303C64.1999 191.526 64.3669 193.972 63.9819 197.22C62.7979 196.897 61.6149 196.574 60.4309 196.251C61.5219 194.88 62.6129 193.509 63.7039 192.138C60.4999 192.138 56.2399 192.318 58.6189 196.01C56.0319 196.847 56.5189 193.88 54.9409 193.031C54.0889 192.572 51.7789 193.031 50.7729 193.031C52.2679 197.163 50.6349 202.275 51.9939 207.026C52.9429 210.344 51.8099 209.248 50.9119 211.787C50.0529 214.216 51.3139 216.895 51.3369 219.192C51.3579 221.239 50.2919 222.757 49.9529 224.664C49.4259 227.631 50.1479 230.771 49.8889 233.758C49.5249 237.962 49.6559 242 48.9819 245.83C52.9079 246.161 54.2149 246.721 57.6839 245.148C58.4569 247.687 61.3349 246.667 63.7839 246.667C62.9509 243.11 67.8539 244.006 64.2579 247.58C67.0529 248.402 66.7439 246.017 69.381 246.2C69.568 243.656 68.1719 241.736 68.1409 239.436C68.1129 237.346 69.9889 235.686 69.2019 233.69C67.0429 236.086 65.0849 237.059 63.8699 233.257C62.7829 229.856 63.4979 225.868 67.5039 227.918C67.8139 226.425 66.1459 224.13 64.4809 224.497C63.4209 224.731 63.2359 226.725 62.2319 227.119C59.6559 228.13 58.1099 225.44 58.3279 229.732C57.6109 229.866 54.4449 226.84 54.9259 225.853C55.6249 224.415 59.9509 225.434 61.6499 224.41C62.9009 223.656 64.2409 222.598 65.4249 221.853C66.6039 221.112 67.2229 221.152 68.1799 219.744C69.5889 217.671 68.3669 213.227 70.1669 212.147C70.8379 213.14 71.5309 214.184 72.8779 214.225C72.8779 212.618 71.5969 210.245 70.1319 209.36C67.6659 207.871 67.621 209.12 65.131 208.766C65.866 207.423 66.6009 206.08 67.3359 204.738C69.7619 206.14 71.833 206.932 73.183 209.377C73.512 208.421 73.8419 207.464 74.1709 206.508C73.8879 206.507 73.6009 206.508 73.3139 206.51ZM54.7499 224.088C53.6769 224.46 52.734 224.787 51.601 225.179C52.717 223.212 53.2409 223.027 54.7499 224.088ZM53.3669 228.401C52.8479 229.102 52.3209 228.954 51.7329 228.567C52.3769 228.05 52.3769 228.05 53.3669 228.401ZM53.903 245.993C51.519 246.15 53.6879 243.516 53.8529 244.176C53.9159 244.428 55.274 245.903 53.903 245.993ZM61.7499 243.526C59.8399 243.779 57.1579 242.824 59.6539 241.325C62.3549 239.702 64.3629 243.178 61.7499 243.526ZM66.4739 240.283C67.2029 241.266 67.9319 242.249 68.6609 243.233C66.9529 244.516 65.4359 243.296 64.5199 241.751C65.1709 241.261 65.8219 240.772 66.4739 240.283ZM61.8559 237.056C62.9549 237.759 64.1029 238.371 65.2979 238.893C63.7939 240.791 60.0689 239.503 61.8559 237.056ZM60.1979 231.888C60.7879 231.927 61.0709 231.805 60.9049 232.386C60.3189 232.545 60.1789 232.409 60.1979 231.888ZM59.6259 234.617C59.7799 235.639 59.1579 235.809 57.7599 235.127C57.7929 234.384 59.0209 234.043 59.6259 234.617ZM57.6719 230.164C58.4109 231.391 59.2269 233.804 56.4999 232.109C56.8899 231.46 57.2809 230.812 57.6719 230.164ZM57.5199 239.901C55.0819 240.961 53.6619 241.429 53.6989 238.25C55.1019 239.484 55.6589 239.746 57.5199 239.901ZM55.2369 233.404C55.8429 233.418 52.938 235.139 52.851 235.227C51.278 236.818 53.9049 237.516 50.6789 237.995C50.3489 234.416 52.0009 233.332 55.2369 233.404ZM52.8069 221.562C52.6839 220.695 52.6839 220.695 55.0129 219.047C55.1139 220.386 54.9079 220.62 52.8069 221.562ZM53.8029 214.495C53.0809 213.229 53.0809 213.229 53.6589 212.003C54.9669 212.546 54.9839 212.707 53.8029 214.495ZM54.3329 215.908C53.9699 216.668 53.6719 216.61 53.4399 215.734C53.2489 214.888 54.4509 216.133 54.3329 215.908ZM54.8289 206.39C54.2419 205.81 54.1869 205.161 54.6649 204.442C54.8549 204.387 55.0409 204.398 55.2229 204.475C55.6249 205.247 55.4939 205.885 54.8289 206.39ZM53.9879 202.271C53.4239 201.713 52.8599 201.155 52.2959 200.597C53.4399 200.143 54.5839 199.69 55.7279 199.236C55.1479 200.247 54.5679 201.259 53.9879 202.271ZM68.2549 210.206C69.2969 210.113 69.627 210.391 69.243 211.041C68.2229 211.106 67.8939 210.827 68.2549 210.206ZM62.1219 199.693C60.5309 200.362 60.5319 200.355 59.9969 198.918C60.9979 198.923 60.9979 198.923 62.1219 199.693ZM57.9669 213.643C57.6369 213.469 57.306 213.294 56.976 213.12C57.01 212.874 57.0879 212.641 57.2079 212.422C58.0909 212.616 58.2839 212.938 57.9669 213.643ZM58.8609 220.32C58.1719 220.017 58.151 219.609 58.799 219.097C59.504 219.547 59.5239 219.954 58.8609 220.32ZM58.5739 208.1C58.0579 208.533 57.4679 208.831 56.8049 208.994C56.8899 208.061 56.9759 207.128 57.0609 206.195C57.7739 206.308 58.4229 206.174 59.0069 205.795C59.6459 204.456 58.8519 203.348 59.1479 201.507C60.7209 201.536 61.6209 204.484 61.2269 205.675C60.5029 207.865 58.9799 206.511 58.5739 208.1ZM61.1849 215.931C61.5499 216.823 61.5359 217.537 60.1849 217.615C60.5179 217.054 60.8509 216.493 61.1849 215.931ZM64.1319 213.854C63.3689 214.613 62.2359 215.672 61.2169 215.841C61.7529 213.332 61.4849 210.118 61.4849 207.451C62.4529 208.026 63.421 208.6 64.39 209.175C63.01 211.465 62.7679 211.588 64.1319 213.854ZM66.6019 216.226C64.8029 215.575 66.3059 214.752 67.2009 214.723C67.0009 215.224 66.8009 215.725 66.6019 216.226ZM67.2709 213.265C68.0269 213.272 68.0269 213.697 67.2709 214.539C67.2709 214.114 67.2709 213.689 67.2709 213.265ZM65.4749 210.452C66.9159 209.344 67.1619 211.562 65.8059 212.69C64.8369 212.028 64.7269 211.282 65.4749 210.452ZM65.0259 205.979C64.9699 206.216 63.6909 204.751 65.1679 204.949C65.1209 205.292 65.0739 205.635 65.0259 205.979ZM69.243 204.014C68.9109 203.77 68.8689 203.508 69.118 203.228C69.756 203.365 69.798 203.627 69.243 204.014ZM70.3359 222.145C69.1359 221.266 67.5929 223.319 66.8789 223.942C68.0849 224.359 69.2899 224.776 70.4959 225.193C70.9679 224.129 70.9139 223.113 70.3359 222.145ZM73.5859 195.375C74.1899 193.217 73.1509 191.577 70.7029 192.434C71.8359 193.43 71.9529 194.906 73.5859 195.375ZM69.2329 228.864C68.9389 229.02 68.6449 229.176 68.3499 229.332C69.8759 230.087 69.4069 231.388 68.6599 232.524C71.9329 232.621 71.5149 230.598 69.2329 228.864ZM70.5249 225.268C70.3099 225.983 70.0949 226.697 69.8799 227.412C71.8949 227.501 72.9869 225.317 70.5249 225.268ZM65.7839 233.373C67.0359 232.678 67.5369 231.487 66.9939 230.168C66.0199 231.425 65.1989 231.874 65.7839 233.373ZM72.0159 217.385C71.9459 217.02 71.7889 216.695 71.5439 216.411C70.3869 217.236 70.7549 216.779 70.7549 219.01C71.5569 219.146 71.9769 218.604 72.0159 217.385ZM72.7739 198.654C72.5509 199.373 72.4229 199.785 72.3009 200.178C72.8039 199.975 73.1299 199.663 72.7739 198.654Z" fill="black"/>
<path d="M48.9349 242.103C50.4349 242.103 67.5349 243.903 67.5349 243.903" stroke="#333333" stroke-width="1.1339" stroke-miterlimit="10" stroke-linecap="round" stroke-linejoin="round"/>
<path d="M78.335 243.303L97.385 240.603" stroke="#333333" stroke-width="1.1339" stroke-miterlimit="10" stroke-linecap="round" stroke-linejoin="round"/>
<path d="M50.885 204.303C50.885 204.303 58.535 206.103 56.885 197.853" stroke="#333333" stroke-width="1.1339" stroke-miterlimit="10" stroke-linecap="round" stroke-linejoin="round"/>
<path d="M84.335 198.303C84.335 198.303 86.585 208.353 93.185 201.603" stroke="#333333" stroke-width="1.1339" stroke-miterlimit="10" stroke-linecap="round" stroke-linejoin="round"/>
<path d="M70.9849 134.553C56.3959 136.565 53.2849 142.653 52.6849 145.953C52.0849 149.253 47.2849 193.653 47.2849 193.653C47.2849 193.653 76.9849 209.853 94.0849 191.853C92.2849 153.453 89.8849 144.453 89.8849 144.453C89.8849 144.453 88.3849 132.153 70.9849 134.553Z" fill="#F8991D"/>
<path d="M61.8229 121.518L60.6609 140.273L70.4819 149.679C70.4819 149.679 78.2109 142.243 79.2489 139.101C80.9919 132.068 79.2489 123.277 79.2489 123.277L61.8229 121.518Z" fill="#E39768"/>
<path d="M15.1329 47.2707C4.21291 92.5367 14.8499 131.691 75.1679 130.078C137.412 128.413 125.702 57.1857 117.302 41.8537C71.1019 41.1237 15.1329 47.2707 15.1329 47.2707Z" fill="#E8AE8B"/>
<path opacity="0.05" d="M52.0219 108.704C52.6779 108.702 52.758 108.28 52.506 107.663C51.968 108.272 51.707 108.706 52.0219 108.704ZM46.1759 115.897C44.8229 117.584 43.11 117.772 41.036 116.46C43.75 110.411 43.09 113.569 46.389 110.861C41.359 106.819 47.3219 109.616 47.4379 104.428C45.9489 105.809 44.2139 106.277 42.2319 105.83C42.7389 107.159 42.529 108.284 41.601 109.202C37.06 110.646 40.924 99.7379 42.518 99.3849C39.691 96.8279 39.6229 92.8738 42.5369 97.2368C42.8209 95.4138 43.8599 94.4079 45.6539 94.2179C45.3269 94.8659 45.082 95.5488 44.92 96.2658C44.879 96.1878 54.71 104.56 45.782 101.515C45.912 104.308 48.227 104.156 47.872 103.415C46.714 100.994 51.63 105.517 52.506 107.663C53.689 106.328 56.2109 104.153 56.9139 103.907C55.1579 102.313 53.896 104.793 52.1209 103.836C54.173 102.554 54.1969 101.204 52.1899 99.7868C50.2179 103.222 48.253 93.7568 54.941 98.1538C53.53 92.7058 45.489 95.5708 42.134 93.0918C41.169 94.5278 40.2829 94.4358 39.4769 92.8158C40.2399 91.5538 41.332 90.7359 42.755 90.3639C42.569 89.0759 42.3169 87.7999 41.9999 86.5379C40.6369 86.3379 39.5529 85.6469 38.7479 84.4659C45.1489 83.3008 41.7859 83.8109 44.8919 87.4289C44.4509 86.9149 45.4509 95.0378 46.9779 92.0988C47.9229 90.2778 46.5229 90.1579 47.8959 88.2289C48.2709 87.7019 51.0229 88.3979 50.117 84.4138C49.323 80.9179 43.023 82.2958 44.695 78.1978C40.625 78.6578 36.628 74.5178 37.696 68.5948C39.297 69.8128 39.9539 71.4079 39.6669 73.3769C43.6589 73.4549 43.6369 69.5428 47.8879 72.5078C45.9869 70.4058 47.28 70.1609 48.411 68.2539C46.797 68.2539 43.792 69.0449 42.816 67.6449C42.806 67.6309 41.699 63.7708 42.795 64.4348C43.179 64.6678 40.0769 61.8318 38.4129 61.5288C41.8929 59.4338 45.031 59.2199 45.031 54.9589C43.145 55.0229 42.152 57.3549 40.251 56.2719C41.107 55.2849 43.3999 52.4578 40.8649 51.4248C41.7049 51.7668 35.937 52.9648 35.64 53.2488C37.92 54.2378 39.358 55.9168 39.975 58.2698C39.057 57.5668 34.322 56.4338 34.294 56.3908C32.842 54.1358 35.5859 51.6869 34.2069 48.5179C31.4019 42.0709 31.945 49.8218 30.91 50.9548C28.814 49.6648 28.411 47.9499 29.703 45.8109C27.109 46.0609 21.6609 46.2309 20.7669 47.9789C19.5759 50.3079 23.212 50.6438 23.191 53.5368C20.236 52.3798 18.7999 46.4378 15.2659 48.3138C12.9689 49.5328 16.583 55.1528 16.522 55.0258C16.921 55.8668 19.636 53.8768 20.337 55.8778C19.856 54.5028 17.205 60.5029 17.032 61.5999C16.464 59.2039 16.0699 56.3549 13.3319 56.0349C13.3319 60.0119 12.3419 63.1439 12.5629 67.1679C12.6279 68.3499 11.961 70.1588 11.773 71.3548C11.574 72.6198 14.6279 70.9258 13.8579 73.3858C13.1439 73.0438 12.43 72.7018 11.716 72.3598C11.716 80.4558 10.354 89.0159 17.932 93.6529C16.851 96.3099 15.676 93.0328 14.285 94.4428C14.66 98.5548 16.342 101.908 18.294 105.382C18.763 106.217 20.2109 109.741 20.6019 109.957C24.1249 111.906 22.3629 108.769 25.5499 109.313C26.1489 111.177 25.265 112.268 22.897 112.586C23.51 115.226 30.904 119.228 32.596 121.128C35.694 117.694 33.2499 115.634 38.4769 116.57C37.0859 115.02 37.2019 113.729 38.8229 112.698C39.1459 112.942 40.042 116.536 39.492 116.38C40.142 117.311 40.7919 118.242 41.4429 119.172C43.0989 118.105 44.804 118.033 46.558 118.956C42.256 122.768 42.595 120.124 38.618 121.119C37.267 121.457 34.6139 121.131 34.1229 122.531C36.8509 123.938 39.1689 122.83 39.6749 125.806C41.9539 124.813 44.1 124.376 45.023 122.322C49.5 124.393 47.8549 117.793 46.1759 115.897ZM46.6409 123.07C46.4729 123.186 46.6339 123.067 46.6409 123.07V123.07ZM49.1509 88.9898C48.9869 89.1008 49.1419 88.9838 49.1509 88.9898V88.9898ZM47.419 107.552C47.289 107.629 47.385 107.554 47.419 107.552V107.552ZM34.8909 47.5659C34.7709 47.7169 34.8719 47.5869 34.8909 47.5659V47.5659ZM36.532 50.8249C39.773 51.3799 38.4349 48.5668 41.2909 49.2528C42.4559 49.5328 44.2659 50.9918 45.4389 51.5588C46.2119 51.9328 44.104 53.8448 45.855 54.1368C51.055 55.0038 46.6409 50.6409 46.3739 48.4789C42.9899 51.3189 38.4739 43.0798 34.8919 47.5648C37.5019 47.9638 38.049 49.0499 36.532 50.8249ZM47.8449 61.9348C48.5179 62.7608 49.1919 63.5869 49.8649 64.4129C50.5639 61.8269 51.2099 56.5548 47.1029 58.4388C45.1389 59.3398 43.5239 66.1618 46.9519 65.7328C48.2869 64.3498 45.5119 63.0718 47.8449 61.9348ZM58.4129 82.0199C56.8669 82.0489 54.5439 84.8839 54.2669 85.1369C54.7289 84.7149 49.5859 90.1268 51.7889 88.1588C54.452 85.7788 56.068 86.1839 59.191 86.3089C57.862 86.2559 62.5319 93.2849 63.0779 88.3919C60.7229 87.9139 58.0599 84.3669 58.4129 82.0199ZM57.923 119.397C59.0079 115.923 54.5859 117.602 53.1809 116.628C52.1039 117.391 51.0279 117.4 49.9519 116.655C50.2559 115.387 50.004 114.245 49.195 113.231C46.458 115.228 47.01 117.14 50.851 118.965C50.563 119.506 50.2749 120.046 49.9869 120.587C50.5889 121.012 54.9109 118.054 57.923 119.397ZM49.1839 113.224C49.1889 113.227 49.3559 113.088 49.1839 113.224V113.224ZM50.023 48.3868C49.928 48.2408 50.02 48.3538 50.023 48.3868V48.3868ZM47.4979 46.7169C49.2859 49.1219 52.333 47.1358 54.286 49.1118C54.71 48.5978 55.1349 48.0848 55.5589 47.5718C53.9629 46.8838 50.8379 46.3999 50.4299 44.2769C47.2329 44.8029 52.8909 46.2229 47.4979 46.7169ZM49.571 70.1189C48.541 72.5389 51.775 73.4978 52.242 75.9018C52.631 77.2328 53.4209 78.2598 54.6119 78.9828C54.4419 75.2478 52.037 72.6159 49.571 70.1189ZM49.018 51.6269C49.172 51.9599 51.83 56.8928 51.877 56.8918C52.075 55.0928 52.2719 53.2928 52.4699 51.4938C50.0459 51.8028 49.922 50.3559 49.963 48.4329C48.344 49.1269 48.029 50.1909 49.018 51.6269ZM50.0249 48.3878C49.9119 48.4678 49.9419 48.2778 50.0249 48.3878V48.3878ZM53.4289 61.9828C52.9949 65.3178 51.8999 64.9869 51.2759 67.2439C54.2359 66.8909 57.9759 63.9568 53.4289 61.9828ZM52.0759 69.7968C53.9239 70.4268 55.8219 70.6898 57.7719 70.5858C57.117 69.4168 52.9879 65.7508 52.0759 69.7968ZM56.4959 68.3098C56.514 68.3428 56.604 68.4458 56.4959 68.3098V68.3098ZM57.3219 59.3148C57.3659 58.5229 57.5269 57.5239 56.9609 56.9449C56.2049 58.5059 53.957 57.7038 52.6469 57.6368C53.2369 60.0068 54.7729 59.6068 57.3219 59.3148ZM60.962 69.5238C60.914 71.1948 61.3949 72.7239 62.4049 74.1089C61.8899 72.5729 65.791 67.8488 60.962 69.5238ZM62.4049 74.1089C62.4709 74.3079 62.5689 74.5129 62.7069 74.7259C62.6079 74.5199 62.5069 74.3149 62.4049 74.1089ZM54.2969 94.3509C52.2569 87.7039 56.9859 88.9059 54.2969 94.3509V94.3509ZM56.243 74.1078C55.532 74.9798 56.3739 78.0879 57.7699 78.1869C60.1909 77.0529 59.682 75.6928 56.243 74.1078ZM45.591 72.5788C45.632 72.4438 45.749 72.5628 45.591 72.5788V72.5788ZM42.182 74.4179C42.842 74.9859 43.5019 75.5528 44.1619 76.1198C45.2319 75.1688 45.7079 73.9888 45.5899 72.5788C44.0219 72.3488 42.886 72.9619 42.182 74.4179ZM63.156 59.4818C63.759 58.0998 63.9269 56.6978 63.66 55.2748C61.202 56.3998 60.759 58.2808 63.156 59.4818ZM49.031 75.6208C48.384 76.6918 48.1599 77.8569 48.3579 79.1139L50.45 77.6858C50.656 76.3868 50.182 75.6988 49.031 75.6208ZM55.324 112.61C54.665 111.989 54.0069 111.368 53.3479 110.746C52.0579 113.25 53.658 114.747 55.324 112.61ZM44.0649 47.0128C45.146 46.9058 45.75 46.3018 45.876 45.2018H43.0559C42.6869 46.2518 43.0229 46.8558 44.0649 47.0128ZM58.0889 101.25V98.3999C56.8869 98.9299 54.5609 101.651 58.0889 101.25ZM56.5409 68.2888C58.4389 67.9468 59.1239 66.9088 58.5929 65.1748C56.4929 65.6418 55.8089 66.6798 56.5409 68.2888ZM56.4949 68.3078C56.5699 68.2778 56.5889 68.4288 56.4949 68.3078V68.3078ZM60.9219 91.6638C60.2299 92.3318 59.538 92.9998 58.846 93.6668C59.427 94.1048 60.007 94.5429 60.587 94.9809C61.82 93.4689 61.9309 92.3638 60.9219 91.6638ZM55.584 47.5428C55.558 47.5618 55.57 47.5699 55.592 47.5739C55.607 47.6069 55.6259 47.6349 55.5979 47.5749C55.6289 47.5779 55.671 47.5708 55.67 47.5628C56.025 48.1218 57.0189 48.2089 58.6619 47.8159C58.0379 46.7109 57.2109 45.7918 56.1799 45.0598C55.5299 46.2478 55.3639 47.0779 55.6679 47.5609C55.6609 47.5539 55.639 47.5478 55.584 47.5428ZM50.1579 126.33C52.2519 127.979 53.082 127.528 52.6469 124.975C51.4529 124.767 50.6229 125.219 50.1579 126.33ZM57.713 123.489C58.692 123.757 59.548 123.569 60.281 122.925C59.089 122.12 58.233 122.307 57.713 123.489ZM62.351 115.164C61.981 115.832 61.611 116.5 61.161 117.312C63.088 117.187 63.088 117.187 62.351 115.164ZM61.156 53.3168C62.616 53.4718 63.4769 52.7208 63.7409 51.0648C62.5249 51.3918 61.663 52.1428 61.156 53.3168ZM63.7409 51.0648C63.8009 50.9598 63.8869 51.0489 63.7409 51.0648V51.0648ZM57.8469 113.144C58.1649 112.747 58.4829 112.349 58.8009 111.951C58.2739 111.579 57.748 111.207 57.221 110.835C56.463 111.445 56.6719 112.214 57.8469 113.144ZM48.5159 108.81C49.0639 108.507 49.613 108.204 50.161 107.902C47.247 106.98 46.6989 107.282 48.5159 108.81ZM47.42 107.552C47.268 107.57 47.565 107.724 47.42 107.552V107.552ZM50.049 82.5218C49.945 82.4798 50.183 82.6718 50.049 82.5218V82.5218ZM48.9829 81.3228C49.5649 82.3378 50.435 82.9428 51.592 83.1378C51.284 81.3048 50.4149 80.6998 48.9829 81.3228ZM66.9829 83.1169C65.5429 82.0939 65.543 82.0939 64.333 83.1169H66.9829ZM68.6789 121.217C67.7479 121.757 67.1319 122.115 66.5159 122.472C67.9959 122.802 67.9959 122.802 68.6789 121.217ZM68.4529 109.19C67.659 109.643 67.2229 110.329 67.1469 111.248C69.0359 110.595 69.471 109.909 68.4529 109.19ZM59.7369 103.579C60.4419 104.014 61.1469 104.449 61.8519 104.884C61.6289 103.42 60.7149 103.427 59.7369 103.579ZM45.9349 78.4798C47.2229 80.1308 47.2389 80.1428 48.2829 79.1408C47.5429 78.8188 46.9849 77.8298 45.9349 78.4798ZM48.2829 79.1408C48.3469 79.0798 48.4229 79.2008 48.2829 79.1408V79.1408ZM46.639 123.071C46.553 123.151 46.615 123.195 46.639 123.071V123.071ZM46.023 125.636C47.601 124.331 47.616 124.309 46.614 123.161C46.374 123.952 45.139 124.529 46.023 125.636ZM61.7149 65.8568C62.2989 66.6748 62.894 66.6069 63.501 65.6549C62.819 64.7899 62.2229 64.8578 61.7149 65.8568ZM54.8709 126.829C56.014 126.232 56.834 125.804 57.653 125.377C55.874 124.852 55.7179 124.915 54.8709 126.829ZM49.1839 113.224C49.1409 113.064 49.3069 113.175 49.1839 113.224V113.224ZM47.6899 111.781C47.639 112.715 48.131 113.169 49.165 113.141C49.242 111.972 48.7509 111.518 47.6899 111.781ZM47.5809 127.985C49.1029 128.202 49.1029 128.202 49.0119 126.823C48.1579 126.759 47.6809 127.103 47.5809 127.985ZM49.152 88.9898C49.034 89.0088 49.176 89.1538 49.152 88.9898V88.9898ZM49.1619 89.0639C49.2999 90.0329 49.342 91.0819 51.13 91.3349C50.345 90.3539 50.3609 89.2389 49.1619 89.0639ZM57.492 128.133C58.026 127.154 58.0269 127.154 57.6589 125.381C57.4569 126.255 56.597 127.099 57.492 128.133ZM62.545 124.811C63.355 124.047 63.596 123.149 63.268 122.117C62.664 122.939 62.423 123.837 62.545 124.811ZM66.7709 69.8758C67.3559 69.1478 67.0749 68.7498 65.9269 68.6798C65.5949 69.4648 65.7849 69.7648 66.7709 69.8758ZM61.0459 47.8778C61.6109 48.3118 62.177 48.7468 62.742 49.1808C63.408 48.2698 61.8549 47.6918 61.0459 47.8778ZM37.8699 118.098C37.8339 119.683 37.8369 119.684 39.2659 120.044C38.7399 119.311 38.3049 118.704 37.8699 118.098ZM58.8649 114.986C58.5959 117.243 59.0899 113.105 58.8649 114.986V114.986ZM61.045 80.3409C61.504 80.0689 61.869 79.8529 62.234 79.6369C61.155 79.3939 61.155 79.3939 61.045 80.3409ZM64.5339 101.109C64.3699 100.642 64.2409 100.273 63.9569 99.4618C63.4679 100.638 63.3819 101.155 64.5339 101.109ZM53.2929 82.2818C53.6039 82.4888 53.9149 82.6968 54.3449 82.9828C54.6819 81.7278 54.1169 81.7718 53.2929 82.2818ZM53.4899 128.95C54.0479 129.092 54.8269 129.124 54.7909 128.548C54.2999 128.692 53.4559 128.302 53.4899 128.95ZM51.377 110.686C49.671 110.168 50.148 111.811 51.377 110.686V110.686ZM69.1239 75.5398C68.1909 75.2048 67.805 75.3449 67.966 75.9599C68.8999 76.2949 69.2859 76.1548 69.1239 75.5398ZM64.8969 92.3938C64.6889 91.5418 65.27 93.9198 64.8969 92.3938V92.3938ZM59.7369 103.579C60.5469 103.451 60.097 102.783 59.911 102.333C59.387 102.912 59.3229 103.329 59.7369 103.579ZM59.911 102.333C60.024 102.208 60.1519 102.078 60.3089 101.938C59.7819 101.837 59.79 102.039 59.911 102.333ZM59.7709 129.446C58.8699 129.628 61.4799 129.102 59.7709 129.446V129.446ZM37.858 118.092C37.2339 117.98 36.6129 117.867 35.9909 117.754C36.5349 118.802 37.2129 118.235 37.858 118.092ZM61.7309 107.433C60.6999 107.828 60.8769 105.416 61.7309 107.433V107.433ZM65.6289 107.808C65.0199 108.85 66.5829 108.707 65.6289 107.808V107.808ZM63.782 50.9919C63.813 50.9849 64.094 50.8359 63.782 50.9919V50.9919ZM64.3729 50.3239C63.4779 51.5339 64.6729 50.6769 64.3729 50.3239V50.3239ZM36.6279 50.9868C36.6189 51.0338 36.595 51.1628 36.544 51.4338C36.492 51.7108 36.469 51.8338 36.463 51.8658C36.483 51.7628 36.6039 51.1168 36.6279 50.9868ZM36.489 50.9229C36.453 50.7529 36.555 50.8149 36.489 50.9229V50.9229ZM45.725 101.479C45.745 101.588 45.868 101.371 45.725 101.479V101.479ZM42.4649 102.75C43.6889 104.97 47.7809 100.099 43.9729 99.4118C43.0769 99.2498 42.1319 102.147 42.4649 102.75Z" fill="#ED1C24"/>
<path d="M59.5164 98.704C67.119 95.5884 70.7564 86.8995 67.6408 79.2969C64.5251 71.6944 55.8363 68.057 48.2337 71.1726C40.6311 74.2882 36.9937 82.9771 40.1094 90.5797C43.225 98.1822 51.9139 101.82 59.5164 98.704Z" fill="white"/>
<path d="M110.703 98.7055C118.306 95.5898 121.943 86.901 118.828 79.2984C115.712 71.6958 107.023 68.0584 99.4206 71.1741C91.818 74.2897 88.1806 82.9786 91.2963 90.5811C94.4119 98.1837 103.101 101.821 110.703 98.7055Z" fill="white"/>
<path d="M80.156 81.8037C82.338 83.5407 86.222 87.2107 87.486 92.8527C87.959 94.9647 88.576 97.7177 86.925 99.9647C85.189 102.327 82.094 102.572 81.354 102.612" stroke="#333333" stroke-width="1.1339" stroke-miterlimit="10" stroke-linecap="round" stroke-linejoin="round"/>
<path d="M66.1969 109.669C66.1969 109.669 65.2389 114.569 70.9849 114.453C76.7309 114.337 76.7309 109.903 76.7309 109.903" stroke="#333333" stroke-width="1.1339" stroke-miterlimit="10" stroke-linecap="round" stroke-linejoin="round"/>
<path d="M48.335 191.103C51.635 194.103 80.585 203.853 93.335 189.903" stroke="#333333" stroke-width="1.1339" stroke-miterlimit="10" stroke-linecap="round" stroke-linejoin="round"/>
<path d="M59.5849 138.003C59.5849 138.003 54.0349 147.453 58.0849 152.628C60.7849 149.703 64.6099 147.453 64.6099 147.453L70.6849 151.953L78.3349 145.203L82.6099 150.378C82.6099 150.378 87.2599 143.028 80.7349 136.503" stroke="#333333" stroke-width="1.1339" stroke-miterlimit="10" stroke-linecap="round" stroke-linejoin="round"/>
<path d="M70.6849 151.953L72.0349 199.878" stroke="#333333" stroke-width="1.1339" stroke-miterlimit="10" stroke-linecap="round" stroke-linejoin="round"/>
<path d="M76.835 161.703C76.835 161.703 74.735 170.853 82.385 170.253C90.035 169.653 87.035 160.503 87.035 160.503L76.835 161.703Z" stroke="#333333" stroke-width="1.1339" stroke-miterlimit="10" stroke-linecap="round" stroke-linejoin="round"/>
<path d="M76.6849 163.803L87.4849 162.753" stroke="#333333" stroke-width="1.1339" stroke-miterlimit="10" stroke-linecap="round" stroke-linejoin="round"/>
<path d="M23.5849 81.753C23.9169 87.64 20.5029 94.826 14.5999 95.954C7.92895 97.229 0.476952 90.308 0.475952 82.637C0.474952 74.945 7.96595 68.049 14.5999 69.32C20.0669 70.368 23.2969 76.645 23.5849 81.753Z" fill="#E39768"/>
<path d="M14.2849 70.6529C14.2849 70.6529 -12.1151 59.5529 13.9849 36.3029C9.93488 15.1529 48.1849 -5.09707 94.0849 1.65293C139.985 8.40293 123.785 37.6529 123.785 37.6529C123.785 37.6529 142.235 60.1529 123.335 69.6029C101.885 77.2529 52.6849 70.6529 34.2949 56.3919C28.3849 64.6529 25.6859 68.8529 25.6859 68.8529C25.6859 68.8529 24.4859 87.9029 20.8859 89.2529C17.2849 90.6029 14.2849 70.6529 14.2849 70.6529Z" fill="#32356E"/>
<path d="M35.585 38.5527C35.585 38.5527 59.435 59.7027 82.385 52.5027C105.335 45.3027 115.235 59.2528 117.035 67.3528" stroke="white" stroke-width="1.1339" stroke-miterlimit="10" stroke-linecap="round" stroke-linejoin="round"/>
<path d="M32.4349 31.8027C32.4349 31.8027 59.8849 51.6027 74.7349 41.2527C89.5849 30.9027 117.935 32.7027 123.785 37.6527" stroke="white" stroke-width="1.1339" stroke-miterlimit="10" stroke-linecap="round" stroke-linejoin="round"/>
<path d="M31.3099 26.6278C31.3099 26.6278 60.7849 40.1278 74.5099 28.6528C88.2349 17.1778 104.885 5.25278 117.26 9.97778" stroke="white" stroke-width="1.1339" stroke-miterlimit="10" stroke-linecap="round" stroke-linejoin="round"/>
<mask id="mask0_107_21571" style="mask-type:luminance" maskUnits="userSpaceOnUse" x="38" y="70" width="31" height="30">
<path d="M59.5168 98.7038C67.1195 95.5881 70.7569 86.8992 67.6412 79.2965C64.5255 71.6938 55.8366 68.0564 48.2339 71.172C40.6312 74.2877 36.9938 82.9767 40.1095 90.5794C43.2251 98.182 51.9141 101.819 59.5168 98.7038Z" fill="white"/>
</mask>
<g mask="url(#mask0_107_21571)">
<path d="M62.894 96.976C69.5496 96.976 74.945 91.5806 74.945 84.925C74.945 78.2694 69.5496 72.874 62.894 72.874C56.2385 72.874 50.843 78.2694 50.843 84.925C50.843 91.5806 56.2385 96.976 62.894 96.976Z" fill="#333333"/>
</g>
<mask id="mask1_107_21571" style="mask-type:luminance" maskUnits="userSpaceOnUse" x="90" y="70" width="30" height="30">
<path d="M110.704 98.7058C118.306 95.5901 121.944 86.9011 118.828 79.2984C115.712 71.6958 107.023 68.0583 99.4208 71.174C91.8181 74.2897 88.1807 82.9786 91.2963 90.5813C94.412 98.184 103.101 101.821 110.704 98.7058Z" fill="white"/>
</mask>
<g mask="url(#mask1_107_21571)">
<path d="M114.081 96.976C120.736 96.976 126.132 91.5806 126.132 84.925C126.132 78.2694 120.736 72.874 114.081 72.874C107.425 72.874 102.03 78.2694 102.03 84.925C102.03 91.5806 107.425 96.976 114.081 96.976Z" fill="#333333"/>
</g>
<path opacity="0.1" d="M66.614 195.164C64.668 195.108 59.2659 194.619 59.1409 193.209C61.5549 192.858 62.728 192.91 65.009 193.745C65.21 193.398 60.3189 188.438 59.5559 187.581C58.5269 186.427 56.493 187.467 57.583 184.543C58.123 183.094 58.9149 182.533 60.5169 182.534C60.0219 183.728 57.989 186.784 61.049 186.569C61.354 186.548 62.4429 184.498 62.4769 183.972C62.5939 182.146 62.3449 181.959 60.8869 180.77C62.6839 178.71 63.1 182.642 64.838 179.959C63.04 179.174 61.4169 178.052 60.6679 176.159C63.3489 175.63 61.9039 175.203 63.2449 173.574C63.4219 173.36 66.471 170.141 66.42 170.299C67.382 167.294 64.597 169.268 64.712 167.137C64.836 164.828 67.278 163.131 68.782 161.775C68.043 161.292 67.304 160.808 66.566 160.325C65.089 162.584 63.6129 164.843 62.1369 167.103C59.3629 162.609 66.2859 160.82 64.4119 156.762C65.5129 155.756 69.464 160.396 72.035 158.557C69.583 157.627 65.9009 156.422 70.8729 155.686C70.2039 155.298 68.444 155.173 68.14 154.628C67.721 153.877 68.938 152.89 68.588 152.217C67.28 149.703 63.141 148.602 61.078 149.818C60.269 148.367 59.5049 148.932 58.1319 149.535C58.1319 143.954 59.2959 148.45 62.5429 146.649C61.8709 145.698 61.199 144.747 60.526 143.796C61.1709 143.227 61.9649 143.254 62.7609 143.545C62.2479 142.903 61.768 142.245 61.321 141.583C59.377 141.617 57.821 136.963 54.657 142.062C53.049 144.653 50.856 150.12 55.225 151.031C54.088 153.073 54.034 155.217 52.002 153.328V157.68C53.921 157.51 57.577 156.073 57.057 159.089C52.778 158.131 51.8439 159.943 51.3319 163.671C51.1219 165.202 51.8009 169.516 51.0299 170.564C49.3449 166.667 49.927 174.488 49.812 175.472C49.482 178.311 49.4959 181.608 49.0379 184.503C48.6139 187.183 47.6299 189.047 48.0629 192.114C48.5039 195.234 49.5 195.211 52.213 196.304C53.032 196.634 53.6609 197.117 54.8429 197.51C55.5179 197.749 56.1669 197.642 56.7909 197.188C57.3099 197.793 57.8299 198.397 58.3489 199.002C58.9769 199.213 64.5519 200.738 63.1359 198.465C62.7669 197.873 56.819 196.953 61.082 195.548C62.59 195.051 63.4619 196.92 64.6239 197.275C66.2809 197.781 68.225 197.777 69.928 197.997C69.746 196.85 69.563 195.703 69.381 194.555C68.56 195.245 67.637 195.448 66.614 195.164ZM63.6629 168.363C66.4069 168.674 63.6889 170.61 62.2019 170.605C62.6879 169.858 63.1749 169.11 63.6629 168.363ZM56.1539 179.705C57.3659 179.218 57.9929 179.809 58.4869 180.808C57.0569 181.27 57.0569 181.27 56.1539 179.705ZM59.4479 178.903C58.0459 179.095 57.7259 178.081 57.1189 176.842C59.5839 177.274 59.7119 177.405 59.4479 178.903ZM60.4259 169.178C60.2419 168.904 60.0589 168.63 59.8749 168.356C61.1169 167.769 60.4459 169.202 60.4259 169.178ZM61.7799 151.426C62.6419 152.092 62.4829 158.826 62.6939 160.421C57.5409 161.693 60.6729 153.488 61.7799 151.426ZM60.2609 164.489C59.8989 165.563 59.378 166.244 57.953 165.604C58.638 163.919 58.6629 163.907 60.2609 164.489ZM59.1 161.12C58.886 161.979 58.503 162.466 57.51 162.042C57.695 161.267 57.88 160.492 58.066 159.716C59.026 159.77 59.37 160.238 59.1 161.12ZM55.67 146.309C53.482 145.869 57.8489 138.088 59.4389 143.24C57.2539 142.957 56.379 144.578 55.67 146.309ZM54.6629 160.728C55.3439 160.703 55.43 161.017 54.919 161.67C54.408 161.679 54.3229 161.365 54.6629 160.728ZM54.3749 172.5C54.7949 170.607 56.4949 168.465 56.5159 166.721C57.1279 169.261 58.2549 170.909 55.6289 172.884C53.8289 174.238 52.165 174.363 51.971 171.758C52.772 172.005 53.5729 172.253 54.3749 172.5ZM53.845 176.225C54.244 177.435 54.052 178.535 53.268 179.526C52.428 179.035 51.5879 178.545 50.7479 178.054C51.3879 176.873 52.563 176.364 53.845 176.225ZM53.9179 181.796C53.7149 182.176 53.5119 182.556 53.3089 182.936C52.3629 181.8 52.362 182.121 52.846 180.299C53.71 180.086 54.0669 180.585 53.9179 181.796ZM50.311 184.675C49.789 184.385 49.8149 184.15 50.3869 183.971C51.0799 184.275 51.055 184.51 50.311 184.675ZM52.4639 189.35C51.9239 189.031 51.4579 188.624 51.0669 188.131C52.4649 187.016 53.322 186.159 54.312 184.682C54.518 185.478 54.2369 189.891 52.4639 189.35ZM55.5559 193.191C54.9339 192.429 54.313 191.666 53.691 190.903C56.926 188.412 63.4259 190.474 55.5559 193.191Z" fill="#C1272D"/>
<path opacity="0.1" d="M67.46 167.205C67.992 167.846 68.868 168.338 69.819 168.631C69.673 168.296 69.798 168.013 70.212 167.785C70.657 168.101 70.669 168.424 70.258 168.753C72.575 169.298 75.112 168.608 74.292 165.786C73.106 166.583 72.193 166.886 71.119 167.113C69.571 167.441 69.388 165.86 67.46 167.205Z" fill="#C1272D"/>
<path opacity="0.1" d="M70.9159 197.051C71.2459 197.622 71.5759 198.193 71.9059 198.765C72.4789 197.501 73.6669 196.493 72.6029 195.049C72.0409 195.716 71.4779 196.383 70.9159 197.051Z" fill="#C1272D"/>
<path opacity="0.1" d="M70.646 187.768C70.476 187.14 71.76 186.836 71.946 185.938C71.17 185.761 70.394 185.583 69.618 185.406C72.267 191.533 68.688 185.118 68.246 187.037C68.248 187.029 66.655 183.672 69.497 185.287C67.455 182.895 67.35 181.649 67.63 178.893C67.754 177.668 68.116 175.26 66.8 174.195C62.33 170.576 66.576 179.168 66.292 180.646C65.818 183.112 60.376 186.947 63.147 189.852C64.364 191.128 67.581 189.586 68.831 189.263C70.534 188.821 71.435 190.683 70.646 187.768ZM65.387 185.829C66.185 186.01 66.929 187.216 67.432 187.784C65.957 188.18 65.484 187.13 65.387 185.829Z" fill="#C1272D"/>
<path opacity="0.1" d="M69.4129 199.931C68.3519 199.753 67.3309 199.582 66.2699 199.404C66.7509 201.005 68.1039 201.216 69.4129 199.931Z" fill="#C1272D"/>
<path opacity="0.1" d="M55.0309 57.6477C56.6639 56.5707 58.5509 54.4287 60.5659 55.9177C60.4899 53.8997 60.1699 53.4387 58.4469 52.8067C57.9819 52.6367 55.3169 53.3787 54.9729 53.7427C54.7649 53.9627 56.9359 54.9247 55.3869 55.8527C53.2929 57.1067 50.7079 54.6257 50.0969 52.8907C51.1969 51.9227 52.5129 54.1207 53.0169 51.9177C51.0819 51.8097 50.2299 50.0057 49.2029 48.6647C48.2719 49.7117 45.0079 54.8287 43.4359 52.7617C42.3479 51.3317 46.7629 47.8747 47.8739 47.4207C49.3989 46.7977 51.1999 47.5697 51.6199 45.9237C51.9429 44.6567 48.8069 42.4477 48.0239 42.1387C45.3129 41.0677 45.1239 43.6587 44.3489 40.2687C43.8289 37.9957 44.3789 36.4347 46.9409 37.0897C47.6879 37.2807 51.2209 41.7817 51.8209 42.5097C53.0769 44.0347 54.1929 44.6417 53.7689 46.9367C53.5399 48.1767 51.7289 48.2227 51.8229 49.8117C52.8349 49.1997 53.8459 48.5887 54.8579 47.9767C56.0069 47.7127 56.2089 47.0767 55.4629 46.0677C57.0339 44.9047 55.1389 43.4867 58.3669 45.7277C58.8269 44.1477 55.5889 40.4867 60.5369 41.6977C65.1719 42.8327 60.4699 44.3207 60.6349 46.0587C61.9689 45.8367 66.2749 43.4387 65.8259 42.2017C65.6289 41.6597 59.1649 39.2157 59.1069 39.1967C57.4269 38.6277 56.7429 40.9367 55.5799 37.4967C54.9169 35.5367 55.3619 34.0277 57.2619 34.4077C56.0009 31.2147 54.2269 30.9197 53.2579 34.4457C53.1019 35.0157 52.8689 37.4697 53.0449 37.9027C53.6519 39.4017 54.8889 38.7167 55.4009 39.6267C57.7829 43.8597 52.7419 42.1707 50.7429 39.9847C47.8789 36.8527 50.7169 34.7607 50.7529 31.3187C51.4579 31.4807 52.1629 31.6417 52.8679 31.8037C52.3649 30.8567 51.8619 29.9087 51.3589 28.9617C50.0169 30.0007 48.0639 32.2097 46.1179 31.9887C44.9159 31.8527 41.9869 30.5947 43.8129 28.8927C45.4599 27.3577 48.5409 32.4367 46.3659 26.6457C47.2159 26.3607 48.0669 26.0747 48.9169 25.7897C48.2139 25.0187 47.5109 24.2477 46.8079 23.4757C45.5339 26.0307 41.0919 25.7817 41.4179 28.5597C39.8419 27.9527 37.7719 28.3347 36.5599 26.8877C37.5829 25.3957 39.1329 27.6637 39.7369 26.5457C40.3939 25.3287 38.5079 24.5987 38.1479 23.6747C39.3749 23.5867 39.9049 22.4347 40.4719 22.3647C41.5089 22.2357 41.8239 23.3187 42.6729 23.2637C44.4479 23.1487 45.4589 22.8387 47.0339 21.6787C48.3709 20.6937 47.4869 19.8147 49.5169 19.6107C51.5419 19.4067 49.0459 21.8967 48.1119 22.0907C50.1359 24.8717 50.5569 21.6017 52.5079 22.7077C54.5099 23.8427 51.3329 25.7747 55.3449 25.9457C62.2149 26.2387 54.8619 21.3837 53.0819 21.6767C52.8389 20.0907 52.8579 19.3957 51.1309 19.8457C52.5459 16.8467 48.2029 17.6057 46.4749 18.0657C46.0889 13.2307 50.9279 17.0787 52.6079 14.7217C53.1129 14.0137 52.8089 9.08069 52.4369 8.79369C51.6359 8.17469 48.5059 12.2877 50.2739 7.42669C50.6249 6.46169 52.9419 4.75169 52.3249 3.45369C51.4709 1.65469 49.2379 5.71468 49.2649 5.67568C48.2839 4.98568 42.8419 4.00068 43.8419 6.21068C44.4009 7.44568 46.5089 5.74068 47.1049 5.36168C47.6299 7.95768 47.9529 10.1727 48.8039 12.6247C46.1989 12.9027 46.2449 11.8517 43.2719 12.8487C43.1699 10.8967 45.8919 11.1057 45.2369 9.29567C44.7229 7.87367 42.3929 9.85568 41.8399 9.78768C40.6329 9.63968 41.1769 8.88169 39.8359 8.51268C37.9719 7.99968 37.3559 8.28068 35.6249 9.02868C38.0079 10.6007 39.2299 12.7197 41.5309 13.1007C40.2359 17.0467 35.6099 11.7427 35.0949 9.99968C33.6289 12.0127 30.7559 9.70168 32.3889 13.0637C33.6359 15.6307 36.5409 15.7557 39.0019 15.7127C41.5759 15.6687 44.7309 14.4727 45.2029 18.1707C45.3339 19.1947 44.4429 22.0637 43.0649 21.6447C42.0739 21.3437 42.4479 18.7857 41.6409 17.8467C40.5709 16.5997 37.9799 16.8537 36.9209 16.8007C34.8549 16.6987 34.5759 18.5497 32.2579 15.9957C30.7259 14.3087 31.5619 11.6447 28.7209 12.4767C30.7099 16.1047 27.1999 13.6527 25.4069 14.5017C26.0349 14.2037 23.3609 17.7057 23.4309 17.6137C22.1709 19.2567 20.6219 20.2727 20.0169 21.9607C19.8539 22.4147 20.3679 23.8397 20.2999 24.5477C20.3029 24.5137 16.3979 27.3047 19.3849 23.0407C16.4109 22.5717 15.9819 25.8097 15.4689 27.8417C15.3789 28.4517 15.3729 29.0627 15.4519 29.6747C15.7849 30.5907 15.4299 31.1557 14.3859 31.3717C14.0869 32.7617 13.8239 33.4287 14.1519 35.0057C14.8649 34.4867 15.5769 33.9667 16.2899 33.4477C17.4439 34.4067 18.4999 37.6597 16.7399 38.1567C16.3079 34.8427 14.4509 36.3347 12.8219 38.1287C12.3439 38.9177 11.9529 39.7487 11.6509 40.6207C11.5749 42.0627 10.9169 42.3937 9.67693 41.6157C8.15993 43.1267 7.51894 43.7907 6.37694 45.9867C7.12294 47.4797 6.74493 48.1187 5.24193 47.9027C4.72593 48.1287 4.37592 48.4927 4.19292 48.9937C3.74792 49.8877 3.01691 51.5747 2.97191 52.5597C2.75691 53.4737 2.84691 54.3567 3.23991 55.2107C4.52191 55.9847 4.53392 56.7867 3.27492 57.6157C4.12092 62.2737 6.37691 65.1207 9.82191 68.4367C11.2909 67.5797 9.90391 66.0207 10.8729 64.9207C11.9829 63.6617 14.5489 63.9007 15.6329 65.0077C11.3689 63.8977 13.6349 68.0387 11.1799 69.1637C14.6289 71.9417 15.2989 74.0727 16.0989 78.3987C16.4419 80.2527 18.0519 83.5667 17.9329 85.3247C17.4909 83.7257 17.8229 82.9667 18.9279 83.0487C19.7689 85.0837 17.1819 90.0677 21.1019 90.2907C22.7299 90.3837 23.1369 89.4677 23.7129 88.2437C24.8079 85.9157 24.0699 85.5537 22.2819 84.0857C24.0279 82.9757 23.8249 81.3027 23.1579 79.6187C27.2689 78.6337 26.3819 77.1987 23.7739 74.5887C24.1249 73.8867 25.7469 74.3167 26.4069 74.3567C26.2899 72.0337 27.1009 70.6927 24.4959 71.0597C24.6049 69.3017 24.7059 67.3947 26.1139 66.1637C27.4359 65.0077 28.1759 67.5887 29.9009 65.2197C28.7779 65.4377 28.2769 65.1487 28.3999 64.3527C31.2589 63.7327 30.4939 62.9167 31.7509 60.4477C32.7399 58.5057 34.4769 56.7217 36.4149 55.9627C38.9879 54.9547 45.5499 54.7007 44.4409 58.9747C42.6529 58.4827 37.4319 55.7307 37.4319 59.4577C39.5639 59.2027 39.6809 59.5787 41.2569 60.1297C41.4139 60.4577 41.5709 60.7857 41.7289 61.1137C43.0059 60.1087 43.7439 60.3077 43.9409 61.7127C43.6459 61.6077 46.8299 62.7997 46.2679 62.4477C46.8949 62.8397 49.5209 64.7127 50.2409 64.6427C50.6409 62.6287 51.7389 62.1927 52.4369 60.3617C53.3999 57.8267 51.1769 56.4757 55.0309 57.6477ZM45.8689 13.2967C46.2999 13.1577 46.7309 13.0187 47.1629 12.8797C46.7799 14.4777 46.9079 14.2037 45.7019 14.2127C45.6749 13.8907 45.7309 13.5857 45.8689 13.2967ZM42.6879 32.8247C43.3749 33.0987 43.3499 33.3097 42.6139 33.4587C42.1039 33.1927 42.1279 32.9817 42.6879 32.8247ZM26.9679 16.5037C27.4269 16.3327 30.6059 18.6767 30.9699 19.0867C32.8029 21.1507 31.9079 23.2987 35.0049 22.3227C36.4119 21.8787 38.4949 18.1547 39.4239 18.8147C40.7059 19.7257 37.8699 22.0677 38.0729 23.6117C35.0239 22.6487 34.2789 24.6867 32.4999 26.9107C37.7389 28.0217 32.9489 29.3217 30.4499 28.2467C29.6259 29.2207 31.1069 30.9797 29.0619 30.9487C28.3929 26.7947 31.9649 27.1877 31.7669 23.6307C31.5689 20.0747 29.9989 21.3997 28.3649 19.9227C27.9789 19.5737 24.8529 17.2907 26.9679 16.5037ZM36.4279 32.2207C36.0149 32.6897 35.3749 33.8637 34.6969 33.6217C34.5519 32.8157 34.5429 31.5177 34.6969 30.7137C35.2729 31.2157 35.8509 31.7177 36.4279 32.2207ZM28.7549 43.4587C30.4809 42.8067 34.6369 46.3177 34.1559 48.1257C33.7859 49.5177 32.0639 49.7497 30.8139 49.5477C27.3399 48.9887 29.6619 46.3787 28.7549 43.4587ZM24.1429 36.4657C24.2229 36.5257 25.3869 34.8567 25.4979 37.3017C25.0469 37.0237 24.5949 36.7447 24.1429 36.4657ZM26.8179 42.9327C25.9409 43.5007 25.9409 43.5007 24.4189 42.0307C25.6019 41.6887 26.3549 41.9657 26.8179 42.9327ZM25.9259 46.0167C25.4899 45.9927 25.0529 45.9687 24.3009 45.9267C25.0449 45.0357 25.4919 45.0437 25.9259 46.0167ZM26.3179 50.3407C28.2489 49.8007 27.1119 51.8827 26.6649 52.6117C26.0319 52.1527 24.5669 50.8297 26.3179 50.3407ZM26.2389 34.4387C26.6769 31.7807 26.0249 31.3427 29.0149 31.0127C28.6999 32.1677 35.6859 36.4767 30.6439 36.2247C29.8069 36.1827 30.5109 34.6177 29.7219 34.4387C28.6749 34.2017 27.3189 34.4387 26.2389 34.4387ZM33.1039 37.9697C33.1249 39.6147 33.0989 39.6547 31.4989 40.1387C31.9579 39.5197 32.4159 38.9007 33.1039 37.9697ZM28.4589 40.1707C28.9369 40.0307 29.4259 39.9967 29.9249 40.0677C29.5059 40.6297 29.0879 41.1917 28.6689 41.7537C28.0289 41.2627 27.9589 40.7357 28.4589 40.1707ZM27.2809 22.8557C27.7309 23.7327 27.6269 24.4187 26.5199 24.6987C26.9109 22.3887 24.4799 22.6817 23.3949 21.4047C25.4199 20.5177 26.3219 20.9907 27.2809 22.8557ZM23.7949 26.5357C23.9939 27.2457 23.7399 27.7207 23.0319 27.9607C23.0089 26.6927 22.2869 25.8257 21.9879 24.5947C23.3509 24.6397 23.3659 25.5777 23.7949 26.5357ZM23.3569 49.8397C22.4689 48.8797 21.5819 47.9197 20.6939 46.9597C22.7409 46.1727 24.8969 49.2327 23.3569 49.8397ZM23.6969 53.9067C23.3459 54.3597 23.0759 54.3377 22.8869 53.8417C23.1569 53.3917 23.4269 53.4137 23.6969 53.9067ZM17.9809 72.1887C18.5119 72.5767 18.4509 72.9607 17.7979 73.3427C17.3349 72.8677 17.3949 72.4827 17.9809 72.1887ZM17.4789 65.5217C17.4119 65.5547 18.6029 64.9437 18.3299 65.6927C17.9269 66.1797 17.6429 66.1227 17.4789 65.5217ZM18.2329 62.1397C18.3329 61.7317 18.4329 61.3237 18.5329 60.9157C19.7319 62.5217 18.3119 62.6957 18.2329 62.1397ZM17.1919 56.7197C17.6129 55.9987 18.8879 55.9997 18.8049 54.8547C19.1389 56.7977 19.0199 56.9307 17.1919 56.7197ZM17.7129 52.2417C13.7019 54.4147 14.5909 46.7637 16.0469 45.3737C17.8599 46.6047 16.5809 48.5207 17.4909 50.0287C18.2659 51.3137 20.4419 49.7127 20.8369 52.0327C19.7959 51.0337 18.7279 51.6927 17.7129 52.2417ZM22.9729 28.0597C22.9749 29.9817 22.9749 31.9047 22.9749 33.8267C20.2899 33.7397 20.4949 28.6337 22.9729 28.0597ZM20.2139 37.0647C22.7109 38.5277 22.7109 38.5277 21.6619 40.0707C20.9359 39.2327 19.6999 38.7697 20.2139 37.0647ZM18.5759 31.9197C18.9209 31.9457 19.2659 31.9717 19.6109 31.9977C19.4059 33.4867 18.3739 31.9237 18.5759 31.9197ZM21.4769 43.7277C20.0609 44.6457 16.8599 46.0807 17.3979 42.6917C18.7579 43.0367 20.1169 43.3817 21.4769 43.7277ZM17.4709 40.7067C17.4329 41.3417 17.3939 41.9767 17.3559 42.6127C15.1909 41.8087 15.2109 42.1917 13.2599 43.4827C13.9279 40.9107 14.8509 40.1447 17.4709 40.7067ZM11.2809 50.7047C14.0399 49.3667 11.5839 55.0707 11.6639 55.0377C10.9179 53.8907 9.17593 51.7257 11.2809 50.7047ZM10.1639 57.4357C9.05893 58.0197 9.05893 58.0197 8.19893 57.3557C9.10593 56.7797 9.10593 56.7797 10.1639 57.4357ZM8.85692 48.8937C9.35192 49.2427 9.35093 49.5607 8.85393 49.8477C8.34393 49.5537 8.34492 49.2357 8.85692 48.8937ZM7.64891 52.6547C8.51791 53.0977 9.27191 54.3037 7.49391 54.4177C7.54591 53.8297 7.59691 53.2417 7.64891 52.6547ZM6.26393 51.5637C5.89593 51.2467 5.91093 51.0247 6.31093 50.8977C6.97293 51.2037 6.95693 51.4257 6.26393 51.5637ZM7.19191 64.3837C7.64691 62.9487 7.83092 61.9517 7.83092 60.4527C8.84892 60.9237 9.86791 61.3947 10.8859 61.8657C9.39091 62.5057 8.92591 64.1207 7.19191 64.3837ZM13.2909 61.4957C13.2029 60.6727 13.7379 60.4507 14.6749 60.5527C14.7649 61.8897 14.4419 61.4827 13.2909 61.4957ZM17.2409 69.3717C16.8859 69.3317 16.5309 69.2907 16.1759 69.2507C16.2399 68.5757 17.3129 68.6187 17.2409 69.3717ZM16.5339 57.9607C15.1229 58.2517 8.72893 57.2837 12.1469 56.0317C12.8719 55.7657 19.1669 57.4177 16.5339 57.9607ZM17.3369 80.7667C18.2899 80.3687 19.0439 80.0547 19.7989 79.7397C18.9419 81.4127 18.9419 81.4127 17.3369 80.7667ZM20.1639 59.2127C19.6799 58.9547 19.6839 58.7027 20.1769 58.4567C20.8499 58.7147 20.8459 58.9667 20.1639 59.2127ZM21.1499 67.3327C24.1759 68.2897 22.5179 70.5167 20.7329 71.5507C19.9389 69.9887 21.0519 68.8537 21.1499 67.3327ZM20.9459 76.7307C20.4299 75.8097 20.5449 74.9707 21.2909 74.2137C22.6569 75.1587 22.8919 75.8027 23.0719 77.4477C22.1249 77.8377 21.4159 77.5987 20.9459 76.7307ZM24.3889 61.8567C23.7729 61.5747 23.7339 61.2337 24.2719 60.8347C24.4509 60.8607 24.5959 60.9437 24.7079 61.0857C24.6019 61.3427 24.4949 61.5997 24.3889 61.8567ZM25.7279 58.2167C22.1719 58.1097 21.9269 56.1557 18.8149 54.8017C20.7139 53.1397 22.2469 55.6927 24.0909 56.5257C24.8119 56.8517 25.4269 55.2577 26.1499 56.2697C26.5329 56.8047 27.4879 58.2697 25.7279 58.2167ZM27.9569 62.1027C26.6639 60.8677 26.8469 60.0467 28.7179 59.3317C29.0679 60.5577 28.9869 61.4697 27.9569 62.1027ZM28.8429 54.9837C28.2769 54.7137 28.1429 54.2377 28.4409 53.5557C29.5059 53.8207 30.5709 54.0857 31.6359 54.3507C31.0029 55.4907 29.8499 55.1017 28.8429 54.9837ZM35.2919 54.0477C33.1569 55.1377 29.1099 52.2587 30.8129 51.2807C31.7129 50.7637 32.2679 52.5797 32.5089 52.6007C33.9149 52.7237 32.8709 53.5367 35.2159 52.7997C35.3239 53.2127 35.3489 53.6287 35.2919 54.0477ZM35.9349 34.6527C37.9459 33.6177 37.2469 31.2377 36.8309 29.4897C39.7529 30.2907 38.1369 31.6537 39.3889 33.5807C39.7189 34.0877 43.1199 35.1127 42.6019 36.3527C41.9719 37.8597 40.1269 35.5137 39.2129 35.4427C38.6339 35.3977 37.8009 37.0807 37.0549 36.9227C36.4639 36.7977 34.4529 35.4157 35.9349 34.6527ZM42.5339 38.3917C42.8219 39.2767 42.6459 39.6187 42.0059 39.4167C41.9439 38.8917 42.0379 38.3367 42.5339 38.3917ZM40.0849 40.5467C38.4279 40.5507 37.8479 40.5137 36.6429 39.4167C37.3419 38.8497 38.0419 38.2827 38.7409 37.7157C39.1889 38.6587 39.6369 39.6027 40.0849 40.5467ZM37.8199 52.8237C37.4819 51.8577 37.1449 50.8917 36.8069 49.9267C38.6849 49.9267 38.5839 51.1807 37.8199 52.8237ZM37.6619 45.9737C37.1659 45.0917 36.0589 44.9217 36.3099 43.6577C37.7339 44.0437 39.1579 44.4287 40.5819 44.8147C40.1389 46.2467 39.6499 47.6117 38.6059 48.7367C38.3729 47.7877 38.0579 46.8667 37.6619 45.9737ZM40.4409 52.9717C40.3029 51.9957 40.1649 51.0207 40.0259 50.0447C42.7409 49.1457 42.8109 52.1007 40.4409 52.9717ZM42.6499 46.5567C42.9999 45.4677 42.6899 44.6217 41.7209 44.0187C43.3519 43.1777 45.2249 43.8247 45.3469 45.8247C45.5209 48.6707 42.1709 48.1567 42.6499 46.5567ZM46.6789 60.6337C45.5939 61.0007 45.9589 59.3707 46.9989 59.0717C47.5259 59.7547 47.4199 60.2747 46.6789 60.6337ZM47.3359 55.6637C46.8419 55.9427 46.3109 56.0937 45.7419 56.1177C45.2439 55.0447 46.8009 53.4637 47.3699 52.5827C48.1199 53.6537 48.1089 54.6807 47.3359 55.6637ZM50.6359 59.1787C50.7699 60.3517 50.3209 61.2447 49.2899 61.8587C48.6729 61.0587 47.5239 57.2377 48.1499 56.3607C48.5879 55.7477 49.5799 55.1247 50.3689 55.4357C51.8949 56.0357 50.6559 58.0757 50.6359 59.1787ZM55.9039 10.1197C57.6879 8.64768 59.4159 9.04068 60.5859 11.0687C61.6169 10.2117 65.5289 6.94668 63.5259 4.87368C61.9869 3.28168 61.6669 5.13768 60.9619 5.77468C59.9599 6.68068 63.2039 8.36368 59.8109 8.36968C58.6609 8.37168 57.6629 6.90369 56.7109 6.37569C56.3419 6.65669 55.9449 6.8877 55.5189 7.0707C54.5329 6.9987 54.3369 6.54668 54.9319 5.71468C54.6639 5.62768 54.2109 2.10469 52.8219 5.14769C52.0229 6.89769 54.9179 8.97168 55.9039 10.1197ZM57.7109 63.4217C55.4369 62.6717 58.3509 59.6137 58.8379 57.9357C54.7229 57.3127 53.6699 62.0017 52.9919 64.7177C56.7829 63.9807 55.3519 62.8317 56.6859 67.5837C58.9359 66.9987 56.4349 65.6477 57.6799 64.6227C58.5709 65.3997 59.4619 66.1767 60.3529 66.9537C60.5399 65.0827 59.3949 63.9767 57.7109 63.4217ZM62.2429 19.8637C61.7529 19.2317 61.2039 18.6567 60.5959 18.1367C60.7389 20.8097 56.3459 20.6937 60.0809 22.8107C63.1899 24.5727 65.4319 22.2467 66.8229 19.9827C65.0629 20.4317 63.4009 21.6387 62.2429 19.8637ZM61.0599 62.8187C61.1669 64.6807 65.4639 63.1137 62.5189 59.3377C61.5599 60.2307 60.9839 61.4977 61.0599 62.8187ZM58.1449 29.4117C55.9319 29.4557 54.3259 27.8397 52.0279 28.7877C53.8479 29.8587 55.8919 29.6007 56.3139 31.8757C57.4709 31.4697 58.3599 30.7937 58.1449 29.4117ZM58.3049 36.7017C59.7419 36.8557 60.6289 36.0107 62.0279 36.8137C62.2819 35.7187 62.5359 34.6247 62.7899 33.5297C60.9529 34.3877 58.9399 34.7187 58.3049 36.7017ZM54.9529 15.1537C57.3019 14.5017 59.0919 13.0717 60.5219 11.1437C57.6529 11.0427 56.2359 13.0037 54.9529 15.1537ZM56.2039 17.0997C57.6129 17.9477 60.3109 19.0807 60.7519 16.9327C61.4419 13.5667 57.3179 16.9797 56.2039 17.0997ZM61.3989 66.8517C61.0789 66.9077 60.7589 66.9647 60.4399 67.0207C61.7239 68.6557 63.9479 68.5027 65.6749 69.3137C64.4719 67.0757 63.9259 66.5167 61.3989 66.8517ZM70.3539 24.1277C70.1329 24.5707 69.9119 25.0147 69.6909 25.4577C72.0129 24.6797 71.9539 20.8217 69.0969 21.3017C69.5169 22.2437 69.9359 23.1857 70.3539 24.1277ZM68.4209 51.0917C66.5159 51.0177 65.9999 49.5077 64.1739 49.2347C64.6969 50.5567 65.2189 51.8777 65.7419 53.1997C66.5109 50.3347 67.4829 53.0877 68.4209 51.0917ZM73.4169 44.6197C72.2019 45.6417 70.4779 45.0367 69.6689 46.7267C70.3939 46.5597 74.8379 45.9607 73.4169 44.6197ZM66.1289 2.92867C67.1769 2.26867 64.4299 2.09067 63.7469 2.47167C64.6689 3.22567 64.8129 3.75667 66.1289 2.92867ZM57.5139 50.2457C57.1849 50.2027 56.8649 50.2467 56.5559 50.3767C56.5479 51.3897 56.9739 52.1727 57.8339 52.7257C58.5049 51.7917 58.3979 50.9647 57.5139 50.2457ZM74.6349 15.3767C75.5699 15.9367 76.2729 13.9487 76.7589 13.1947C74.9659 12.3557 75.2139 13.7447 74.6349 15.3767ZM61.9469 57.2577C61.4979 56.8527 61.0499 56.4477 60.6009 56.0427C59.8119 58.4347 60.5769 59.5017 61.9469 57.2577ZM67.4939 67.3107C68.7879 68.7597 69.6939 68.6547 70.2099 66.9957C69.2729 66.8427 68.3679 66.9477 67.4939 67.3107ZM69.0529 62.0207C68.2029 61.4387 67.3519 60.8577 66.5019 60.2757C66.0339 62.2837 67.6139 62.1457 69.0529 62.0207ZM67.3469 44.1607C67.7769 43.8267 68.1149 43.4127 68.3609 42.9177C67.6429 42.8417 66.9249 42.7657 66.2059 42.6897C66.2389 43.2367 66.5749 44.1857 67.3469 44.1607ZM60.9869 1.43468C60.1089 1.35068 59.4369 1.48369 59.1889 2.49169C60.3549 2.51369 60.3549 2.51368 60.9869 1.43468ZM49.9339 26.4817C49.4519 27.1667 49.6009 27.7177 50.3819 28.1317C50.7559 27.5707 51.1299 27.0087 51.5039 26.4477C50.9749 26.3407 50.4509 26.3517 49.9339 26.4817ZM42.3509 6.5447C41.5419 6.6827 40.7329 6.82167 39.4249 7.04567C41.6759 7.78367 41.8949 7.7217 42.3509 6.5447ZM60.1739 27.2017C60.9439 26.7657 61.5609 26.4157 62.3679 25.9587C60.6399 25.4087 60.5419 25.4667 60.1739 27.2017ZM71.7489 3.50069C71.8449 2.42169 71.8389 2.39968 70.5709 2.11168C70.6439 2.82568 70.8989 3.38269 71.7489 3.50069ZM70.4629 41.7207C70.3829 40.9527 69.9429 40.5227 69.1969 40.2937C68.9639 41.5217 68.9679 41.5427 70.4629 41.7207ZM66.3279 26.4527C65.4969 26.7487 65.1049 27.3497 65.1529 28.2547C66.8049 27.7257 67.1959 27.1247 66.3279 26.4527ZM68.9599 0.73467C69.6129 1.26667 70.0479 1.6227 70.4699 1.9667C70.3239 1.3677 70.4499 0.51267 68.9599 0.73467ZM58.5459 5.25368C58.2089 4.10368 57.7659 3.82369 57.2169 4.41369C57.4999 5.71969 57.9429 5.99968 58.5459 5.25368ZM55.5649 20.4347C56.0589 19.7877 56.3839 19.3617 56.7089 18.9347C55.8129 18.9737 55.0439 19.1087 55.5649 20.4347ZM72.0959 43.0247C71.4419 42.5227 70.9889 42.1757 70.5449 41.8357C70.6229 42.5427 70.7849 43.1807 72.0959 43.0247ZM65.0779 9.69668C63.8409 10.1607 65.3379 10.5987 65.3559 10.6727C65.2629 10.3467 65.1699 10.0217 65.0779 9.69668ZM65.8609 39.4787C66.2249 39.4587 66.5899 39.4387 66.9539 39.4187C66.9309 38.7757 65.8679 38.6577 65.8609 39.4787ZM65.0229 29.5707C64.9619 29.8277 64.5029 30.3797 64.6899 31.2247C65.4039 31.3337 65.5149 30.7827 65.0229 29.5707ZM75.6139 20.6597C75.8629 20.9197 76.1109 21.1797 76.3599 21.4397C76.4809 21.0707 76.3009 20.0087 75.6139 20.6597ZM64.0069 15.5907C63.5559 14.6447 63.1169 14.5357 62.6879 15.2637C63.1989 16.1557 63.6389 16.2647 64.0069 15.5907ZM26.6749 67.9687C26.6359 68.3217 26.5969 68.6757 26.5579 69.0287C27.9569 69.0257 26.6769 67.9607 26.6749 67.9687ZM69.0589 61.9837C69.2209 61.3977 69.3909 60.8247 69.5609 60.2507C68.6139 60.7107 68.8229 61.3447 69.0589 61.9837ZM73.3509 61.1047C73.6029 61.6247 73.9029 61.6307 74.2509 61.1227C73.9179 60.5887 73.6189 60.5827 73.3509 61.1047ZM70.6909 15.0717C70.2279 14.6807 69.9049 14.7887 69.7229 15.3937C69.8149 15.5537 69.9509 15.6557 70.1329 15.7017C70.3189 15.4917 70.5049 15.2817 70.6909 15.0717ZM61.0779 29.6847C61.4889 30.1747 61.7689 30.1187 61.9179 29.5167C61.5449 29.1827 61.2649 29.2387 61.0779 29.6847ZM64.1179 37.4487C64.3319 37.8947 64.5339 37.8567 64.7239 37.3357C64.5509 36.9417 64.3489 36.9797 64.1179 37.4487ZM46.3349 40.2477C46.5009 40.7447 46.7519 40.7717 47.0879 40.3297C46.9369 39.9207 46.6859 39.8927 46.3349 40.2477ZM68.3259 14.9147C68.0319 14.9797 67.7369 15.0447 67.4429 15.1097C67.8949 15.5497 68.1889 15.4847 68.3259 14.9147ZM24.6039 83.4307C24.8939 83.9327 25.2159 83.9347 25.5719 83.4367C25.2229 82.9087 24.9009 82.9067 24.6039 83.4307ZM63.3349 52.0687C63.0299 51.6907 62.7889 51.7457 62.6129 52.2327C62.8819 52.5487 63.1219 52.4937 63.3349 52.0687ZM76.1719 51.9777C75.9749 52.3427 75.9719 52.7077 76.1639 53.0717C76.8679 52.8557 76.7339 52.3317 76.1719 51.9777ZM32.6959 46.1507C31.4189 45.9777 30.9349 46.5857 30.8859 47.7797C32.6199 47.8857 32.6379 47.8707 32.6959 46.1507Z" fill="black"/>
</svg>
