<svg width="172" height="281" viewBox="0 0 172 281" fill="none" xmlns="http://www.w3.org/2000/svg">
<path d="M106.872 199.583C106.872 199.583 108.556 254.62 110.461 271.134C99.1547 271.781 100.875 270.887 100.875 270.887C100.875 270.887 93.4417 246.757 91.8707 235.289C91.3947 231.813 90.4097 228.467 89.1777 225.261C83.7887 211.25 83.0757 201.238 83.0757 201.238L106.872 199.583Z" fill="#39B54A"/>
<path d="M61.0138 199.169C61.0138 199.169 59.3298 254.206 57.4238 270.72C68.7298 271.367 67.0098 270.473 67.0098 270.473C67.0098 270.473 74.4428 246.343 76.0138 234.875C76.4898 231.399 77.4748 228.053 78.7078 224.847C84.0968 210.836 84.9888 201.45 84.9888 201.45L61.0138 199.169Z" fill="#39B54A"/>
<path d="M59.3079 180.74C59.9689 182.102 60.8509 200.709 60.8509 200.709C60.8509 200.709 90.8369 210.542 107.153 201.465C106.712 189.968 104.728 184.824 104.728 184.824L59.3079 180.74Z" fill="#39B54A"/>
<path d="M117.115 151.093C117.115 151.093 122.267 172.139 124.645 178.821C127.023 185.502 133.364 206.549 133.364 206.549L127.32 207.05C127.32 207.05 114.736 179.823 113.547 176.984C112.358 174.144 107.602 154.267 107.602 154.267L117.115 151.093Z" fill="#FCC5A4"/>
<path d="M100.786 135.726C105.542 132.051 119.017 131.717 121.395 138.733C123.773 145.748 119.81 152.096 119.81 152.096L121.395 154.434L106.334 156.785L100.786 135.726Z" fill="#DE2828"/>
<path d="M50.4529 151.093C50.4529 151.093 45.3009 172.139 42.9229 178.821C40.5449 185.502 34.2039 206.549 34.2039 206.549L40.2479 207.05C40.2479 207.05 52.8319 179.823 54.0209 176.984C55.2099 174.144 59.9659 154.267 59.9659 154.267L50.4529 151.093Z" fill="#FCC5A4"/>
<path d="M100.876 270.907C100.876 270.907 99.156 271.763 110.462 271.144C110.327 270.024 110.193 266.336 110.061 264.878C106.461 264.301 102.877 266.218 99.301 265.859C100.239 268.926 100.876 270.907 100.876 270.907Z" fill="#D9E021"/>
<path d="M110.485 271.202C110.485 271.202 111.25 273.899 118.43 273.679C125.61 273.459 125.133 277.222 123.701 279.428C117.26 281.119 110.825 278.601 107.546 279.187C104.267 279.773 99.3338 279.957 97.9908 278.77C96.6388 274.906 100.905 271.025 100.905 271.025L110.485 271.202Z" fill="#0071BC"/>
<path d="M57.4238 270.748C68.7298 271.367 67.0098 270.511 67.0098 270.511C67.0098 270.511 67.7178 268.308 68.7428 264.945C65.1588 265.054 61.5628 265.223 57.9498 265.443C57.7768 267.483 57.6018 269.276 57.4238 270.748Z" fill="#D9E021"/>
<path d="M66.782 135.726C62.026 132.051 48.551 131.717 46.173 138.733C43.795 145.748 47.758 152.096 47.758 152.096L46.173 154.434L61.234 156.785L66.782 135.726Z" fill="#DE2828"/>
<mask id="mask0_107_21270" style="mask-type:luminance" maskUnits="userSpaceOnUse" x="57" y="180" width="54" height="92">
<path d="M106.935 201.577C107.007 201.538 107.082 201.506 107.153 201.466C106.712 189.969 104.728 184.825 104.728 184.825L59.3078 180.74C59.9688 182.102 60.8508 200.709 60.8508 200.709C60.8508 200.709 60.8938 200.723 60.9638 200.745C60.6728 209.834 59.1388 255.863 57.4238 270.72C68.7298 271.367 67.0098 270.473 67.0098 270.473C67.0098 270.473 74.4428 246.343 76.0138 234.875C76.4898 231.399 77.4748 228.053 78.7078 224.847C81.5228 217.529 83.1088 211.477 83.9838 207.361C84.8088 211.642 86.3478 217.898 89.1798 225.261C90.4128 228.466 91.3968 231.813 91.8728 235.289C93.4438 246.757 100.877 270.887 100.877 270.887C100.877 270.887 99.1568 271.781 110.463 271.134C108.772 256.493 107.257 211.577 106.935 201.577Z" fill="white"/>
</mask>
<g mask="url(#mask0_107_21270)">
<path d="M61.3578 216.098C63.2837 216.098 64.8448 214.284 64.8448 212.048C64.8448 209.811 63.2837 207.998 61.3578 207.998C59.432 207.998 57.8708 209.811 57.8708 212.048C57.8708 214.284 59.432 216.098 61.3578 216.098Z" stroke="white" stroke-width="1.1339" stroke-miterlimit="10" stroke-linecap="round" stroke-linejoin="round"/>
<path d="M61.3578 230.497C63.2837 230.497 64.8448 228.684 64.8448 226.447C64.8448 224.211 63.2837 222.397 61.3578 222.397C59.432 222.397 57.8708 224.211 57.8708 226.447C57.8708 228.684 59.432 230.497 61.3578 230.497Z" stroke="white" stroke-width="1.1339" stroke-miterlimit="10" stroke-linecap="round" stroke-linejoin="round"/>
<path d="M61.3578 244.898C63.2837 244.898 64.8448 243.085 64.8448 240.848C64.8448 238.611 63.2837 236.798 61.3578 236.798C59.432 236.798 57.8708 238.611 57.8708 240.848C57.8708 243.085 59.432 244.898 61.3578 244.898Z" stroke="white" stroke-width="1.1339" stroke-miterlimit="10" stroke-linecap="round" stroke-linejoin="round"/>
<path d="M61.3578 259.298C63.2837 259.298 64.8448 257.484 64.8448 255.248C64.8448 253.011 63.2837 251.198 61.3578 251.198C59.432 251.198 57.8708 253.011 57.8708 255.248C57.8708 257.484 59.432 259.298 61.3578 259.298Z" stroke="white" stroke-width="1.1339" stroke-miterlimit="10" stroke-linecap="round" stroke-linejoin="round"/>
<path d="M71.3708 209.573C73.2966 209.573 74.8578 207.759 74.8578 205.523C74.8578 203.286 73.2966 201.473 71.3708 201.473C69.445 201.473 67.8838 203.286 67.8838 205.523C67.8838 207.759 69.445 209.573 71.3708 209.573Z" stroke="white" stroke-width="1.1339" stroke-miterlimit="10" stroke-linecap="round" stroke-linejoin="round"/>
<path d="M61.2458 203.273C63.1716 203.273 64.7328 201.46 64.7328 199.223C64.7328 196.986 63.1716 195.173 61.2458 195.173C59.32 195.173 57.7588 196.986 57.7588 199.223C57.7588 201.46 59.32 203.273 61.2458 203.273Z" stroke="white" stroke-width="1.1339" stroke-miterlimit="10" stroke-linecap="round" stroke-linejoin="round"/>
<path d="M71.3708 223.973C73.2966 223.973 74.8578 222.159 74.8578 219.923C74.8578 217.686 73.2966 215.873 71.3708 215.873C69.445 215.873 67.8838 217.686 67.8838 219.923C67.8838 222.159 69.445 223.973 71.3708 223.973Z" stroke="white" stroke-width="1.1339" stroke-miterlimit="10" stroke-linecap="round" stroke-linejoin="round"/>
<path d="M71.3708 238.372C73.2966 238.372 74.8578 236.559 74.8578 234.322C74.8578 232.086 73.2966 230.272 71.3708 230.272C69.445 230.272 67.8838 232.086 67.8838 234.322C67.8838 236.559 69.445 238.372 71.3708 238.372Z" stroke="white" stroke-width="1.1339" stroke-miterlimit="10" stroke-linecap="round" stroke-linejoin="round"/>
<path d="M71.3708 252.773C73.2966 252.773 74.8578 250.96 74.8578 248.723C74.8578 246.486 73.2966 244.673 71.3708 244.673C69.445 244.673 67.8838 246.486 67.8838 248.723C67.8838 250.96 69.445 252.773 71.3708 252.773Z" stroke="white" stroke-width="1.1339" stroke-miterlimit="10" stroke-linecap="round" stroke-linejoin="round"/>
<path d="M79.6957 214.523C81.6216 214.523 83.1827 212.71 83.1827 210.473C83.1827 208.236 81.6216 206.423 79.6957 206.423C77.7699 206.423 76.2087 208.236 76.2087 210.473C76.2087 212.71 77.7699 214.523 79.6957 214.523Z" stroke="white" stroke-width="1.1339" stroke-miterlimit="10" stroke-linecap="round" stroke-linejoin="round"/>
<path d="M80.5959 201.698C82.5217 201.698 84.0829 199.884 84.0829 197.648C84.0829 195.411 82.5217 193.598 80.5959 193.598C78.6701 193.598 77.1089 195.411 77.1089 197.648C77.1089 199.884 78.6701 201.698 80.5959 201.698Z" stroke="white" stroke-width="1.1339" stroke-miterlimit="10" stroke-linecap="round" stroke-linejoin="round"/>
<path d="M79.6957 228.923C81.6216 228.923 83.1827 227.109 83.1827 224.873C83.1827 222.636 81.6216 220.823 79.6957 220.823C77.7699 220.823 76.2087 222.636 76.2087 224.873C76.2087 227.109 77.7699 228.923 79.6957 228.923Z" stroke="white" stroke-width="1.1339" stroke-miterlimit="10" stroke-linecap="round" stroke-linejoin="round"/>
<path d="M91.3957 208.448C93.3215 208.448 94.8827 206.634 94.8827 204.398C94.8827 202.161 93.3215 200.348 91.3957 200.348C89.4699 200.348 87.9087 202.161 87.9087 204.398C87.9087 206.634 89.4699 208.448 91.3957 208.448Z" stroke="white" stroke-width="1.1339" stroke-miterlimit="10" stroke-linecap="round" stroke-linejoin="round"/>
<path d="M91.3957 222.848C93.3215 222.848 94.8827 221.034 94.8827 218.798C94.8827 216.561 93.3215 214.748 91.3957 214.748C89.4699 214.748 87.9087 216.561 87.9087 218.798C87.9087 221.034 89.4699 222.848 91.3957 222.848Z" stroke="white" stroke-width="1.1339" stroke-miterlimit="10" stroke-linecap="round" stroke-linejoin="round"/>
<path d="M91.3957 237.247C93.3215 237.247 94.8827 235.434 94.8827 233.197C94.8827 230.961 93.3215 229.147 91.3957 229.147C89.4699 229.147 87.9087 230.961 87.9087 233.197C87.9087 235.434 89.4699 237.247 91.3957 237.247Z" stroke="white" stroke-width="1.1339" stroke-miterlimit="10" stroke-linecap="round" stroke-linejoin="round"/>
<path d="M99.7209 215.198C101.647 215.198 103.208 213.384 103.208 211.148C103.208 208.911 101.647 207.098 99.7209 207.098C97.7951 207.098 96.2339 208.911 96.2339 211.148C96.2339 213.384 97.7951 215.198 99.7209 215.198Z" stroke="white" stroke-width="1.1339" stroke-miterlimit="10" stroke-linecap="round" stroke-linejoin="round"/>
<path d="M99.7209 229.598C101.647 229.598 103.208 227.784 103.208 225.548C103.208 223.311 101.647 221.498 99.7209 221.498C97.7951 221.498 96.2339 223.311 96.2339 225.548C96.2339 227.784 97.7951 229.598 99.7209 229.598Z" stroke="white" stroke-width="1.1339" stroke-miterlimit="10" stroke-linecap="round" stroke-linejoin="round"/>
<path d="M99.7209 243.997C101.647 243.997 103.208 242.184 103.208 239.947C103.208 237.711 101.647 235.897 99.7209 235.897C97.7951 235.897 96.2339 237.711 96.2339 239.947C96.2339 242.184 97.7951 243.997 99.7209 243.997Z" stroke="white" stroke-width="1.1339" stroke-miterlimit="10" stroke-linecap="round" stroke-linejoin="round"/>
<path d="M99.7209 258.398C101.647 258.398 103.208 256.585 103.208 254.348C103.208 252.111 101.647 250.298 99.7209 250.298C97.7951 250.298 96.2339 252.111 96.2339 254.348C96.2339 256.585 97.7951 258.398 99.7209 258.398Z" stroke="white" stroke-width="1.1339" stroke-miterlimit="10" stroke-linecap="round" stroke-linejoin="round"/>
<path d="M107.821 207.323C109.747 207.323 111.308 205.509 111.308 203.273C111.308 201.036 109.747 199.223 107.821 199.223C105.895 199.223 104.334 201.036 104.334 203.273C104.334 205.509 105.895 207.323 107.821 207.323Z" stroke="white" stroke-width="1.1339" stroke-miterlimit="10" stroke-linecap="round" stroke-linejoin="round"/>
<path d="M107.821 221.723C109.747 221.723 111.308 219.909 111.308 217.673C111.308 215.436 109.747 213.623 107.821 213.623C105.895 213.623 104.334 215.436 104.334 217.673C104.334 219.909 105.895 221.723 107.821 221.723Z" stroke="white" stroke-width="1.1339" stroke-miterlimit="10" stroke-linecap="round" stroke-linejoin="round"/>
<path d="M107.821 236.122C109.747 236.122 111.308 234.309 111.308 232.072C111.308 229.836 109.747 228.022 107.821 228.022C105.895 228.022 104.334 229.836 104.334 232.072C104.334 234.309 105.895 236.122 107.821 236.122Z" stroke="white" stroke-width="1.1339" stroke-miterlimit="10" stroke-linecap="round" stroke-linejoin="round"/>
<path d="M107.821 250.523C109.747 250.523 111.308 248.71 111.308 246.473C111.308 244.236 109.747 242.423 107.821 242.423C105.895 242.423 104.334 244.236 104.334 246.473C104.334 248.71 105.895 250.523 107.821 250.523Z" stroke="white" stroke-width="1.1339" stroke-miterlimit="10" stroke-linecap="round" stroke-linejoin="round"/>
</g>
<path d="M58.776 177.371C58.776 177.371 49.859 194.215 59.37 190.45C58.379 198.575 68.486 196.791 70.666 190.054C74.431 200.755 81.5649 196.792 82.3579 191.243C86.1229 202.539 92.266 195.801 91.275 191.838C100.193 203.332 104.354 195.207 102.174 189.658C112.281 198.377 115.055 191.243 111.686 187.28C108.317 183.317 108.317 173.408 108.317 173.408L58.776 177.371Z" fill="#DE2828"/>
<path d="M108.635 178.165C108.714 175.686 108.208 170.091 108.809 163.204C110.695 141.597 105.161 134.962 94.0189 133.806C82.8769 132.65 69.4759 132.051 69.4759 132.051C69.4759 132.051 60.7589 140.286 60.3599 159.458C60.2429 165.088 59.5979 171.507 58.5779 178.053C66.0089 180.74 97.5579 184.112 108.635 178.165Z" fill="#FF4040"/>
<path d="M75.0561 116.426L73.894 135.181C73.894 135.181 90.1581 141.042 92.4821 134.009C94.2251 126.976 92.4821 118.185 92.4821 118.185L75.0561 116.426Z" fill="#FCB488"/>
<path d="M74.6289 128.226C70.0709 127.433 63.7959 135.615 68.2879 140.737C72.7799 145.859 77.0069 146.853 77.0069 146.853L85.1319 137.539L93.4549 146.853C93.4549 146.853 108.714 135.031 93.6529 129.018C78.5929 132.582 74.6289 128.226 74.6289 128.226Z" fill="#DE2828"/>
<path d="M57.4009 270.805C57.4009 270.805 56.6359 273.502 49.4559 273.282C42.2759 273.062 42.7529 276.825 44.1849 279.031C50.6259 280.722 57.0609 278.204 60.3399 278.79C63.6189 279.376 68.5519 279.56 69.8949 278.373C71.2469 274.509 66.9809 270.628 66.9809 270.628L57.4009 270.805Z" fill="#0071BC"/>
<path d="M97.7649 277.681C97.8009 278.042 97.8649 278.405 97.9919 278.77C99.3339 279.957 104.268 279.773 107.547 279.187C110.826 278.601 117.261 281.119 123.702 279.428C124.016 278.944 124.277 278.383 124.429 277.808C115.455 278.417 106.779 278.372 97.7649 277.681Z" fill="#004B7D"/>
<path d="M43.4319 277.314C43.5779 277.924 43.8519 278.52 44.1839 279.031C50.6249 280.722 57.0599 278.204 60.3389 278.79C63.6179 279.376 68.5509 279.56 69.8939 278.373C70.1509 277.637 70.2029 276.901 70.1208 276.191C61.2248 276.905 52.3289 277.809 43.4319 277.314Z" fill="#004B7D"/>
<path d="M37.982 206.033C40.621 206.357 42.655 208.887 43.101 210.714C43.466 212.211 43.7749 214.777 44.0189 215.978C44.0929 216.341 43.848 216.696 43.443 216.836C43.435 216.839 43.427 216.841 43.419 216.844C42.949 217.004 42.418 216.814 42.218 216.421L40.7459 213.52C40.7459 213.52 40.396 220.923 38.948 220.891C37.501 220.859 38.057 214.509 38.057 214.509C38.057 214.509 37.1999 221.492 35.4329 221.337C33.7009 221.186 35.155 213.597 35.155 213.597C35.155 213.597 34.5459 220.736 32.2869 220.592C30.9579 220.507 32.2329 214.659 32.2329 214.659L32.383 213.135C32.383 213.135 31.121 219.173 29.929 218.881C28.737 218.589 30.119 212.781 30.119 212.781C30.119 212.781 31.1619 206.097 34.4459 205.724C37.7299 205.352 37.982 206.033 37.982 206.033Z" fill="#FCC5A4"/>
<path d="M129.586 206.033C126.947 206.357 124.913 208.887 124.467 210.714C124.102 212.211 123.793 214.777 123.549 215.978C123.475 216.341 123.72 216.696 124.125 216.836C124.133 216.839 124.141 216.841 124.149 216.844C124.619 217.004 125.15 216.814 125.35 216.421L126.822 213.52C126.822 213.52 127.172 220.923 128.62 220.891C130.067 220.859 129.511 214.509 129.511 214.509C129.511 214.509 130.368 221.492 132.135 221.337C133.867 221.186 132.413 213.597 132.413 213.597C132.413 213.597 133.022 220.736 135.281 220.592C136.61 220.507 135.335 214.659 135.335 214.659L135.185 213.135C135.185 213.135 136.447 219.173 137.639 218.881C138.831 218.589 137.449 212.781 137.449 212.781C137.449 212.781 136.406 206.097 133.122 205.724C129.838 205.352 129.586 206.033 129.586 206.033Z" fill="#FCC5A4"/>
<path d="M47.7578 152.095L60.2288 153.723" stroke="#333333" stroke-width="1.1339" stroke-miterlimit="10" stroke-linecap="round" stroke-linejoin="round"/>
<path d="M109.242 153.723L119.81 152.095" stroke="#333333" stroke-width="1.1339" stroke-miterlimit="10" stroke-linecap="round" stroke-linejoin="round"/>
<path d="M59.5688 176.182C59.5688 176.182 92.0679 183.316 107.922 175.984" stroke="#333333" stroke-width="1.1339" stroke-miterlimit="10" stroke-linecap="round" stroke-linejoin="round"/>
<path d="M59.1719 178.362C59.1719 178.362 92.2039 185.496 108.318 178.164" stroke="#333333" stroke-width="1.1339" stroke-miterlimit="10" stroke-linecap="round" stroke-linejoin="round"/>
<path d="M58.2471 263.376H69.0811" stroke="#333333" stroke-width="1.1339" stroke-miterlimit="10" stroke-linecap="round" stroke-linejoin="round"/>
<path d="M98.8059 263.376H109.639" stroke="#333333" stroke-width="1.1339" stroke-miterlimit="10" stroke-linecap="round" stroke-linejoin="round"/>
<path d="M41.7369 13.5789C27.2289 22.0419 20.276 54.8919 4.46295 48.5109C10.289 60.9959 21.6639 62.6599 21.6639 62.6599C15.8379 65.9889 5.57296 68.4859 0.855957 63.4919C11.676 85.1319 18.6119 91.5129 30.8189 98.1709C26.9349 100.668 18.6119 101.223 18.6119 101.223C34.7029 117.314 122.927 131.741 161.768 102.888C157.884 103.998 144.012 101.223 144.012 101.223C144.012 101.223 164.82 96.2289 168.981 82.6349C165.652 84.5769 151.78 84.0219 151.78 84.0219C162.877 79.0279 172.31 69.0409 170.923 60.7179C162.6 70.4279 144.187 59.6839 144.567 47.9559C145.653 14.4289 95.0039 -17.4931 41.7369 13.5789Z" fill="url(#paint0_linear_107_21270)"/>
<path d="M31.8759 88.74C39.6764 88.74 45.9999 82.7777 45.9999 75.423C45.9999 68.0682 39.6764 62.106 31.8759 62.106C24.0754 62.106 17.752 68.0682 17.752 75.423C17.752 82.7777 24.0754 88.74 31.8759 88.74Z" fill="#FCB488"/>
<path d="M135.296 88.74C143.097 88.74 149.421 82.7777 149.421 75.423C149.421 68.0682 143.097 62.106 135.296 62.106C127.495 62.106 121.171 68.0682 121.171 75.423C121.171 82.7777 127.495 88.74 135.296 88.74Z" fill="#FCB488"/>
<path d="M32.4089 40.0568C21.4889 85.3228 32.1259 124.477 92.4429 122.864C154.687 121.199 142.977 49.9718 134.577 34.6398C88.3779 33.9098 32.4089 40.0568 32.4089 40.0568Z" fill="#FCC5A4"/>
<path opacity="0.05" d="M63.8938 115.201C63.7298 115.324 63.8878 115.199 63.8938 115.201V115.201ZM54.7748 46.1517C54.8178 46.1117 54.8738 46.0537 54.7748 46.1517V46.1517ZM66.4298 81.0967C66.2688 81.2207 66.4208 81.0927 66.4298 81.0967V81.0967ZM64.5988 114.421C67.9158 108.244 61.3808 109.279 58.0668 108.669C59.1658 106.851 60.0198 104.931 61.0438 103.089C61.3678 102.507 63.2828 104.166 63.6108 103.033C59.1348 99.7687 64.2158 101.559 64.6538 97.1917C62.8638 98.2107 60.9808 98.4127 59.0028 97.7997C60.1048 99.2947 59.9338 100.613 58.4888 101.754C52.4608 97.0907 57.5028 100.569 57.9938 96.6007C58.3418 93.7857 55.8458 92.4447 59.5668 91.6437C57.2718 89.5387 55.9868 85.2017 59.9098 89.3427C60.1118 88.0087 60.7738 86.9707 61.8948 86.2277C62.2708 87.9017 71.1678 100.477 69.1838 100.937C70.2668 100.685 70.9718 97.2247 73.7508 96.2227C72.6198 95.3927 70.1648 96.8467 69.4418 96.0177C71.4118 94.7737 71.4478 93.4827 69.5508 92.1457C67.5428 94.9447 65.4428 86.4547 72.3498 90.3747C69.8008 84.3157 58.6738 87.5667 56.5828 84.7767C64.1118 79.3617 57.1568 80.8697 55.9198 76.5767C63.4678 76.0617 58.8958 75.9177 62.1468 79.8077C61.7498 79.3327 62.6928 87.1817 64.2198 84.2617C64.6428 83.4537 64.2408 81.4137 64.6278 80.3957C68.5838 81.9457 67.2638 75.8717 66.4148 74.6377C64.6048 72.0057 61.8808 74.9297 61.8518 70.6957C58.2778 71.0397 53.4868 66.0487 55.0988 60.7847C56.5748 62.1067 57.1698 63.7387 56.8848 65.6817C56.7078 65.6817 63.8778 59.5547 62.7758 64.5117C59.9768 66.1387 58.2448 65.4427 61.6288 68.6567C63.0398 66.7017 62.6328 65.5387 64.8378 64.5007C63.6438 63.1607 63.8408 61.8577 65.4288 60.5927C63.9848 60.4717 62.5388 60.4117 61.0888 60.4127C59.0508 60.0687 58.5808 59.0167 59.6778 57.2567C60.6898 55.9527 60.4568 54.8537 58.9788 53.9597C57.5118 54.3747 56.0458 54.7897 54.5788 55.2037C56.3368 49.2167 62.7158 53.9737 62.0538 47.0547C60.1768 47.1267 59.6938 48.8677 57.6788 48.9437C57.6378 47.3887 61.4508 44.6817 57.8468 43.3317C53.0828 47.7007 56.2938 46.4047 57.3118 51.2697C57.9628 51.7167 51.3338 48.1707 51.4848 48.4157C50.1738 46.2877 52.6918 45.9337 52.0628 43.4077C51.7338 42.0867 48.7528 34.2557 47.4048 40.1807C49.8158 41.0147 50.0528 42.0487 48.1158 43.2817C45.3648 41.6747 47.6058 39.9037 44.8128 38.9667C42.6368 38.2377 38.9368 39.6487 37.4298 41.0097C39.7778 46.3207 42.7018 36.3757 45.6878 44.0687C45.4488 44.1827 36.5578 41.2497 41.8428 46.5327C38.6858 46.2247 36.6868 39.4497 33.4908 39.8147C30.2208 40.1887 34.7058 44.6037 34.5938 45.1437C33.3438 45.7397 32.8668 43.3027 31.6048 44.7317C32.0458 48.7237 35.2698 46.3297 38.0328 47.0867C37.7188 47.7997 34.9498 49.3217 34.9068 49.5047C34.6068 50.7687 36.4468 52.4627 35.5038 53.5927C36.5128 52.3847 25.4748 43.6647 31.7338 55.1237C26.0058 53.9267 31.3898 65.3367 31.1128 65.7597C30.4218 65.3327 29.7308 64.9057 29.0398 64.4787C29.0398 72.8237 27.5968 81.0377 35.1828 85.9357C33.9998 88.5417 32.1668 84.8677 31.0188 86.5887C33.1268 90.6457 33.4898 96.1987 35.8128 99.3807C39.8208 104.871 38.1858 101.069 42.8398 101.532C40.0308 104.444 49.0138 99.5947 39.9418 104.829C45.8438 113.693 41.6938 104.742 45.6798 108.582C47.2238 110.07 48.6108 113.354 50.4088 114.467C53.5158 116.389 55.8898 117.213 58.3678 118.622C58.9298 114.571 63.5268 116.416 64.5988 114.421ZM52.7638 40.4067C55.5248 40.3167 55.6808 41.5827 53.2308 44.2047C56.3328 42.3397 63.5988 37.9047 62.1268 46.9877C67.9968 45.5547 64.0968 44.6407 63.6258 40.6027C60.8408 43.3757 59.9148 39.1877 56.8538 39.2467C56.5888 39.2517 49.4228 39.0947 52.7638 40.4067ZM65.3248 54.7077C65.9488 55.4017 66.5728 56.0967 67.1968 56.7907C69.9768 42.3077 57.6458 57.2037 64.5808 57.7867C64.4878 57.5027 63.4208 53.4567 65.3248 54.7077ZM68.3158 80.3947C69.2498 80.8247 73.2498 78.1097 75.4848 78.4737C77.6138 78.8197 74.9108 80.5007 77.0588 81.0057C84.4848 82.7527 75.4348 78.4397 75.4848 74.4317C75.0908 74.1337 68.6818 79.8157 68.3158 80.3947ZM69.7398 109.271C66.9888 108.217 68.7028 107.075 66.4738 105.346C63.9548 107.488 64.4698 109.423 68.0208 111.15L67.3038 112.728C68.7228 112.072 74.1818 111.103 75.3458 111.15C73.7668 107.385 73.0278 110.531 69.7398 109.271ZM67.1168 113.138C67.1788 113.001 67.2408 112.865 67.3038 112.728C66.9518 112.891 66.8428 113.035 67.1168 113.138ZM75.3458 111.15C75.3728 111.214 75.3978 111.262 75.4248 111.33C75.6528 111.214 75.5948 111.16 75.3458 111.15ZM66.4578 105.33C66.4648 105.336 66.6328 105.213 66.4578 105.33V105.33ZM71.9518 40.8047C74.5598 38.9297 65.5868 38.8337 64.4958 39.1647C65.5978 39.1997 66.4978 39.6267 67.1948 40.4437C67.1968 40.5637 71.5888 40.7767 71.9518 40.8047ZM66.5468 44.5327C67.5518 45.4517 68.0578 48.7767 69.1778 49.0707C69.5908 44.3737 67.2798 44.4037 67.1958 40.5467C65.4338 41.6837 65.2168 43.0127 66.5468 44.5327ZM66.8558 62.1697C66.2648 65.1727 68.9978 65.4087 69.5558 68.3597C69.8978 69.5967 70.6458 70.5017 71.8008 71.0747C71.7088 67.3527 69.0708 64.8047 66.8558 62.1697ZM72.6528 57.2507C72.8118 55.4847 72.2638 54.5017 71.0258 54.2817C71.2698 54.9207 69.4248 58.5297 68.8928 59.1347C70.6678 59.6217 73.2748 59.9277 72.6528 57.2507ZM68.8928 59.1347C68.8468 59.1217 68.7988 59.1097 68.7538 59.0967C68.7248 59.2707 68.7858 59.2567 68.8928 59.1347ZM70.7198 54.2337C70.8298 54.2417 70.9258 54.2647 71.0258 54.2817C70.9858 54.1757 70.8908 54.1477 70.7198 54.2337ZM69.3728 62.1297C71.2368 62.6157 73.1288 62.7817 75.0498 62.6277C74.4218 61.7317 70.0768 57.4697 69.3728 62.1297ZM73.2298 60.0347C72.9468 59.6317 73.2618 60.0297 73.2298 60.0347V60.0347ZM80.6778 61.3427C80.6778 61.3757 80.7498 61.4837 80.6778 61.3427V61.3427ZM78.1078 61.3997C78.1288 63.3077 78.7168 65.0347 79.8708 66.5797C79.8408 63.7767 82.7218 60.6647 78.1078 61.3997ZM75.1738 70.7397C77.2178 69.4237 74.6648 67.2677 73.8248 66.1667C72.9118 67.5447 73.0628 70.0377 75.1738 70.7397ZM69.6988 49.8027C70.6768 52.2887 72.5798 51.4857 74.5908 51.6187C74.0928 49.2477 72.1918 50.0307 69.6988 49.8027ZM70.5858 83.3287C70.9118 84.3417 71.2368 85.3557 71.5628 86.3687C74.1798 84.0937 74.0438 82.4217 71.1528 81.3527C70.9638 82.0107 70.7748 82.6697 70.5858 83.3287ZM78.2758 50.8577C79.0318 51.1027 79.7888 51.3467 80.5448 51.5917C80.6298 50.6917 81.7018 47.8677 80.2548 47.3607C79.5948 48.5267 78.9348 49.6917 78.2758 50.8577ZM73.1568 59.8927C75.4088 60.6017 76.3438 59.8067 75.9608 57.5077C72.9848 57.6567 72.0498 58.4517 73.1568 59.8927ZM67.7538 69.9787C67.9068 68.6817 67.4048 67.9997 66.2488 67.9337C65.6928 68.9547 65.4728 70.0497 65.5898 71.2157C66.6358 71.3587 67.3568 70.9457 67.7538 69.9787ZM75.3208 90.5777C72.8078 91.6717 73.1928 94.0347 75.8838 93.2537C75.6958 92.3617 75.5088 91.4697 75.3208 90.5777ZM63.1868 37.4107C61.8638 37.1847 60.7428 37.5757 59.8248 38.5857C60.3818 38.8727 60.9398 39.1607 61.4968 39.4477C62.0598 38.7687 62.6228 38.0897 63.1868 37.4107ZM72.7378 104.917C72.0238 104.256 71.3098 103.596 70.5968 102.935C69.5708 105.291 70.5938 106.802 72.7378 104.917ZM65.5078 94.5517C65.5188 94.4487 65.6608 94.6107 65.5078 94.5517V94.5517ZM63.0758 93.5997V96.0537C64.2188 96.1417 64.7458 96.5207 64.6538 97.1917C64.6718 97.1637 64.6928 97.1497 64.7198 97.1497C65.4948 95.1367 66.0938 94.7807 63.0758 93.5997ZM62.9808 119.26C63.8388 120.285 64.9358 120.8 66.2708 120.805C66.3048 120.29 66.3388 119.775 66.3728 119.26C65.3968 119.22 63.9258 119.024 62.9808 119.26ZM78.1578 83.8047C77.5158 84.4937 76.8738 85.1827 76.2318 85.8717C76.7588 86.3207 77.2848 86.7697 77.8118 87.2197C79.1128 85.6387 79.2278 84.5007 78.1578 83.8047ZM67.2958 118.571C69.4638 120.259 70.3318 119.816 69.8988 117.243C68.7798 117.134 67.9118 117.577 67.2958 118.571ZM75.1118 114.837C74.2958 115.225 75.8068 116.575 76.7008 115.61C76.4268 114.836 75.8968 114.578 75.1118 114.837ZM79.5928 107.538C79.1238 108.307 78.6548 109.076 78.1848 109.845C78.9408 109.689 82.0168 108.268 79.5928 107.538ZM63.8918 115.203C63.8098 115.282 63.8738 115.336 63.8918 115.203V115.203ZM63.8698 115.297C63.6588 116.165 62.2698 116.794 63.2658 117.973C64.8548 116.771 64.9128 116.525 63.8698 115.297ZM80.4398 43.3847C79.8088 43.9387 79.1778 44.4917 78.3998 45.1747C80.0668 45.5567 80.1668 45.4737 80.4398 43.3847ZM70.5468 121.17C69.8278 122.391 72.0848 122.347 72.6238 121.472C71.9248 120.747 71.2328 120.646 70.5468 121.17ZM76.3448 104.209C75.5608 103.734 74.7768 103.258 73.9928 102.783C74.3658 106.085 75.1498 106.561 76.3448 104.209ZM65.9608 73.4217C66.7678 74.3787 67.7688 75.0417 68.9648 75.4087C68.5308 73.5747 67.5288 72.9127 65.9608 73.4217ZM67.3388 74.6507C67.2538 74.6097 67.4908 74.7857 67.3388 74.6507V74.6507ZM84.4938 103.524C85.0478 102.928 85.6008 102.332 86.1548 101.736C84.6358 100.542 84.6468 103.242 84.4938 103.524ZM66.4558 105.332C66.4348 105.236 66.5848 105.238 66.4558 105.332V105.332ZM65.4198 103.761C65.3058 103.698 64.6818 105.171 66.4448 105.267C66.4258 104.572 66.0838 104.07 65.4198 103.761ZM78.5458 58.0567C79.2288 58.8317 79.8438 58.8627 80.3908 58.1507C80.3538 56.8207 79.7388 56.7887 78.5458 58.0567ZM85.6408 113.58C85.0808 113.938 84.5208 114.296 83.9608 114.654C84.8368 115.106 86.2848 114.566 85.6408 113.58ZM62.9678 70.8747C63.8328 72.1887 64.6858 72.3167 65.5268 71.2577C64.7788 70.5297 63.9258 70.4017 62.9678 70.8747ZM65.5878 71.2757C65.5018 71.1837 65.5908 71.2147 65.5878 71.2757V71.2757ZM81.4258 75.3007H84.1868C82.6568 74.4677 82.6558 74.4617 81.4258 75.3007ZM72.2708 118.602C73.3258 118.797 73.9038 118.338 74.0038 117.224C72.3788 117.21 71.8008 117.669 72.2708 118.602ZM79.7008 116.583C80.8738 116.848 80.5968 114.977 80.3098 114.326C80.1068 115.079 79.9038 115.831 79.7008 116.583ZM66.4298 81.0967C66.4298 81.1567 66.4558 81.2827 66.4298 81.0967V81.0967ZM66.4458 81.2057C66.6728 82.7997 66.7028 82.8257 67.9108 83.3917C67.4298 81.9107 67.4088 81.8657 66.4458 81.2057ZM78.1648 72.9417C78.7318 72.4397 79.1458 72.0737 79.7298 71.5567C78.1998 71.5247 78.1998 71.5247 78.1648 72.9417ZM80.2838 40.8987C79.8188 40.0897 79.1098 39.8367 78.1558 40.1417C79.1708 41.6237 79.8798 41.8757 80.2838 40.8987ZM76.1778 122.982C76.9468 122.827 77.3628 122.743 77.7778 122.659C77.2718 121.81 76.8188 121.51 76.1778 122.982ZM74.5628 120.087C75.3968 120.225 75.5838 119.737 75.1258 118.624C74.9388 119.111 74.7508 119.599 74.5628 120.087ZM74.5118 38.1827C73.7838 37.8547 73.3088 38.2527 73.0878 39.3757C74.4468 40.2967 74.9218 39.8987 74.5118 38.1827ZM84.5458 61.7617C83.9378 61.3357 83.5828 61.0867 83.0188 60.6917C83.0148 61.9397 83.4338 62.0917 84.5458 61.7617ZM64.3898 100.423C64.2818 100.437 64.3388 100.4 64.3898 100.423V100.423ZM67.3568 100.024C66.3678 100.157 65.3788 100.29 64.3898 100.423C65.4738 100.899 66.9638 101.863 67.3568 100.024ZM70.6058 74.5067C71.4378 75.6237 71.8248 75.6287 71.7668 74.5197C71.1058 73.8037 70.7188 73.7987 70.6058 74.5067ZM79.5228 96.6237C79.0588 96.3627 78.7338 96.1807 78.2948 95.9337C78.5438 96.7977 78.5438 96.7977 79.5228 96.6237ZM62.4808 107.533C63.9878 106.666 64.2298 106.003 63.2048 105.543C62.4038 105.958 62.1628 106.621 62.4808 107.533ZM80.8418 92.8647C80.6448 95.2647 80.9898 91.0347 80.8418 92.8647V92.8647ZM76.1748 107.296C77.1938 108.443 77.6458 106.105 76.1748 107.296V107.296ZM86.3688 67.8907C85.3978 67.5037 84.9628 67.6427 85.0638 68.3067C86.0008 68.7787 86.4358 68.6407 86.3688 67.8907ZM68.6018 102.911C68.7358 101.773 68.2658 101.817 67.1908 103.043C67.7868 103.772 68.2568 103.728 68.6018 102.911ZM85.6058 120.269C85.7638 121.41 88.1378 120.075 85.6058 120.269V120.269ZM82.1538 84.5387C81.9478 83.6997 82.5218 86.0437 82.1538 84.5387V84.5387ZM81.3758 59.4107C81.0928 60.2787 80.9278 60.7857 80.7718 61.2647C81.2008 60.9367 81.7988 60.6847 81.3758 59.4107ZM80.6758 61.3397C80.7518 61.4497 80.8608 61.1777 80.6758 61.3397V61.3397ZM74.5528 39.8517C74.2618 39.7957 74.4398 39.8167 74.5528 39.8517V39.8517ZM75.7528 39.8517C73.6178 40.0727 75.6818 40.2207 75.7528 39.8517V39.8517ZM82.5838 100.637C82.3838 101.178 83.1368 99.1357 82.5838 100.637V100.637ZM80.4138 76.2677C78.7848 77.4467 79.9378 75.6647 80.4138 76.2677V76.2677ZM74.3448 42.5297C72.8818 42.7837 74.8738 42.4387 74.3448 42.5297V42.5297ZM74.0778 65.1377C73.6498 66.8977 74.5328 65.3587 74.0778 65.1377V65.1377ZM73.7758 66.1017C73.8598 66.2037 73.9788 65.8437 73.7758 66.1017V66.1017ZM63.0138 93.5667C63.0598 93.6597 63.1568 93.4497 63.0138 93.5667V93.5667ZM59.6598 94.9037C61.1928 98.0607 65.0388 91.4247 61.1668 91.6027C60.5478 91.6317 59.3898 94.3477 59.6598 94.9037ZM53.0248 45.2187C53.2978 46.3337 54.0708 46.1177 54.7458 46.0997C54.4098 45.4427 54.0428 44.8387 53.0248 45.2187ZM54.7728 46.1527C54.7298 46.0667 54.8708 46.0687 54.7728 46.1527V46.1527Z" fill="#ED1C24"/>
<path d="M63.0699 92.589C71.2862 92.589 77.9469 85.9283 77.9469 77.712C77.9469 69.4956 71.2862 62.835 63.0699 62.835C54.8535 62.835 48.1929 69.4956 48.1929 77.712C48.1929 85.9283 54.8535 92.589 63.0699 92.589Z" fill="white"/>
<path d="M114.257 92.589C122.473 92.589 129.134 85.9283 129.134 77.712C129.134 69.4956 122.473 62.835 114.257 62.835C106.041 62.835 99.3799 69.4956 99.3799 77.712C99.3799 85.9283 106.041 92.589 114.257 92.589Z" fill="white"/>
<path d="M63.0701 89.7631C69.7257 89.7631 75.121 84.3677 75.121 77.7121C75.121 71.0566 69.7257 65.6611 63.0701 65.6611C56.4145 65.6611 51.019 71.0566 51.019 77.7121C51.019 84.3677 56.4145 89.7631 63.0701 89.7631Z" fill="#333333"/>
<path d="M114.257 89.7631C120.913 89.7631 126.308 84.3677 126.308 77.7121C126.308 71.0566 120.913 65.6611 114.257 65.6611C107.601 65.6611 102.206 71.0566 102.206 77.7121C102.206 84.3677 107.601 89.7631 114.257 89.7631Z" fill="#333333"/>
<path d="M89.3319 74.5898C89.3319 74.5898 88.1349 86.8659 92.4439 87.2829C96.7529 87.6989 99.1469 95.1898 90.5289 95.3978" stroke="#333333" stroke-width="1.1339" stroke-miterlimit="10" stroke-linecap="round" stroke-linejoin="round"/>
<path d="M80.7329 103.581C81.4159 103.396 81.909 104.229 81.388 104.709C80.123 105.875 78.0919 107.1 75.1129 107.161C69.3669 107.278 72.3339 101.848 72.3339 101.848C72.3339 101.848 76.0459 104.852 80.7329 103.581Z" stroke="#333333" stroke-width="1.1339" stroke-miterlimit="10" stroke-linecap="round" stroke-linejoin="round"/>
<path d="M66.053 98.172C66.053 99.704 63.01 100.946 59.256 100.946C55.502 100.946 52.459 99.704 52.459 98.172C52.459 96.64 55.502 95.3979 59.256 95.3979C63.009 95.3979 66.053 96.64 66.053 98.172Z" stroke="#FF94FF" stroke-width="1.1339" stroke-miterlimit="10" stroke-linecap="round" stroke-linejoin="round"/>
<path d="M123.482 98.172C123.482 99.704 120.439 100.946 116.685 100.946C112.931 100.946 109.888 99.704 109.888 98.172C109.888 96.64 112.931 95.3979 116.685 95.3979C120.438 95.3979 123.482 96.64 123.482 98.172Z" stroke="#FF94FF" stroke-width="1.1339" stroke-miterlimit="10" stroke-linecap="round" stroke-linejoin="round"/>
<path d="M26.0551 45.737C26.0551 45.737 34.9241 89.294 10.2891 98.45C30.3251 102.334 42.1501 76.255 44.4501 52.118C55.2891 55.725 104.7 69.319 114.882 60.164C112.977 60.861 98.821 55.005 91.42 46.847C101.565 52.673 146.49 64.603 157.329 55.725C145.176 51.425 137.406 44.941 131.213 20.941C125.366 -1.71599 19.0851 11.031 26.0551 45.737Z" fill="#32356E"/>
<path d="M131.527 52.6728C132.637 54.3378 126.533 101.501 157.883 102.334C140.682 87.6298 144.011 55.1698 144.011 53.5058C144.011 51.8418 131.527 52.6728 131.527 52.6728Z" fill="#32356E"/>
<path d="M67.645 133.777C67.645 133.777 68.778 140.714 76.14 143.546C83.36 136.042 85.059 133.636 85.201 134.202C85.343 134.768 93.271 143.263 93.271 143.263C93.271 143.263 98.226 140.148 99.5 135.052" stroke="#333333" stroke-width="1.1339" stroke-miterlimit="10" stroke-linecap="round" stroke-linejoin="round"/>
<path d="M61.1328 150.625C61.1328 150.625 96.8098 157.137 108.702 151.474" stroke="#333333" stroke-width="1.1339" stroke-miterlimit="10" stroke-linecap="round" stroke-linejoin="round"/>
<path d="M61.416 153.315C62.549 156.005 64.531 154.731 65.38 153.598C65.663 157.421 69.061 155.297 69.627 154.023C70.901 158.978 73.733 156.147 74.016 154.589C74.582 159.261 77.272 156.854 77.697 154.872C77.98 158.978 82.086 158.128 82.652 156.005C84.351 161.243 86.05 157.846 86.616 156.147C89.306 161.81 91.005 158.129 91.005 156.43C93.129 160.253 95.111 157.704 95.252 155.722C97.234 159.544 99.641 157.562 100.065 155.722C102.047 159.403 103.18 155.156 103.18 154.589C105.445 159.544 108.769 156.635 107.602 154.267" stroke="#333333" stroke-width="1.1339" stroke-miterlimit="10" stroke-linecap="round" stroke-linejoin="round"/>
<path opacity="0.1" d="M75.52 171.245C74.475 169.773 72.2589 170.12 70.9509 168.034C73.3769 166.079 75.5539 166.688 77.0179 164.368C77.1839 164.258 75.4779 159.822 74.9069 159.601C73.4869 164.083 70.7109 158.569 67.3799 159.741C68.1909 162.858 74.0689 161.375 74.4399 164.632C74.3759 164.069 68.6099 163.474 66.9789 164.694C66.4069 164.099 66.3389 158.501 66.7609 157.678C68.0939 155.077 69.9429 160.209 71.1129 157.873C71.5989 156.903 74.6639 150.723 70.2549 151.228C67.6539 151.526 68.872 153.951 67.976 156.043C67.119 154.899 63.044 155.071 61.254 153.733C61.574 156.396 58.487 175.515 60.939 175.706C60.564 176.819 60.0369 177.853 59.3579 178.809C61.0449 180.227 62.1139 180.013 62.5659 178.168C62.7629 180.256 63.896 180.74 65.965 179.619C68.244 178.489 69.0539 178.836 68.3969 180.658C69.6969 181.224 70.771 180.938 71.619 179.8C71.567 181.585 72.2869 182.179 73.7789 181.581C74.2139 179.569 68.69 174.442 74.012 174.059C73.514 178.967 75.7919 174.359 77.3709 177.387C78.9449 180.407 75.9449 179.291 76.0699 181.409C76.9809 181.607 78.5039 181.514 79.4329 181.409C78.6349 177.489 77.734 176.053 76.327 174.113C75.778 173.359 76.039 171.977 75.52 171.245ZM67.6989 146.276C68.6359 146.626 68.4849 153.701 71.6209 149.386C73.3559 146.998 71.2399 143.89 69.4119 142.797C74.4019 141.189 72.526 144.296 73.543 146.569C77.702 143.737 72.7619 141.596 72.1229 139.397C71.2509 136.393 78.8469 136.581 71.0549 134.372C72.5049 136.151 72.6189 137.434 71.3979 138.223C69.1929 137.456 68.4349 135.899 69.1249 133.55C66.7879 135.082 62.7629 145.152 61.9869 147.676C64.0119 147.556 66.5289 148.783 67.6989 146.276ZM75.8879 135.505C74.3729 136.773 74.007 138.318 74.788 140.14C76.509 141.126 78.1359 143.041 79.5089 140.399C79.4109 140.253 78.6179 139.897 78.5859 139.975C77.7419 142.038 76.5439 134.836 77.4449 136.032C77.4559 136.047 75.3679 129.614 74.1019 133.202C74.2629 134.25 74.8579 135.018 75.8879 135.505ZM72.861 157.445C75.253 157.083 77.3389 157.704 79.1219 159.307C79.9099 154.464 74.637 152.87 72.861 157.445ZM66.9669 151.915C67.7399 148.265 61.271 148.3 61.418 152.488C63.565 151.713 64.8079 151.22 66.9669 151.915ZM78.0089 168.728C81.4419 171.012 82.43 170.674 80.973 167.716C79.775 167.427 78.7869 167.765 78.0089 168.728ZM80.9089 136.689C82.5879 133.242 81.7159 131.899 78.2949 132.658C78.9369 132.948 79.5799 133.237 80.2219 133.527C79.4229 134.77 79.6519 135.823 80.9089 136.689ZM79.1689 145.196C76.8799 144.733 77.199 146.011 76.254 148.384C77.742 149.136 79.3159 146.236 79.1689 145.196ZM77.2089 151.927C78.8619 152.137 78.8869 150.752 79.4799 149.733C77.5089 149.75 77.4829 149.763 77.2089 151.927ZM77.2089 151.927C77.0909 151.911 77.1969 152.024 77.2089 151.927V151.927ZM80.965 144.786C82.88 143.399 82.88 143.399 82.387 142.003C81.182 142.717 80.825 143.416 80.965 144.786ZM63.7139 153.492C63.5319 155.676 65.8419 153.417 65.9959 153.259C64.9139 152.038 64.1539 152.116 63.7139 153.492ZM73.9819 149.848V152.187C75.0279 150.75 75.0279 150.75 73.9819 149.848ZM77.142 153.81V152.002C74.919 152.159 74.919 152.762 77.142 153.81ZM77.142 151.924C77.18 152.008 77.192 152.035 77.142 151.924V151.924ZM83.374 159.062C82.985 158.587 82.7189 158.262 82.1569 157.575C82.0619 158.862 82.287 159.257 83.374 159.062ZM83.437 178.573C83.516 178.045 83.5949 177.518 83.7379 176.56C82.7779 177.392 82.722 177.924 83.437 178.573ZM78.5649 163.33C78.0629 163.667 77.5559 164.007 77.0479 164.347C78.5899 164.382 78.5969 164.367 78.5649 163.33ZM82.1989 165.922C81.3409 166.924 83.2579 166.865 82.1989 165.922V165.922ZM81.5219 147.843C81.4899 146.069 81.5539 149.676 81.5219 147.843V147.843ZM80.4929 171.86C78.8569 172.719 80.8239 172.523 80.4929 171.86V171.86Z" fill="black"/>
<path d="M45.0458 57.0229C43.9208 56.1229 30.1958 43.2979 30.1958 43.2979C30.1958 43.2979 38.0708 35.8729 38.2958 36.7729C38.5208 37.6729 48.8708 53.1979 48.8708 53.1979L45.0458 57.0229Z" fill="#FF94FF"/>
<path d="M45.7209 21.4729C64.3959 13.3729 90.9459 8.42292 105.121 25.5229C119.296 42.6229 146.087 56.9009 157.329 55.7249C135.962 61.1769 97.4709 46.4479 90.2709 32.4979C77.9029 8.53492 46.3959 27.7729 46.3959 27.7729" stroke="#4C4E92" stroke-width="1.1339" stroke-miterlimit="10" stroke-linecap="round" stroke-linejoin="round"/>
<path d="M50.4458 36.998C50.4458 36.998 89.0918 63.979 114.881 60.164" stroke="#4C4E92" stroke-width="1.1339" stroke-miterlimit="10" stroke-linecap="round" stroke-linejoin="round"/>
<path d="M47.7458 14.7231C58.5458 6.62315 98.1459 -0.801851 116.146 18.0981" stroke="#4C4E92" stroke-width="1.1339" stroke-miterlimit="10" stroke-linecap="round" stroke-linejoin="round"/>
<defs>
<linearGradient id="paint0_linear_107_21270" x1="85.9571" y1="0.940896" x2="85.9571" y2="119.424" gradientUnits="userSpaceOnUse">
<stop stop-color="#32356E"/>
<stop offset="1" stop-color="#23254D"/>
</linearGradient>
</defs>
</svg>
