<svg width="25" height="24" viewBox="0 0 25 24" fill="none" xmlns="http://www.w3.org/2000/svg">
<path opacity="0.2" d="M20.6995 20.25H4.30072C3.11759 20.25 2.37509 19.0116 2.94978 18.0084L11.1492 3.77063C11.7398 2.73938 13.2604 2.73938 13.851 3.77063L22.0504 18.0084C22.6251 19.0116 21.8826 20.25 20.6995 20.25Z" fill="#C45500"/>
<path d="M22.7 17.6334L14.5016 3.39563C14.2967 3.04681 14.0042 2.75758 13.6532 2.55662C13.3021 2.35566 12.9046 2.24994 12.5 2.24994C12.0955 2.24994 11.698 2.35566 11.3469 2.55662C10.9958 2.75758 10.7033 3.04681 10.4985 3.39563L2.30003 17.6334C2.10291 17.9708 1.99902 18.3546 1.99902 18.7453C1.99902 19.1361 2.10291 19.5198 2.30003 19.8572C2.50228 20.2081 2.79425 20.4989 3.14599 20.6997C3.49773 20.9006 3.89658 21.0042 4.30159 21H20.6985C21.1032 21.0039 21.5016 20.9001 21.853 20.6993C22.2044 20.4985 22.4961 20.2078 22.6982 19.8572C22.8956 19.52 22.9998 19.1363 23.0001 18.7456C23.0004 18.3548 22.8969 17.971 22.7 17.6334ZM21.3997 19.1063C21.3282 19.2282 21.2256 19.3289 21.1024 19.3981C20.9792 19.4673 20.8398 19.5024 20.6985 19.5H4.30159C4.16029 19.5024 4.02088 19.4673 3.89765 19.3981C3.77442 19.3289 3.67181 19.2282 3.60034 19.1063C3.5356 18.9966 3.50145 18.8717 3.50145 18.7444C3.50145 18.6171 3.5356 18.4921 3.60034 18.3825L11.7988 4.14469C11.8717 4.02335 11.9748 3.92295 12.098 3.85324C12.2212 3.78354 12.3603 3.7469 12.5019 3.7469C12.6435 3.7469 12.7826 3.78354 12.9058 3.85324C13.029 3.92295 13.1321 4.02335 13.205 4.14469L21.4035 18.3825C21.4676 18.4924 21.5011 18.6176 21.5005 18.7449C21.4998 18.8722 21.465 18.997 21.3997 19.1063ZM11.75 13.5V9.75C11.75 9.55109 11.829 9.36032 11.9697 9.21967C12.1104 9.07902 12.3011 9 12.5 9C12.6989 9 12.8897 9.07902 13.0304 9.21967C13.171 9.36032 13.25 9.55109 13.25 9.75V13.5C13.25 13.6989 13.171 13.8897 13.0304 14.0303C12.8897 14.171 12.6989 14.25 12.5 14.25C12.3011 14.25 12.1104 14.171 11.9697 14.0303C11.829 13.8897 11.75 13.6989 11.75 13.5ZM13.625 16.875C13.625 17.0975 13.559 17.315 13.4354 17.5C13.3118 17.685 13.1361 17.8292 12.9305 17.9144C12.725 17.9995 12.4988 18.0218 12.2806 17.9784C12.0623 17.935 11.8619 17.8278 11.7045 17.6705C11.5472 17.5132 11.4401 17.3127 11.3966 17.0945C11.3532 16.8762 11.3755 16.65 11.4607 16.4445C11.5458 16.2389 11.69 16.0632 11.875 15.9396C12.06 15.816 12.2775 15.75 12.5 15.75C12.7984 15.75 13.0845 15.8685 13.2955 16.0795C13.5065 16.2905 13.625 16.5766 13.625 16.875Z" fill="#C45500"/>
</svg>
