<svg width="51" height="50" viewBox="0 0 51 50" fill="none" xmlns="http://www.w3.org/2000/svg">
<path d="M44.3248 43.0473C43.9785 42.327 43.1906 41.9331 42.4066 42.0883L42.0087 42.132H41.9052C40.4009 42.132 39.7403 41.7341 39.2827 40.6158C38.5862 38.9166 39.1593 36.4214 39.7403 34.4396C40.9342 30.3645 42.5658 24.7892 42.526 19.3173C42.522 18.3025 42.4623 17.2917 42.339 16.2849C42.144 14.6811 41.7659 13.1012 41.2167 11.5811C41.364 19.2218 39.9234 28.9757 33.3452 35.7409C28.0922 41.1451 19.1382 44.2929 15.5287 43.7C19.7073 48.1611 25.7045 50.4573 31.7932 49.924C37.1974 49.4862 43.505 47.2935 44.4043 44.8262C44.6192 44.2452 44.5874 43.6045 44.3248 43.0473Z" fill="#E0E0E0"/>
<path d="M11.0319 16.9815C8.71977 16.7109 6.32409 15.6165 5.46052 13.4278C4.78002 11.7285 4.19901 9.19351 2.21321 9.49596C-0.254106 9.87401 0.322928 14.8445 0.899963 16.7626C3.24392 24.5625 10.8807 25.7922 11.004 25.6052C11.1274 25.4181 11.6049 16.9735 11.0319 16.9815Z" fill="#E0E0E0"/>
<path d="M11.0319 16.9813C9.7744 16.85 8.56462 16.4441 7.48616 15.7875C7.75279 16.8142 7.64136 17.9006 7.16779 18.8517C6.28831 20.8415 3.85681 21.908 3.85681 21.908C6.9529 25.1434 10.9165 25.7443 11.02 25.609C11.1792 25.3941 11.605 16.9734 11.0319 16.9813Z" fill="#CCCCCC"/>
<path d="M39.9792 16.9815C42.2913 16.7109 44.687 15.6165 45.5505 13.4278C46.231 11.7285 46.812 9.19351 48.7978 9.49596C51.2532 9.87003 50.6762 14.8445 50.0992 16.7626C47.7552 24.5625 40.1184 25.7962 39.9951 25.6052C39.8717 25.4141 39.4061 16.9735 39.9792 16.9815Z" fill="#E0E0E0"/>
<path d="M47.8348 18.6528C46.3305 20.3123 42.8842 21.8962 39.7245 22.127C39.7364 23.289 39.824 24.451 39.9792 25.6051C40.1065 25.7921 47.7393 24.5624 50.0832 16.7625C50.4892 15.31 50.6483 13.8018 50.5489 12.2975C50.322 14.6454 49.3709 16.866 47.8348 18.6528Z" fill="#CCCCCC"/>
<path d="M42.5459 19.3054C42.542 18.2906 42.4823 17.2798 42.3589 16.273C41.563 9.76645 37.8859 4.11549 32.7602 1.51684C30.4402 0.31502 27.8256 -0.190382 25.227 0.0643088C19.8267 0.637364 15.0075 3.70161 12.2019 8.34973C5.14218 20.157 9.66295 34.4396 10.8568 36.8672C16.9614 49.2714 26.8228 50.33 31.7972 49.928C37.2014 49.4903 43.509 47.2976 44.4084 44.8302C44.6193 44.2492 44.5914 43.6085 44.3288 43.0474C43.9826 42.3271 43.1946 41.9331 42.4106 42.0883L42.0127 42.1321H41.9092C40.4049 42.1321 39.7443 41.7341 39.2867 40.6159C38.5903 38.9166 39.1633 36.4215 39.7443 34.4396C40.9382 30.3725 42.5738 24.7972 42.5459 19.3054Z" fill="#E0E0E0"/>
<path d="M44.3248 43.0473C43.9785 42.327 43.1906 41.9331 42.4066 42.0883L42.0087 42.132H41.9052C40.4009 42.132 39.7403 41.7341 39.2827 40.6158C38.5862 38.9166 39.1593 36.4214 39.7403 34.4396C40.9342 30.3645 42.5658 24.7892 42.526 19.3173C42.522 18.3025 42.4623 17.2917 42.339 16.2849C42.144 14.6811 41.7659 13.1012 41.2167 11.5811C41.364 19.2218 39.9234 28.9757 33.3452 35.7409C28.0922 41.1451 19.1382 44.2929 15.5287 43.7C19.7073 48.1611 25.7045 50.4573 31.7932 49.924C37.1974 49.4862 43.505 47.2935 44.4043 44.8262C44.6192 44.2452 44.5874 43.6045 44.3248 43.0473Z" fill="#CCCCCC"/>
<mask id="mask0_94_12276" style="mask-type:luminance" maskUnits="userSpaceOnUse" x="13" y="20" width="23" height="10">
<path d="M24.5783 20.9688C21.1917 20.9887 17.8091 20.7021 14.4742 20.1171C13.9091 20.0216 13.3759 20.3997 13.2804 20.9648C13.2605 21.0802 13.2605 21.1956 13.2804 21.311C14.2434 26.0228 18.8796 29.8909 24.5902 29.8909C30.8341 29.8909 35.0405 25.9114 35.9121 21.2951C36.0115 20.734 35.6375 20.2007 35.0763 20.1012C34.957 20.0813 34.8376 20.0813 34.7182 20.1012C31.3714 20.6942 27.9768 20.9847 24.5783 20.9688Z" fill="white"/>
</mask>
<g mask="url(#mask0_94_12276)">
<path d="M24.5783 20.9688C21.1917 20.9887 17.8091 20.7021 14.4742 20.1171C13.9091 20.0216 13.3759 20.3997 13.2804 20.9648C13.2605 21.0802 13.2605 21.1956 13.2804 21.311C14.2434 26.0228 18.8796 29.8909 24.5902 29.8909C30.8341 29.8909 35.0405 25.9114 35.9121 21.2951C36.0115 20.734 35.6375 20.2007 35.0763 20.1012C34.957 20.0813 34.8376 20.0813 34.7182 20.1012C31.3714 20.6942 27.9768 20.9847 24.5783 20.9688Z" fill="url(#paint0_linear_94_12276)"/>
</g>
<path d="M25.3781 22.3141H24.5822H24.2121C22.5208 22.3141 20.8613 22.2305 19.2615 22.0992V29.3419C19.2655 32.1316 21.5219 34.392 24.3116 34.396H25.2746C28.0683 34.396 30.3287 32.1356 30.3326 29.3419V22.0634C28.7329 22.2106 27.0694 22.2942 25.3781 22.3141Z" fill="url(#paint1_linear_94_12276)"/>
<path opacity="0.3" d="M24.7893 28.5778C25.1116 28.5818 25.3743 28.3191 25.3783 27.9968V27.9928V22.314H24.5824H24.2123V27.9848C24.2083 28.3072 24.467 28.5738 24.7893 28.5778Z" fill="#AB3F2E"/>
<path d="M29.9546 17.6738C32.5151 17.6738 34.5908 15.5981 34.5908 13.0377C34.5908 10.4772 32.5151 8.40149 29.9546 8.40149C27.3941 8.40149 25.3184 10.4772 25.3184 13.0377C25.3184 15.5981 27.3941 17.6738 29.9546 17.6738Z" fill="white"/>
<path d="M30.1536 15.0593C31.2525 15.0593 32.1434 14.1542 32.1434 13.0377C32.1434 11.9212 31.2525 11.0161 30.1536 11.0161C29.0547 11.0161 28.1638 11.9212 28.1638 13.0377C28.1638 14.1542 29.0547 15.0593 30.1536 15.0593Z" fill="#422B0D"/>
<path d="M21.9757 13.8534L21.9359 13.7897C21.8921 13.7181 21.8444 13.6464 21.7927 13.5788C21.6176 13.348 21.4265 13.1291 21.2196 12.9261C20.941 12.6595 20.6426 12.4088 20.3322 12.182C20.161 12.0586 19.982 11.9273 19.7949 11.8079C19.6079 11.6885 19.4208 11.5771 19.2139 11.4537C19.007 11.3303 18.816 11.2428 18.6249 11.1433C18.4339 11.0438 18.227 10.9602 18.028 10.8727C17.6659 10.7135 17.2958 10.5822 16.9137 10.4747C16.6352 10.3991 16.3486 10.3474 16.0621 10.3156H15.8074H15.7159C15.3537 10.3036 15.0553 10.5862 15.0394 10.9443C15.0274 11.2348 15.2145 11.4975 15.493 11.589L15.5647 11.6129L15.7955 11.6885C15.9467 11.7402 16.1656 11.8198 16.4362 11.9352C16.7068 12.0506 17.0172 12.1939 17.3515 12.3571L17.8648 12.6237C18.0399 12.7152 18.2071 12.8067 18.3981 12.9182L18.5056 12.9818L18.1474 13.0177C18.0081 13.0415 17.9444 13.0495 17.8131 13.0774C17.6818 13.1052 17.5704 13.1251 17.4629 13.153C17.2401 13.2087 17.0252 13.2803 16.8103 13.3599C16.4242 13.5032 16.0581 13.6942 15.7199 13.925C15.5806 14.0205 15.4493 14.128 15.3219 14.2394C15.2224 14.3269 15.1269 14.4224 15.0394 14.5219C14.9638 14.6055 14.912 14.6771 14.8722 14.7249L14.8165 14.8005C14.6016 15.091 14.6613 15.4969 14.9518 15.7118C15.1826 15.8829 15.501 15.8829 15.7318 15.7118L15.8034 15.6601L15.8512 15.6243L15.9825 15.5288C16.1497 15.4173 16.3248 15.3139 16.5078 15.2263C16.7784 15.099 17.061 14.9915 17.3475 14.904C17.5067 14.8562 17.6778 14.8164 17.8529 14.7766C17.9405 14.7527 18.024 14.7408 18.1036 14.7249C18.1832 14.709 18.3185 14.6931 18.3862 14.6811C18.7364 14.6334 19.0905 14.6095 19.4447 14.6095C19.7432 14.6135 20.0456 14.6413 20.3401 14.6931C20.4675 14.7169 20.5829 14.7368 20.6784 14.7647C20.762 14.7846 20.8415 14.8085 20.9211 14.8363L21.0007 14.8562L21.0843 14.892L21.152 14.9239C21.4226 15.0393 21.7369 14.9637 21.924 14.7368C22.0155 14.6254 22.0672 14.4821 22.0672 14.3389C22.0991 14.1717 22.0672 13.9966 21.9757 13.8534Z" fill="#422B0D"/>
<defs>
<linearGradient id="paint0_linear_94_12276" x1="24.5968" y1="29.9108" x2="24.5968" y2="20.1055" gradientUnits="userSpaceOnUse">
<stop stop-color="#404040"/>
<stop offset="0.12" stop-color="#3E3A35"/>
<stop offset="0.44" stop-color="#392D1E"/>
<stop offset="0.74" stop-color="#362510"/>
<stop offset="1" stop-color="#35220B"/>
</linearGradient>
<linearGradient id="paint1_linear_94_12276" x1="24.7971" y1="34.396" x2="24.7971" y2="22.0634" gradientUnits="userSpaceOnUse">
<stop stop-color="#FF4081"/>
<stop offset="0.28" stop-color="#FB3D80"/>
<stop offset="0.55" stop-color="#EF337D"/>
<stop offset="0.82" stop-color="#DB2378"/>
<stop offset="1" stop-color="#CA1573"/>
</linearGradient>
</defs>
</svg>
