<svg width="53" height="50" viewBox="0 0 53 50" fill="none" xmlns="http://www.w3.org/2000/svg">
<path d="M20.1629 30.4932C20.1629 30.4932 24.0311 27.5588 29.8139 27.6663C38.3764 27.8298 40.1921 31.9045 40.1921 31.9045L41.5647 38.3672C41.5647 38.3672 44.1506 39.1331 44.9552 39.2149C45.7642 39.2966 47.339 39.7183 49.2365 38.3887C51.134 37.0549 50.6477 35.5834 51.5771 35.6221C52.7905 35.6737 51.9386 39.7398 50.8887 41.0349C49.8388 42.3257 45.1532 44.7912 43.1739 45.3161C41.1947 45.8411 40.588 46.6672 38.5313 46.7102C36.4703 46.7489 31.3027 45.3591 31.3027 45.3591L20.1586 40.1098V30.4932H20.1629Z" fill="#96A820"/>
<path d="M24.2419 38.9741C24.2419 38.9741 25.9372 35.9449 28.9663 36.1859C31.9955 36.4268 33.084 38.5696 33.084 38.5696L26.3804 40.7511L24.2419 38.9741Z" fill="#70853B"/>
<path d="M39.7878 42.8937C41.9262 43.5821 42.7352 43.5004 42.7352 43.5004C42.7352 43.5004 43.9872 42.1665 44.5122 41.0349C45.0371 39.9033 45.0974 39.2579 45.0974 39.2579C45.0974 39.2579 44.2712 39.0557 43.501 38.8147C42.7352 38.5738 41.1991 37.6831 41.1991 37.6831L39.4221 42.571L39.7878 42.8937Z" fill="#70853B"/>
<path d="M21.0106 0.0256193C27.3098 0.32681 32.7485 5.94187 30.8854 13.2909C29.4913 18.7812 24.6421 26.0442 23.4331 27.9073C21.2128 31.3409 18.8291 38.0015 25.5113 38.7114C35.0676 39.7226 28.0112 34.4818 32.6839 31.2505C35.1365 29.5552 37.9289 30.0888 39.7275 31.3796C42.0725 33.0663 48.5997 51.1979 24.7067 49.9372C19.7413 49.6748 15.7957 46.9382 13.6228 44.8471C7.19026 38.6684 12.1255 28.3677 12.5342 27.4641C13.0764 26.255 18.1622 19.6504 17.8008 17.5334C17.4394 15.4122 15.6795 15.9586 13.2571 15.111C10.8347 14.2633 8.14547 11.5827 8.89414 7.90391C9.59118 4.47894 12.2331 -0.396048 21.0106 0.0256193Z" fill="#BED04A"/>
<path d="M38.8799 46.8176C38.8799 46.8176 40.0503 45.7591 40.4547 45.4364C40.8592 45.1137 42.7352 43.5002 42.7352 43.5002C42.7352 43.5002 45.717 43.3926 47.7823 42.5321C50.3467 41.4607 51.8398 38.7758 52.042 37.8292C52.1495 37.3172 51.7795 42.4331 48.105 44.9158C44.5552 47.3124 38.8799 46.8176 38.8799 46.8176Z" fill="#E4DDA2"/>
<path d="M8.92424 34.9466C8.78225 40.3379 13.1882 46.0175 17.0091 47.545C19.1303 48.3926 10.2237 44.2448 10.9508 35.3984C11.5274 28.3634 18.614 22.374 18.7646 18.3768C18.8549 15.9544 15.8559 15.7435 15.8559 15.7435C15.8559 15.7435 16.7853 16.4406 16.824 17.3484C16.8843 18.8028 13.128 24.1338 12.3406 25.2224C11.5618 26.3153 9.04902 30.3427 8.92424 34.9466Z" fill="#E4DDA2"/>
<path d="M9.98707 10.5072L11.8458 12.5252C11.9362 12.4004 9.81496 14.5518 7.84862 15.9975C6.53198 16.9656 2.47882 19.0395 2.26368 18.833C1.99261 18.5705 3.2447 17.7444 3.92883 17.1377C4.44946 16.6773 5.74458 15.5113 5.74458 15.5113C5.74458 15.5113 4.14827 15.6834 3.38239 15.6834C2.6165 15.6834 0.658763 15.7436 0.839477 15.3822C0.981467 15.0982 3.79975 14.6507 4.85822 14.2205C8.04654 12.9296 9.98707 10.5072 9.98707 10.5072Z" fill="#EE6D33"/>
<path d="M17.6803 4.11341C16.5745 4.8836 15.4988 4.68998 15.1503 4.04457C14.8922 3.56267 14.819 2.65049 15.8388 1.8803C16.738 1.20047 17.8912 1.407 18.3128 1.99217C18.6656 2.48698 18.5194 3.53255 17.6803 4.11341Z" fill="#323234"/>
<path d="M22.8566 9.13016C21.5356 9.90465 20.4642 9.5045 20.0082 8.80315C19.6381 8.23089 19.7242 6.85402 20.7956 6.23443C21.9057 5.58902 23.1362 5.82136 23.6095 6.59155C24.0054 7.23696 23.8634 8.54069 22.8566 9.13016Z" fill="#323234"/>
<path d="M27.9165 16.2815C27.1291 18.1102 28.7039 18.9578 28.7039 18.9578C28.7039 18.9578 29.3192 17.6455 29.5817 17.0517C29.9044 16.3159 30.2185 15.3994 30.2185 15.3994C30.2185 15.3994 28.5447 14.8186 27.9165 16.2815Z" fill="#E4DDA2"/>
<path d="M27.129 21.8619C27.129 21.8619 26.0405 21.7415 25.068 21.4059C24.186 21.1004 22.7015 19.8569 21.798 21.4661C20.9632 22.9505 22.3616 23.7681 23.4631 24.2241C24.4915 24.6501 25.4166 24.8007 25.4166 24.8007C25.4166 24.8007 26.1222 23.6175 26.3244 23.2861C26.5267 22.9548 27.129 21.8619 27.129 21.8619Z" fill="#E4DDA2"/>
<path d="M23.4331 27.9115C23.4331 27.9115 21.9788 27.8297 21.0408 27.5888C20.2189 27.3779 18.7173 26.3754 17.8912 27.6791C17.1554 28.8409 18.2225 29.7617 19.6467 30.1317C21.2215 30.5405 22.1293 30.42 22.1293 30.42C22.1293 30.42 22.508 29.6498 22.6586 29.2238C22.8178 28.7892 23.4331 27.9115 23.4331 27.9115Z" fill="#E4DDA2"/>
<path d="M21.1827 33.4407C21.1827 33.4407 19.4272 33.6816 18.5796 33.6816C17.7018 33.6816 15.4816 33.4751 15.5289 35.5189C15.5677 37.2744 17.9471 37.1281 18.5581 37.1152C19.4272 37.0937 21.6947 36.6849 21.6947 36.6849C21.6947 36.6849 21.3075 35.9965 21.1956 35.0327C21.1096 34.327 21.1827 33.4407 21.1827 33.4407Z" fill="#E4DDA2"/>
<path d="M22.9468 37.9454C22.9468 37.9454 22.6628 39.2233 22.2498 40.157C21.7937 41.1854 20.7352 42.9452 22.8866 43.7627C24.8744 44.52 25.6748 43.0958 26.0362 41.4909C26.3718 39.9978 26.3976 38.7802 26.3976 38.7802C26.3976 38.7802 25.3477 38.7328 24.4786 38.5349C23.7816 38.3671 22.9468 37.9454 22.9468 37.9454Z" fill="#E4DDA2"/>
<path d="M29.7021 38.5609C29.7021 38.5609 31.1264 39.8043 31.5781 40.4368C32.0342 41.0737 33.0712 42.9927 34.7277 42.1622C36.1821 41.4351 35.0074 39.2149 34.3018 38.406C33.7123 37.7304 32.8173 36.9947 31.9697 36.5085C31.4017 36.1858 30.9198 36.104 30.9198 36.104C30.9198 36.104 31.0188 36.9904 30.7563 37.6186C30.4809 38.2941 29.7021 38.5609 29.7021 38.5609Z" fill="#E4DDA2"/>
<path d="M31.5825 34.37C31.7288 34.8691 32.1633 34.8906 33.1272 34.4905C34.1555 34.0645 35.5496 33.8537 36.7027 33.8537C38.0667 33.8537 39.3962 34.7616 39.8824 35.1574C40.3686 35.5533 40.9538 35.6909 41.0442 34.9337C41.1345 34.1764 40.5881 33.3287 39.5296 32.5715C38.8842 32.1111 37.7311 31.4011 36.3714 31.371C34.9214 31.3409 33.5832 31.8572 32.7356 32.3994C32.2107 32.7393 31.3372 33.5525 31.5825 34.37Z" fill="#E4DDA2"/>
</svg>
