<svg width="142" height="160" viewBox="0 0 142 160" fill="none" xmlns="http://www.w3.org/2000/svg">
<mask id="mask0_455_24539" style="mask-type:luminance" maskUnits="userSpaceOnUse" x="1" y="1" width="140" height="144">
<path d="M140.188 98.8198L133.322 96.0337C131.73 125.193 103.703 144.497 69.3635 144.497C37.1612 144.497 10.513 127.519 6.00931 101.358L2.6642 103.657L1.96092 94.3296C-0.662873 48.2329 27.4144 4.04773 66.0725 1.85222C102.869 -0.244111 133.543 33.3332 139.092 76.6032C140.796 89.907 140.188 98.8198 140.188 98.8198Z" fill="white"/>
</mask>
<g mask="url(#mask0_455_24539)">
<path d="M133.393 93.4022C133.393 124.027 104.725 144.499 69.3626 144.499C34 144.499 5.33667 124.027 5.33667 93.4022C5.33667 82.5852 8.91485 71.948 15.1019 62.7133C16.7961 60.1847 17.4823 57.1394 17.1189 54.1175C16.9886 53.0342 16.9224 51.9003 16.9224 50.7138C16.9224 28.0283 41.1406 9.63927 71.0212 9.63927C100.897 9.63927 125.12 28.0283 125.12 50.7138C125.12 52.9814 124.878 55.0561 124.414 56.9536C123.655 60.0521 124.13 63.3228 125.732 66.081C130.62 74.4929 133.393 83.8772 133.393 93.4022Z" fill="#FCD875"/>
</g>
<mask id="mask1_455_24539" style="mask-type:luminance" maskUnits="userSpaceOnUse" x="1" y="1" width="140" height="144">
<path d="M140.188 98.8198L133.322 96.0337C131.73 125.193 103.703 144.497 69.3635 144.497C37.1612 144.497 10.513 127.519 6.00931 101.358L2.6642 103.657L1.96092 94.3296C-0.662873 48.2329 27.4144 4.04773 66.0725 1.85222C102.869 -0.244111 133.543 33.3332 139.092 76.6032C140.796 89.907 140.188 98.8198 140.188 98.8198Z" fill="white"/>
</mask>
<g mask="url(#mask1_455_24539)">
<path d="M127.187 84.7527C130.448 112.716 108.669 134.204 79.1144 137.65C49.5607 141.096 23.426 125.196 20.1657 97.2324C19.0143 87.3553 20.8721 77.2934 25.0598 68.2585C26.2062 65.7848 26.4555 62.9365 25.8307 60.2126C25.6066 59.2361 25.4308 58.2074 25.3041 57.1236C22.8891 36.4092 41.1713 17.2577 66.1438 14.3459C91.1122 11.4345 113.314 25.8653 115.729 46.5797C115.971 48.6504 115.989 50.5682 115.803 52.3462C115.499 55.2495 116.244 58.1893 117.877 60.5521C122.856 67.7562 126.174 76.0554 127.187 84.7527Z" fill="#FEFAAC"/>
<path d="M126.878 84.6986C126.942 84.8871 127.015 84.7681 126.927 84.237L126.729 83.8781L126.878 84.6986Z" fill="#FEFAAC"/>
<path d="M126.59 81.079C126.394 80.4695 126.126 79.7815 126.073 80.2121C126.335 80.7954 126.309 80.955 126.606 81.5862C126.713 82.1159 126.715 82.5225 126.645 82.4418C126.714 82.6239 126.754 83.2709 126.878 83.5459C126.894 83.1897 126.854 82.7926 126.788 82.3715C126.72 81.9504 126.63 81.5041 126.485 81.0596C126.478 80.8572 126.554 81.0393 126.59 81.079Z" fill="#FEFAAC"/>
<path d="M110.27 31.7436L110.453 32.033C110.407 31.9519 110.344 31.8527 110.27 31.7436Z" fill="#FEFAAC"/>
<path d="M83.0346 14.7309C83.2808 14.7769 83.3867 14.7836 83.4016 14.7728C83.1717 14.7358 82.9823 14.707 83.0346 14.7309Z" fill="#FEFAAC"/>
<path d="M77.4958 13.7458C77.6162 13.7575 77.7168 13.7729 77.8254 13.7886C77.701 13.7598 77.5752 13.7386 77.4958 13.7458Z" fill="#FEFAAC"/>
<path d="M110.27 31.7436L109.801 30.9979C109.726 30.9763 110.032 31.3874 110.27 31.7436Z" fill="#FEFAAC"/>
<path d="M124.368 74.1724C124.433 74.3423 124.494 74.4807 124.555 74.6065C124.503 74.4667 124.452 74.3315 124.399 74.1917C124.389 74.1868 124.38 74.1827 124.368 74.1724Z" fill="#FEFAAC"/>
<path d="M115.837 45.046L115.876 45.3116C115.905 45.3873 115.936 45.4572 115.969 45.5235L115.837 45.046Z" fill="#FEFAAC"/>
<path d="M116.338 56.0488C116.3 55.809 116.159 55.7486 116.088 55.6643C116.167 55.7923 116.217 55.9672 116.275 56.1741C116.299 56.1732 116.32 56.1358 116.338 56.0488Z" fill="#FEFAAC"/>
<path d="M123.99 71.6739L124.124 71.9565C124.089 71.8831 124.03 71.7591 123.99 71.6739Z" fill="#FEFAAC"/>
<path d="M113.602 37.3789C113.612 37.3541 113.612 37.3104 113.605 37.2662C113.59 37.2725 113.592 37.3158 113.602 37.3789Z" fill="#FEFAAC"/>
<path d="M126.314 97.4912C126.321 97.5011 126.33 97.4898 126.337 97.4943C126.336 97.429 126.331 97.4087 126.314 97.4912Z" fill="#FEFAAC"/>
<path d="M127.225 84.801L127.248 84.9772C127.274 84.9939 127.298 85.0106 127.322 85.0079L127.225 84.801Z" fill="#FEFAAC"/>
<path d="M67.1879 13.625C67.2082 13.6241 67.2154 13.6237 67.2339 13.6232C67.5034 13.5831 67.3502 13.6002 67.1879 13.625Z" fill="#FEFAAC"/>
<path d="M19.9506 83.2623C20.2269 82.2218 19.827 85.0057 20.1985 83.4323C20.1259 83.5747 20.2283 81.9531 19.9506 83.2623Z" fill="#FEFAAC"/>
<path d="M124.293 73.8969C124.242 73.7572 124.191 73.6152 124.139 73.4731C124.209 73.6661 124.256 73.7964 124.293 73.8969Z" fill="#FEFAAC"/>
<path d="M20.1985 83.4323H20.1998L20.2373 83.27C20.2206 83.3376 20.2116 83.3755 20.1985 83.4323Z" fill="#FEFAAC"/>
<path d="M44.7472 20.9797C44.7995 20.9721 44.8892 20.9369 44.9839 20.9031C44.9713 20.8977 44.9122 20.9053 44.7472 20.9797Z" fill="#FEFAAC"/>
<path d="M61.237 14.7769L60.8069 14.8562C60.9786 14.8291 61.1162 14.8021 61.237 14.7769Z" fill="#FEFAAC"/>
<path d="M37.4786 26.5956C37.296 26.7489 37.2243 26.7904 36.9957 27.0221C37.0223 27.0063 37.0476 26.9896 37.0796 26.9667C37.1544 26.8751 37.2649 26.7638 37.4786 26.5956Z" fill="#FEFAAC"/>
<path d="M31.158 33.7461C31.1927 33.7078 31.2378 33.6582 31.2774 33.6145C31.3288 33.5347 31.3865 33.44 31.4451 33.3616C31.3432 33.4851 31.2544 33.6181 31.158 33.7461Z" fill="#FEFAAC"/>
<path d="M113.016 122.073C113.192 121.96 113.313 121.902 113.414 121.862C113.332 121.881 113.533 121.645 113.601 121.545C113.664 121.441 113.631 121.511 113.016 122.073Z" fill="#FEFAAC"/>
<path d="M124.434 74.1444C124.386 74.1025 124.346 74.0317 124.293 73.8974C124.33 73.9988 124.365 74.0966 124.4 74.1922C124.426 74.2116 124.445 74.2116 124.434 74.1444Z" fill="#FEFAAC"/>
<path d="M37.8694 27.5924L37.314 28.0856L36.7825 28.604C36.9321 28.4602 37.1044 28.2948 37.2865 28.1194C37.4745 27.9499 37.6728 27.7705 37.8694 27.5924Z" fill="#FEFAAC"/>
<path d="M49.8744 133.792L50.199 133.902C50.0768 133.851 49.9623 133.811 49.8744 133.792Z" fill="#FEFAAC"/>
<path d="M33.8314 31.8703C33.6294 32.047 33.4256 32.2444 33.2327 32.4622C33.2038 32.5176 33.1678 32.579 33.1552 32.6204C33.3648 32.3576 33.6073 32.1209 33.8314 31.8703Z" fill="#FEFAAC"/>
<path d="M119.495 114.187C118.69 115.347 119.246 114.823 119.154 115.125C118.198 116.527 118.595 115.688 118.19 116.103C117.59 116.97 117.181 117.684 116.686 118.3C116.626 118.326 116.516 118.434 116.61 118.278C116.288 118.738 115.735 119.359 115.171 120C114.581 120.618 113.968 121.245 113.568 121.771C113.491 121.831 113.443 121.852 113.417 121.86C113.629 121.775 113.707 121.808 113.72 121.884C113.258 122.328 112.917 122.769 112.667 122.854C112.959 122.59 112.953 122.536 113.065 122.387L112.603 122.875C112.053 123.168 113.241 122.216 113.161 122.132C112.702 122.597 112.204 123.102 111.734 123.578C111.241 124.032 110.769 124.454 110.37 124.757C110.113 124.772 112.135 123.219 111.022 123.969C111.432 123.657 111.84 123.341 112.227 122.999C111.197 123.618 112.929 122.378 111.959 122.918C111.199 123.587 110.753 123.938 110.337 124.324C110.124 124.51 109.919 124.706 109.653 124.917C109.386 125.125 109.071 125.362 108.66 125.659C108.348 126.002 108.856 125.668 108.543 126.012C107.996 126.487 107.572 126.76 107.243 126.956C106.913 127.15 106.673 127.26 106.453 127.356C106.233 127.452 106.036 127.536 105.789 127.68C105.536 127.814 105.235 128.007 104.813 128.329C104.607 128.517 104.484 128.681 104.245 128.887C104.009 129.098 103.646 129.335 102.959 129.657L103.322 129.254C102.46 129.728 102.245 129.92 102.013 130.107C101.784 130.299 101.532 130.475 100.581 130.885C100.879 130.661 101.936 130.134 101.66 130.249C100.407 130.736 100.862 130.764 99.9433 131.229L99.6858 131.188C99.226 131.44 98.731 131.65 98.2405 131.894C97.7446 132.127 97.2509 132.39 96.7311 132.613C95.6934 133.062 94.6371 133.548 93.5362 133.929C93.6426 133.843 94.0014 133.665 93.4735 133.802C90.7384 134.859 87.4929 135.66 84.7063 136.117C84.3655 136.245 84.0166 136.336 83.6708 136.447C83.4228 136.489 83.2015 136.469 83.4643 136.397C82.3711 136.54 83.4229 136.489 82.9103 136.633C82.2935 136.752 82.0816 136.703 82.4667 136.594C81.9942 136.715 81.4153 136.829 80.781 136.936C80.1467 137.044 79.4615 137.177 78.7663 137.263C78.0711 137.344 77.371 137.418 76.7169 137.476C76.0632 137.538 75.4509 137.531 74.9375 137.532L75.3342 137.47C74.5362 137.488 74.0904 137.582 73.6567 137.665C73.223 137.736 72.801 137.79 72.058 137.741L72.3421 137.713C68.8757 137.736 65.0302 137.567 62.4393 136.995C62.1783 137.052 61.3325 136.903 60.5219 136.77C59.7168 136.604 58.9459 136.45 58.8092 136.559C57.8481 136.316 57.5195 136.171 57.0862 136.03C56.8703 135.958 56.6295 135.882 56.2756 135.777C55.9208 135.676 55.4529 135.544 54.7942 135.323C54.0873 135.101 53.6807 135.193 52.7966 134.936L52.8174 134.796L51.5893 134.538L51.015 134.17C50.7377 134.094 50.4704 133.99 50.1976 133.901C50.5146 134.033 50.8554 134.224 50.7936 134.242C50.1548 134.029 49.397 133.709 48.8005 133.434C48.2045 133.158 47.7866 132.888 47.783 132.854L46.3061 132.266L44.8576 131.609C44.9464 131.59 45.4311 131.811 45.8228 131.967C44.2432 131.335 45.6128 131.7 44.1665 131.119C44.3351 131.246 44.029 131.139 43.9853 131.145C43.667 130.918 43.1242 130.59 42.5165 130.242C41.902 129.905 41.2664 129.476 40.6988 129.154L40.9621 129.206C38.996 127.925 36.828 126.462 34.8746 124.682C35.5612 125.334 35.2894 125.318 34.6893 124.822L34.5527 124.51C34.1177 124.244 35.1221 125.09 34.2809 124.484C33.5776 123.785 33.9157 123.902 34.3562 124.259L33.4559 123.465C33.4356 123.385 33.6547 123.563 33.7462 123.574C33.5397 123.434 33.184 123.057 32.8238 122.651C32.4726 122.234 32.0984 121.805 31.7982 121.6L31.7842 121.521C31.3239 121.05 30.9709 120.604 30.6328 120.215C30.3019 119.82 29.9859 119.48 29.7104 119.127C29.4363 118.773 29.1717 118.431 28.8935 118.071C28.6122 117.713 28.3237 117.333 28.0329 116.882C27.9049 116.918 27.4617 116.203 27.019 115.724C26.6214 115.039 26.2359 114.296 25.8144 113.53C25.4321 112.743 25.0327 111.921 24.617 111.065C24.0138 109.869 24.36 110.753 24.0454 110.233C24.0778 110.164 23.8975 109.696 23.7686 109.355C23.6477 109.01 23.5905 108.786 23.8033 109.232C23.3926 108.166 23.1095 107.493 22.8336 106.735C22.7024 106.354 22.5649 105.955 22.4017 105.48C22.3183 105.243 22.2286 104.987 22.1294 104.704C22.0446 104.418 21.9522 104.104 21.8494 103.757C21.8819 104.073 21.9509 104.423 21.867 104.255C21.7169 103.749 21.6145 103.081 21.6871 103.141L21.7331 103.273C21.615 102.883 21.4842 102.48 21.3932 102.056C21.3053 101.632 21.2232 101.196 21.1448 100.754C20.9676 99.8738 20.8896 98.9564 20.7999 98.0642C20.6065 96.2803 20.5794 94.5739 20.4 93.2873L20.4153 93.432C20.3563 92.5394 20.2769 91.6449 20.2616 90.7478C20.2981 89.5116 20.3387 91.4903 20.4221 90.5769C20.3734 89.8524 20.3937 89.2042 20.4135 88.6023C20.4262 87.9996 20.4884 87.446 20.5402 86.9081C20.5867 86.3698 20.6534 85.8496 20.7219 85.3158C20.7805 84.7807 20.84 84.2316 20.9049 83.6374C21.0632 83.1938 21.1876 82.5667 21.3526 81.8458C21.4252 81.4838 21.5027 81.0975 21.5834 80.6962C21.67 80.2964 21.7602 79.882 21.8508 79.4623C22.0248 78.6215 22.2497 77.7713 22.4621 76.9796C22.7028 76.1957 22.917 75.4653 23.1762 74.895L23.0545 75.0064C23.1829 74.3712 23.3439 74.2815 23.5107 73.8383C23.4309 73.8811 23.2222 74.4776 23.3074 74.084C23.7203 72.7825 24.2221 71.4873 24.7653 70.1966C25.0566 69.555 25.3492 68.9108 25.6426 68.2643C25.951 67.5858 26.199 66.8776 26.3842 66.1513C26.7548 64.6992 26.872 63.1786 26.7399 61.6819C26.7043 61.3081 26.6565 60.9357 26.5943 60.5656L26.3883 59.5062C26.2607 58.8245 26.1588 58.1393 26.0786 57.4545C25.9722 56.4514 25.8672 56.1733 25.7472 55.827C25.6909 55.6539 25.6381 55.4628 25.5985 55.1544C25.5773 54.8451 25.5755 54.4173 25.6075 53.7758L25.7743 54.4984C25.7481 53.989 25.6909 53.4746 25.7035 52.9589C25.7134 52.4422 25.7238 51.9238 25.7337 51.4044C25.7806 50.8869 25.8279 50.368 25.8748 49.8486C25.9167 49.3288 26.0263 48.8172 26.0993 48.3019C26.4505 46.2475 26.9974 44.2449 27.6159 42.3303C27.5713 42.5692 27.6109 42.5908 27.4843 42.9614C27.83 42.1865 28.6334 40.0491 28.5793 40.0054C28.8539 39.4419 28.7137 39.9071 28.917 39.5771C29.0211 39.3914 29.1221 39.1745 29.219 38.9468C29.3227 38.7228 29.43 38.492 29.5319 38.272C29.7339 37.8315 29.9182 37.4357 30.0715 37.2626C30.1229 37.2035 29.9895 37.4907 29.9237 37.6318C30.1225 37.1079 31.2554 35.4201 30.8663 35.8037C31.2869 35.1762 31.6976 34.582 32.0642 34.0031C32.4586 33.4441 32.8427 32.9225 33.2313 32.4613C33.4211 32.1106 33.8521 31.6246 34.2281 31.1823C34.5964 30.7333 34.9652 30.3744 34.9697 30.2099C35.013 30.3217 35.4778 29.8479 36.0323 29.2776C36.6035 28.7235 37.2175 28.0229 37.5516 27.6781C37.3568 27.9386 38.2102 27.1641 37.9907 27.4797C38.7814 26.73 39.5397 26.0781 39.3242 26.1169C40.9986 24.9952 42.4209 23.489 43.5358 23.1045C46.1776 21.2187 48.8352 19.7621 51.514 18.5714C51.5095 18.6282 51.3202 18.7346 51.0429 18.8649C50.7706 19.0069 50.4113 19.176 50.0588 19.3419C49.7062 19.5082 49.36 19.6714 49.1152 19.8022C48.8754 19.9428 48.7356 20.0474 48.7875 20.0808C49.3911 19.7404 49.9537 19.4799 50.4686 19.2035C50.983 18.9253 51.4793 18.6968 51.9757 18.4678C52.9612 17.993 53.9809 17.5986 55.2901 17.1653C55.9799 16.9769 54.9295 17.3659 54.7198 17.494C57.3161 16.5049 59.8574 15.9621 62.259 15.3855C62.2558 15.4053 61.997 15.4729 61.7527 15.5329C62.2306 15.4396 62.8721 15.3607 62.8013 15.2795L62.3383 15.3886C61.5462 15.4044 64.193 14.7489 64.2777 14.6998C63.496 15.0749 66.7153 14.4306 65.4544 14.9428C65.7695 14.8819 66.1626 14.7832 66.0824 14.7318C66.558 14.6957 66.7122 14.7237 66.2402 14.8373C67.9709 14.6299 67.3438 14.565 68.923 14.4523C68.9203 14.4987 68.602 14.5285 68.4433 14.5952C69.235 14.4712 70.0361 14.3098 71.3759 14.3242C71.2962 14.3522 71.4517 14.3855 71.0532 14.3892C72.201 14.3707 73.1797 14.2873 74.1891 14.2904C75.1989 14.2571 76.2367 14.313 77.4927 14.4469C77.1122 14.5185 77.3259 14.5438 77.6465 14.5889C77.967 14.6389 78.3962 14.698 78.453 14.7895L79.8023 14.8986C79.6269 14.8445 79.4502 14.8012 79.2739 14.7521C79.8649 14.8098 80.4177 14.8923 80.955 14.9468C81.4911 15.0068 82.0068 15.0685 82.5009 15.2056C82.2079 15.1718 81.9166 15.1276 81.6214 15.11C82.3539 15.2241 83.0798 15.3774 83.8101 15.5095L82.5875 15.1966C83.7849 15.3508 82.5023 14.9621 84.0486 15.3233C83.7317 15.261 85.2076 15.6122 85.7852 15.8566L85.7811 15.8561C86.3676 15.9409 86.9605 16.0793 87.7963 16.3611C87.9996 16.4769 87.5655 16.4873 87.6975 16.5635C88.2976 16.5874 90.3515 17.3925 91.081 17.5445C90.8398 17.4881 90.7961 17.5657 90.8646 17.6116L91.36 17.6829C91.8605 17.9177 91.9281 17.9633 91.8181 17.9957C93.3324 18.6652 91.4218 17.5801 93.1868 18.4569C93.0416 18.4028 93.1025 18.4484 92.8013 18.3339C94.5983 19.1489 96.2763 19.9208 97.8194 20.881C98.0016 21.0983 97.6666 20.8864 97.3244 20.7074C96.9832 20.5262 96.6532 20.3468 96.8849 20.5573C99.1674 21.8052 101.576 23.2677 103.478 24.9461L103.128 24.6291C103.337 24.6512 103.687 24.9718 104.1 25.3915C104.501 25.8265 104.98 26.3418 105.481 26.7431C105.246 26.5352 105.09 26.5582 105.172 26.5947C106.369 27.8377 107.707 29.0598 109.339 31.1237C109.26 31.0475 109.182 30.9695 109.097 30.8987C109.379 31.3243 109.752 31.882 110.144 32.4388C110.515 33.009 110.871 33.6014 111.154 34.0725C111.374 34.3209 111.662 34.8827 111.557 34.5017C111.725 34.8962 111.9 35.2776 112.083 35.65C112.256 36.0273 112.427 36.4006 112.596 36.7698C112.962 37.4952 113.261 38.2332 113.588 38.9486C113.895 39.6718 114.161 40.4008 114.402 41.1284C114.505 41.4976 114.602 41.8668 114.69 42.2361L114.813 42.791C114.844 42.9777 114.865 43.1665 114.887 43.3541C114.85 43.1783 114.792 42.9713 114.752 42.8438C114.704 42.718 114.677 42.6706 114.715 42.8081L115.008 44.0538L115.154 44.6777L115.264 45.3089C115.33 45.0925 115.293 44.9635 115.262 44.4198C115.402 44.7246 115.532 45.4428 115.633 46.0753C115.395 44.9365 115.469 46.11 115.484 46.6077C115.505 46.5211 115.562 46.6866 115.588 46.641C115.569 47.3186 115.622 47.3687 115.692 47.4809C115.759 47.5927 115.855 47.7672 115.838 48.69L115.779 48.5954C115.84 49.2793 115.92 49.9149 115.883 50.6583C115.757 50.9617 115.845 49.9244 115.74 49.8775C115.757 50.9135 115.883 51.9364 115.679 52.875C115.678 52.4238 115.747 51.7922 115.737 51.3499C115.531 52.3557 115.514 52.4765 115.469 53.2605L115.475 53.1834C115.435 53.7848 115.428 54.3916 115.477 54.9961L115.472 54.5323C115.679 55.1873 115.791 55.8451 115.963 56.556C116.137 57.262 116.367 58.0284 116.835 58.788C115.989 57.2737 116.614 58.5698 116.439 58.5045C116.573 58.9467 116.866 59.59 116.739 59.43C117.225 60.1355 117.41 60.7266 118.185 61.5994C118.18 61.6661 118.673 62.3387 118.476 62.244C119.077 63.1353 118.406 61.9871 118.497 62.0344C119.53 63.3517 120.398 65.4395 121.649 67.4749C122.628 69.2882 122.926 69.5749 123.728 71.3218C123.907 71.9485 123.381 70.8917 123.381 70.8917C123.546 71.3876 123.709 71.8146 123.874 72.232C124.032 72.6526 124.2 73.0611 124.395 73.5137C124.287 73.3406 124.334 73.5421 124.383 73.8415C124.644 74.5835 124.705 74.2887 124.971 75.2958C124.872 75.1403 124.721 74.9482 124.554 74.6047C124.725 75.0357 124.895 75.4649 125.055 75.9026C125.216 76.3395 125.39 76.7777 125.527 77.2389C125.519 77.5058 125.27 76.7083 125.116 76.4017C125.465 77.4224 125.908 79.08 126.093 79.3807L125.976 78.695C126.072 79.0778 125.922 78.9164 125.834 78.6396C125.519 77.7659 125.533 77.3394 125.566 77.2749L125.77 77.9295C125.847 77.1785 124.998 75.2814 124.547 73.983L124.908 74.4686C124.707 74.0367 124.513 73.6039 124.294 73.1815C124.235 72.883 124.261 72.6517 124.526 73.2834C124.262 72.3222 124.17 72.4786 123.945 71.6509C123.924 71.5576 123.949 71.5937 123.988 71.6721L123.571 70.7934C123.68 70.9548 123.633 70.5924 123.832 71.1564C123.271 69.4955 122.576 68.6376 122.42 67.9857L122.494 68.1124C121.365 65.9714 122.272 67.9587 121.309 66.4196C121.226 66.0048 121.12 65.6 121.025 65.1866L120.789 65.0455C120.677 64.8227 120.438 64.3904 120.53 64.4432C119.976 63.6907 120.559 64.6091 120.208 64.1902C119.729 63.0772 118.413 61.4159 118.441 61.0732C118.114 60.7739 119.012 62.0714 118.239 61.048C118.238 60.6075 117.344 59.8641 116.987 58.8137C117.229 59.0693 117.665 59.9854 117.254 58.9886C117.022 58.7434 116.802 58.2601 116.65 57.7232C116.493 57.1872 116.385 56.6101 116.274 56.1723C116.188 56.1705 116.064 55.6891 115.978 55.0128C115.892 54.3362 115.88 53.4674 115.915 52.7024C115.929 52.7556 116.039 52.0374 116.112 51.106C116.185 50.1786 116.188 49.0525 116.172 48.3244L116.202 48.3659C116.028 48.0927 115.949 46.5991 115.724 45.5311C115.829 45.5586 115.896 45.7466 116.026 46.3273L115.875 45.3102C115.78 45.0798 115.734 44.7625 115.567 44.1178L115.741 44.3473C115.462 43.0034 115.029 41.6847 114.533 39.9991C114.393 39.9472 114.674 41.4119 114.008 39.6957C114.045 39.6105 114.124 39.5095 114.304 39.9589C114.245 39.8115 114.073 39.4418 113.995 39.1312L114.332 39.7948C114.111 39.0262 114.131 39.4234 113.903 38.8296C113.991 38.8093 113.784 38.3698 113.885 38.4284C113.951 38.5776 114.068 38.955 114.178 39.1745C113.936 38.4965 113.645 37.6728 113.601 37.3771C113.573 37.4578 113.504 37.4186 113.261 36.9497C112.667 35.7212 113.157 36.4826 112.853 35.7419C112.667 35.4647 112.282 34.6803 112.161 34.7213C111.969 34.3714 111.987 34.2759 111.944 34.1221C111.763 33.8174 111.297 33.1335 110.953 32.5965C110.612 32.0569 110.305 31.7233 110.484 32.0822L110.581 32.235C110.56 32.2084 110.535 32.1768 110.51 32.1439C110.513 32.1484 110.51 32.1439 110.513 32.1484L110.51 32.1439C109.126 30.3005 107.679 28.2619 106.004 26.6858L106.038 26.657C105.548 26.1777 104.962 25.6899 104.437 25.2094C103.898 24.7441 103.366 24.346 102.966 24.067C102.663 23.8001 102.263 23.4182 102.437 23.4768C101.575 22.8804 101.479 22.8168 100.267 21.9138C101.179 22.444 100.005 21.6519 101.189 22.4765C100.084 21.6848 99.8856 21.4161 98.5696 20.7638C99.0511 20.9324 97.7789 20.0867 97.1829 19.822C97.4462 20.0033 97.7162 20.1723 97.9727 20.363C97.3362 20.0114 96.7798 19.703 96.2208 19.3775L96.5977 19.4154C94.2083 17.9209 91.9371 17.5179 90.0594 16.504C89.692 16.435 90.0459 16.5716 90.4043 16.7213C90.7586 16.8822 91.1207 17.0481 90.7925 16.9854C90.205 16.7303 89.5978 16.4891 89.1028 16.252C88.6064 16.0193 88.2088 15.8313 88.014 15.7804C87.1814 15.4923 86.7711 15.4292 86.3527 15.367C85.9308 15.316 85.498 15.2764 84.6139 15.0271C84.8285 15.1438 85.0133 15.3088 83.669 15.0667C82.4243 14.794 82.1723 14.5343 82.9738 14.6529C83.2763 14.7097 83.4183 14.7557 83.4017 14.771C83.8115 14.8341 84.3497 14.9202 83.8642 14.7624L83.6897 14.7818C83.3836 14.6921 82.7976 14.5605 82.3404 14.4514C81.8846 14.3355 81.5506 14.281 81.7643 14.2643C80.7963 14.1624 81.3405 14.285 82.0438 14.4266C81.2382 14.2575 80.602 14.157 79.961 14.0578C79.3172 13.9757 78.6649 13.9131 77.8259 13.7878C78.091 13.8482 78.3303 13.9388 78.0644 13.9077C75.5975 13.6237 76.9662 13.9158 75.2923 13.8134C74.3424 13.7025 75.6434 13.6295 73.9488 13.6453C72.916 13.5583 73.732 13.4965 74.1463 13.4659C73.7585 13.4807 73.3848 13.4744 73.0278 13.4663C72.6707 13.4686 72.3299 13.46 72.0098 13.4474C71.3701 13.4271 70.8102 13.3689 70.3684 13.3933C70.6393 13.3608 70.9112 13.3383 71.183 13.3243C70.6948 13.3532 70.2958 13.3762 69.8891 13.4L70.3589 13.4825C69.8801 13.4893 69.4753 13.51 69.4816 13.4654C68.9938 13.5614 69.8675 13.6232 68.8987 13.7706C68.2585 13.7395 66.9768 14.0019 66.7428 13.8734C68.7409 13.7314 66.5084 13.7526 68.1967 13.5687C67.8717 13.6164 67.4741 13.6539 66.9939 13.6809C66.9205 13.6719 67.0589 13.6453 67.1883 13.6246C65.2601 13.6809 66.3258 13.8712 64.3566 14.1263C64.5956 14.0159 63.8761 14.0321 63.5587 14.1078C64.3535 13.9924 63.9549 14.1664 63.2444 14.3626C61.9817 14.5325 61.8897 14.6448 61.2374 14.776C61.4858 14.7255 61.7383 14.6966 61.9894 14.6596C61.7491 14.7755 61.1265 14.8977 60.2699 15.1208C60.182 15.0767 61.0449 14.9026 60.7307 14.945C60.2663 15.1235 59.7159 15.2029 59.1185 15.3039C58.5252 15.4202 57.8806 15.5442 57.2309 15.7682C56.6038 15.8899 57.129 15.6375 56.5831 15.7664C55.1432 16.3304 54.948 16.1478 53.4512 16.7916C53.9282 16.733 53.994 16.6811 52.9594 17.1676C53.788 16.8534 54.6017 16.4909 55.4461 16.2154C54.9155 16.4269 54.3997 16.6766 53.8831 16.9192C54.2609 16.7857 54.6504 16.618 55.0097 16.4846C55.3704 16.3552 55.6936 16.2402 55.9258 16.1767C55.177 16.5044 55.25 16.4535 55.6422 16.4237C55.0927 16.5035 54.5864 16.7055 54.0675 16.9309C53.55 17.1595 53.0036 17.3668 52.4022 17.567L52.3399 17.3046C51.4347 17.6161 50.6516 17.9534 49.8392 18.3907C49.4299 18.6012 49.0043 18.8203 48.5436 19.0574C48.0887 19.3054 47.5941 19.5632 47.0347 19.8324L47.765 19.5087C47.6415 19.6318 47.3033 19.8099 46.9089 20.0078C46.5198 20.2151 46.0821 20.4572 45.7435 20.6727C45.7642 20.5582 45.3121 20.7787 44.9848 20.9017C45.0488 20.9261 43.4389 21.8625 43.3442 22.1289C43.0093 22.2898 42.691 22.4787 42.3628 22.6532C41.9435 22.9286 41.6248 23.1599 41.3597 23.3705C41.1023 23.5923 40.8958 23.7893 40.692 23.9849C40.2858 24.3789 39.8787 24.7504 39.1394 25.3617C39.5244 24.9181 38.8076 25.4244 39.762 24.5512C39.2611 24.9555 38.8089 25.3185 38.8396 25.3708C38.6795 25.4722 38.3482 25.772 38.0128 26.106C37.6805 26.4442 37.3275 26.7972 37.0805 26.9653C36.9119 27.1817 36.8929 27.2913 36.3835 27.7993C36.3154 27.8422 36.3547 27.766 36.3547 27.766C36.3831 27.7998 35.6 28.605 36.1139 28.2308C35.7176 28.531 35.2664 28.9178 34.8349 29.3871C34.3985 29.851 33.9261 30.3451 33.5113 30.8776C32.6408 31.9095 31.8811 32.9834 31.2784 33.6132C30.5043 34.7848 29.623 36.2279 29.036 37.3581C29.0513 37.2729 28.999 37.3333 29.1207 37.1251C28.2223 38.6403 28.8164 38.1832 27.8932 39.9472C27.3301 40.8128 28.2709 38.955 27.9522 39.5086C27.7651 39.5744 27.4969 40.1194 27.2575 40.8205C27.1313 41.1681 26.996 41.5476 26.8513 41.9146C26.7188 42.2861 26.5894 42.6504 26.4383 42.9556L26.5272 42.6404C26.3198 43.1152 26.1183 43.7147 25.9794 44.4158C25.901 44.7629 25.818 45.1303 25.7319 45.5135C25.6481 45.8967 25.5813 46.3007 25.4835 46.71C25.4835 46.71 25.4754 46.6248 25.4425 46.6911C25.3077 47.8425 25.0692 50.0037 25.0128 51.6132C24.9141 51.1051 25.0133 50.8783 24.8605 51.1754C24.8325 51.8999 25.0494 50.978 25.0264 52.4179C24.9894 52.6505 24.9376 53.027 24.901 53.3628C24.8722 53.6987 24.8348 53.9949 24.7744 54.0657C24.7581 53.6099 24.7432 53.1541 24.768 52.6983C24.7221 52.8723 24.6932 53.0707 24.681 53.2812C24.6788 53.4918 24.6892 53.714 24.7036 53.9372C24.7324 54.383 24.778 54.8293 24.7735 55.1905L24.7009 55.1021C24.9019 57.1962 25.0219 57.2115 25.4105 59.4255L25.419 59.1875C25.8171 60.3591 25.5669 60.2086 25.8766 61.369L25.7459 61.749C25.8081 62.1354 25.9077 62.8184 25.9199 63.5893C25.9384 64.3593 25.8658 65.2136 25.717 65.911C25.7423 65.5026 25.8085 64.8899 25.8203 64.2493C25.8369 63.6091 25.8013 62.9437 25.7296 62.442C25.7571 62.827 25.7635 63.4829 25.7296 64.0915C25.6967 64.7001 25.63 65.2614 25.6291 65.4674C25.6746 65.1568 25.6877 64.7623 25.7468 64.4589C25.786 65.4147 25.6084 66.7058 24.9587 68.1385C24.8636 67.9357 24.4128 68.8752 23.9169 69.991C23.6798 70.5536 23.425 71.1582 23.2014 71.6888C22.9846 72.2221 22.7808 72.6752 22.6172 72.9249C21.7822 75.629 20.8459 78.2649 20.2454 81.5203C20.7278 80.4208 20.0727 82.4684 20.382 82.3174C20.2769 83.0761 20.231 83.3642 20.2021 83.4291C20.0177 84.1838 19.8829 84.9475 19.7337 85.7121C19.5881 86.2517 19.7608 84.9795 19.6909 85.0422C19.4704 86.7138 19.4871 85.731 19.3122 86.8382C19.4371 86.6196 19.3866 87.4342 19.3014 88.3931C19.3591 87.9437 19.4461 87.4973 19.5259 87.0515C19.488 88.229 19.4362 88.7335 19.3442 89.242C19.2527 89.7497 19.1959 90.2654 19.2513 91.4547L19.1747 90.7013C19.1783 91.3127 19.1995 92.4393 19.2522 93.5614C19.296 94.1217 19.3455 94.6808 19.4019 95.1726C19.4582 95.6645 19.5511 96.0873 19.6314 96.379C19.6205 96.5963 19.5732 96.8884 19.5015 96.3556C19.5362 96.7185 19.5619 97.0927 19.6187 97.47C19.6796 97.8465 19.7414 98.2296 19.804 98.6151C19.8703 98.9996 19.9366 99.3869 20.0033 99.7728C20.0772 100.157 20.176 100.536 20.2598 100.912C20.5736 102.421 21.0068 103.814 21.2201 104.929L21.0988 104.734C21.262 105.253 21.5014 105.602 21.6384 106.271C21.6015 106.247 21.5081 106.083 21.5807 106.325C21.6339 106.459 21.7669 106.796 21.9197 107.183C22.0748 107.568 22.2646 107.999 22.3715 108.343L22.0811 107.793C22.3138 108.466 22.5387 109.055 22.7583 109.592C23.0022 110.12 23.2483 110.593 23.4868 111.052C23.9421 111.982 24.5043 112.79 25.057 113.84C24.9592 113.89 25.1905 114.398 25.5047 115.025C25.6629 115.337 25.8437 115.678 26.0186 116.002C26.1958 116.324 26.3928 116.614 26.538 116.854L26.4929 116.836C27.3846 118.24 28.2782 119.341 29.1775 120.384C29.6437 120.893 30.0972 121.401 30.5787 121.909C31.0742 122.403 31.5831 122.911 32.1255 123.452C32.7305 124.189 33.8625 125.344 35.2087 126.476C35.8651 127.061 36.6107 127.594 37.2982 128.154C38.0119 128.681 38.7025 129.191 39.3188 129.647C38.9582 129.345 39.4599 129.574 39.936 129.836C40.5225 130.252 41.6852 130.77 41.4954 130.866L41.2803 130.727C41.4584 130.955 41.8858 131.224 42.3867 131.519C42.892 131.806 43.4587 132.142 43.9781 132.393L44.2571 132.266C45.514 133.106 47.3205 133.92 49.012 134.53C49.8568 134.841 50.6602 135.135 51.3594 135.359C52.0546 135.594 52.6222 135.826 52.9932 136.017C53.7082 136.161 54.5724 136.409 55.2784 136.549L55.2085 136.662C56.1837 136.91 56.9149 137.096 57.7034 137.297C58.5009 137.457 59.357 137.632 60.5841 137.833C60.4119 137.839 60.2397 137.842 60.0689 137.837C61.4556 138.071 61.8762 137.751 63.1502 137.922L63.5127 138.152C65.9341 138.455 68.4055 138.732 70.8223 138.601C70.7827 138.628 70.7105 138.681 70.3143 138.679C71.4634 138.723 74.7711 138.741 74.3397 138.477C74.3577 138.562 74.9875 138.53 75.7755 138.459C76.5649 138.406 77.5044 138.223 78.1563 138.132L77.9647 138.277C78.5107 138.144 78.7902 138.065 79.1256 137.996C79.4601 137.916 79.8496 137.839 80.6138 137.713C80.9798 137.679 80.9469 137.769 80.4587 137.803C81.6795 137.692 81.3901 137.582 82.8598 137.383L82.3282 137.559C83.5707 137.348 83.4648 137.323 84.1297 137.11C84.8993 136.93 86.4682 136.641 86.6778 136.72C86.7531 136.668 86.9537 136.583 87.2269 136.494C87.4983 136.399 87.8396 136.29 88.2025 136.213C88.3102 136.23 88.0555 136.324 87.927 136.371C89.9949 135.941 90.902 135.391 92.3225 135.086C92.3645 135.117 92.4618 135.11 92.5786 135.08C90.9791 135.577 89.687 135.964 89.8038 135.913C89.8367 136.033 91.1387 135.648 90.1509 136.12C90.659 135.919 91.3483 135.646 92.0629 135.362C92.7815 135.093 93.5109 134.772 94.1448 134.586C94.2088 134.575 94.2715 134.565 94.3233 134.566L94.1989 134.623C94.4901 134.533 94.7444 134.432 94.9797 134.327C95.3778 134.189 95.6316 134.102 96.008 133.953C96.1857 133.977 97.4804 133.44 98.0904 133.146C97.9889 133.053 98.8022 132.708 98.0052 132.953C98.1062 132.917 97.8952 133.019 97.4881 133.209C97.397 133.252 97.2893 133.304 97.2284 133.333C97.2397 133.325 97.2528 133.316 97.2667 133.305C96.8565 133.472 96.3209 133.69 95.7132 133.938C96.1843 133.678 96.6802 133.425 97.3979 133.208C97.6819 132.99 97.9944 132.757 98.1733 132.633C98.6273 132.522 99.2742 132.315 99.8337 132.114C100.387 131.902 100.864 131.718 100.999 131.711C101.915 131.233 102.963 130.615 103.924 130.039C104.875 129.448 105.704 128.842 106.192 128.407C106.661 128.057 106.785 128.085 106.987 127.994C106.72 128.203 106.391 128.434 106.253 128.557C106.729 128.214 107.433 127.707 108.047 127.265C108.66 126.823 109.14 126.387 109.205 126.242C110.427 125.412 108.637 126.865 110.237 125.619L110.051 125.825C110.882 125.266 111.567 124.669 112.223 124.104C112.851 123.506 113.423 122.907 114.006 122.305C114.558 121.67 115.134 121.044 115.752 120.368C116.053 120.022 116.371 119.669 116.714 119.307C116.887 119.127 117.065 118.943 117.247 118.754C117.425 118.561 117.607 118.363 117.794 118.159C117.586 118.385 117.482 118.497 117.422 118.528C119.107 116.651 120.568 114.482 121.856 112.24C122.164 111.67 122.511 111.124 122.787 110.54C123.077 109.965 123.367 109.391 123.655 108.819C124.175 107.65 124.724 106.508 125.188 105.35C125.46 104.694 125.582 104.321 125.641 103.999C125.707 103.681 125.738 103.424 125.827 103L126.048 102.746C126.154 102.264 126.224 101.773 126.288 101.282C126.386 100.768 126.51 100.298 126.648 99.8386C126.77 99.3756 126.891 98.9199 127.016 98.4479C127.292 97.507 127.468 96.4692 127.536 95.142L127.4 95.4702C127.487 95.0018 127.516 94.2484 127.562 93.6367C127.607 93.0244 127.651 92.5511 127.698 92.6331C127.692 92.5353 127.621 92.318 127.674 91.9483L127.746 91.9217C127.713 91.1414 127.714 90.3628 127.653 89.5865C127.639 87.7764 127.952 89.8651 127.861 87.2147C127.746 86.2314 127.405 84.4412 127.39 84.8154C127.422 85.2103 127.436 85.8275 127.368 85.8631L127.251 84.9754C127.028 84.8348 126.754 84.1883 126.802 86.3635C126.885 86.8621 126.99 87.3607 127.038 87.8643L126.953 88.3566C126.929 87.9333 126.936 87.5077 126.887 87.0858C126.849 87.8111 126.925 88.2633 127.009 88.7745C126.959 88.8976 126.929 89.1104 126.919 89.4106C127.015 89.9034 127.058 90.3979 127.117 90.8952C127.031 91.0733 126.968 90.2284 126.902 91.2221C126.981 91.9199 127.1 90.558 127.137 91.713C127.025 92.4357 126.967 92.2193 126.981 93.0713C126.918 93.1867 126.898 93.0051 126.899 92.6687C126.902 93.4252 126.786 94.6636 126.846 95.0626C126.623 95.7952 126.554 97.603 126.34 97.4925C126.343 97.7319 126.244 98.8261 126.123 99.5118C126.118 98.8622 126.021 99.5064 125.815 100.243C125.624 100.985 125.404 101.838 125.321 101.641C125.312 102.123 125.065 102.933 124.805 103.833C124.523 104.726 124.147 105.682 123.909 106.482C123.934 106.391 123.963 106.206 124.024 106.073C123.666 106.936 123.474 107.151 123.205 107.686C123.26 107.775 123.159 108.162 123 108.615C122.826 109.062 122.607 109.58 122.478 109.957C121.81 110.905 122.607 109.24 122.299 109.489C122.376 109.495 122.184 109.955 122.008 110.378C121.831 110.799 121.635 111.166 121.789 111.028C121.26 111.739 121.368 111.66 121.017 111.978C121.075 112.1 120.981 112.282 120.843 112.521C120.701 112.758 120.495 113.038 120.357 113.382C119.571 114.386 120.019 113.55 119.295 114.742C118.849 115.242 119.51 114.196 119.495 114.187ZM93.547 133.971L93.5461 133.969C93.8161 133.87 94.0461 133.787 94.193 133.733C94.0587 133.782 93.8725 133.851 93.547 133.971ZM90.8862 134.85C91.2131 134.751 91.6197 134.628 92.0502 134.498C92.158 134.511 92.0701 134.585 91.7991 134.666C91.9371 134.593 91.2969 134.763 90.8862 134.85ZM96.8019 133.669C96.3912 133.853 96.2416 133.886 96.1748 133.885C96.37 133.802 96.5986 133.705 96.8989 133.578C96.9097 133.57 96.9313 133.553 96.9421 133.544C96.9119 133.582 96.8754 133.621 96.8019 133.669Z" fill="#FEFAAC"/>
<path d="M97.485 133.209C97.5432 133.18 97.5752 133.163 97.65 133.125C97.5626 133.154 97.4792 133.181 97.3949 133.209C97.3498 133.242 97.3038 133.277 97.2637 133.306C97.3399 133.277 97.4165 133.242 97.485 133.209Z" fill="#FEFAAC"/>
<path d="M110.485 32.0835L110.453 32.033C110.478 32.0767 110.5 32.1169 110.51 32.1457C110.493 32.1096 110.496 32.1074 110.485 32.0835Z" fill="#FEFAAC"/>
<path d="M52.8246 134.765L52.8187 134.797L53.0586 134.848L52.8246 134.765Z" fill="#FEFAAC"/>
<path d="M115.485 46.609C115.477 46.6397 115.472 46.6983 115.475 46.8137C115.482 46.8038 115.484 46.7163 115.485 46.609Z" fill="#FEFAAC"/>
<path d="M115.47 53.2623C115.447 53.5846 115.429 53.9088 115.434 54.2334C115.439 53.8118 115.454 53.5062 115.47 53.2623Z" fill="#FEFAAC"/>
<path d="M116.349 58.4319C116.396 58.4851 116.419 58.4963 116.439 58.5063C116.438 58.5022 116.437 58.4995 116.436 58.4959L116.349 58.4319Z" fill="#FEFAAC"/>
<path d="M61.7536 15.5342C61.686 15.5468 61.6197 15.5608 61.5615 15.5784C61.1161 15.706 61.4191 15.6208 61.7536 15.5342Z" fill="#FEFAAC"/>
<path d="M85.782 15.857C85.526 15.8173 85.2739 15.7781 85.0098 15.7276C85.4263 15.8408 85.7509 15.9237 85.782 15.857Z" fill="#FEFAAC"/>
<path d="M37.9911 27.4846C37.9929 27.4819 37.9902 27.4837 37.992 27.481C37.9492 27.5198 37.9122 27.5541 37.8694 27.5928L37.9911 27.4846Z" fill="#FEFAAC"/>
<path d="M83.9133 15.459C84.3294 15.5775 84.6788 15.6659 85.0093 15.7272C84.6671 15.6361 84.2663 15.5158 83.9133 15.459Z" fill="#FEFAAC"/>
<path d="M125.654 78.5471L125.705 78.7883C125.712 78.782 125.722 78.7946 125.732 78.8122L125.654 78.5471Z" fill="#FEFAAC"/>
<path d="M125.732 78.8122L125.809 79.0751C125.78 78.9529 125.754 78.8469 125.732 78.8122Z" fill="#FEFAAC"/>
<path d="M125.972 79.6291L125.809 79.0755C125.854 79.2694 125.906 79.5097 125.972 79.6291Z" fill="#FEFAAC"/>
<path d="M123.651 72.0792L123.579 72.0242C123.603 72.0593 123.628 72.0796 123.651 72.0792Z" fill="#FEFAAC"/>
<path d="M122.847 70.1817C123.044 70.632 123.236 71.3547 123.521 71.9777L123.579 72.0237C123.392 71.7528 123.119 70.5739 122.847 70.1817Z" fill="#FEFAAC"/>
<path d="M119.288 62.2941C119.588 62.7922 119.889 63.2886 120.168 63.7989C120.056 63.5117 119.908 63.1317 120.322 63.8097C119.311 61.8478 120.48 64.2439 119.288 62.2941Z" fill="#FEFAAC"/>
<path d="M116.719 57.6474C117.059 58.4923 116.782 57.6123 116.825 57.6493C116.599 57.1213 116.546 56.9879 116.719 57.6474Z" fill="#FEFAAC"/>
<path d="M102.15 23.2045L102.295 23.1703C101.706 22.7451 102.263 23.2018 102.15 23.2045Z" fill="#FEFAAC"/>
<path d="M95.5554 19.7264C95.7542 19.8468 95.9427 19.9861 96.1343 20.1182L96.4742 20.1858C96.1672 20.0339 95.8696 19.8644 95.5554 19.7264Z" fill="#FEFAAC"/>
<path d="M91.8961 17.1437L92.1982 17.2442L91.0531 16.8412L91.8961 17.1437Z" fill="#FEFAAC"/>
<path d="M32.0728 32.3044L32.3171 32.2147C32.5908 31.8067 32.5281 31.6246 32.0728 32.3044Z" fill="#FEFAAC"/>
<path d="M25.2819 59.1902C25.2607 59.5048 25.3996 60.3213 25.5601 60.7577C25.4478 60.1639 25.3514 59.5012 25.2819 59.1902Z" fill="#FEFAAC"/>
<path d="M45.4523 133.067L44.9176 132.853L45.9045 133.298L45.4523 133.067Z" fill="#FEFAAC"/>
</g>
<mask id="mask2_455_24539" style="mask-type:luminance" maskUnits="userSpaceOnUse" x="1" y="1" width="140" height="144">
<path d="M140.188 98.8198L133.322 96.0337C131.73 125.193 103.703 144.497 69.3635 144.497C37.1612 144.497 10.513 127.519 6.00931 101.358L2.6642 103.657L1.96092 94.3296C-0.662873 48.2329 27.4144 4.04773 66.0725 1.85222C102.869 -0.244111 133.543 33.3332 139.092 76.6032C140.796 89.907 140.188 98.8198 140.188 98.8198Z" fill="white"/>
</mask>
<g mask="url(#mask2_455_24539)">
<path d="M140.188 98.8198L121.654 91.3L102.116 110.126L75.0394 87.1344L67.1049 98.6259L59.9368 91.5525L40.7723 107.133L24.7545 88.4779L2.6642 103.657L1.96092 94.3296C-0.662873 48.2329 27.4144 4.0477 66.0725 1.8522C102.868 -0.241879 133.543 33.3332 139.091 76.6032C140.796 89.9061 140.188 98.8198 140.188 98.8198Z" fill="#F2E7DC"/>
</g>
<mask id="mask3_455_24539" style="mask-type:luminance" maskUnits="userSpaceOnUse" x="1" y="1" width="140" height="144">
<path d="M140.188 98.8198L133.322 96.0337C131.73 125.193 103.703 144.497 69.3635 144.497C37.1612 144.497 10.513 127.519 6.00931 101.358L2.6642 103.657L1.96092 94.3296C-0.662873 48.2329 27.4144 4.04773 66.0725 1.85222C102.869 -0.244111 133.543 33.3332 139.092 76.6032C140.796 89.907 140.188 98.8198 140.188 98.8198Z" fill="white"/>
</mask>
<g mask="url(#mask3_455_24539)">
<path d="M130.723 94.9797L121.654 91.3L102.115 110.126L75.0388 87.1344L67.1044 98.6259L59.9363 91.5525L40.7718 107.133L24.754 88.4779L15.0257 95.1627C15.0257 95.1627 13.6444 74.9798 16.5409 59.7902C20.5019 39.0172 39.2133 12.8834 64.0793 8.97206C90.4989 4.81637 116.393 24.6706 125.12 50.7138C133.873 76.8304 130.723 94.9797 130.723 94.9797Z" fill="#FFFDF2"/>
<path d="M130.442 94.8376C130.446 95.0392 130.559 94.9508 130.616 94.3868L130.519 93.9712C130.499 94.261 130.471 94.5532 130.442 94.8376Z" fill="#FFFDF2"/>
<path d="M131.095 91.0841C131.064 90.4124 130.983 89.6406 130.821 90.0643C130.923 90.7289 130.854 90.8844 130.981 91.6048C130.955 92.1724 130.848 92.5871 130.803 92.4866C130.827 92.6908 130.693 93.359 130.747 93.6714C130.849 93.3125 130.919 92.8987 130.959 92.4519C131.006 92.0056 131.02 91.5268 130.999 91.0363C131.044 90.8285 131.07 91.0341 131.095 91.0841Z" fill="#FFFDF2"/>
<path d="M119.175 37.5299L119.346 37.8459C119.304 37.7576 119.245 37.6494 119.175 37.5299Z" fill="#FFFDF2"/>
<path d="M94.4343 14.0371C94.6705 14.1525 94.776 14.1894 94.794 14.1836C94.5713 14.0817 94.3883 13.9992 94.4343 14.0371Z" fill="#FFFDF2"/>
<path d="M89.119 11.448C89.2358 11.4985 89.3341 11.5408 89.4396 11.5868C89.321 11.5246 89.1993 11.4678 89.119 11.448Z" fill="#FFFDF2"/>
<path d="M119.175 37.5299L118.738 36.7162C118.664 36.6869 118.952 37.1395 119.175 37.5299Z" fill="#FFFDF2"/>
<path d="M130.84 83.4445C130.852 83.6356 130.87 83.7947 130.891 83.9404C130.882 83.783 130.873 83.6311 130.864 83.4742C130.856 83.4656 130.849 83.4589 130.84 83.4445Z" fill="#FFFDF2"/>
<path d="M125.643 51.276L125.727 51.5433C125.767 51.6168 125.81 51.684 125.854 51.7466L125.643 51.276Z" fill="#FFFDF2"/>
<path d="M128.791 62.5091C128.737 62.2508 128.592 62.1895 128.516 62.1038C128.6 62.2368 128.668 62.4216 128.73 62.6444C128.754 62.6435 128.774 62.6033 128.791 62.5091Z" fill="#FFFDF2"/>
<path d="M131.234 80.8198L131.269 81.1462C131.26 81.0614 131.244 80.918 131.234 80.8198Z" fill="#FFFDF2"/>
<path d="M122.584 43.4875C122.592 43.4618 122.591 43.4158 122.58 43.3712C122.566 43.378 122.571 43.4222 122.584 43.4875Z" fill="#FFFDF2"/>
<path d="M118.535 93.4802C118.534 93.4933 118.548 93.4879 118.551 93.496C118.591 93.4397 118.6 93.4189 118.535 93.4802Z" fill="#FFFDF2"/>
<path d="M130.66 94.99L130.484 94.926C130.456 94.9409 130.429 94.9549 130.42 94.9765L130.66 94.99Z" fill="#FFFDF2"/>
<path d="M78.7073 8.4162C78.7285 8.42026 78.7357 8.42161 78.7551 8.42522C79.0404 8.45317 78.8799 8.43063 78.7073 8.4162Z" fill="#FFFDF2"/>
<path d="M14.6809 70.1722C14.8833 69.0637 14.68 72.0021 14.9401 70.33C14.8784 70.4833 14.8662 68.7841 14.6809 70.1722Z" fill="#FFFDF2"/>
<path d="M130.849 83.1437C130.845 82.9873 130.841 82.8277 130.837 82.6686C130.838 82.885 130.842 83.031 130.849 83.1437Z" fill="#FFFDF2"/>
<path d="M14.9406 70.33H14.9419L14.9676 70.1573C14.9563 70.229 14.95 70.2691 14.9406 70.33Z" fill="#FFFDF2"/>
<path d="M54.1035 11.2401C54.1594 11.241 54.2577 11.2181 54.3596 11.1928C54.347 11.1842 54.2879 11.1915 54.1035 11.2401Z" fill="#FFFDF2"/>
<path d="M72.3335 8.0889L71.8741 8.05644C72.0563 8.07402 72.2037 8.08304 72.3335 8.0889Z" fill="#FFFDF2"/>
<path d="M45.6539 15.9057C45.4397 16.0347 45.359 16.0667 45.0831 16.2682C45.1133 16.256 45.1422 16.2425 45.1787 16.224C45.272 16.1419 45.405 16.045 45.6539 15.9057Z" fill="#FFFDF2"/>
<path d="M37.7585 22.0743C37.8032 22.0437 37.8613 22.004 37.9127 21.9688C37.9849 21.9003 38.0687 21.8205 38.1435 21.7497L37.7585 22.0743Z" fill="#FFFDF2"/>
<path d="M97.178 105.234C97.3213 105.402 97.3993 105.52 97.4552 105.618C97.3962 105.45 98.5336 106.374 97.178 105.234Z" fill="#FFFDF2"/>
<path d="M130.911 83.4372C130.878 83.38 130.86 83.2957 130.849 83.1442C130.854 83.2578 130.859 83.3674 130.864 83.4742C130.884 83.5022 130.902 83.508 130.911 83.4372Z" fill="#FFFDF2"/>
<path d="M45.8649 16.9629C45.4235 17.2415 44.9835 17.5233 44.5602 17.8298C44.919 17.5774 45.3947 17.2654 45.8649 16.9629Z" fill="#FFFDF2"/>
<path d="M44.9362 103.083L45.2089 102.842C45.0985 102.928 45.0006 103.012 44.9362 103.083Z" fill="#FFFDF2"/>
<path d="M40.8791 20.6709C40.6366 20.817 40.3927 20.9892 40.1474 21.174C40.1041 21.2236 40.0527 21.2777 40.0293 21.3165L40.8791 20.6709Z" fill="#FFFDF2"/>
<path d="M97.4566 105.622C97.4541 105.619 97.4546 105.618 97.4546 105.618C97.4546 105.618 97.4541 105.619 97.4566 105.622Z" fill="#FFFDF2"/>
<path d="M104.474 106.855C103.384 107.9 104.077 107.464 103.912 107.756C102.648 109.04 103.227 108.246 102.726 108.61C102.535 108.809 102.36 109.002 102.196 109.188L102.165 109.223C102.161 109.228 102.163 109.228 102.161 109.232L102.155 109.248L102.139 109.286C102.127 109.312 102.111 109.342 102.092 109.375C102.045 109.364 102.006 109.358 101.917 109.302C101.739 109.17 101.569 109.037 101.407 108.897C101.377 108.836 101.259 108.723 101.427 108.82C100.435 108.151 98.7315 106.539 97.5675 105.769C97.4985 105.691 97.4683 105.647 97.4561 105.62C97.5733 105.83 97.5449 105.917 97.4706 105.932C96.953 105.497 96.4454 105.2 96.3214 104.952C96.6356 105.223 96.6902 105.212 96.8606 105.312L96.2894 104.889C95.9039 104.356 97.0625 105.474 97.1374 105.386C96.0505 104.53 94.7381 103.585 93.9591 102.866C93.8897 102.606 95.8809 104.431 94.8914 103.411L96.1036 104.517C95.3048 103.522 96.852 105.175 96.1415 104.233C94.5258 102.802 94.2512 102.73 92.64 101.303C92.2158 101.055 92.6806 101.503 92.2559 101.254C89.825 99.3905 90.6699 99.4022 88.8233 98.1021C88.3134 97.8032 88.0159 97.8045 86.8618 96.6896L87.3902 96.911C85.8087 95.5459 86.3199 96.3285 84.728 94.8241C85.0684 95.0238 86.0165 95.843 85.7893 95.623C84.7975 94.6014 84.9616 95.0491 84.1311 94.3436L84.0586 94.0807C82.3477 92.6597 80.4087 91.1585 78.513 89.5856C78.6464 89.6388 78.999 89.8754 78.5901 89.467C78.064 89.0423 77.5284 88.5983 76.9887 88.1429C76.313 87.5645 75.6273 86.9776 74.9411 86.3901C74.5656 86.9208 74.19 87.4518 73.8168 87.9802C73.5458 88.3548 73.2762 88.7272 73.0098 89.0955C72.4724 89.829 71.9472 90.5458 71.4468 91.2288L70.9053 92.2459C70.753 92.4641 70.5753 92.6182 70.7183 92.3662C70.0136 93.299 70.753 92.4641 70.4766 92.955C70.1069 93.5068 69.9153 93.634 70.1218 93.2647C69.7192 93.9211 69.1809 94.779 68.5935 95.6852C68.2964 96.136 67.9903 96.6013 67.6869 97.0616C67.54 97.2789 67.3939 97.4948 67.2496 97.708C67.1802 97.8077 67.1121 97.9055 67.0458 98.0011C66.9174 97.8649 66.7934 97.7342 66.6766 97.6102C66.4544 97.3772 66.2492 97.1553 66.0653 96.9489L66.3944 97.218C65.229 95.9927 64.8463 96.0711 63.8166 94.8818L64.047 95.0761C63.4199 94.4495 62.777 93.8066 62.1346 93.1646C61.4033 92.4442 60.6726 91.7247 59.9616 91.0246C59.5009 91.397 59.0469 91.7639 58.6033 92.1228C58.2458 92.4059 57.8964 92.6823 57.5583 92.9501C56.8775 93.4811 56.2324 93.9667 55.6382 94.3832C55.3456 94.867 52.7669 96.608 52.7512 96.9633C51.0425 98.1828 51.478 97.7676 49.1324 99.56C48.5134 100.047 48.3259 100.43 47.587 101.066L47.4806 100.973L46.5465 101.921L45.8955 102.236L45.2089 102.84C45.4965 102.616 45.8486 102.4 45.831 102.466C44.763 103.415 43.0697 104.586 42.9976 104.553L41.7335 105.656L41.1014 106.207C40.9617 106.327 40.986 106.313 40.9387 106.358L40.8318 106.464L40.8264 106.459C40.8278 106.456 40.8287 106.454 40.8327 106.455C40.8494 106.409 40.8864 106.357 40.9206 106.309C40.9436 106.28 40.9427 106.272 40.9824 106.23C41.0645 106.154 41.1474 106.076 41.2254 106.002C41.137 106.086 41.059 106.158 40.991 106.223C40.94 106.271 40.9554 106.265 40.9346 106.285C40.9107 106.312 40.8909 106.328 40.8778 106.334C40.8512 106.345 40.8494 106.318 40.8472 106.294C40.8458 106.266 40.8449 106.24 40.8363 106.224C40.8318 106.216 40.8255 106.209 40.8129 106.203C40.8057 106.199 40.7976 106.196 40.7881 106.191C40.7836 106.188 40.7872 106.194 40.775 106.182L40.7313 106.138C40.7011 106.107 40.6691 106.075 40.6353 106.042C40.7556 106.23 40.4946 106.005 40.4486 105.995C39.9757 105.315 38.7553 103.892 37.8253 102.863L38.0714 103.003C36.4579 101.087 34.5965 99.0267 32.7662 96.8921C33.3892 97.686 33.1124 97.6183 32.5633 97.0034L32.46 96.6576C32.0444 96.3132 32.9789 97.3474 32.1828 96.5905C31.5115 95.7826 31.8496 95.9458 32.2788 96.3727L31.4083 95.4373C31.3929 95.3516 31.6053 95.5639 31.6986 95.5865C31.2884 95.2484 30.375 93.8188 29.7623 93.3481L29.7483 93.2647C28.8332 92.1981 28.1587 91.4317 27.5258 90.7149C26.8703 89.967 26.259 89.2695 25.4741 88.3738C25.4101 88.39 25.1612 88.1393 24.8434 87.8008C24.6243 87.9644 24.3691 88.1551 24.1063 88.3517L23.9314 88.4856L23.8196 88.5789C23.747 88.6429 23.6758 88.7065 23.6063 88.7673C22.1971 89.6865 20.6016 90.6621 18.9367 91.8189C17.7984 92.6778 18.6545 92.1431 18.1694 92.5678C18.0175 92.5321 16.3553 93.6876 17.174 93.0244C16.6754 93.3729 16.2669 93.6588 15.8955 93.9189C15.845 93.9549 15.7963 93.9901 15.7476 94.0248L15.6745 94.0798L15.5199 94.1979C15.5095 94.2016 15.4847 94.2345 15.4857 94.2151L15.4793 94.1709C15.4753 94.1398 15.4708 94.1087 15.4667 94.0762C15.4572 94.0041 15.4469 93.9279 15.4361 93.8449C15.3964 93.317 15.3504 92.7048 15.2932 91.9443C15.2602 92.2788 15.2562 92.6548 15.2084 92.4618C15.1629 91.906 15.2061 91.1927 15.2647 91.2707L15.2819 91.4168C14.9722 87.9739 15.4415 83.462 15.2544 80.7215L15.2647 80.8757L15.2012 78.0287C15.2553 76.7209 15.2675 78.8158 15.3635 77.8502C15.2837 74.7778 15.5893 73.011 15.6619 70.4873C15.7882 70.0072 15.8761 69.335 15.9653 68.5583C16.0645 67.7829 16.1502 66.9006 16.2349 65.9967C16.3309 65.0946 16.4513 64.1745 16.5654 63.3156C16.6754 62.4564 16.8548 61.6728 17.0103 61.034L16.9057 61.1697C16.9427 60.4872 17.0874 60.3677 17.192 59.8795C17.1163 59.9367 16.9968 60.5918 17.0243 60.168C17.9629 54.4921 20.3009 48.7518 23.0108 43.5452C24.0175 41.645 23.188 42.2554 24.6797 39.9689L24.4345 40.7168C24.9101 39.7371 25.4786 38.7945 26.0318 37.8378C26.6223 36.9042 27.2025 35.9574 27.8418 35.0535C29.0807 33.2182 30.4214 31.4717 31.7072 29.7708C31.5724 29.989 31.5981 30.0192 31.3375 30.3429C31.6616 30.0264 32.1986 29.3926 32.6408 28.8227C33.0786 28.2493 33.4658 27.7763 33.4325 27.7371C33.8815 27.248 33.5948 27.6749 33.9 27.3999C34.532 26.7579 35.3417 25.6494 35.7461 25.373C35.8151 25.3261 35.5964 25.5808 35.4887 25.7062C35.8394 25.2274 37.4304 23.7794 36.9403 24.0828C37.5228 23.535 38.0787 23.0116 38.6061 22.5157C39.1309 22.0171 39.6304 21.5491 40.1475 21.174C40.4216 20.8558 40.9495 20.4185 41.4328 20.0416C41.9219 19.6719 42.3507 19.341 42.3944 19.1814C42.4169 19.3946 44.7247 17.6265 45.5263 17.0066C45.2783 17.2429 46.2954 16.5784 46.0113 16.8669C46.9612 16.219 47.853 15.6591 47.6271 15.6722C48.1144 15.4531 48.5792 15.1966 49.0228 14.9306C49.4777 14.6844 49.9105 14.427 50.3194 14.1849C51.1286 13.6836 51.8856 13.3257 52.4852 13.2026C55.5287 11.6599 58.5239 10.5711 61.5174 9.85117C61.4854 9.96387 60.6622 10.1704 59.8687 10.3705C59.0794 10.5869 58.3323 10.8421 58.4252 10.9187C61.1829 10.0148 62.8072 9.47834 65.6907 9.16772C66.4372 9.0992 65.2791 9.30973 65.0338 9.37645C67.9101 8.89497 70.6434 8.88551 73.2347 8.91211C73.2266 8.93059 72.9458 8.94186 72.6816 8.94862C73.1928 8.95899 73.8677 9.0185 73.8154 8.92427L73.3154 8.93239C72.9102 8.85485 73.4209 8.79173 74.048 8.76468C74.6733 8.75657 75.4154 8.76604 75.4645 8.73493C75.0173 8.82915 75.6584 8.90128 76.2323 8.97657C76.8048 9.07124 77.3075 9.18305 76.6042 9.25203C76.9392 9.28088 77.3634 9.2953 77.2953 9.22362C77.7885 9.31018 77.94 9.36789 77.4288 9.36789C79.2496 9.5658 78.6212 9.38682 80.2563 9.69157C80.2414 9.7344 79.9087 9.68842 79.7302 9.70826C80.1508 9.74387 80.5737 9.77994 81.0637 9.84486C81.5493 9.93052 82.0997 10.0536 82.7787 10.2366C82.6899 10.2429 82.8395 10.3151 82.4324 10.2159C83.6127 10.4692 84.6036 10.7474 85.6378 10.9908C86.1504 11.1279 86.6616 11.2956 87.2053 11.471C87.4758 11.5629 87.754 11.6581 88.0434 11.7568C88.3288 11.8659 88.62 11.993 88.9248 12.1247C88.1272 12.016 89.7398 12.5187 89.8056 12.7256C90.256 12.8771 90.6915 13.0651 91.1311 13.2445L90.6428 12.9343C91.2109 13.1927 91.7591 13.4077 92.2856 13.62C92.8135 13.8292 93.2991 14.0794 93.7688 14.3409L92.9096 13.9834C93.6074 14.3314 94.317 14.6583 95.0068 15.0235C94.6344 14.7827 94.2413 14.5808 93.859 14.3567C95.0244 14.8603 93.8455 14.0871 95.2931 14.9207C94.9888 14.7697 96.3872 15.5379 96.9066 15.9431L96.9025 15.9413C97.4597 16.2159 98.0305 16.508 98.7978 17.0305C98.9731 17.2027 98.5331 17.0855 98.6468 17.1982C98.9502 17.2897 99.5565 17.7009 100.187 18.113C100.504 18.3172 100.825 18.5241 101.107 18.7067C101.385 18.8951 101.631 19.0502 101.809 19.135C101.58 19.0101 101.518 19.0737 101.575 19.1381L102.055 19.3509C102.5 19.7256 102.557 19.79 102.439 19.79C103.133 20.3166 103.055 20.1922 103.003 20.0984C102.949 20.0087 102.937 19.9302 103.714 20.6191C103.581 20.5244 103.632 20.5866 103.357 20.3883C104.146 21.0658 104.962 21.6546 105.703 22.3029C106.078 22.6212 106.449 22.9359 106.817 23.2487C107.181 23.5666 107.521 23.9065 107.861 24.2423C108.155 24.7522 106.619 23.1275 106.991 23.6752C109.046 25.4974 111.202 27.5261 112.896 29.5896L112.591 29.1969C113.005 29.3312 113.798 30.7775 114.692 31.7873C114.475 31.5371 114.322 31.5272 114.398 31.5813C114.669 31.9474 114.951 32.3121 115.248 32.6872C115.535 33.069 115.833 33.4648 116.15 33.8841C116.8 34.7105 117.467 35.6689 118.261 36.805L118.02 36.5516C118.303 37.0092 118.647 37.6291 119.019 38.244C119.203 38.5528 119.389 38.8634 119.565 39.1596C119.728 39.4635 119.882 39.7525 120.019 40.0085C120.239 40.2804 120.552 40.8674 120.435 40.4706C121.839 43.7693 123.638 46.5342 124.442 49.6408C124.313 49.2833 124.087 48.8068 124.188 49.0917C124.505 49.9357 124.849 50.7701 125.122 51.6335C125.156 51.3963 125.077 51.2737 124.98 50.7052C125.145 51.0118 125.417 51.7304 125.619 52.3728C125.188 51.2277 125.464 52.4346 125.566 52.9548C125.57 52.8606 125.657 53.0225 125.675 52.9706C125.922 54.379 125.946 53.1352 126.407 55.0214L126.324 54.9394C126.579 55.6192 126.803 56.2508 126.999 57.0086C126.967 57.354 126.742 56.2787 126.634 56.258C126.928 57.3147 127.422 58.2894 127.566 59.2794C127.412 58.8376 127.235 58.1902 127.081 57.7493C127.228 58.8304 127.295 58.9413 127.484 59.7226L127.467 59.6455C127.618 60.2455 127.719 60.8578 127.843 61.4646L127.774 60.9948C128.081 61.6264 128.253 62.3053 128.425 63.0447C128.595 63.7845 128.779 64.5816 129.042 65.4733C128.511 63.7457 128.875 65.2042 128.716 65.0964C128.768 65.5675 128.862 66.2798 128.786 66.0869C129.059 66.9231 128.976 67.5326 129.368 68.7138C129.333 68.776 129.507 69.6375 129.368 69.4613C129.577 70.5766 129.402 69.184 129.471 69.2688C129.681 70.1213 129.795 71.146 129.93 72.2618C130.05 73.3803 130.148 74.5957 130.407 75.8337C130.57 76.908 130.665 77.5454 130.782 78.1622C130.887 78.7798 131.019 79.3771 131.1 80.3843C131.068 81.0691 130.909 79.8379 130.909 79.8379C130.904 80.9388 130.967 81.7615 131.065 82.7935C131.022 82.5856 130.995 82.8029 130.953 83.1194C130.985 83.948 131.127 83.6699 131.088 84.7658C131.035 84.5792 130.95 84.3393 130.892 83.9413C130.931 84.4291 130.97 84.9137 131.009 85.4033C131.038 85.8929 131.065 86.3874 131.082 86.8937C131.004 87.1615 130.969 86.2819 130.921 85.9262C130.937 86.4947 130.956 87.2305 130.973 87.8688C130.98 88.5068 131.001 89.0477 131.055 89.2258L131.123 88.4973C131.115 88.9125 131.012 88.7074 131 88.4013C130.941 87.4257 131.058 86.9969 131.11 86.9415L131.134 87.6633C131.265 87.2949 131.258 86.5682 131.222 85.7545C131.182 84.9403 131.074 84.04 131.069 83.3137L131.271 83.9142C131.203 83.4183 131.149 82.9224 131.072 82.4283C131.103 82.11 131.196 81.8882 131.264 82.6046C131.299 81.5582 131.146 81.6858 131.2 80.785C131.21 80.6854 131.222 80.7291 131.235 80.8207L131.123 79.8054C131.173 80.0024 131.245 79.6269 131.253 80.2549C131.246 78.4169 130.868 77.3227 130.96 76.6221L130.984 76.7736C130.655 74.2531 130.829 76.5414 130.448 74.6696L130.631 73.355L130.465 73.1251C130.44 72.8641 130.385 72.3483 130.449 72.4362C130.205 71.4855 130.415 72.6089 130.24 72.0621C130.165 70.7984 129.656 68.6363 129.808 68.3216C129.623 67.8947 129.95 69.5208 129.63 68.2107C129.789 67.7914 129.296 66.6901 129.184 65.5391C129.37 65.8624 129.514 66.9479 129.402 65.7938C129.233 65.4724 129.144 64.9183 129.053 64.3282C128.951 63.7408 128.86 63.1146 128.731 62.6448C128.646 62.6408 128.51 62.1295 128.343 61.4222C128.261 61.0683 128.168 60.6662 128.072 60.2528C127.972 59.8402 127.845 59.4237 127.728 59.0328C127.768 59.0757 127.588 58.3295 127.357 57.3869C127.123 56.4446 126.852 55.3014 126.636 54.5733L126.675 54.6084C126.429 54.3749 125.99 52.8723 125.617 51.7953C125.725 51.807 125.823 51.991 126.05 52.5676L125.728 51.5438C125.597 51.3201 125.487 51.0046 125.238 50.354L125.446 50.5686C125.201 49.8951 124.923 49.2283 124.64 48.5106C124.353 47.7943 124.012 47.045 123.71 46.1735C123.565 46.1253 123.964 47.6468 123.16 45.885C123.184 45.7971 123.266 45.683 123.479 46.1447C123.414 45.9914 123.199 45.6199 123.084 45.3048C123.22 45.5271 123.366 45.7453 123.495 45.9716C123.202 45.1862 123.236 45.6064 122.972 44.9928C123.059 44.9685 122.826 44.5154 122.93 44.574C123.008 44.7259 123.137 45.1209 123.275 45.3404C122.978 44.6462 122.649 43.7923 122.585 43.4875C122.566 43.5696 122.482 43.5362 122.221 43.0484C121.574 41.7735 122.098 42.5634 121.764 41.7965C121.658 41.6554 121.517 41.3736 121.387 41.132C121.248 40.8949 121.118 40.6983 121.054 40.719C120.853 40.3525 120.87 40.2547 120.823 40.096C120.611 39.7899 120.213 39.0212 119.844 38.4627C119.486 37.8982 119.222 37.5087 119.377 37.9018L119.467 38.0691C119.447 38.0398 119.424 38.0051 119.399 37.9686C119.403 37.9735 119.399 37.9686 119.403 37.9735L119.399 37.9686C118.057 35.9538 116.743 33.6903 115.233 31.8126L115.271 31.7887C114.371 30.6684 113.243 29.3177 112.513 28.596C112.229 28.2813 111.901 27.7998 112.062 27.899C111.29 27.1163 111.204 27.0302 110.139 25.8549C110.967 26.5902 109.923 25.5331 110.97 26.6258C110.489 26.0984 110.193 25.7747 109.888 25.4415C109.575 25.1169 109.253 24.7815 108.646 24.3059C109.105 24.5823 107.962 23.4633 107.444 23.0215L108.117 23.7685C107.834 23.5129 107.573 23.2686 107.321 23.0292C107.063 22.7979 106.812 22.5738 106.559 22.348L106.935 22.4769C104.865 20.3738 102.67 19.3617 101.033 17.8312C100.683 17.6567 101.001 17.8952 101.327 18.1409C101.65 18.3907 101.967 18.6643 101.655 18.5065C100.569 17.7198 99.5249 16.7524 99.1629 16.5319C97.6301 15.4946 97.5977 15.7863 95.9405 14.8021C96.1302 14.9698 96.261 15.2074 94.9856 14.5483C93.8013 13.9221 93.6151 13.6016 94.3937 13.9469C94.684 14.0889 94.8157 14.1746 94.7945 14.184C95.1948 14.3576 95.6957 14.6335 95.2602 14.3161L95.0821 14.2778C94.5118 13.9271 92.8523 13.0939 93.2797 13.2116C92.3415 12.8072 92.8537 13.0921 93.5137 13.4596C92.7658 13.0209 92.1364 12.768 91.5174 12.4822C91.2059 12.3433 90.8926 12.204 90.5558 12.0539C90.2136 11.9159 89.8489 11.7649 89.4396 11.5877C89.692 11.7203 89.9102 11.8749 89.6488 11.7699C88.4496 11.2528 88.1714 11.1739 87.9848 11.154C87.8004 11.1288 87.7111 11.1486 86.8739 10.8714C85.9489 10.4747 87.2824 10.7848 85.5661 10.307C84.5382 9.94719 85.3853 10.1059 85.8154 10.187C85.0188 10.0067 84.2957 9.77543 83.6573 9.55588C83.0113 9.36608 82.4518 9.1817 82.001 9.06268L82.8467 9.22318C82.3405 9.12715 81.932 9.02706 81.515 8.92608L81.9681 9.14608C81.4839 9.00452 81.0669 8.91345 81.084 8.87739C80.5606 8.84899 81.4361 9.12579 80.4082 9.02706C80.085 8.9378 79.5814 8.85665 79.1342 8.7755C78.6884 8.68579 78.2898 8.64567 78.1866 8.5528C79.2275 8.7151 79.1703 8.70517 79.0828 8.63259C78.9936 8.57038 78.8646 8.49149 79.746 8.64747C79.4025 8.6069 78.9936 8.5032 78.4931 8.42566C78.4206 8.39952 78.5689 8.40628 78.7068 8.41755C77.7132 8.21558 77.4756 8.22325 77.2295 8.24534C76.9815 8.27825 76.7295 8.27554 75.6863 8.19575C75.9591 8.13894 75.2166 8.0028 74.8735 7.99017C75.7165 8.06456 75.2634 8.15788 74.4898 8.15247C73.8249 8.05284 73.4584 8.07628 73.1739 8.07853C72.889 8.08755 72.6838 8.10558 72.3331 8.09026L73.132 8.14661C72.8574 8.2228 72.1902 8.1723 71.2597 8.18988C71.1799 8.1164 72.1054 8.15968 71.7736 8.12497C71.2556 8.17456 70.6723 8.17185 70.0353 8.13533C69.717 8.12046 69.3852 8.10468 69.0425 8.10017C68.7008 8.11009 68.3487 8.13894 67.9899 8.18808C67.3177 8.18312 67.9146 8.04291 67.3231 8.04968C66.5157 8.14976 66.0784 8.18943 65.6276 8.21783C65.1776 8.24894 64.7133 8.26742 63.8734 8.43243C64.1245 8.44099 64.2719 8.45181 64.2079 8.47751C64.1435 8.50095 63.8707 8.56542 63.29 8.73042L63.9757 8.58345L64.6673 8.47255L66.0531 8.25526L64.2909 8.64071C65.1271 8.53476 66.0486 8.34317 66.5531 8.30079C65.7132 8.49374 65.7993 8.45857 66.2082 8.49464C65.0442 8.48292 63.9532 8.85891 62.6314 9.02256L62.6215 8.75341C60.6131 9.01444 59.1551 9.65686 56.6611 10.4111C56.9289 10.3295 57.1967 10.2488 57.4708 10.1879C57.1634 10.3728 55.9574 10.7379 55.1752 11.0571C55.2154 10.9417 54.71 11.0986 54.3583 11.1942C54.4278 11.2451 52.5825 11.9123 52.4527 12.1973L51.3518 12.5926C50.3825 13.011 49.8974 13.3838 49.4047 13.7116C49.1603 13.8797 48.9191 14.047 48.627 14.23C48.3421 14.4257 48.0085 14.6403 47.5712 14.8918C48.0446 14.4974 47.2222 14.9135 48.3529 14.1597C47.7714 14.505 47.2403 14.8021 47.2633 14.8607C47.082 14.9423 46.6858 15.193 46.2863 15.4901C45.8856 15.7845 45.46 16.091 45.1769 16.2258C44.9645 16.4201 44.9258 16.5297 44.3081 16.9643C44.2306 16.9976 44.2851 16.9264 44.2851 16.9264C44.3077 16.9647 43.3582 17.6653 43.9515 17.3605C43.4944 17.6103 42.9575 17.9304 42.4214 18.3302C41.8854 18.7306 41.321 19.1719 40.7687 19.6146C40.2309 20.0749 39.7007 20.5307 39.2089 20.9333C38.7188 21.3377 38.2887 21.7141 37.9114 21.9707C37.6459 22.2254 37.36 22.4859 37.0805 22.7632C36.8037 23.0432 36.5215 23.3281 36.2425 23.6103C35.9634 23.8921 35.6875 24.1711 35.4224 24.4389C35.1645 24.7135 34.9179 24.9767 34.6898 25.2202C34.7299 25.1395 34.661 25.1864 34.8417 25.0101C33.51 26.2864 34.2399 25.9956 32.7819 27.4937C31.9628 28.1974 33.4622 26.6128 32.978 27.0744C32.5525 27.0888 31.3461 29.0048 30.3416 30.0034L30.5382 29.723C30.1676 30.1175 29.784 30.6544 29.357 31.2639C28.9324 31.8752 28.4942 32.5808 27.9635 33.2832C27.9635 33.2832 27.9928 33.1989 27.9333 33.2493C27.6416 33.7809 27.2012 34.5342 26.7035 35.3209C26.2252 36.1193 25.7157 36.97 25.2811 37.6949C25.4556 37.1855 25.64 37.0137 25.3659 37.2215C24.9786 37.8743 25.6346 37.1282 24.8858 38.441C24.5792 38.8296 23.9733 39.7394 23.8033 39.8102C24.0269 39.3891 24.2781 38.9838 24.5179 38.5722C23.9931 39.1141 23.5955 40.1776 23.2074 40.8223L23.1925 40.7046C22.6601 41.664 22.4739 42.1946 22.2435 42.7229C22.0136 43.2522 21.7873 43.8045 21.2792 44.8653L21.432 44.6687C21.0344 45.8994 20.8811 45.601 20.4821 46.8268L20.1625 47.1113C19.8555 47.9052 19.1851 49.9244 18.7135 51.3679C18.7992 50.9419 18.9782 50.304 19.1765 49.6399C19.3961 48.9826 19.6251 48.2974 19.8 47.7731C19.6418 48.1639 19.3772 48.8298 19.1423 49.4524C18.916 50.0786 18.737 50.6682 18.7005 50.8882C18.8006 50.5637 18.9065 50.1466 19.0476 49.841C18.9358 50.3513 18.7798 50.9302 18.5797 51.5776C18.3899 52.2286 18.1775 52.9562 17.9129 53.7501C17.7885 53.5553 17.4607 54.599 17.0969 55.8306C16.9346 56.4519 16.7633 57.12 16.5974 57.7029C16.4504 58.2908 16.312 58.7943 16.1822 59.0802C15.7449 62.0236 15.1318 64.885 14.8288 68.3329C15.2206 67.1395 14.7337 69.3373 15.0393 69.1516C14.9925 69.9536 14.9636 70.2583 14.9402 70.3282C14.818 71.1325 14.6994 71.9381 14.6034 72.7455C14.4893 73.3172 14.5876 71.9782 14.5213 72.0481C14.3969 73.8049 14.3613 72.7784 14.2197 73.9388C14.3356 73.7058 14.3153 74.5578 14.2445 75.5596C14.3054 75.0902 14.3649 74.6214 14.4384 74.1534C14.442 75.3851 14.378 75.9135 14.2937 76.445C14.2157 76.9765 14.1278 77.5112 14.176 78.7532L14.1079 77.9665C14.1183 79.2405 14.0101 82.6632 14.2463 83.9097C14.2152 84.1347 14.1413 84.4322 14.1192 83.8723C14.0813 86.9153 14.4506 90.6315 14.4267 92.9956L14.3491 92.7684C14.3708 93.0515 14.4131 93.2963 14.4483 93.56C14.456 93.6258 14.4636 93.693 14.4718 93.762C14.4785 93.8292 14.4839 93.8909 14.4916 94.0298C14.5042 94.2714 14.5132 94.5302 14.5155 94.8363C14.4857 94.8029 14.4267 94.4937 14.4515 94.9544C14.4645 95.0779 14.488 95.2943 14.5173 95.5689C14.5313 95.7023 14.5466 95.8502 14.5633 96.0075C14.543 96.1437 14.6489 96.0229 14.717 95.9814C14.7905 95.9282 14.8658 95.8736 14.9424 95.8182C15.2395 95.6063 15.556 95.3804 15.8621 95.1622C16.0131 95.0577 16.1619 94.9549 16.3048 94.8566C16.4008 94.7944 16.4928 94.7349 16.578 94.6794L16.4567 94.7858C16.4162 94.8214 16.385 94.8503 16.3003 94.9166L15.854 95.2691C16.2466 95.0067 16.6163 94.7597 16.9675 94.5248C17.2385 94.3345 17.4954 94.1542 17.742 93.9806C18.2312 93.6276 18.6707 93.2922 19.0958 92.9622C19.9461 92.3013 20.7377 91.6607 21.7467 90.9394C21.8003 91.0232 22.3156 90.7487 22.9396 90.3745C23.2515 90.1874 23.5906 89.9755 23.9124 89.7709C24.0729 89.6681 24.2298 89.5675 24.3772 89.4733C24.4422 89.4318 24.5048 89.3917 24.5648 89.3534L24.5963 89.3394L24.5999 89.371C24.6139 89.3624 24.6274 89.3538 24.6387 89.3466C25.0363 89.7961 25.4065 90.2145 25.7617 90.6157C26.2486 91.1472 26.7143 91.6562 27.1764 92.1607C28.1074 93.1642 29.0311 94.1438 30.0517 95.2759C31.1775 96.9178 34.3512 100.422 36.3322 102.914C36.0427 102.522 36.5012 102.874 36.8849 103.29C37.3407 103.883 38.3338 104.766 38.1188 104.795L37.9479 104.59C38.0633 104.862 38.3803 105.281 38.7648 105.746C38.9605 105.976 39.1687 106.221 39.3766 106.466C39.6308 106.761 39.8851 107.056 40.1222 107.332C40.2449 107.353 40.3535 107.358 40.4482 107.346C40.5352 107.461 40.6236 107.578 40.7187 107.703C41.1375 107.395 41.5829 107.067 42.0459 106.725C42.3948 106.463 42.7519 106.183 43.1107 105.894C43.8289 105.316 44.5561 104.702 45.2472 104.117C46.6299 102.948 47.8696 101.896 48.6094 101.489C49.1585 100.966 49.8857 100.375 50.4299 99.8562L50.479 99.9807C52.125 98.6841 52.9468 98.0372 54.9372 96.3799L54.5851 96.7839C55.7234 95.8687 55.7838 95.3349 56.8248 94.4788L57.2594 94.371C57.7557 93.9667 58.2598 93.5695 58.7665 93.1741C59.2349 92.8098 59.9458 92.2513 59.8976 92.3031L59.9742 92.3874L60.2136 92.6286L60.8935 93.2936C61.3501 93.7318 61.8145 94.1592 62.2906 94.569C62.2414 94.56 62.1495 94.5464 61.8501 94.262C62.7008 95.1082 65.0627 97.6134 64.936 97.1211C64.9013 97.1716 65.1267 97.4218 65.4779 97.7635C65.9481 98.204 66.5666 98.7833 67.1694 99.3481C67.397 98.9951 67.622 98.6462 67.8343 98.3171C67.9736 98.0922 68.1048 97.8807 68.2211 97.6936L68.2027 97.9411C68.7306 96.8939 68.7157 96.8389 69.6007 95.4783C69.8324 95.1713 69.8748 95.2583 69.5583 95.6604C70.34 94.6438 70.0276 94.7714 70.9653 93.5312L70.7025 94.0532C71.4594 92.974 71.3643 93.0357 71.6997 92.3852C72.1289 91.6747 73.1464 90.3461 73.3502 90.2505C73.3943 90.0648 73.7279 89.4183 74.1964 88.798C74.2915 88.7362 74.1526 88.9837 74.0823 89.1081C74.3415 88.7619 74.5665 88.445 74.7666 88.1497C74.8879 87.9721 74.91 87.9342 74.9614 87.8526C75.0092 87.7737 75.0556 87.698 75.1003 87.6245C75.2048 87.7002 75.3036 87.7719 75.4001 87.8413C75.4731 87.8977 75.5452 87.9536 75.6164 88.0086L75.8653 88.2078C76.194 88.4747 76.5109 88.7502 76.8377 89.0766C76.835 89.1289 76.8968 89.2087 76.9842 89.2993C76.4726 88.8624 75.9987 88.4576 75.616 88.1308C75.3807 87.9261 75.2008 87.7697 75.1088 87.6899C75.0746 87.7363 75.0592 87.7548 75.0673 87.7399C75.0746 87.7701 75.0953 87.7733 75.1196 87.7692C75.1778 87.8643 75.2423 87.9549 75.2522 88.0081C75.2684 88.0672 75.2107 88.0726 75.1755 88.1272C75.185 88.1208 75.1999 88.1168 75.2233 88.1195L75.2427 88.1222C75.2468 88.1213 75.2531 88.1217 75.2991 88.1565C75.3698 88.2074 75.4424 88.2592 75.5164 88.3124C75.8107 88.527 76.1286 88.7592 76.4518 88.995C77.0947 89.4733 77.7493 89.9845 78.2569 90.4516C78.3006 90.5034 78.343 90.5539 78.3701 90.5999L78.2529 90.5174C78.4877 90.732 78.7122 90.9083 78.9291 91.067C79.2523 91.3663 79.4561 91.5579 79.7766 91.8325C79.8389 92.011 80.9794 92.9217 81.5141 93.3819C81.5515 93.2476 82.2422 93.8607 81.6507 93.221C81.7301 93.3003 81.5394 93.1462 81.1783 92.8464C81.0953 92.781 80.9988 92.7017 80.9407 92.662C80.9533 92.6683 80.9686 92.6764 80.9844 92.6845C80.6301 92.3865 80.168 91.9979 79.6427 91.5566C80.1089 91.8681 80.5877 92.2035 81.1368 92.7616C81.4654 92.9338 81.8234 93.1277 82.0199 93.2431C82.6412 94.0023 83.9973 95.279 84.1239 95.5297C85.8114 96.8695 88.0209 98.7774 89.207 99.4721C89.6934 99.8454 89.6993 99.9797 89.8494 100.156C89.5645 99.9459 89.2466 99.6709 89.0785 99.5736C90.0514 100.319 91.8583 101.903 92.1887 101.965C93.3162 103.021 91.4286 101.521 93.0624 102.872L92.8118 102.726C94.3152 104.177 95.6758 105.193 97.0738 106.253C97.7726 106.783 98.4808 107.324 99.2206 107.936C99.5908 108.242 99.9686 108.565 100.357 108.914C100.55 109.091 100.746 109.272 100.949 109.457C101.165 109.663 101.386 109.874 101.615 110.091C101.536 110.017 101.467 109.952 101.407 109.896C101.363 109.853 101.326 109.816 101.295 109.785C101.233 109.721 101.196 109.677 101.18 109.645C101.493 109.921 101.807 110.198 102.124 110.478C102.632 109.998 103.142 109.516 103.655 109.03C104.107 108.595 104.56 108.158 105.014 107.719C105.916 106.835 106.822 105.948 107.727 105.062C109.535 103.291 111.346 101.539 113.176 99.9311C114.274 98.9397 114.316 98.7522 114.909 98.0678L115.234 97.9434L116.237 96.7595C117.732 95.1591 119.196 94.3715 121.04 92.2932L120.719 92.4749C120.859 92.3405 121.031 92.176 121.216 91.9984C121.37 91.8469 121.535 91.6851 121.696 91.5277C121.849 91.589 122 91.6485 122.138 91.7035C122.311 91.7757 122.469 91.841 122.599 91.8956C122.858 92.0083 123.006 92.0849 122.947 92.0957C123.047 92.1183 123.285 92.13 123.627 92.3207L123.628 92.3983L125.938 93.2039C127.674 93.964 125.558 93.3544 128.114 94.4067C129.076 94.7678 130.903 95.3146 130.564 95.1253C130.18 94.9661 129.598 94.6857 129.597 94.6082L130.482 94.9269C130.718 94.7966 131.468 94.8688 129.386 93.8657L127.848 93.3801L127.407 93.0912L128.663 93.5938C127.988 93.2165 127.505 93.1119 126.978 92.9613C126.879 92.8626 126.684 92.7427 126.396 92.6043L124.858 92.1967C124.712 92.0489 125.575 92.3117 124.611 91.8717C123.891 91.6801 125.198 92.309 124.042 91.9055C123.364 91.5277 123.602 91.5403 122.735 91.2762C122.638 91.1783 122.828 91.2184 123.168 91.3307C122.976 91.2703 122.756 91.1914 122.528 91.1066C122.202 90.9813 121.863 90.8506 121.541 90.7261C120.873 91.3875 120.697 91.5832 120.562 91.7905C119.903 92.2621 118.629 93.6948 118.548 93.4969C118.4 93.7061 117.638 94.5911 117.112 95.1091C117.918 94.0023 115.113 97.016 115.193 96.5846C114.623 97.4308 112.663 99.1543 111.473 100.466C111.532 100.385 111.648 100.226 111.768 100.126C111.039 100.803 110.787 100.957 110.298 101.372C110.328 101.588 109.241 102.692 108.715 103.35C107.719 104.073 109.105 102.686 108.715 102.834C108.859 102.895 107.289 104.407 107.67 104.205C106.926 104.777 107.056 104.726 106.609 104.954C106.644 105.227 106.009 105.583 105.547 106.218C104.499 107.076 105.153 106.31 104.132 107.387C103.579 107.826 104.474 106.855 104.474 106.855ZM78.4819 89.6153L78.4837 89.6135C78.7172 89.8078 78.916 89.9733 79.0432 90.0792C78.9264 89.9827 78.7645 89.8488 78.4819 89.6153ZM76.2219 87.6989C76.496 87.9337 76.8373 88.2254 77.1984 88.5347C77.2493 88.6357 77.1344 88.5969 76.9085 88.4022C77.0514 88.4847 76.5352 88.0135 76.2219 87.6989ZM80.4312 92.4253C80.062 92.1354 79.9583 92.0146 79.9263 91.9533C80.0976 92.0935 80.2978 92.2571 80.5611 92.4722C80.5742 92.4785 80.5998 92.4902 80.6134 92.4961C80.5638 92.4862 80.5106 92.4704 80.4312 92.4253Z" fill="#FFFDF2"/>
<path d="M81.1813 92.8441C81.2354 92.8856 81.2652 92.9086 81.3351 92.9622C81.2683 92.8923 81.2048 92.8265 81.1403 92.7594C81.088 92.7328 81.0348 92.7057 80.9879 92.6823C81.0528 92.7368 81.1209 92.7936 81.1813 92.8441Z" fill="#FFFDF2"/>
<path d="M119.376 37.9018L119.346 37.8464C119.368 37.8937 119.389 37.9374 119.399 37.9685C119.382 37.9293 119.385 37.9271 119.376 37.9018Z" fill="#FFFDF2"/>
<path d="M47.4575 100.953L47.481 100.975L47.6644 100.79L47.4575 100.953Z" fill="#FFFDF2"/>
<path d="M125.565 52.9553C125.564 52.9882 125.571 53.05 125.598 53.169C125.604 53.1577 125.587 53.0662 125.565 52.9553Z" fill="#FFFDF2"/>
<path d="M127.483 59.7226C127.56 60.0454 127.624 60.3709 127.681 60.6982C127.613 60.2712 127.544 59.9656 127.483 59.7226Z" fill="#FFFDF2"/>
<path d="M128.641 65.0026C128.676 65.0653 128.696 65.0811 128.714 65.0955C128.714 65.091 128.713 65.0883 128.713 65.0847L128.641 65.0026Z" fill="#FFFDF2"/>
<path d="M72.6811 8.94906C72.609 8.94861 72.5382 8.94816 72.4742 8.94771C71.9886 8.95582 72.3186 8.95763 72.6811 8.94906Z" fill="#FFFDF2"/>
<path d="M96.902 15.9422C96.6536 15.8291 96.4097 15.7177 96.1559 15.5919C96.5476 15.8228 96.8538 15.9977 96.902 15.9422Z" fill="#FFFDF2"/>
<path d="M46.0095 16.8705C46.0118 16.8682 46.0091 16.8696 46.0109 16.8669C45.96 16.9002 45.9153 16.9295 45.8644 16.9629L46.0095 16.8705Z" fill="#FFFDF2"/>
<path d="M95.1222 15.0081C95.5063 15.2529 95.8399 15.4341 96.1564 15.5915C95.8358 15.4017 95.459 15.1754 95.1222 15.0081Z" fill="#FFFDF2"/>
<path d="M130.849 88.2543L130.835 88.514C130.844 88.5099 130.85 88.5252 130.855 88.5455L130.849 88.2543Z" fill="#FFFDF2"/>
<path d="M130.855 88.5455L130.86 88.8345C130.864 88.7019 130.867 88.587 130.855 88.5455Z" fill="#FFFDF2"/>
<path d="M130.872 89.4427L130.86 88.8345C130.853 89.0446 130.84 89.3034 130.872 89.4427Z" fill="#FFFDF2"/>
<path d="M130.783 81.1119L130.732 81.0325C130.744 81.0763 130.761 81.1042 130.783 81.1119Z" fill="#FFFDF2"/>
<path d="M130.629 78.9443C130.673 79.461 130.623 80.2476 130.692 80.9672L130.732 81.0325C130.643 80.698 130.763 79.4285 130.629 78.9443Z" fill="#FFFDF2"/>
<path d="M130.097 69.8508L130.343 71.6645C130.342 71.3417 130.342 70.9156 130.483 71.737C130.271 69.4338 130.448 72.2235 130.097 69.8508Z" fill="#FFFDF2"/>
<path d="M129.129 64.2565C129.351 65.2154 129.203 64.2295 129.235 64.2755C129.05 63.6759 129.005 63.5316 129.129 64.2565Z" fill="#FFFDF2"/>
<path d="M111.817 27.5622L111.969 27.5586C111.446 27.0059 111.931 27.5834 111.817 27.5622Z" fill="#FFFDF2"/>
<path d="M105.813 22.5175L106.318 23.0526L106.652 23.2027L105.813 22.5175Z" fill="#FFFDF2"/>
<path d="M102.72 18.9763L102.998 19.1616L101.95 18.4384L102.72 18.9763Z" fill="#FFFDF2"/>
<path d="M39.0095 20.7954L39.2787 20.7539C39.6546 20.4036 39.6344 20.2115 39.0095 20.7954Z" fill="#FFFDF2"/>
<path d="M21.3234 44.588C21.12 44.8504 20.7098 45.5866 20.5741 46.0929C20.845 45.4788 21.1958 44.9054 21.3234 44.588Z" fill="#FFFDF2"/>
<path d="M42.0674 106.803L41.8506 107.01C41.7681 107.087 41.7392 107.121 41.5729 107.266L42.4822 106.476L42.0674 106.803Z" fill="#FFFDF2"/>
</g>
<path d="M69.3636 145.399C53.4432 145.399 38.347 141.183 26.8568 133.527C14.9127 125.57 7.40605 114.546 5.14788 101.649C5.06222 101.158 5.38997 100.691 5.88047 100.605C6.36781 100.518 6.83802 100.847 6.92413 101.338C9.09484 113.738 16.3333 124.349 27.8563 132.027C39.0534 139.487 53.7944 143.596 69.3631 143.596C86.0337 143.596 101.535 138.955 113.012 130.53C124.895 121.806 131.603 109.926 132.412 96.1753C132.441 95.678 132.875 95.2926 133.365 95.3282C133.862 95.3575 134.242 95.784 134.212 96.2808C133.383 110.381 126.233 123.061 114.079 131.983C102.296 140.634 86.4151 145.399 69.3636 145.399Z" fill="#C45500"/>
<path d="M102.115 111.029C101.909 111.029 101.701 110.958 101.532 110.814L75.2148 88.4671L67.8466 99.1385C67.6951 99.3576 67.4544 99.4987 67.1893 99.5235C66.9246 99.5492 66.6614 99.455 66.4716 99.2679L59.8787 92.7621L41.3409 107.833C40.9613 108.141 40.4059 108.091 40.088 107.72L24.5977 89.6793L3.17463 104.4C2.90819 104.583 2.56511 104.61 2.27433 104.47C1.98355 104.33 1.78925 104.047 1.76491 103.725L1.06162 94.3977C-0.222323 71.8416 5.87461 48.7852 17.7885 31.1237C30.197 12.7288 47.3265 2.01362 66.0212 0.951931C83.8616 -0.0651258 101.238 7.26706 114.951 21.5924C128.351 35.5909 137.241 55.0863 139.985 76.4887C141.682 89.7258 141.093 98.7914 141.087 98.8811C141.067 99.1701 140.911 99.4315 140.665 99.5848C140.42 99.7381 140.116 99.7634 139.848 99.6556L121.858 92.3559L102.741 110.776C102.567 110.944 102.342 111.029 102.115 111.029ZM75.0395 86.2332C75.2523 86.2332 75.4592 86.3085 75.6228 86.4478L102.078 108.912L121.029 90.6509C121.285 90.4038 121.664 90.3312 121.994 90.4647L139.344 97.5047C139.438 94.6127 139.506 86.9361 138.196 76.7182C135.501 55.6963 126.783 36.5616 113.648 22.8398C100.306 8.9013 83.4239 1.76927 66.124 2.75251C48.0049 3.78174 31.37 14.2156 19.2839 32.1322C7.58638 49.4731 1.60035 72.1247 2.86131 94.2786L3.44558 102.026L24.2439 87.7345C24.6234 87.4744 25.1383 87.5406 25.4385 87.8905L40.8842 105.879L59.3679 90.8528C59.725 90.5634 60.2425 90.5882 60.5703 90.9105L66.9738 97.2293L74.2979 86.6223C74.4426 86.4127 74.6693 86.2738 74.9218 86.2409C74.9606 86.2355 75.0002 86.2332 75.0395 86.2332Z" fill="#C45500"/>
<path d="M96.9471 156.436C96.8011 156.436 96.6528 156.412 96.5071 156.362L88.6272 153.65C88.0812 153.462 87.7147 152.948 87.7147 152.371V142.711C87.7147 141.964 88.3202 141.358 89.0672 141.358C89.8142 141.358 90.4197 141.964 90.4197 142.711V151.406L97.3871 153.804C98.0936 154.047 98.4691 154.817 98.2261 155.523C98.0332 156.084 97.5084 156.436 96.9471 156.436Z" fill="#C45500"/>
<path d="M90.2962 159.141C89.6785 159.141 89.1209 158.716 88.9789 158.088L87.7486 152.671C87.667 152.312 87.7355 151.935 87.9379 151.627C88.1403 151.32 88.4595 151.109 88.822 151.041L96.1384 149.691C96.8741 149.555 97.5783 150.041 97.714 150.775C97.8497 151.51 97.3642 152.215 96.6293 152.351L90.6983 153.446L91.6166 157.489C91.7821 158.217 91.3258 158.942 90.5973 159.107C90.4963 159.13 90.3953 159.141 90.2962 159.141Z" fill="#C45500"/>
<path d="M89.069 153.724C89.0167 153.724 88.9644 153.721 88.9112 153.715L83.3791 153.074C82.6371 152.988 82.1055 152.316 82.1916 151.574C82.2777 150.832 82.9477 150.299 83.6911 150.386L89.2231 151.028C89.9652 151.114 90.4967 151.786 90.4106 152.527C90.3308 153.217 89.7461 153.724 89.069 153.724Z" fill="#C45500"/>
<path d="M41.783 156.436C41.2217 156.436 40.6969 156.084 40.504 155.524C40.261 154.818 40.6365 154.048 41.343 153.805L48.3104 151.407V142.712C48.3104 141.965 48.9159 141.359 49.6629 141.359C50.4099 141.359 51.0154 141.965 51.0154 142.712V152.372C51.0154 152.949 50.6489 153.463 50.1029 153.651L42.223 156.363C42.0774 156.413 41.929 156.436 41.783 156.436Z" fill="#C45500"/>
<path d="M48.434 159.141C48.3348 159.141 48.2338 159.13 48.1328 159.107C47.4043 158.942 46.9481 158.217 47.1135 157.489L48.0318 153.446L42.1008 152.351C41.3664 152.215 40.8804 151.51 41.0161 150.775C41.1514 150.04 41.8556 149.553 42.5918 149.691L49.9082 151.041C50.2706 151.108 50.5898 151.32 50.7922 151.627C50.9947 151.935 51.0632 152.312 50.9816 152.671L49.7513 158.088C49.6088 158.716 49.0516 159.141 48.434 159.141Z" fill="#C45500"/>
<path d="M49.6612 153.724C48.9841 153.724 48.3994 153.217 48.3196 152.528C48.2335 151.786 48.7654 151.114 49.507 151.028L55.0391 150.387C55.7802 150.306 56.4524 150.832 56.5385 151.575C56.6246 152.317 56.0927 152.988 55.3511 153.074L49.819 153.716C49.7658 153.721 49.7135 153.724 49.6612 153.724Z" fill="#C45500"/>
</svg>
