<svg width="287" height="142" viewBox="0 0 287 142" fill="none" xmlns="http://www.w3.org/2000/svg">
<mask id="mask0_911_15262" style="mask-type:luminance" maskUnits="userSpaceOnUse" x="1" y="32" width="285" height="109">
<path d="M280.688 125.286C276.606 127.945 271.709 128.466 266.905 127.617C260.251 143.257 169.925 140.164 117.519 140.164C56.9029 140.164 28.9965 139.977 19.7434 127.183L19.5898 127.711C14.9465 128.426 10.2498 127.851 6.30804 125.286C-5.14979 117.823 2.67361 89.91 37.5415 66.3129C56.6089 48.468 87.1342 34.271 127.006 32.9616C180.875 31.1978 229.452 49.076 259.042 73.4348C259.169 73.535 259.296 73.6419 259.423 73.7421C259.857 74.1095 260.291 74.4703 260.719 74.8378C261.166 75.2186 261.607 75.5994 262.042 75.9802C286.08 97.0252 290.616 118.825 280.688 125.286Z" fill="white"/>
</mask>
<g mask="url(#mask0_911_15262)">
<path d="M280.688 125.286C276.606 127.945 271.709 128.466 266.905 127.617C260.251 143.257 169.925 140.164 117.519 140.164C56.9029 140.164 28.9965 139.977 19.7434 127.183L19.5898 127.711C14.9465 128.426 10.2498 127.851 6.30804 125.286C-5.14979 117.823 2.67361 89.91 37.5415 66.3129C56.6089 48.468 87.1342 34.271 127.006 32.9616C180.875 31.1978 229.452 49.076 259.042 73.4348C259.169 73.535 259.296 73.6419 259.423 73.7421C259.857 74.1095 260.291 74.4703 260.719 74.8378C261.166 75.2186 261.607 75.5994 262.042 75.9802C286.08 97.0252 290.616 118.825 280.688 125.286Z" fill="#FEFAAC"/>
</g>
<mask id="mask1_911_15262" style="mask-type:luminance" maskUnits="userSpaceOnUse" x="1" y="32" width="285" height="109">
<path d="M280.688 125.286C276.606 127.945 271.709 128.466 266.905 127.617C260.251 143.257 169.925 140.164 117.519 140.164C56.9029 140.164 28.9965 139.977 19.7434 127.183L19.5898 127.711C14.9465 128.426 10.2498 127.851 6.30804 125.286C-5.14979 117.823 2.67361 89.91 37.5415 66.3129C56.6089 48.468 87.1342 34.271 127.006 32.9616C180.875 31.1978 229.452 49.076 259.042 73.4348C259.169 73.535 259.296 73.6419 259.423 73.7421C259.857 74.1095 260.291 74.4703 260.719 74.8378C261.166 75.2186 261.607 75.5994 262.042 75.9802C286.08 97.0252 290.616 118.825 280.688 125.286Z" fill="white"/>
</mask>
<g mask="url(#mask1_911_15262)">
<path d="M74.3983 43.4661C54.6434 50.2774 14.4902 83.2846 26.3349 112.824C37.5816 140.872 72.4421 126.108 118.707 126.703C172.177 127.391 218.973 139.397 234.174 115.844C238.73 123.256 259.254 120.632 255.376 107.188C265.82 126.921 292.792 125.82 281.154 99.186C295.695 109.775 297.3 135.434 279.812 139.652C236.61 150.07 193.301 152.549 98.3021 152.549C-29.6322 152.549 -29.6796 99.4746 5.56911 70.6997C17.2895 61.1326 47.9785 38.414 74.3983 43.4661Z" fill="#FCD875"/>
<path d="M74.1076 43.8696C74.5693 43.8842 74.3395 43.7159 73.0861 43.5442L72.1695 43.623L74.1076 43.8696Z" fill="#FCD875"/>
<path d="M65.6649 42.802C64.1664 42.9022 62.4735 43.2743 63.4469 43.3919C64.1717 43.2236 64.6274 43.1761 65.097 43.1387C65.5674 43.0933 66.0504 43.0432 66.8461 42.9009C68.1175 42.9176 69.0575 43.0505 68.8384 43.1233C69.2933 43.0499 70.7905 43.3371 71.4847 43.2523C69.8666 42.9109 67.7561 42.7372 65.5734 42.9517C65.1037 42.9116 65.5573 42.8448 65.6649 42.802Z" fill="#FCD875"/>
<path d="M48.9826 46.2495C49.3861 46.1052 49.7215 45.985 50.0295 45.8748C49.6955 45.985 49.3681 46.0772 49.0367 46.1954C49.022 46.2121 49.01 46.2275 48.9826 46.2495Z" fill="#FCD875"/>
<path d="M7.59007 68.4063C7.12173 68.769 7.07763 69.0436 6.95203 69.2487C7.16515 68.9808 7.48316 68.6775 7.88134 68.3461C7.86731 68.3121 7.77914 68.3254 7.59007 68.4063Z" fill="#FCD875"/>
<path d="M43.2309 47.4777L43.905 47.1824C43.73 47.2592 43.434 47.3888 43.2309 47.4777Z" fill="#FCD875"/>
<path d="M48.1749 58.7627C48.1676 58.7867 48.1963 58.7734 48.1983 58.7867C48.3018 58.6711 48.3286 58.6304 48.1749 58.7627Z" fill="#FCD875"/>
<path d="M74.3001 43.5557L73.9119 43.712C73.8819 43.7614 73.8511 43.8102 73.8631 43.8429L74.3001 43.5557Z" fill="#FCD875"/>
<path d="M48.3379 46.4353C48.0058 46.5449 47.6672 46.6564 47.3291 46.768C47.7901 46.623 48.1 46.5208 48.3379 46.4353Z" fill="#FCD875"/>
<path d="M28.5609 118.767C28.325 118.318 28.1821 118.038 28.1173 117.794C28.146 117.983 27.7412 117.349 27.5768 117.109C27.4946 116.989 27.4732 116.969 27.5968 117.201C27.7278 117.43 27.9583 117.937 28.5609 118.767Z" fill="#FCD875"/>
<path d="M48.9399 46.1517C48.8303 46.2372 48.6573 46.3187 48.3373 46.4343C48.5778 46.3514 48.8103 46.2719 49.0361 46.1944C49.0889 46.1483 49.0949 46.1183 48.9399 46.1517Z" fill="#FCD875"/>
<path d="M185.638 131.027L184.82 131.025C185.134 131.038 185.425 131.042 185.638 131.027Z" fill="#FCD875"/>
<path d="M28.1154 117.786C28.1186 117.795 28.1178 117.795 28.1178 117.795C28.1178 117.795 28.1186 117.795 28.1154 117.786Z" fill="#FCD875"/>
<path d="M23.8682 94.7248C23.782 95.151 23.7125 95.4957 23.6564 95.7743C23.6123 96.0549 23.6036 96.2734 23.5916 96.4378C23.5736 96.7671 23.5922 96.8894 23.627 96.9275C23.6965 97.003 23.8281 96.7444 23.8508 97.1172C23.5883 99.1596 23.603 99.6399 23.5094 99.7722C23.4333 99.9058 23.3484 99.6954 23.2535 100.4C23.1988 103.008 23.6564 104.973 23.9377 106.869C23.9176 107.018 23.955 107.393 23.8441 106.966C24.1935 108.291 24.6285 110.275 25.3801 112.22C26.0776 114.18 27.0603 116.086 27.9656 117.393C28.0611 117.609 28.1012 117.723 28.1146 117.786C27.9696 117.272 28.0418 117.142 28.1694 117.188C28.5161 117.873 29.0025 118.407 29.3365 118.893C29.6906 119.366 29.9332 119.77 30.0708 120.03C29.4976 119.286 29.4341 119.235 29.1321 118.906C29.4662 119.329 29.7508 119.787 30.1343 120.17C30.5144 120.796 30.1322 120.397 29.6672 119.826C29.2417 119.228 28.7199 118.474 28.6477 118.52C29.543 119.827 30.664 121.138 31.8426 122.244C33.003 123.373 34.2317 124.277 35.1964 124.999C35.2759 125.106 34.996 125.001 34.6225 124.737C34.251 124.47 33.756 124.089 33.3277 123.76C32.8861 123.446 32.5775 123.11 32.4766 123.047C32.3897 122.969 32.5 123.176 33.0912 123.737C32.6089 123.332 32.1953 122.851 31.7457 122.411C31.5306 122.182 31.2934 121.973 31.0976 121.727L30.5084 120.992C32.0985 123.442 29.0452 119.21 30.4676 121.501C30.6707 121.74 30.8458 121.982 31.0449 122.181C31.246 122.38 31.4364 122.567 31.6168 122.745C31.9822 123.099 32.3102 123.415 32.6129 123.708C33.2669 124.239 33.8348 124.657 34.3927 125.083C34.9693 125.483 35.5819 125.827 36.2861 126.28C36.6321 126.519 37.0531 126.69 37.494 126.934C37.9463 127.153 38.4193 127.455 38.9959 127.687C40.0795 127.997 38.732 127.377 39.8096 127.684C43.0953 128.876 44.4242 129.184 45.5025 129.611C46.047 129.796 46.5427 129.937 47.2195 130.092C47.8949 130.26 48.7601 130.365 50.0395 130.442C50.7056 130.458 51.1726 130.386 51.9215 130.37C52.6711 130.36 53.6993 130.418 55.5018 130.548L54.2578 130.755C56.6216 130.876 57.2963 130.767 57.9978 130.7C58.6993 130.635 59.4255 130.591 61.8895 130.618C61.0169 130.746 58.1902 130.762 58.9031 130.779C62.1026 130.934 61.1639 130.622 63.6125 130.529L64.129 130.736C69.1357 130.495 74.6047 129.871 80.1018 129.343C79.8038 129.438 78.8671 129.592 80.1599 129.547C87.0887 128.814 94.9656 128.267 101.663 128.038L104.209 127.717C104.804 127.691 105.316 127.753 104.674 127.822C107.285 127.773 104.804 127.691 106.054 127.556C107.538 127.493 108.019 127.604 107.081 127.694C109.379 127.528 112.658 127.348 115.97 127.316C117.625 127.294 119.29 127.294 120.845 127.343C122.4 127.383 123.843 127.432 125.056 127.53L124.107 127.558C127.885 127.755 128.389 127.281 131.891 127.615L131.217 127.622C139.423 128.037 148.501 128.472 154.741 129.204C155.951 129.004 162.854 129.901 163.41 129.543C168.085 130.056 166.735 130.048 173.338 130.589C175.102 130.718 175.985 130.491 178.171 130.569L178.214 130.778L181.192 130.698L182.762 131.012L184.817 131.026C183.999 130.988 183.082 130.879 183.209 130.824C184.814 130.821 186.764 130.94 188.328 131.012C189.892 131.097 191.065 131.203 191.105 131.249L194.908 131.143C196.175 131.077 197.443 131.036 198.709 130.949C198.544 131.051 197.27 131.111 196.264 131.187C198.292 131.036 198.478 131.076 198.623 131.123C198.767 131.173 198.87 131.226 200.728 131.035C200.225 131.014 200.99 130.899 201.072 130.853C202.004 130.879 203.525 130.762 205.204 130.638C206.88 130.453 208.713 130.243 210.259 129.941L209.685 130.176C212.502 129.792 215.447 129.113 218.405 128.167C219.138 127.906 219.891 127.693 220.62 127.387C221.349 127.084 222.083 126.779 222.819 126.471C223.532 126.109 224.249 125.746 224.968 125.381C225.68 125.005 226.352 124.545 227.05 124.131C225.029 125.294 225.372 124.795 226.96 123.792C227.214 123.723 227.472 123.654 227.711 123.554C228.163 123.131 227.753 123.412 227.473 123.591C227.174 123.745 227.044 123.854 227.993 123.033C229.927 121.616 229.447 122.253 228.37 123.149L229.527 122.234C229.893 121.905 230.24 121.555 230.596 121.217C230.769 121.147 230.281 121.64 230.201 121.825C230.595 121.352 231.626 120.584 232.519 119.564C232.979 119.069 233.48 118.583 233.826 118.049C233.918 117.92 234.007 117.793 234.093 117.67L234.147 117.592L234.149 117.583L234.154 117.562C234.162 117.511 234.169 117.464 234.176 117.423C234.186 117.447 234.193 117.473 234.199 117.501C234.219 117.47 234.235 117.538 234.255 117.549L234.384 117.689C234.517 117.846 234.676 117.964 234.823 118.094C234.972 118.22 235.119 118.343 235.264 118.466C235.419 118.571 235.57 118.676 235.721 118.779C236.015 118.996 236.327 119.151 236.624 119.316C237.828 119.944 238.981 120.284 240.098 120.513C241.218 120.743 242.314 120.837 243.46 120.831C244.607 120.825 245.809 120.73 247.137 120.46C247.168 120.348 247.705 120.211 248.407 119.975C249.106 119.737 249.978 119.404 250.661 118.974C252.222 118.272 253.764 117.189 254.948 115.631C255.52 114.839 255.979 113.935 256.285 112.954C256.353 112.707 256.401 112.455 256.46 112.203L256.54 111.833L256.559 111.658L256.594 111.322L256.593 111.137C256.592 110.996 256.568 110.851 256.538 110.695C256.494 110.535 256.459 110.41 256.433 110.313C256.44 110.273 256.478 110.323 256.471 110.278C256.472 110.249 256.455 110.19 256.434 110.123C256.396 109.995 256.324 109.803 256.441 109.928C256.506 110.118 256.625 110.414 256.761 110.653C256.886 110.884 257.031 111.153 257.105 111.29C257.148 111.381 257.132 111.413 256.981 111.271C256.947 111.237 257.519 111.964 257.848 112.387C258.203 112.862 258.598 113.248 258.939 113.644C259.279 114.041 259.634 114.39 259.99 114.727C260.348 115.062 260.675 115.418 261.065 115.725C262.558 117.005 264.287 118.385 267.557 119.792C267.219 119.606 266.861 119.408 266.635 119.284C266.421 119.141 266.34 119.071 266.55 119.152C267.132 119.416 267.787 119.734 268.281 119.97C268.783 120.186 269.112 120.353 269.011 120.36L268.685 120.261C270.577 120.893 272.708 121.368 274.95 121.336C277.179 121.343 279.545 120.634 281.385 119.174C283.195 117.663 284.261 115.483 284.637 113.453C285.029 111.406 284.871 109.509 284.604 107.937L284.656 108.292C284.609 107.738 284.448 107.211 284.349 106.67L284.177 105.865L283.949 105.079C283.791 104.557 283.654 104.028 283.477 103.515C283.246 102.872 283.211 102.821 283.111 102.568C282.923 101.987 283.041 102.253 283.168 102.461C283.292 102.698 283.384 102.811 283.378 102.628C283.266 102.425 283.133 102.167 283.01 101.905L282.964 101.807C282.936 101.758 282.986 101.811 282.994 101.809L283.107 101.881C283.185 101.936 283.273 101.99 283.354 102.059C283.515 102.198 283.692 102.341 283.836 102.5C283.994 102.664 284.151 102.825 284.305 102.985C284.518 103.222 284.717 103.466 284.922 103.703C286.523 105.623 287.823 107.604 289.074 110.077C289.415 111.102 289.926 112.492 290.4 114.133C290.858 115.776 291.272 117.673 291.461 119.642C291.655 121.609 291.621 123.645 291.323 125.497C291.032 127.351 290.47 129.007 289.831 130.255C289.918 130.177 289.993 130.092 290.068 130.006C289.829 130.696 289.6 131.079 289.403 131.418C289.17 131.737 288.949 132.004 288.666 132.453C288.819 132.376 289.564 131.157 289.156 131.966C288.383 133.3 287.418 134.546 286.235 135.571C285.056 136.599 283.697 137.427 282.235 138.045L281.12 138.474L279.965 138.8C279.189 139.013 278.344 139.172 277.535 139.36C275.899 139.718 274.258 140.078 272.614 140.439C269.32 141.123 266.001 141.743 262.696 142.36C261.037 142.64 259.382 142.92 257.731 143.198C256.082 143.486 254.437 143.762 252.792 143.993C250.391 144.355 249.733 144.614 248.914 144.867C248.094 145.111 247.117 145.396 244.056 145.65L245.75 145.199C236.075 146.874 225.837 147.639 216.28 148.657C216.847 148.563 216.859 148.495 217.795 148.424C216.776 148.422 214.905 148.563 213.285 148.721C211.664 148.879 210.295 149.055 210.283 149.122C208.79 149.221 209.929 149.03 209.005 149.034C206.968 149.082 203.916 149.554 202.826 149.465C202.64 149.45 203.393 149.378 203.765 149.344C202.444 149.502 197.591 149.7 198.87 149.807C195.262 149.925 191.978 150.226 189.097 150.26C187.231 150.572 182.919 150.421 182.334 150.731C182.58 150.419 176.001 150.714 173.723 150.937C174.484 150.825 171.736 150.894 172.627 150.745C170.023 150.817 167.638 150.935 168.097 151.079C165.693 150.96 163.284 151.096 161.136 151.212C158.988 151.319 157.101 151.395 155.746 151.189C148.012 151.51 140.849 151.695 133.887 151.841C134.135 151.537 141.583 151.723 141.281 151.411C134.678 151.612 130.87 151.918 124.317 151.874C122.621 151.844 125.28 151.738 125.852 151.683C119.253 151.853 113.091 151.731 107.218 151.896C107.234 151.868 107.868 151.836 108.467 151.812C107.309 151.824 105.775 151.773 105.906 151.91L107.034 151.87C108.883 152.066 102.438 152.294 102.231 152.399C104.195 152.003 96.4294 152.311 99.55 151.809C98.7877 151.838 97.8323 151.902 98.0073 151.993C96.8783 151.958 96.5202 151.902 97.6647 151.805C93.5245 151.846 94.9936 152.024 91.2416 151.965C91.2563 151.899 92.0139 151.888 92.4028 151.818C90.5034 151.902 88.5899 152.019 85.4218 151.863C85.6136 151.83 85.2481 151.765 86.1928 151.798C80.7518 151.643 76.9002 151.803 70.9448 151.273C71.8347 151.185 71.329 151.131 70.5647 151.06C69.8011 150.98 68.7782 150.883 68.6306 150.747L65.4251 150.56L66.6985 150.788C65.2961 150.685 63.9746 150.588 62.7026 150.495C61.4285 150.414 60.2066 150.309 59.0107 150.124L61.0985 150.255L55.8572 149.7L58.8096 150.141C55.9668 149.937 59.0755 150.503 55.3629 149.978C56.1218 150.048 52.5682 149.614 51.1385 149.253L51.1485 149.254C49.7629 149.113 48.3272 149.011 46.2868 148.591C45.7677 148.42 46.7605 148.394 46.4224 148.281C45.0314 148.274 39.9325 147.181 38.1928 147.005C38.77 147.077 38.8268 146.955 38.6464 146.889L37.4853 146.809C36.2233 146.478 36.0429 146.412 36.2734 146.355C32.4659 145.437 37.4091 146.966 32.9189 145.746C33.277 145.819 33.1133 145.753 33.8582 145.907C29.3392 144.743 25.1035 143.704 21.0782 142.212C20.5264 141.876 21.4063 142.194 22.2775 142.467C23.1487 142.74 23.9958 143.011 23.3417 142.685C21.8652 142.237 20.3881 141.707 18.8882 141.207C17.4077 140.657 15.9045 140.131 14.444 139.514C11.5124 138.313 8.65097 136.978 6.09083 135.441L7.04755 136.01C6.13159 135.936 3.2755 133.644 0.766135 131.991C1.37677 132.408 1.65872 132.404 1.47566 132.318C-1.7499 129.872 -5.25811 127.325 -8.95134 122.35L-8.42621 122.915C-8.59524 122.668 -8.7776 122.401 -8.97002 122.12C-9.1504 121.831 -9.34014 121.526 -9.53723 121.211C-9.95078 120.594 -10.3109 119.887 -10.7071 119.194C-11.4387 117.778 -12.1021 116.297 -12.4836 115.066C-12.847 114.383 -13.2104 112.947 -13.0982 113.851C-14.0015 109.954 -14.252 106.153 -13.946 102.473C-13.5892 98.8035 -12.6352 95.2679 -11.0057 92.1105C-11.3504 92.8848 -11.6972 94.0079 -11.45 93.3812C-10.7271 91.5092 -9.87665 89.6793 -8.89054 87.9222C-9.24797 88.2696 -9.38293 88.5549 -10.0631 89.6365C-9.80984 88.905 -9.03283 87.3664 -8.23178 86.0863C-9.56063 88.4814 -8.02934 86.1778 -7.29978 85.2545C-7.44876 85.3935 -7.26905 85.028 -7.36392 85.0848C-6.38249 83.8355 -6.33839 83.7072 -6.25755 83.4233C-6.16535 83.1493 -6.02038 82.7264 -4.61337 81.0702L-4.68889 81.3001C-4.19851 80.6533 -3.72683 80.0307 -3.24647 79.396C-2.73739 78.784 -2.23228 78.144 -1.62097 77.5153C-1.30563 77.3115 -1.5896 77.6382 -1.93968 78.0451C-2.28175 78.4593 -2.69528 78.9484 -2.67657 79.0385C-1.07581 77.1873 0.366608 75.2344 2.13038 73.8541C1.76159 74.2243 1.31261 74.6752 0.862981 75.1269C0.422706 75.5865 -0.0182079 76.0461 -0.36829 76.4323C1.48501 74.8616 1.65804 74.6438 3.00024 73.4506L2.86462 73.5648C3.91018 72.6582 4.98249 71.787 6.07081 70.9332L5.22297 71.5659C7.2934 69.2409 10.0413 67.558 13.2 64.8569C10.1321 67.4932 12.7625 65.386 12.6335 65.7308C13.5194 65.1482 14.8549 64.2523 14.5188 64.5689C16.0161 63.2982 17.2454 62.7698 19.402 61.0314C19.5363 61.0087 21.1537 59.8836 20.8731 60.2611C22.9696 58.8207 20.3092 60.4962 20.4422 60.3112C23.6003 57.9568 28.3571 55.5837 33.2162 52.7263C34.2791 52.1344 35.1289 51.6694 35.8692 51.2712C36.6041 50.8623 37.2274 50.5189 37.8481 50.1942C39.082 49.5288 40.2886 48.8994 42.3664 47.9969C43.0966 47.763 42.8267 47.934 42.3764 48.1625C41.9228 48.3843 41.2988 48.689 41.2988 48.689C43.6031 47.8238 45.3328 47.1744 47.5034 46.3593C47.0758 46.5591 47.5508 46.4542 48.243 46.3039C49.9987 45.7053 49.36 45.71 51.7371 45.1073C51.3516 45.2904 50.8652 45.5563 50.0288 45.8743L51.5835 45.3652C52.1059 45.2089 52.6283 45.0532 53.1535 44.8962C54.201 44.5662 55.278 44.3163 56.3797 44.0497C56.989 44.0377 55.0762 44.5 54.3153 44.7359C54.9333 44.5936 55.6428 44.4299 56.3717 44.2615C57.0999 44.0892 57.8575 43.9716 58.5557 43.8259C59.954 43.546 61.1519 43.3937 61.5314 43.2413L59.9019 43.3736C60.8232 43.2534 60.3943 43.4698 59.7215 43.5841C57.5916 44.0471 56.6102 44.0183 56.4759 43.9876C56.9997 43.864 57.5315 43.7772 58.0593 43.6703C57.2075 43.6008 55.6081 43.9275 53.8436 44.3945C52.0825 44.8802 50.1651 45.5242 48.6144 46.0099C49.0139 45.7748 49.4215 45.5603 49.8311 45.3465C48.7768 45.7166 47.7533 46.1743 46.7171 46.5825C46.0276 46.7582 45.5098 46.7609 47.0217 46.1997C45.8893 46.505 45.4169 46.7268 44.9746 46.9045C44.5344 47.0896 44.1295 47.2479 43.1695 47.5546C42.9543 47.614 43.0425 47.5653 43.2303 47.4784C42.5334 47.7911 41.8266 48.0797 41.1391 48.4117C41.5313 48.1873 40.7075 48.3676 42.0277 47.8766C38.1521 49.2856 36.0636 50.7681 34.5804 51.2498L34.8817 51.0834C32.3563 52.4083 32.2668 52.5332 32.3323 52.5706C32.4024 52.616 32.6269 52.5793 30.8117 53.703C29.8864 54.0044 28.9764 54.3397 28.0565 54.6658L27.671 55.1194C27.1606 55.41 26.1531 55.9899 26.2967 55.8096C24.4848 57.0429 26.6628 55.696 25.638 56.4549C23.1039 57.7337 19.102 60.694 18.4072 60.8016C17.6542 61.4997 20.7121 59.3839 18.2749 61.1663C17.3589 61.3541 15.4335 63.1913 13.2568 64.585C13.7853 63.9636 15.839 62.6221 13.6416 63.9977C12.5567 65.1549 9.55557 66.942 7.88132 68.347C7.96484 68.6109 4.17873 71.3174 1.58519 73.923C1.64131 73.8127 0.349242 74.9572 -1.1807 76.5145C-2.726 78.0578 -4.45304 80.0601 -5.52266 81.3969L-5.49326 81.2914C-5.72977 81.9461 -7.85096 84.7621 -9.09161 87.0123C-9.16243 86.8539 -8.98204 86.423 -8.29523 85.2064C-8.72749 85.8879 -9.14906 86.5773 -9.5566 87.2748C-9.75836 87.818 -10.1265 88.4781 -10.7952 89.8964L-10.683 89.2704C-12.1448 92.1559 -13.2278 95.2652 -14.23 99.2979C-14.1765 99.4275 -13.8885 98.6458 -13.6955 98.3812C-13.4924 98.1173 -13.5171 98.3358 -13.8578 100.472C-13.9794 100.612 -14.1672 100.746 -13.9848 99.6179C-14.0489 99.9873 -14.1705 100.937 -14.2974 101.679C-14.2727 101.096 -14.2393 100.512 -14.1671 99.9332C-14.578 101.777 -14.1992 100.927 -14.4411 102.409C-14.5707 102.364 -14.6308 103.51 -14.717 103.285C-14.707 103.093 -14.6649 102.765 -14.6255 102.414C-14.5687 102.064 -14.5112 101.692 -14.4965 101.401C-14.6475 102.241 -14.7437 103.177 -14.8466 103.989C-14.9208 104.801 -14.9749 105.489 -15.0383 105.832C-14.9615 105.682 -14.866 105.834 -14.8099 107.081C-14.7223 108.693 -14.6963 108.971 -14.7484 109.085C-14.7865 109.198 -14.866 109.146 -14.7557 110.09C-14.5881 110.861 -14.2246 112.907 -14.0081 112.908C-13.7569 113.82 -13.7984 114.016 -13.7516 114.385C-13.6053 114.78 -13.3614 115.437 -13.0882 116.174C-12.7688 116.891 -12.4655 117.707 -12.1027 118.372C-11.4453 119.737 -10.8287 120.609 -11.2175 119.749L-11.4159 119.37C-11.3745 119.438 -11.3257 119.519 -11.2743 119.603C-11.281 119.591 -11.2743 119.603 -11.281 119.591L-11.2743 119.603C-9.89001 121.958 -8.24849 124.271 -6.37515 126.386C-4.50582 128.504 -2.41199 130.42 -0.232664 132.018L-0.279436 132.065C2.32948 133.973 5.71137 136.031 7.80385 136.99C8.64632 137.429 9.74668 138.124 9.34849 138.009C10.4502 138.562 11.0955 138.799 11.8405 139.144C12.5867 139.487 13.4566 139.887 15.072 140.63C12.7524 139.758 15.8163 141.066 12.7076 139.702C15.6205 141.028 16.2552 141.417 19.5402 142.439C18.3831 142.196 21.7309 143.478 23.2061 143.87C22.5093 143.594 21.8058 143.341 21.1163 143.047C22.7444 143.568 24.1561 144.062 25.6093 144.505L24.7561 144.484C30.9667 146.658 36.2707 147.108 41.0576 148.512C42.7853 148.693 37.5929 147.72 39.1475 147.842C40.62 148.142 42.1079 148.53 43.3492 148.846C44.5925 149.146 45.5839 149.399 46.0483 149.48C48.0693 149.899 49.0387 149.93 50.0241 150.004C51.0102 150.075 52.0211 150.129 54.1516 150.448C53.6151 150.295 53.1288 150.022 56.3263 150.365C59.306 150.736 59.9587 151.116 58.0653 150.963C57.3478 150.888 57.0044 150.823 57.0384 150.799C56.069 150.726 54.8003 150.58 55.9708 150.825L56.3683 150.792C57.8408 151.044 61.9563 151.504 60.9769 151.52C63.2491 151.661 61.957 151.491 60.2874 151.273C62.2002 151.532 63.702 151.667 65.2159 151.813C66.7318 151.942 68.2631 152.049 70.2394 152.248C69.6127 152.154 69.0408 152.015 69.6668 152.066C75.4699 152.563 72.235 152.094 76.172 152.306C78.4041 152.536 75.3543 152.555 79.3254 152.647C81.7446 152.847 79.8298 152.882 78.8624 152.9C80.6743 152.921 82.3626 153.004 83.8571 153.1C85.3517 153.196 86.6518 153.321 87.6853 153.348C87.0493 153.359 86.4133 153.365 85.7773 153.361C86.9184 153.369 87.8523 153.374 88.803 153.398L87.7187 153.218C88.8371 153.268 89.7851 153.287 89.7631 153.353C90.9175 153.272 88.8852 153.072 91.1754 152.975C92.6653 153.098 95.7171 152.928 96.2316 153.148C91.5402 153.046 96.748 153.363 92.7755 153.371C93.5418 153.351 94.4765 153.358 95.5995 153.393C95.7679 153.418 95.4399 153.436 95.1339 153.446C99.6255 153.662 97.2003 153.229 101.847 153.227C101.258 153.347 102.925 153.45 103.683 153.424C101.809 153.424 102.787 153.227 104.505 153.134C107.484 153.22 107.743 153.059 109.303 153.068L107.522 153.027C108.126 152.908 109.615 152.921 111.691 152.88C111.87 152.972 109.806 152.947 110.547 152.986C112.852 152.774 115.758 153.197 118.973 153.032C120.463 153.104 119.118 153.254 120.427 153.301C124.03 153.125 124.331 153.44 128.118 153.29C127.025 153.137 126.834 153.177 129.501 153.006L123.274 153.156L127.269 152.9C125.39 152.909 123.304 153.024 122.178 153.003C124.082 152.862 123.885 152.902 122.985 152.776C125.558 152.999 128.082 152.606 131.056 152.75L130.969 153.145C135.439 153.277 138.906 152.854 144.711 152.889L142.845 152.842C143.621 152.672 146.428 152.788 148.306 152.683C148.133 152.818 149.308 152.845 150.112 152.913C150.013 152.817 154.36 152.846 154.882 152.573L157.477 152.7C162.163 152.695 162.815 152.202 167.319 152.138C165.966 152.317 168.015 152.357 165.001 152.538C166.504 152.5 167.858 152.49 167.879 152.397C168.759 152.457 172.043 152.111 173.429 152.2C174.061 152.127 174.265 151.977 175.952 151.928C176.137 151.948 175.948 151.994 175.948 151.994C175.952 151.928 178.587 151.81 177.108 151.717C179.43 151.84 182.665 151.717 185.825 151.588C188.985 151.43 192.067 151.258 194.092 151.34C197.37 151.162 201.314 150.858 204.29 150.67C204.101 150.721 204.284 150.737 203.721 150.757C207.832 150.613 206.221 150.263 210.895 150.041C213.294 150.072 208.426 150.345 209.917 150.312C210.596 150.696 215.544 149.823 218.704 149.835L217.946 149.919C220.359 149.869 223.782 149.213 227.701 148.883C227.701 148.883 227.515 148.939 227.685 148.95C229.013 148.72 230.936 148.404 233 148.123C235.061 147.822 237.266 147.58 239.134 147.278C237.989 147.604 237.442 147.596 238.176 147.672C239.855 147.421 237.65 147.464 240.998 146.963C242.1 146.908 244.531 146.662 244.878 146.801L241.714 147.238C243.367 147.248 245.814 146.696 247.482 146.475L247.285 146.612C249.702 146.214 250.917 145.947 252.178 145.68C253.436 145.404 254.749 145.175 257.336 144.697L256.788 144.716C259.569 143.947 259.185 144.43 261.971 143.728L262.875 143.832C264.721 143.393 269.344 142.294 272.653 141.507C270.818 142.128 266.931 142.997 264.54 143.617C266.384 143.24 270.801 142.31 271.734 141.986C270.996 142.164 270.074 142.419 269.332 142.53C271.556 141.891 274.484 141.084 278.138 140.256C278.006 140.418 278.536 140.37 279.449 140.203C280.361 140.038 281.693 139.671 283.052 139.104C284.394 138.487 285.766 137.671 286.853 136.784C287.385 136.334 287.879 135.904 288.283 135.509C288.672 135.099 289.033 134.774 289.282 134.519C291.342 131.716 292.517 128.423 293.012 124.939C293.449 121.445 293.221 117.717 292.109 113.913C292.279 115.321 292.126 114.76 291.901 113.93C291.643 113.107 291.271 112.018 291.157 112.314C290.498 110.618 290.188 109.999 290.148 109.838C289.451 108.137 288.619 106.477 287.607 104.92C286.953 103.763 288.669 106.312 288.639 106.132C287.545 104.432 287.285 104.093 287.177 103.855C287.052 103.63 287.097 103.492 286.243 102.441C286.368 102.698 286.096 102.463 285.609 101.944C285.263 101.6 284.831 101.171 284.344 100.688C283.708 100.085 283.044 99.5731 282.32 98.9525C283.011 99.5718 283.659 100.094 284.311 100.76C284.472 100.921 284.632 101.106 284.79 101.274L285.025 101.53L285.161 101.686C285.342 101.887 285.518 102.094 285.679 102.313C285.444 102.049 285.2 101.829 284.981 101.615C284.648 101.289 284.311 100.939 284.018 100.687C283.424 100.151 282.928 99.7709 282.47 99.3674C281.581 98.587 280.751 97.9289 279.934 97.2214L279.62 96.9549L279.58 96.9215C279.574 96.9194 279.584 96.9408 279.585 96.9489L279.604 97.0177L279.644 97.1566C279.699 97.3484 279.756 97.5441 279.815 97.7479C279.95 98.1862 280.095 98.6578 280.26 99.1963C280.456 99.7856 280.591 100.305 281.044 101.377C281.142 101.62 281.242 101.872 281.347 102.133C281.432 102.375 281.519 102.626 281.61 102.886C281.69 103.109 281.772 103.342 281.858 103.582C281.914 103.73 281.972 103.883 282.032 104.041L281.865 103.645L281.775 103.426L281.631 103.047C281.433 102.535 281.259 102.031 280.979 101.424C281.051 101.599 281.128 101.783 281.208 101.976C281.271 102.154 281.336 102.34 281.404 102.533C281.522 102.874 281.648 103.24 281.782 103.629C281.953 104.073 282.084 104.583 282.229 105.126C282.373 105.669 282.55 106.244 282.644 106.847C282.748 107.449 282.909 108.066 282.95 108.687C283.015 109.308 283.107 109.929 283.092 110.528C283.1 110.829 283.108 111.124 283.115 111.413C283.103 111.699 283.073 111.976 283.057 112.247C283.032 112.515 283.036 112.783 282.994 113.027C282.952 113.272 282.912 113.506 282.874 113.727C282.824 114.18 282.709 114.555 282.631 114.873C282.424 115.3 282.114 115.819 282.482 114.735C281.949 116.19 281.002 117.551 279.657 118.488C278.326 119.45 276.619 119.91 274.935 119.999C273.243 120.088 271.559 119.826 270.057 119.365C268.56 118.882 267.221 118.264 266.138 117.579L266.624 117.729C266.352 117.59 266.093 117.467 265.838 117.348C265.591 117.21 265.349 117.075 265.098 116.936C264.85 116.791 264.587 116.65 264.324 116.464C264.066 116.272 263.793 116.058 263.499 115.808C263.587 115.823 263.955 116.023 263.503 115.68C263.219 115.518 262.583 115.007 261.845 114.421C261.146 113.792 260.358 113.067 259.856 112.416C260.196 112.737 260.519 113.073 260.887 113.362C260.489 112.98 260.168 112.556 259.825 112.177C259.658 111.985 259.493 111.797 259.332 111.611C259.181 111.416 259.033 111.225 258.887 111.036C258.74 110.849 258.596 110.665 258.454 110.484L258.301 110.289C258.228 110.201 258.17 110.113 258.11 110.025C257.989 109.856 257.872 109.654 257.754 109.473C257.291 108.747 256.842 108.041 256.403 107.351L256.162 107.38C256.077 107.392 256.072 107.37 256.023 107.365C255.945 107.347 255.868 107.326 255.791 107.301C255.714 107.276 255.636 107.248 255.559 107.216L255.443 107.165L255.385 107.137C255.363 107.123 255.343 107.114 255.352 107.143C255.335 107.313 255.394 107.477 255.338 107.709C255.293 107.831 255.251 107.958 255.213 108.089L255.157 108.29L254.988 108.542C255.052 108.92 255.116 109.299 255.181 109.681C255.206 109.859 255.257 110.077 255.26 110.219L255.252 110.613C255.236 111.124 255.245 111.731 255.162 112.002C255.131 112.177 255.099 112.354 255.068 112.533C255.022 112.708 254.961 112.88 254.908 113.058C254.816 113.42 254.636 113.756 254.475 114.113C254.354 114.041 253.718 115.079 252.576 116.044C251.429 117.01 249.774 117.817 248.604 118.174L248.67 118.104C246.958 118.672 245.271 118.945 243.663 118.971C242.057 118.99 240.511 118.832 239.081 118.389C238.362 118.179 237.682 117.886 237.036 117.536C236.729 117.342 236.403 117.161 236.126 116.928L235.701 116.584L235.497 116.373C235.384 116.252 235.269 116.147 235.162 115.996L234.539 115.204L234.237 114.822L234.161 114.728C234.148 114.698 234.136 114.718 234.124 114.74L234.087 114.792L233.939 115.004C233.558 115.549 233.173 116.099 232.784 116.656C232.545 116.992 232.327 117.351 232.061 117.679C231.785 118.001 231.505 118.325 231.221 118.656C231.029 118.847 230.821 119.053 230.598 119.276C230.378 119.5 230.102 119.699 229.837 119.934C229.284 120.378 228.741 120.945 228.035 121.408C227.346 121.889 226.655 122.463 225.83 122.914C225.429 123.157 225.02 123.404 224.605 123.655C224.187 123.9 223.731 124.098 223.288 124.327C219.718 126.127 215.485 127.322 212.018 127.884C213.077 127.705 211.898 128.174 210.66 128.397C209.835 128.49 208.715 128.744 207.818 128.877C206.919 129.007 206.255 129.083 206.371 128.934L206.96 128.87C205.69 128.768 202.312 129.185 199.641 129.273L199.219 129.647C195.716 129.555 191.14 129.632 186.948 129.585C182.757 129.522 178.958 129.41 177.058 129.069C175.364 129.072 173.27 128.945 171.588 128.929L171.69 128.745C167.01 128.402 164.675 128.214 158.881 127.852L160.071 127.8C156.805 127.558 155.907 128.055 152.892 127.856L152.005 127.512C146.303 127.125 140.539 126.512 134.878 126.499C134.973 126.462 135.145 126.389 136.071 126.424C133.384 126.252 125.664 125.799 126.631 126.228C126.571 125.964 120.729 126.022 117.635 126.125L118.119 125.94C115.504 126.181 115.423 126.205 111.78 126.34C110.916 126.329 111.021 126.203 112.169 126.232C109.289 126.175 109.932 126.454 106.443 126.462L107.738 126.301C104.777 126.376 105.016 126.464 103.395 126.669C101.541 126.819 97.791 126.942 97.3433 126.803C96.9518 126.934 95.3457 127.182 93.6046 127.261C93.3654 127.216 93.9941 127.125 94.3115 127.086C89.3702 127.337 87.0005 127.892 83.5999 128.007C83.5237 127.951 83.3006 127.94 83.018 127.946C86.9284 127.602 90.0838 127.355 89.7892 127.391C89.7751 127.22 86.6096 127.457 89.1063 127.008C86.5762 127.347 82.2651 128.012 79.1805 128.203C79.0295 128.2 78.8825 128.196 78.7683 128.179L79.0849 128.132C78.3734 128.176 77.7387 128.247 77.1428 128.327C76.1587 128.383 75.5327 128.418 74.5913 128.49C74.2152 128.381 70.9669 128.703 69.3936 128.798C69.5365 128.979 67.4741 129.089 69.4142 129.11C69.1637 129.115 69.7102 129.067 70.7571 128.985C70.9929 128.963 71.2709 128.94 71.4265 128.918C71.3958 128.925 71.3591 128.933 71.3203 128.942C72.3539 128.858 73.7014 128.748 75.2314 128.623C73.996 128.813 72.7026 129.012 70.9535 129.027C70.1538 129.205 69.2726 129.392 68.7749 129.486C66.5996 129.369 62.4413 129.416 61.8621 129.249C59.4636 129.365 56.6383 129.386 54.0434 129.298C51.4498 129.195 49.0861 129.009 47.5762 128.909C46.2287 128.703 46.0489 128.552 45.5732 128.367C46.3409 128.514 47.2642 128.653 47.6864 128.687C46.3429 128.51 44.3707 128.117 42.7045 127.602C42.2863 127.477 41.8834 127.357 41.5099 127.246C41.1344 127.137 40.8064 126.991 40.5071 126.892C39.9132 126.682 39.4762 126.549 39.3012 126.543C37.7933 125.737 38.2583 125.888 38.5536 126.006C38.8603 126.107 38.9872 126.201 36.9395 125.096C37.1259 125.193 37.3169 125.278 37.5187 125.346C37.0223 125.064 36.5854 124.712 36.1291 124.417C35.9032 124.265 35.6801 124.115 35.459 123.966C35.2525 123.798 35.0474 123.632 34.845 123.467C34.4421 123.135 34.0313 122.828 33.6471 122.5C33.2817 122.151 32.9209 121.809 32.5648 121.469C32.3884 121.298 32.1993 121.14 32.0343 120.962L31.5533 120.414C31.2306 120.052 30.9099 119.693 30.5912 119.336L29.7341 118.182C29.4582 117.79 29.1381 117.425 28.9063 117C28.6564 116.586 28.4052 116.17 28.152 115.751C28.0271 115.54 27.8948 115.332 27.7752 115.115C27.667 114.892 27.5588 114.668 27.4499 114.442C27.0149 113.539 26.5466 112.62 26.2266 111.603C26.0509 111.1 25.8725 110.587 25.6901 110.064C25.5438 109.53 25.4322 108.975 25.3033 108.41C25.0046 107.288 24.9238 106.072 24.8035 104.802C24.871 105.506 24.9051 105.859 24.8844 106.009C24.6532 104.564 24.6499 103.091 24.5951 101.616C24.6318 100.879 24.6686 100.138 24.7053 99.3968C24.7113 99.0253 24.7508 98.6558 24.8069 98.287L24.9505 97.1787C25.3801 94.2317 26.0889 91.2854 27.1946 88.4834C29.3319 82.85 32.5414 77.6589 36.24 73.2021C36.7477 72.554 37.1553 72.0603 37.4927 71.6534C37.8247 71.2426 38.0779 70.9118 38.3011 70.6079C38.74 69.9932 39.0841 69.5075 39.7127 68.7165L40.3394 68.3176C41.0322 67.3977 41.7945 66.5371 42.5261 65.6446C43.3365 64.7273 44.1816 63.9563 44.9967 63.1887C45.8278 62.437 46.6857 61.7449 47.5535 61.0073C49.3333 59.5789 51.2213 58.0443 53.573 56.0327L52.8582 56.4149C54.5926 55.0219 58.4795 52.1644 58.2731 52.5192C58.4468 52.3715 58.7915 51.9854 59.5511 51.5578L59.6667 51.6086L61.9102 50.0526L64.2011 48.5641C66.0644 47.5552 65.9696 47.7289 66.0845 47.7764C66.2007 47.8291 66.51 47.7216 69.2566 46.3587C69.7643 46.0995 70.3797 45.7855 71.005 45.4661C71.6357 45.1574 72.2777 44.8434 72.8309 44.5722C73.9519 44.0671 74.7136 43.6916 74.3 43.8086C73.4315 44.1199 72.0679 44.5795 71.9697 44.5274C72.601 44.2208 73.2612 43.9829 73.9085 43.713C74.0335 43.4999 74.4537 43.1752 74.2239 43.1057C74.1083 43.071 73.829 43.101 73.2652 43.242C72.9832 43.3135 72.6291 43.4097 72.1908 43.5453C71.7612 43.703 71.2468 43.8927 70.6309 44.1192C70.0777 44.3778 69.5519 44.6864 69.014 44.971C68.4782 45.259 67.9444 45.5476 67.426 45.8636L66.3169 46.2725C67.2215 45.7975 68.1201 45.3118 69.0501 44.8815C68.2284 45.1835 67.5924 45.5042 67.0325 45.8309C66.4726 46.1582 65.9689 46.4569 65.4578 46.8056C65.1658 46.8784 64.6935 47.0809 64.0488 47.4109C63.0607 48.083 62.1059 48.8012 61.1459 49.5034C60.7176 49.635 62.3645 48.4358 60.3148 49.6738C58.9886 50.6973 61.804 49.0344 59.5371 50.6104C58.0105 51.4449 58.3753 51.0868 56.7632 52.3341C56.4813 52.431 56.8073 52.1444 57.4527 51.6567C56.0022 52.751 53.5804 54.4987 52.9504 55.2129C51.3837 56.1483 48.243 59.116 48.1956 58.7873C48.0051 59.0031 47.4353 59.5649 46.7705 60.225C46.1171 60.8971 45.3595 61.6554 44.7522 62.2246C45.7516 61.0681 44.5851 62.1017 43.2783 63.3998C41.9381 64.6618 40.5071 66.2312 40.6347 65.7976C40.2973 66.2565 39.7902 66.8659 39.199 67.5894C38.603 68.3083 37.8835 69.1047 37.182 69.9892C36.4644 70.8604 35.7102 71.771 35.0327 72.7037C34.69 73.166 34.3519 73.6216 34.0252 74.0626C33.7152 74.5155 33.4266 74.9612 33.156 75.3814C33.2643 75.1843 33.4761 74.7941 33.6925 74.5155C33.0338 75.4288 32.5902 76.0061 32.2007 76.4991C31.8218 77.0002 31.5139 77.4291 31.0943 78.023C31.1391 78.3965 29.3506 81.4217 28.6765 83.1988C27.2033 85.5512 29.1608 81.5613 28.5555 82.2194C28.6805 82.2073 28.1821 83.3083 27.7285 84.3145C27.2875 85.328 26.9575 86.2794 27.2173 85.8785C26.2185 87.7559 26.421 87.522 25.8424 88.4747C25.9319 88.7079 25.7756 89.1762 25.5451 89.8036C25.2959 90.4236 25.0874 91.246 24.9264 92.1145C24.6679 92.8401 24.5169 93.2503 24.4374 93.5115C24.3472 93.7701 24.2951 93.8696 24.249 93.9812C24.1655 94.205 24.0686 94.4689 23.8054 96.1485C23.6511 96.9442 23.6431 96.5881 23.6745 96.0282C23.7272 95.4717 23.8682 94.7248 23.8682 94.7248ZM80.1091 129.279V129.283C79.431 129.346 78.8531 129.401 78.4836 129.436C78.8217 129.402 79.2907 129.357 80.1091 129.279ZM86.7252 128.694C85.9189 128.762 84.916 128.848 83.8544 128.938C83.6166 128.894 83.8618 128.805 84.5279 128.75C84.1705 128.825 85.7331 128.724 86.7252 128.694ZM72.6204 128.599C73.6647 128.488 74.0181 128.497 74.1644 128.524C73.6714 128.569 73.0941 128.623 72.3365 128.693C72.3058 128.701 72.245 128.717 72.2142 128.725C72.3111 128.682 72.422 128.639 72.6204 128.599Z" fill="#FCD875"/>
<path d="M70.7579 128.983C70.6062 128.999 70.5234 129.007 70.3263 129.027C70.5421 129.027 70.7465 129.026 70.9543 129.025C71.0799 128.996 71.2088 128.966 71.3204 128.94C71.1307 128.954 70.9336 128.97 70.7579 128.983Z" fill="#FCD875"/>
<path d="M178.224 130.824L178.217 130.776L177.634 130.787L178.224 130.824Z" fill="#FCD875"/>
<path d="M3.00024 73.4503C3.57213 72.9786 4.12664 72.4876 4.71456 72.0366C3.94959 72.6205 3.43117 73.0922 3.00024 73.4503Z" fill="#FCD875"/>
<path d="M12.4912 65.9376C12.5941 65.8193 12.6148 65.7726 12.6335 65.7305C12.6248 65.7358 12.6195 65.7391 12.6128 65.7438L12.4912 65.9376Z" fill="#FCD875"/>
<path d="M59.4396 43.849L60.0162 43.7876C60.0049 43.7762 60.0376 43.7622 60.081 43.7495L59.4396 43.849Z" fill="#FCD875"/>
<path d="M60.0803 43.7498L60.717 43.6509C60.4231 43.6856 60.1685 43.7177 60.0803 43.7498Z" fill="#FCD875"/>
<path d="M62.0579 43.4517C61.6089 43.4998 61.1633 43.5853 60.717 43.6508C61.1827 43.5993 61.7552 43.5205 62.0579 43.4517Z" fill="#FCD875"/>
<path d="M44.0341 47.9028L43.8884 48.0338C43.9753 47.9843 44.0281 47.9396 44.0341 47.9028Z" fill="#FCD875"/>
<path d="M39.5471 49.7772C40.6181 49.3303 42.2749 48.7591 43.7674 48.1404L43.8877 48.0342C43.553 48.2219 42.7072 48.5119 41.822 48.8225C40.9468 49.1559 40.0302 49.508 39.5471 49.7772Z" fill="#FCD875"/>
<path d="M21.2833 58.8205C22.4458 58.0983 23.6096 57.3801 24.7888 56.6866C24.1401 56.9999 23.2836 57.4115 24.8663 56.4187C20.3507 58.9628 25.8437 55.9691 21.2833 58.8205Z" fill="#FCD875"/>
<path d="M10.8043 66.0425C12.548 64.6916 10.7207 65.9737 10.7889 65.8708C9.71325 66.7701 9.45604 66.9899 10.8043 66.0425Z" fill="#FCD875"/>
<path d="M10.1468 138.49L9.87292 138.542C11.4216 139.264 9.91299 138.497 10.1468 138.49Z" fill="#FCD875"/>
<path d="M195.891 129.489L197.22 129.386L194.713 129.506L195.891 129.489Z" fill="#FCD875"/>
</g>
<mask id="mask2_911_15262" style="mask-type:luminance" maskUnits="userSpaceOnUse" x="1" y="32" width="285" height="109">
<path d="M280.688 125.286C276.606 127.945 271.709 128.466 266.905 127.617C260.251 143.257 169.925 140.164 117.519 140.164C56.9029 140.164 28.9965 139.977 19.7434 127.183L19.5898 127.711C14.9465 128.426 10.2498 127.851 6.30804 125.286C-5.14979 117.823 2.67361 89.91 37.5415 66.3129C56.6089 48.468 87.1342 34.271 127.006 32.9616C180.875 31.1978 229.452 49.076 259.042 73.4348C259.169 73.535 259.296 73.6419 259.423 73.7421C259.857 74.1095 260.291 74.4703 260.719 74.8378C261.166 75.2186 261.607 75.5994 262.042 75.9802C286.08 97.0252 290.616 118.825 280.688 125.286Z" fill="white"/>
</mask>
<g mask="url(#mask2_911_15262)">
<path d="M62.3468 109.211C72.6313 107.018 79.3775 97.7799 77.4148 88.5779C75.4521 79.376 65.5237 73.6946 55.2392 75.8882C44.9546 78.0818 38.2085 87.3198 40.1712 96.5217C42.1339 105.724 52.0622 111.405 62.3468 109.211Z" fill="#FDD2AF"/>
<path d="M203.262 96.5768C205.225 87.3749 198.479 78.1369 188.194 75.9433C177.91 73.7497 167.981 79.4311 166.019 88.6331C164.056 97.835 170.802 107.073 181.087 109.267C191.371 111.46 201.3 105.779 203.262 96.5768Z" fill="#FDD2AF"/>
</g>
<mask id="mask3_911_15262" style="mask-type:luminance" maskUnits="userSpaceOnUse" x="1" y="32" width="285" height="109">
<path d="M280.688 125.286C276.606 127.945 271.709 128.466 266.905 127.617C260.251 143.257 169.925 140.164 117.519 140.164C56.9029 140.164 28.9965 139.977 19.7434 127.183L19.5898 127.711C14.9465 128.426 10.2498 127.851 6.30804 125.286C-5.14979 117.823 2.67361 89.91 37.5415 66.3129C56.6089 48.468 87.1342 34.271 127.006 32.9616C180.875 31.1978 229.452 49.076 259.042 73.4348C259.169 73.535 259.296 73.6419 259.423 73.7421C259.857 74.1095 260.291 74.4703 260.719 74.8378C261.166 75.2186 261.607 75.5994 262.042 75.9802C286.08 97.0252 290.616 118.825 280.688 125.286Z" fill="white"/>
</mask>
<g mask="url(#mask3_911_15262)">
<path d="M117.087 65.5251C107.738 65.5865 100.273 71.6809 101.201 77.0464C102.511 84.6239 131.784 85.735 134.99 77.5428C136.825 72.8514 129.392 65.4442 117.087 65.5251Z" fill="#FCD875"/>
<path d="M117.105 65.0815C117.061 65.1383 117.087 65.2693 117.209 65.2452L117.296 65.0254L117.105 65.0815Z" fill="#FCD875"/>
<path d="M117.925 65.5013C118.07 65.3958 118.242 65.2094 118.154 65.0056C118.005 65.2161 117.971 65.1272 117.814 65.3784C117.691 65.4025 117.601 65.3049 117.623 65.2234C117.579 65.2795 117.432 65.1726 117.365 65.3103C117.524 65.4833 117.723 65.4927 117.936 65.3544C117.981 65.4038 117.936 65.4606 117.925 65.5013Z" fill="#FCD875"/>
<path d="M129.165 68.6884L129.112 68.6296C129.123 68.6517 129.141 68.671 129.165 68.6884Z" fill="#FCD875"/>
<path d="M134.183 73.6191C134.155 73.5743 134.125 73.565 134.106 73.5723C134.141 73.6084 134.171 73.6378 134.183 73.6191Z" fill="#FCD875"/>
<path d="M134.393 74.7748C134.391 74.7501 134.388 74.7301 134.386 74.708C134.375 74.7374 134.372 74.7648 134.393 74.7748Z" fill="#FCD875"/>
<path d="M129.165 68.6885L129.298 68.8448C129.344 68.7907 129.241 68.7453 129.165 68.6885Z" fill="#FCD875"/>
<path d="M119.602 65.0496C119.559 65.0569 119.523 65.0743 119.489 65.0977C119.524 65.091 119.558 65.0863 119.593 65.0836L119.602 65.0496Z" fill="#FCD875"/>
<path d="M126.204 67.5268L126.149 67.5061C126.124 67.5235 126.099 67.5462 126.073 67.5729L126.204 67.5268Z" fill="#FCD875"/>
<path d="M123.869 66.8435C123.92 66.8649 123.985 66.6872 124.026 66.613C123.977 66.6805 123.927 66.7059 123.877 66.7086C123.867 66.7427 123.864 66.7861 123.869 66.8435Z" fill="#FCD875"/>
<path d="M120.095 65.8574L120.023 65.8768C120.042 65.8715 120.073 65.8634 120.095 65.8574Z" fill="#FCD875"/>
<path d="M127.792 68.2324C127.784 68.2591 127.782 68.2852 127.784 68.3032C127.794 68.2819 127.795 68.2578 127.792 68.2324Z" fill="#FCD875"/>
<path d="M114.078 64.88C114.078 64.894 114.083 64.9023 114.083 64.9142C114.097 64.8925 114.099 64.8786 114.078 64.88Z" fill="#FCD875"/>
<path d="M117.075 65.5754L117.035 65.5875C117.031 65.6229 117.027 65.6583 117.028 65.693L117.075 65.5754Z" fill="#FCD875"/>
<path d="M134.284 76.6778L134.289 76.6708C134.277 76.6184 134.276 76.6464 134.284 76.6778Z" fill="#FCD875"/>
<path d="M116.398 82.3896C116.626 82.5667 116.004 82.5894 116.35 82.7898C116.321 82.715 116.686 82.5106 116.398 82.3896Z" fill="#FCD875"/>
<path d="M119.666 65.0794C119.7 65.08 119.735 65.082 119.769 65.0867C119.723 65.0767 119.691 65.074 119.666 65.0794Z" fill="#FCD875"/>
<path d="M116.35 82.7903V82.7923L116.386 82.8117C116.371 82.8023 116.363 82.7976 116.35 82.7903Z" fill="#FCD875"/>
<path d="M131.424 79.9929C131.448 80.017 131.476 80.029 131.506 80.0397C131.495 80.0237 131.474 80.009 131.424 79.9929Z" fill="#FCD875"/>
<path d="M134.237 77.842L134.178 77.9062C134.207 77.8848 134.225 77.8628 134.237 77.842Z" fill="#FCD875"/>
<path d="M129.744 81.0216C129.691 81.027 129.666 81.009 129.61 81.0584C129.619 81.0651 129.627 81.0691 129.637 81.0724C129.652 81.0383 129.679 81.015 129.744 81.0216Z" fill="#FCD875"/>
<path d="M127.76 81.636C127.774 81.6473 127.792 81.654 127.807 81.6627C127.826 81.6547 127.849 81.6447 127.869 81.636H127.76Z" fill="#FCD875"/>
<path d="M107.683 66.9212C107.75 66.9479 107.803 66.9873 107.85 67.0294C107.76 66.9239 108.035 66.7428 107.683 66.9212Z" fill="#FCD875"/>
<path d="M119.596 65.1544C119.612 65.1083 119.632 65.0863 119.666 65.0796L119.594 65.0836C119.585 65.1103 119.582 65.1364 119.596 65.1544Z" fill="#FCD875"/>
<path d="M130.173 82.4446C130.059 82.482 129.944 82.5101 129.829 82.5361C129.928 82.5241 130.055 82.494 130.173 82.4446Z" fill="#FCD875"/>
<path d="M102.226 80.0011L102.146 79.9597C102.168 79.9851 102.195 80.0025 102.226 80.0011Z" fill="#FCD875"/>
<path d="M128.837 82.8829C128.758 82.8388 128.683 82.8161 128.61 82.8101C128.6 82.8281 128.587 82.8435 128.584 82.8669L128.837 82.8829Z" fill="#FCD875"/>
<path d="M109.825 65.7235C109.505 65.8377 109.758 66.0067 109.739 66.1651C109.391 66.3702 109.503 66.0595 109.33 65.99C109.116 66.1404 109.022 66.4176 108.845 66.4737C108.817 66.441 108.777 66.4403 108.797 66.3782C108.633 66.6641 108.086 66.7183 107.915 67.0697C107.885 67.0597 107.865 67.0456 107.852 67.0316C107.951 67.1218 108.012 67.2314 108.042 67.3162C107.911 67.3824 107.866 67.5708 107.743 67.4505C107.826 67.4164 107.804 67.355 107.82 67.2922L107.712 67.4204C107.481 67.2728 107.867 67.2588 107.792 67.1051C107.543 67.2935 107.329 67.6382 107.098 67.697C106.946 67.5227 107.535 67.3603 107.168 67.3369C107.289 67.3055 107.403 67.2621 107.527 67.2407C107.112 67.0403 107.739 67.1692 107.333 66.9367C106.876 67.1111 106.915 67.3042 106.464 67.4832C106.433 67.6456 106.588 67.6269 106.559 67.7886C106.093 68.3103 105.797 67.5794 105.54 68.1146C105.516 68.3144 105.64 68.5776 105.262 68.6537L105.212 68.3758C104.815 68.6297 105.199 68.8061 104.722 68.9804C104.725 68.8441 104.954 68.6811 104.881 68.7025C104.509 68.7399 104.795 68.9604 104.609 69.1127L104.428 68.9677C104.059 69.3125 103.744 69.7841 103.4 70.2171C103.373 70.1483 103.39 70.03 103.249 70.0734C103.04 70.3621 102.768 70.6159 102.513 70.8952C102.256 71.1711 101.94 71.3969 101.706 71.6662L101.727 72.0002C101.693 72.051 101.592 72.0497 101.595 71.9728C101.387 72.1646 101.693 72.051 101.69 72.2013C101.621 72.3369 101.486 72.3149 101.488 72.202C101.459 72.3256 101.421 72.4699 101.372 72.6209C101.331 72.7779 101.295 72.9516 101.242 73.1153C101.15 73.45 100.97 73.7393 100.819 73.9611L100.792 73.8455C100.603 74.2136 101.054 74.3907 100.78 74.6893L100.765 74.6145C100.727 74.7147 100.687 74.8163 100.661 74.9218L100.619 75.2498C100.597 75.4696 100.575 75.6894 100.554 75.9026C100.539 76.3315 100.57 76.733 100.443 77.0951C100.72 77.1579 100.574 78.0592 100.968 77.963C100.998 78.2262 100.986 78.3425 100.993 78.4781C101.009 78.6064 101.011 78.7954 101.204 79.1148C101.316 79.2831 101.582 79.1909 101.76 79.3419L101.612 79.4862C101.732 79.5277 101.866 79.5383 101.992 79.559L101.946 79.8497L102.145 79.9586C102.087 79.8904 102.069 79.7655 102.12 79.7314C102.276 79.8089 102.4 79.9739 102.488 80.1269C102.582 80.2672 102.631 80.4069 102.603 80.4516C102.855 80.5552 103.1 80.6688 103.35 80.7536C103.29 80.8191 103.165 80.773 103.05 80.7536C103.512 80.8111 102.998 80.9841 103.429 81.0155C103.408 80.95 103.516 80.924 103.544 80.8919C103.645 81.0857 104.018 81.3202 104.326 81.401L104.207 81.5025C104.709 81.7818 105.324 81.9495 105.913 82.1613C105.725 82.0183 105.864 81.8079 106.041 81.8506L106.033 82.0811C106.19 81.9969 105.884 81.9361 106.166 81.8673C106.373 81.9736 106.229 82.1559 106.079 82.1746L106.371 82.2027C106.365 82.2688 106.29 82.2822 106.247 82.353C106.4 82.2628 106.645 82.7105 106.879 82.5394L106.874 82.6062C107.47 82.806 107.765 82.798 108.256 82.9176C108.313 82.7385 108.493 82.8294 108.674 82.7198C109.015 82.8701 109.384 83.0919 109.821 83.1741C110.144 83.1494 109.942 83.0378 110.1 82.9583C110.088 83.1354 110.526 83.1928 110.278 83.2743C110.806 83.3385 110.953 83.3645 111.635 83.3358C111.574 83.257 111.498 83.2142 111.55 83.1634C111.673 83.1521 111.811 83.2723 111.782 83.3512L111.747 83.3639C112.138 83.289 112.546 83.4734 112.944 83.6411C113.342 83.7961 113.728 83.9371 114.043 83.7914L114.008 83.8055C114.219 83.7661 114.431 83.7266 114.641 83.6772C114.922 83.7273 114.46 83.7928 114.661 83.9137C115.35 83.6732 115.713 84.0433 116.275 83.8696C116.681 84.3981 117.786 83.8937 118.357 84.211L118.324 84.0921C118.473 83.9772 118.504 84.1616 118.614 84.1903C118.599 84.0981 118.452 84.0821 118.545 84.0179C119.801 83.8736 121.149 84.1462 122.46 84.1362C122.939 84.1255 122.672 83.5002 123.293 83.73L123.147 83.9645C124.07 83.603 125.1 83.7346 125.991 83.3485C125.944 83.4079 125.955 83.4734 125.864 83.4875C126.089 83.6204 126.591 83.3558 126.566 83.2276C126.713 83.2122 126.623 83.3365 126.726 83.3832C126.943 83.4347 127.174 83.0799 127.313 83.2135C127.336 83.2349 127.269 83.2757 127.236 83.2957C127.347 83.1995 127.835 83.1768 127.67 83.0265C128.036 83.0225 128.306 82.7759 128.61 82.81C128.732 82.5722 129.223 82.7238 129.193 82.4299C129.257 82.7238 129.868 82.4753 130.031 82.2622C129.991 82.3758 130.248 82.2789 130.208 82.4305C130.451 82.331 130.655 82.1914 130.554 82.0638C131.147 82.2341 131.319 81.4224 131.761 81.7217C132.084 81.4898 132.38 81.236 132.666 80.9948C132.959 80.7703 133.222 80.5158 133.483 80.2712C133.644 80.5245 132.871 80.775 133.063 81.0015C133.563 80.491 133.724 80.0869 134.248 79.6499C134.404 79.5551 134.268 79.8123 134.259 79.8931C134.364 79.7481 134.477 79.6178 134.593 79.4956C134.705 79.368 134.803 79.2237 134.907 79.0934C135.009 78.9598 135.108 78.8261 135.196 78.6892C135.272 78.5422 135.324 78.3805 135.361 78.2202C135.385 78.2342 135.381 78.3104 135.371 78.3805C135.421 78.2623 135.546 78.1327 135.416 78.0872L135.394 78.2135C135.129 78.291 135.243 77.6042 135.137 77.5541C135.441 77.8895 135.415 77.015 135.788 77.4766C135.79 77.3864 135.759 77.2682 135.664 77.2635C135.72 77.1526 135.777 77.1218 135.853 77.2735C135.866 76.7985 135.714 76.9388 135.759 76.5386C135.825 76.5466 135.843 76.6315 135.916 76.6842C135.799 76.4558 135.713 76.2513 135.749 75.9186C135.79 75.938 135.84 75.8972 135.842 75.9994C135.817 75.3981 135.417 75.0715 135.382 74.4662C135.714 74.5564 135.409 74.2417 135.635 74.1301C135.576 74.0292 135.518 73.9297 135.449 73.8375L135.387 74.0038C135.274 73.7353 135.027 73.5696 134.982 73.3237L135.171 73.468L134.885 73.0117L134.938 73.3231C134.695 73.1293 134.671 73.4928 134.566 73.136C134.627 73.1854 134.431 72.9008 134.48 72.7011L134.481 72.7017C134.344 72.6242 134.201 72.5541 134.133 72.3557C134.168 72.2668 134.385 72.2341 134.409 72.1753C134.166 72.1773 133.976 71.6742 133.69 71.6849C133.765 71.6962 133.869 71.6167 133.878 71.5847L133.676 71.6027C133.638 71.4684 133.646 71.4364 133.738 71.3856C133.505 71.0749 133.581 71.6816 133.379 71.2533C133.413 71.2707 133.42 71.2413 133.49 71.2794C133.238 70.8832 132.807 70.7088 132.56 70.3634C132.64 70.0922 132.873 70.5698 132.913 70.3193C132.428 69.9251 131.77 69.7026 131.337 69.3145L131.408 69.4007C131.132 69.6398 131.164 68.9991 130.82 68.9684C130.895 68.9864 131.011 68.8588 130.973 68.8802C130.669 68.6096 130.238 68.4927 129.66 68.2883L129.771 68.2482C129.612 68.0511 129.251 67.9055 129.047 67.7465C128.938 67.7912 128.817 67.7091 128.834 67.8687C128.358 67.0483 127.381 67.4779 126.907 66.8345C126.984 66.8632 127.121 66.8318 127.06 66.8078L126.476 66.6735C126.466 66.8352 126.516 66.7891 126.588 66.9461C126.486 67.0062 126.31 67.0109 126.174 66.9628C126.455 66.9561 126.257 66.727 126.176 66.6107C126.178 66.6615 126.124 66.6982 126.117 66.7463C125.916 66.3889 125.967 67.0236 125.632 66.7156L125.679 66.6454C125.517 66.6354 125.35 66.6882 125.196 66.6214C125.181 66.4317 125.379 66.588 125.434 66.4524C125.202 66.3929 124.888 66.6441 124.734 66.4129C124.844 66.3936 124.983 66.433 125.093 66.4143C124.928 66.1477 124.886 66.1905 124.728 66.1096L124.743 66.119C124.623 66.0502 124.501 65.9814 124.378 65.9199L124.463 66.0001C124.056 66.3795 123.853 65.9312 123.394 66.1377C123.836 65.9439 123.495 65.9887 123.568 65.797C123.481 65.7208 123.34 65.6273 123.396 65.5805C123.175 65.7007 123.109 65.3894 122.797 65.5678C122.798 65.5017 122.599 65.5197 122.672 65.368C122.418 65.3694 122.708 65.4903 122.672 65.5671C122.259 65.7201 121.831 65.1382 121.24 65.3694C120.754 65.4369 120.644 65.6333 120.203 65.7028C120.068 65.5858 120.346 65.4776 120.346 65.4776C120.121 65.3614 119.94 65.3627 119.711 65.4175C119.761 65.3647 119.718 65.3126 119.656 65.2338C119.475 65.2358 119.519 65.4576 119.29 65.3453C119.335 65.2745 119.395 65.1623 119.487 65.0981C119.27 65.1382 119.053 65.2558 118.831 65.3012C118.779 65.185 118.973 65.1362 119.055 65.0661C118.804 65.1041 118.408 65.1362 118.327 65.3119L118.482 65.3841C118.392 65.3888 118.442 65.2277 118.509 65.1983C118.727 65.0681 118.811 65.2758 118.819 65.342L118.662 65.3761C118.801 65.7702 119.287 65.3366 119.6 65.3941L119.45 65.66L119.787 65.4582C119.849 65.5364 119.881 65.6947 119.725 65.7228C119.934 65.8791 119.93 65.642 120.105 65.811C120.124 65.8364 120.113 65.8491 120.093 65.8584L120.317 65.7956C120.269 65.8497 120.332 65.9941 120.204 65.9426C120.571 66.137 120.85 65.811 120.968 66.0355L120.934 66.0482C121.481 66.0234 121.012 65.8524 121.449 65.6673L121.643 66.2085L121.727 66.0154C121.781 66.0321 121.887 66.0655 121.854 66.1424C122.081 66.0388 121.833 66.0488 121.974 65.9386C122.207 66.1617 122.722 65.9807 122.717 66.3167C122.842 66.1845 122.489 66.147 122.791 66.0996C122.801 66.459 123.128 66.109 123.335 66.3154C123.221 66.4757 123.018 66.3361 123.221 66.5425C123.433 66.27 123.666 66.7176 123.876 66.7089C123.944 66.4784 124.336 66.7122 124.686 66.7383C124.642 66.8131 125.273 67.041 125.543 67.2354L125.521 67.2708C125.656 67.059 125.956 67.2046 126.2 67.2394C126.14 67.3743 126.081 67.4117 125.936 67.4331C126.007 67.4558 126.078 67.4806 126.148 67.5079C126.224 67.4532 126.304 67.4391 126.45 67.4652L126.333 67.6162C126.612 67.7124 126.975 67.6269 127.279 67.8975C127.368 67.7498 127.18 67.3363 127.607 67.3964C127.585 67.4872 127.535 67.6382 127.421 67.6302C127.458 67.6329 127.567 67.6102 127.617 67.6743L127.404 67.7518C127.538 67.8841 127.541 67.6696 127.665 67.7391C127.609 67.8587 127.722 67.8667 127.66 67.9536C127.622 67.9509 127.57 67.8554 127.5 67.8814C127.637 67.9643 127.778 68.1146 127.79 68.2342C127.81 68.16 127.865 68.0732 127.977 68.1079C128.251 68.2295 128.001 68.2956 128.127 68.4319C128.233 68.3811 128.36 68.5482 128.454 68.3745C128.531 68.4152 128.503 68.5061 128.508 68.5689C128.683 68.5642 129.152 68.8869 129.101 68.621L129.072 68.5903C129.081 68.5916 129.089 68.5929 129.099 68.595C129.644 68.6738 129.956 69.2243 130.415 69.4341L130.378 69.4882C130.673 69.5891 130.945 69.8403 131.207 69.8516C131.279 69.9051 131.298 70.0781 131.22 70.1155C131.428 70.2198 131.497 70.1797 131.684 70.4703C131.432 70.4148 131.679 70.5979 131.448 70.3874C131.645 70.6146 131.615 70.7422 131.973 70.8164C131.778 70.8731 131.997 71.1157 132.126 71.1785C132.107 71.101 132.086 71.0241 132.061 70.95C132.197 71.0355 132.278 71.1484 132.368 71.2546L132.159 71.3602C132.38 71.9448 133.233 71.8339 133.163 72.4732C133.384 72.5006 133.05 72.1572 133.279 72.1525C133.436 72.3857 133.334 72.8053 133.379 72.8708C133.487 73.2302 133.835 72.9763 133.97 73.3511C134.01 73.2723 134.178 73.1153 134.384 73.3464C134.488 73.613 134.242 73.7967 134.108 73.6758C134.073 73.6217 134.081 73.5829 134.106 73.5729C134.04 73.5088 133.96 73.4253 133.932 73.5602L134.018 73.5529C134.006 73.7085 134.179 74.0246 134.021 74.0045C134.163 74.1522 134.176 74.0279 134.149 73.8762C134.177 74.2297 134.361 74.3586 134.387 74.7087C134.412 74.6452 134.485 74.5677 134.501 74.6198C134.557 75.1289 134.705 74.7922 134.827 75.1263C134.746 75.3434 134.544 75.1122 134.689 75.4309C134.634 75.6454 134.485 75.499 134.413 75.4342C134.614 75.7088 134.356 75.9794 134.335 76.127L134.266 75.9834C134.306 76.0676 134.312 76.1397 134.301 76.2086L134.467 76.1324C134.433 76.2179 134.425 76.2901 134.359 76.2834C134.455 76.3816 134.628 76.2286 134.754 76.4304C134.676 76.5446 134.775 76.8232 134.566 76.8219C134.71 76.4664 134.35 76.8172 134.379 76.5146C134.392 76.574 134.376 76.6442 134.332 76.7217C134.307 76.729 134.292 76.7009 134.284 76.6769C134.04 76.9568 134.484 76.8786 134.373 77.2321C134.275 77.1492 134.142 77.2321 134.131 77.2895C134.201 77.1653 134.349 77.2969 134.366 77.4606C134.171 77.6383 134.307 77.7285 134.238 77.8421L134.343 77.7285C134.423 77.828 134.358 77.9403 134.299 78.118C134.22 78.0852 134.322 77.9403 134.259 77.9763C134.333 78.267 133.814 78.2155 133.771 78.5182C133.635 78.5676 133.594 78.3839 133.489 78.434C133.382 78.7493 133.139 78.5449 133.005 78.8542C133.175 78.9097 133.165 78.8649 133.103 79.1442L133.41 78.6879L133.322 79.0961C133.444 78.9798 133.503 78.7801 133.593 78.7313C133.567 78.9371 133.549 78.9003 133.702 78.9344C133.364 78.9204 133.475 79.3687 133.153 79.4201L132.908 79.1114C132.484 79.1929 132.495 79.7134 131.973 79.8858L132.153 79.8584C132.175 80.0274 131.885 80.0428 131.77 80.1857C131.719 80.0628 131.605 80.0755 131.504 80.0401C131.564 80.1309 131.159 80.2018 131.233 80.459L130.943 80.4055C130.535 80.5278 130.657 80.9621 130.243 81.0716C130.306 80.8926 130.096 80.8745 130.315 80.6788C130.186 80.7276 130.062 80.7503 130.094 80.8365C129.99 80.7884 129.799 81.1431 129.636 81.0723C129.6 81.1471 129.631 81.2888 129.475 81.3255C129.45 81.3055 129.455 81.2634 129.455 81.2634C129.476 81.3248 129.247 81.423 129.427 81.5186C128.886 81.2647 128.271 81.9208 127.805 81.6629C127.52 81.7818 127.172 81.9235 126.898 81.9829C126.907 81.9408 126.884 81.9188 126.939 81.9214C126.536 81.8807 126.787 82.3403 126.325 82.2969C126.063 82.1339 126.531 82.1359 126.377 82.0858C126.233 81.6722 125.871 82.2575 125.532 82.0491L125.598 82.0123C125.351 81.9034 125.083 82.2635 124.712 82.2936C124.712 82.2936 124.725 82.2528 124.705 82.2281C124.489 82.49 124.019 82.6143 123.672 82.7225C123.762 82.5401 123.822 82.6129 123.734 82.4499C123.579 82.494 123.815 82.7191 123.501 82.8073C123.387 82.7278 123.149 82.677 123.1 82.4933C123.199 82.4826 123.298 82.4639 123.397 82.4492C123.219 82.2348 123.012 82.5007 122.85 82.472L122.86 82.3664C122.406 82.4405 122.422 82.7024 121.926 82.7278L121.983 82.802C121.73 83.0866 121.745 82.675 121.488 82.8828L121.389 82.6243C121.215 82.6971 120.777 82.9129 120.457 82.9797C120.631 82.7746 121.001 82.6543 121.225 82.5254C121.049 82.5327 120.627 82.5775 120.54 82.7125C120.61 82.6831 120.697 82.6136 120.769 82.6503C120.563 82.8701 120.279 82.9891 119.923 82.9884C119.972 82.474 118.996 82.8835 118.738 82.4846C118.115 82.663 117.504 82.4051 116.783 82.3958C117.025 82.804 116.571 82.3985 116.598 82.8087C116.427 82.8274 116.363 82.818 116.349 82.7913L115.849 82.5234C115.735 82.3958 116.015 82.4459 116.004 82.351C115.638 82.2962 115.86 82.168 115.624 82.0424C115.664 82.192 115.483 82.2421 115.278 82.1713L115.56 82.3811C115.028 82.5601 115.141 82.007 114.608 82.184L114.782 82.0677C114.509 82.1312 113.811 81.9669 113.514 82.2688C113.472 82.2167 113.423 82.0998 113.543 82.0825C112.919 81.9729 112.092 82.2435 111.631 81.9736L111.695 81.8834C111.574 81.8914 111.462 82.0323 111.332 81.9074C111.346 81.868 111.395 81.8172 111.343 81.8025C111.276 81.8252 111.003 81.9201 110.858 81.8353L111.011 81.7484C110.426 81.5192 110.028 81.8366 109.501 81.7925C109.566 81.5052 109.113 81.3141 108.896 81.1992L108.914 81.1611C108.575 81.0522 108.269 81.0349 107.96 81.0342C107.657 81.0208 107.351 81.0275 107.017 80.9814C106.732 80.5532 105.757 80.3888 105.26 79.9399C105.326 80.0287 105.147 80.1403 105.029 80.1182C104.915 80.008 104.56 80.1102 104.708 79.8817L104.753 79.9125C104.778 79.6225 104.486 79.5377 104.283 79.4161L104.065 79.698C103.933 79.3139 103.589 79.1295 103.269 78.9478C102.981 78.7487 102.663 78.5776 102.76 78.2964C102.609 78.2503 102.503 78.1193 102.343 78.0652L102.502 77.9623C102.417 77.8026 102.392 77.6757 102.325 77.5548C102.246 77.4358 102.206 77.3042 102.134 77.1172L102.285 77.1552C102.244 76.9595 101.65 77.017 101.632 76.739L101.907 76.6295C101.9 76.3936 101.903 76.1585 101.963 75.9273C102.021 75.6948 102.042 75.471 101.938 75.2138C101.979 75.2291 102.057 75.2579 102.061 75.334C102.077 75.1102 102.467 74.5617 102.061 74.521C102.183 74.555 102.222 74.4394 102.226 74.2751C102.25 74.1161 102.256 73.909 102.261 73.7613L102.414 73.8749C102.29 73.5722 102.236 73.5342 102.312 73.2048C102.372 73.148 102.47 73.2135 102.387 73.2843C102.595 73.1059 102.337 73.0251 102.588 72.8039L102.627 72.9643C102.78 72.7465 102.714 72.7325 102.677 72.5307C102.699 72.3403 102.993 72.1225 103.162 72.2007C103.102 72.1125 103.086 71.9127 103.225 71.8172C103.288 71.8399 103.283 71.9094 103.279 71.9441C103.661 71.6809 103.523 71.2687 103.89 71.1765C103.939 71.2139 103.976 71.2206 104.008 71.2152C103.741 71.4564 103.573 71.6869 103.575 71.6541C103.707 71.7637 103.903 71.566 103.945 71.894C103.967 71.6294 104.061 71.1718 104.312 71.0241C104.334 71.0261 104.354 71.0288 104.38 71.0402L104.374 71.0743C104.431 71.0408 104.46 70.9887 104.478 70.9299C104.56 70.8872 104.614 70.8624 104.675 70.8043C104.788 70.8792 104.968 70.6427 105.085 70.5585C104.952 70.4242 105.118 70.3266 104.88 70.322C104.907 70.3173 104.873 70.356 104.805 70.4235C104.791 70.4416 104.774 70.4603 104.77 70.4776L104.767 70.4589C104.694 70.5217 104.604 70.6059 104.511 70.7101C104.523 70.5578 104.557 70.4142 104.754 70.3928C104.731 70.2552 104.714 70.1075 104.713 70.0333C105.041 70.1022 105.423 69.9699 105.562 70.0634C105.832 69.6973 106.363 69.4147 106.396 68.9517C106.477 68.8408 106.572 68.953 106.64 68.9731C106.599 69.0446 106.525 69.0893 106.52 69.1541C106.671 68.9217 107.142 68.7372 107.069 68.4901C107.405 68.4266 107.026 68.7753 107.389 68.5221L107.375 68.617C107.844 68.5716 108.068 68.2642 108.344 67.9897C108.613 67.7144 108.903 67.4071 109.453 67.4685C109.378 67.4632 109.341 67.4619 109.312 67.4285C109.875 67.3469 110.375 67.0697 110.911 66.8759C111.448 66.6976 111.983 66.4764 112.56 66.5559C112.877 66.5633 112.876 66.4029 113.039 66.2466L113.144 66.431L113.418 66.1363C113.846 65.8611 114.281 66.5132 114.808 66.1103L114.718 65.9847C114.928 65.984 115.37 65.821 115.349 65.9813C115.368 65.9526 115.405 65.8337 115.493 65.9012L115.508 66.0061L116.01 65.8016C116.413 65.8591 115.972 66.2232 116.546 66.2165C116.755 66.1658 117.149 65.8805 117.069 65.8137C116.981 65.8123 116.844 65.7582 116.836 65.6526L117.035 65.5885C117.066 65.2759 117.228 64.9498 116.714 64.7561L116.366 64.9625L116.246 64.8169L116.544 64.7935C116.37 64.6592 116.266 64.7901 116.15 64.8817C116.118 64.8028 116.065 64.7494 115.993 64.7227L115.663 65.036C115.612 64.9164 115.803 64.7875 115.564 64.7313C115.411 64.8763 115.739 64.9959 115.478 65.0995C115.298 64.9672 115.336 64.8449 115.15 64.9906C115.115 64.9144 115.152 64.8583 115.228 64.8135C115.06 64.9311 114.764 64.9124 114.692 65.0881C114.495 64.9371 114.106 65.2077 114.082 64.9144C114.036 64.9912 113.805 65.183 113.647 65.215C113.883 64.8135 113.046 65.3046 113.055 64.9251C112.897 65.2812 112.295 65.2257 111.953 65.4769C111.968 65.4482 111.998 65.3894 112.035 65.3981C111.813 65.4135 111.731 65.3513 111.578 65.3293C111.616 65.5905 111.303 65.7435 111.173 65.9486C110.844 65.7809 111.244 65.6086 111.097 65.3981C111.168 65.5985 110.703 65.7322 110.843 65.8758C110.6 65.7836 110.651 65.8524 110.483 65.6754C110.55 66.0007 110.312 65.7736 110.217 66.0288C109.885 65.9807 110.044 65.7656 109.769 65.976C109.587 65.9359 109.825 65.7235 109.825 65.7235ZM103.442 70.2625L103.44 70.2598C103.484 70.2091 103.522 70.1656 103.547 70.1376C103.525 70.1636 103.494 70.199 103.442 70.2625ZM102.981 70.7315C103.042 70.6787 103.114 70.6093 103.187 70.5331C103.251 70.5612 103.282 70.6246 103.233 70.6687C103.227 70.6146 103.09 70.6974 102.981 70.7315ZM104.839 70.7141C104.783 70.7936 104.742 70.7936 104.704 70.7729C104.733 70.7389 104.767 70.6981 104.811 70.6447L104.805 70.6206C104.821 70.6527 104.836 70.6841 104.839 70.7141Z" fill="#FCD875"/>
<path d="M104.807 70.4209C104.815 70.4089 104.816 70.3982 104.829 70.3855C104.803 70.3855 104.779 70.3868 104.756 70.3908L104.769 70.457L104.807 70.4209Z" fill="#FCD875"/>
<path d="M129.102 68.6197L129.111 68.6298C129.105 68.6178 129.1 68.607 129.1 68.593C129.104 68.6057 129.101 68.6104 129.102 68.6197Z" fill="#FCD875"/>
<path d="M101.58 79.5204L101.614 79.4876L101.542 79.4656L101.58 79.5204Z" fill="#FCD875"/>
<path d="M126.178 66.6094C126.178 66.5921 126.17 66.5714 126.15 66.5493C126.148 66.5613 126.161 66.5841 126.178 66.6094Z" fill="#FCD875"/>
<path d="M124.73 66.1083L124.54 65.9827C124.62 66.0455 124.681 66.0829 124.73 66.1083Z" fill="#FCD875"/>
<path d="M123.611 65.7236C123.589 65.7524 123.579 65.7751 123.57 65.7965L123.572 65.7985L123.611 65.7236Z" fill="#FCD875"/>
<path d="M135.373 78.3799C135.365 78.3966 135.359 78.4133 135.357 78.43C135.332 78.5569 135.358 78.4754 135.373 78.3799Z" fill="#FCD875"/>
<path d="M134.483 72.701C134.543 72.7344 134.603 72.7678 134.654 72.8112C134.614 72.717 134.576 72.6469 134.483 72.701Z" fill="#FCD875"/>
<path d="M130.21 82.4333V82.4299L130.173 82.4446L130.21 82.4333Z" fill="#FCD875"/>
<path d="M134.786 73.0434C134.773 72.9339 134.716 72.867 134.655 72.8123C134.685 72.8911 134.725 72.9806 134.786 73.0434Z" fill="#FCD875"/>
<path d="M118.552 64.9702L118.495 64.9595C118.496 64.9722 118.492 64.9815 118.487 64.9895L118.552 64.9702Z" fill="#FCD875"/>
<path d="M118.487 64.9893L118.423 65.008C118.452 65.0093 118.477 65.0093 118.487 64.9893Z" fill="#FCD875"/>
<path d="M118.289 65.0488L118.423 65.0081C118.377 65.0054 118.321 64.9967 118.289 65.0488Z" fill="#FCD875"/>
<path d="M120.105 65.1636L120.129 65.0974C120.118 65.1101 120.109 65.1315 120.105 65.1636Z" fill="#FCD875"/>
<path d="M120.579 65.1904C120.469 65.1577 120.311 65.0174 120.149 65.0448L120.129 65.0975C120.214 65.0047 120.461 65.2866 120.579 65.1904Z" fill="#FCD875"/>
<path d="M122.385 66.309L122.014 66.1914C122.069 66.2743 122.138 66.3845 121.963 66.3731C122.403 66.6664 121.892 66.1968 122.385 66.309Z" fill="#FCD875"/>
<path d="M123.531 66.6609C123.323 66.6435 123.509 66.7638 123.489 66.8012C123.63 66.7685 123.665 66.7598 123.531 66.6609Z" fill="#FCD875"/>
<path d="M131.246 70.22L131.125 70.3416C131.26 70.4197 131.167 70.2908 131.246 70.22Z" fill="#FCD875"/>
<path d="M133.084 70.6758L133.042 70.4854L132.878 70.5422L133.084 70.6758Z" fill="#FCD875"/>
<path d="M132.843 72.2129L132.783 72.1775L132.987 72.3338L132.843 72.2129Z" fill="#FCD875"/>
<path d="M128.075 81.3823L128.177 81.5733C128.271 81.5099 128.228 81.2767 128.075 81.3823Z" fill="#FCD875"/>
<path d="M121.974 82.6051C121.898 82.5062 121.718 82.4554 121.617 82.5623C121.759 82.571 121.904 82.6385 121.974 82.6051Z" fill="#FCD875"/>
<path d="M103.961 79.312L104.093 79.3194L103.885 79.2439L103.961 79.312Z" fill="#FCD875"/>
</g>
<path d="M165.255 141.717C157.215 141.717 148.918 141.675 140.44 141.613C132.277 141.554 124.568 141.498 117.517 141.498C54.7629 141.498 26.1217 141.498 17.5346 126.222C11.2151 114.98 12.3829 100.024 20.7388 85.1898C28.5802 71.268 42.2201 58.4727 59.1463 49.1608C78.5043 38.5107 101.954 32.4477 126.96 31.6279C178.417 29.9437 230.512 46.5498 262.92 74.9726C263.475 75.4597 263.531 76.3035 263.044 76.858C262.558 77.4138 261.713 77.4693 261.159 76.9822C229.241 48.9884 177.851 32.6401 127.048 34.299C102.46 35.1054 79.4263 41.0534 60.4351 51.5018C43.9391 60.5778 30.6687 73.0071 23.0678 86.5013C15.1809 100.503 14.0131 114.504 19.8643 124.912C27.3864 138.292 53.6171 138.826 117.518 138.826C124.578 138.826 132.292 138.882 140.46 138.941C166.835 139.132 196.726 139.348 221.04 137.832C239.817 136.66 262.804 133.847 265.678 127.098C265.967 126.419 266.751 126.103 267.43 126.392C268.11 126.681 268.425 127.466 268.136 128.144C263.207 139.722 220.303 141.717 165.255 141.717Z" fill="#C45500"/>
<path d="M271.056 129.338C268.655 129.338 266.411 128.962 264.53 128.484C260.897 127.561 257.312 125.912 254.213 123.845C252.706 124.576 250.926 124.878 248.98 124.687C241.176 123.93 233.496 118.104 229.416 109.843C224.739 100.377 225.537 89.351 231.604 79.5928C231.994 78.9661 232.818 78.7717 233.444 79.1632C234.071 79.5527 234.263 80.3764 233.874 81.0031C226.25 93.2653 229.31 103.593 231.812 108.66C235.493 116.11 242.333 121.357 249.239 122.028C250.097 122.11 250.896 122.077 251.625 121.929C249.266 119.987 247.349 117.806 246.142 115.577C243.225 110.19 244.358 105.713 246.645 103.833C248.205 102.551 250.903 102.033 253.795 104.426C259.034 108.758 260.011 115.27 258.267 119.464C257.836 120.503 257.251 121.403 256.536 122.152C259.196 123.807 262.194 125.134 265.188 125.894C269.165 126.905 274.958 127.424 279.96 124.168C282.744 122.356 284.236 119.135 284.274 114.856C284.37 104.141 275.113 85.2883 248.71 67.4201C248.099 67.0065 247.939 66.1761 248.353 65.5648C248.767 64.9534 249.596 64.7944 250.208 65.2073C277.487 83.6688 287.048 103.503 286.947 114.88C286.901 120.023 284.937 124.117 281.418 126.408C278.037 128.608 274.395 129.338 271.056 129.338ZM249.666 105.422C249.177 105.422 248.728 105.578 248.342 105.896C246.865 107.11 246.415 110.47 248.492 114.304C249.687 116.511 251.751 118.706 254.295 120.617C254.927 120.049 255.434 119.32 255.801 118.436C257.166 115.15 256.331 109.989 252.092 106.483C251.24 105.781 250.407 105.422 249.666 105.422Z" fill="#C45500"/>
<path d="M15.9954 129.33C12.1011 129.33 8.55212 128.342 5.5811 126.407C2.06158 124.116 0.09872 120.022 0.0532896 114.879C-0.0482609 103.503 9.51218 83.6671 36.7918 65.2063C37.4031 64.7935 38.2336 64.9525 38.6471 65.5638C39.0607 66.1751 38.901 67.0055 38.2897 67.4191C11.8859 85.2873 2.62948 104.14 2.72502 114.855C2.76377 119.134 4.25494 122.355 7.03889 124.167C10.3921 126.35 14.6605 127.117 19.3846 126.39C20.1122 126.278 20.7956 126.777 20.9086 127.507C21.0208 128.236 20.5211 128.919 19.7915 129.031C18.4967 129.231 17.2287 129.33 15.9954 129.33Z" fill="#C45500"/>
<path d="M68.8183 134.624C68.6399 134.624 68.4595 134.6 68.2798 134.55C67.2128 134.254 66.5895 133.148 66.8855 132.082L68.9492 124.665L66.4372 115.541C66.1439 114.474 66.7706 113.37 67.8382 113.076C68.9025 112.782 70.0088 113.41 70.3021 114.477L72.9605 124.136C73.056 124.485 73.056 124.855 72.9592 125.205L70.7478 133.156C70.5012 134.043 69.6955 134.624 68.8183 134.624Z" fill="#C45500"/>
<path d="M71.027 126.672C70.7464 126.672 70.4618 126.613 70.1913 126.489L62.108 122.774C61.1025 122.313 60.6615 121.122 61.1238 120.116C61.5848 119.11 62.7747 118.669 63.7815 119.132L70.2033 122.083L74.0642 115.381C74.6167 114.422 75.8407 114.093 76.8021 114.645C77.7608 115.197 78.0908 116.423 77.5383 117.383L72.7641 125.668C72.3966 126.308 71.7238 126.672 71.027 126.672Z" fill="#C45500"/>
<path d="M159.496 134.624C158.618 134.624 157.812 134.042 157.565 133.156L155.353 125.205C155.256 124.855 155.256 124.486 155.352 124.136L158.01 114.477C158.304 113.41 159.408 112.783 160.474 113.076C161.542 113.369 162.169 114.474 161.875 115.541L159.363 124.665L161.427 132.082C161.723 133.148 161.1 134.253 160.033 134.55C159.854 134.599 159.674 134.624 159.496 134.624Z" fill="#C45500"/>
<path d="M157.286 126.672C156.589 126.672 155.917 126.308 155.548 125.668L150.774 117.383C150.221 116.424 150.55 115.198 151.51 114.646C152.469 114.094 153.695 114.422 154.248 115.382L158.109 122.083L164.531 119.132C165.539 118.67 166.727 119.11 167.189 120.117C167.652 121.123 167.211 122.313 166.205 122.775L158.121 126.49C157.851 126.613 157.567 126.672 157.286 126.672Z" fill="#C45500"/>
<path d="M116.304 75.528C105.418 75.6589 96.6847 82.0793 97.7262 87.678C99.1974 95.5856 133.271 96.5376 137.061 87.9552C139.232 83.0407 130.631 75.3556 116.304 75.528Z" fill="#FF9900"/>
<path d="M117.44 95.3317C115.049 95.3317 112.73 95.1974 110.647 94.9549C105.712 94.381 97.3013 92.7027 96.412 87.9232C96.0139 85.7846 96.7167 83.5425 98.4437 81.44C101.986 77.1247 108.99 74.28 116.287 74.1918C124.055 74.1063 133.584 76.6157 137.434 82.4488C138.793 84.5092 139.095 86.6565 138.283 88.4957C136.076 93.4931 126.282 95.3317 117.44 95.3317ZM116.32 76.8635C108.881 76.953 103.019 80.0771 100.509 83.1349C99.665 84.1631 98.725 85.7432 99.039 87.4341C99.3684 89.2032 103.181 91.3953 110.956 92.3005C122.47 93.6401 134.097 91.3585 135.839 87.4161C136.393 86.1621 135.799 84.8232 135.204 83.9219C132.83 80.3243 126.096 76.7386 116.32 76.8635Z" fill="#C45500"/>
<path d="M127.005 32.9635C122.293 29.881 119.002 24.432 117.947 18.9008C116.155 9.51206 120.977 -1.14538 128.078 1.84368C131.376 3.23198 132.203 8.24268 129.452 13.5707C125.782 20.6793 124.695 26.4162 127.005 32.9635Z" fill="#FEFAAC"/>
<path d="M127.004 34.2991C126.75 34.2991 126.495 34.2269 126.273 34.0813C121.415 30.9025 117.811 25.3219 116.633 19.1507C115.336 12.3528 117.329 4.82204 121.268 1.63322C123.422 -0.108506 126.024 -0.470629 128.596 0.611686C130.146 1.26441 131.298 2.52579 131.927 4.25883C132.932 7.03209 132.463 10.6498 130.639 14.1834C126.907 21.4095 126.219 26.7215 128.263 32.5186C128.453 33.0591 128.278 33.6604 127.828 34.0138C127.587 34.2035 127.297 34.2991 127.004 34.2991ZM125.692 2.67076C124.724 2.67076 123.807 3.01817 122.95 3.71098C119.772 6.28315 118.151 12.8452 119.259 18.6503C120.021 22.6435 122 26.4523 124.682 29.2763C123.89 24.2248 125.031 19.2208 128.264 12.9588C129.726 10.1274 130.155 7.21581 129.415 5.17077C129.158 4.46326 128.628 3.52593 127.559 3.07563C126.919 2.80505 126.296 2.67076 125.692 2.67076Z" fill="#C45500"/>
<path d="M127.005 32.9635C129.606 29.591 132.162 18.6603 138.088 15.873C142.734 13.6876 146.188 17.7069 144.461 21.4997C142.567 25.6559 134.386 31.6694 127.005 32.9635Z" fill="#FEFAAC"/>
<path d="M127.004 34.2989C126.542 34.2989 126.105 34.0591 125.86 33.6536C125.575 33.1819 125.609 32.5826 125.947 32.1464C126.699 31.1709 127.545 29.2595 128.44 27.2345C130.508 22.5639 133.08 16.7508 137.519 14.663C140.128 13.4357 142.847 13.757 144.612 15.5021C146.307 17.177 146.725 19.7485 145.676 22.0521C143.618 26.5718 135.113 32.8966 127.235 34.2782C127.158 34.2929 127.081 34.2989 127.004 34.2989ZM140.655 16.5951C140.029 16.5951 139.35 16.7561 138.658 17.0815C135.121 18.745 132.772 24.0524 130.885 28.3168C130.48 29.2315 130.097 30.096 129.723 30.883C135.697 28.8747 141.752 24.2234 143.244 20.9451C143.824 19.6723 143.624 18.2827 142.734 17.4035C142.191 16.867 141.468 16.5951 140.655 16.5951Z" fill="#C45500"/>
<path d="M156.667 82.5136C154.678 82.5865 155.116 86.9338 156.279 88.0969C157.751 89.5681 170.012 89.7805 173.488 89.077C175.345 88.7009 175.482 83.1497 172.949 83.1497C168.898 83.149 159.254 82.4188 156.667 82.5136Z" fill="#C45500"/>
<path d="M86.3324 82.5136C88.3213 82.5865 87.8831 86.9338 86.7199 88.0969C85.2488 89.5681 72.9872 89.7805 69.5111 89.077C67.6538 88.7009 67.5175 83.1497 70.0502 83.1497C74.1016 83.149 83.7462 82.4188 86.3324 82.5136Z" fill="#C45500"/>
</svg>
