<svg width="15" height="13" viewBox="0 0 15 13" fill="none" xmlns="http://www.w3.org/2000/svg">
<path d="M13.8462 0H1.15385C0.847827 0 0.554342 0.124513 0.337954 0.346146C0.121566 0.56778 0 0.86838 0 1.18182V11.8182C0 12.1316 0.121566 12.4322 0.337954 12.6539C0.554342 12.8755 0.847827 13 1.15385 13H13.8462C14.1522 13 14.4457 12.8755 14.662 12.6539C14.8784 12.4322 15 12.1316 15 11.8182V1.18182C15 0.86838 14.8784 0.56778 14.662 0.346146C14.4457 0.124513 14.1522 0 13.8462 0ZM12.6923 11.2273H2.30769C2.15468 11.2273 2.00794 11.165 1.89975 11.0542C1.79155 10.9434 1.73077 10.7931 1.73077 10.6364V2.36364C1.73077 2.20692 1.79155 2.05662 1.89975 1.9458C2.00794 1.83498 2.15468 1.77273 2.30769 1.77273C2.4607 1.77273 2.60744 1.83498 2.71564 1.9458C2.82383 2.05662 2.88462 2.20692 2.88462 2.36364V8.02824L5.36106 5.49102C5.41464 5.43608 5.47827 5.3925 5.5483 5.36276C5.61834 5.33302 5.69341 5.31772 5.76923 5.31772C5.84505 5.31772 5.92012 5.33302 5.99016 5.36276C6.06019 5.3925 6.12382 5.43608 6.1774 5.49102L7.5 6.84642L10.7228 3.54545H8.65385C8.50084 3.54545 8.35409 3.4832 8.2459 3.37238C8.13771 3.26156 8.07692 3.11126 8.07692 2.95455C8.07692 2.79783 8.13771 2.64753 8.2459 2.53671C8.35409 2.42589 8.50084 2.36364 8.65385 2.36364H12.1154C12.2684 2.36364 12.4151 2.42589 12.5233 2.53671C12.6315 2.64753 12.6923 2.79783 12.6923 2.95455V6.5C12.6923 6.65672 12.6315 6.80702 12.5233 6.91784C12.4151 7.02865 12.2684 7.09091 12.1154 7.09091C11.9624 7.09091 11.8156 7.02865 11.7074 6.91784C11.5992 6.80702 11.5385 6.65672 11.5385 6.5V4.38085L7.90817 8.09989C7.85459 8.15483 7.79096 8.19841 7.72093 8.22815C7.65089 8.25789 7.57582 8.27319 7.5 8.27319C7.42418 8.27319 7.34911 8.25789 7.27907 8.22815C7.20904 8.19841 7.14541 8.15483 7.09183 8.09989L5.76923 6.74449L2.88462 9.69903V10.0455H12.6923C12.8453 10.0455 12.9921 10.1077 13.1003 10.2185C13.2084 10.3293 13.2692 10.4796 13.2692 10.6364C13.2692 10.7931 13.2084 10.9434 13.1003 11.0542C12.9921 11.165 12.8453 11.2273 12.6923 11.2273Z" fill="#FF9900"/>
</svg>
