<svg width="20" height="22" viewBox="0 0 20 22" fill="none" xmlns="http://www.w3.org/2000/svg">
<path d="M20 10.583V20.583C20 20.804 19.9122 21.0159 19.7559 21.1722C19.5996 21.3285 19.3877 21.4163 19.1667 21.4163H13.3333C13.1123 21.4163 12.9004 21.3285 12.7441 21.1722C12.5878 21.0159 12.5 20.804 12.5 20.583V15.1663C12.5 15.0558 12.4561 14.9498 12.378 14.8717C12.2998 14.7935 12.1938 14.7496 12.0833 14.7496H7.91667C7.80616 14.7496 7.70018 14.7935 7.62204 14.8717C7.5439 14.9498 7.5 15.0558 7.5 15.1663V20.583C7.5 20.804 7.4122 21.0159 7.25592 21.1722C7.09964 21.3285 6.88768 21.4163 6.66667 21.4163H0.833333C0.61232 21.4163 0.400358 21.3285 0.244078 21.1722C0.0877975 21.0159 0 20.804 0 20.583V10.583C0.000204885 10.141 0.175934 9.71725 0.488542 9.40484L8.82187 1.07151C9.1344 0.759185 9.55816 0.58374 10 0.58374C10.4418 0.58374 10.8656 0.759185 11.1781 1.07151L19.5115 9.40484C19.8241 9.71725 19.9998 10.141 20 10.583Z" fill="#FF9900"/>
</svg>
