<svg xmlns="http://www.w3.org/2000/svg" width="15" height="13" viewBox="0 0 15 13" fill="none">
    <path d="M15 4.15319C15.0002 3.86722 14.9361 3.58519 14.8127 3.32982C14.6894 3.07445 14.5103 2.85288 14.2898 2.68297C14.0693 2.51305 13.8137 2.39955 13.5435 2.35159C13.2733 2.30363 12.9961 2.32256 12.7342 2.40686C12.4723 2.49116 12.233 2.63847 12.0357 2.83692C11.8383 3.03537 11.6884 3.27941 11.598 3.54938C11.5076 3.81934 11.4793 4.10769 11.5152 4.39119C11.5512 4.67469 11.6505 4.94541 11.8051 5.18154L10.1308 7.33346L8.62519 3.72281C8.89978 3.48168 9.09667 3.15828 9.18918 2.79646C9.28168 2.43464 9.26532 2.0519 9.14232 1.7001C9.01932 1.34831 8.79562 1.04449 8.50155 0.829814C8.20748 0.61514 7.85725 0.5 7.49835 0.5C7.13945 0.5 6.78923 0.61514 6.49516 0.829814C6.20109 1.04449 5.97739 1.34831 5.85439 1.7001C5.73139 2.0519 5.71503 2.43464 5.80753 2.79646C5.90003 3.15828 6.09692 3.48168 6.37151 3.72281L4.86968 7.3315L3.19536 5.17959C3.41044 4.85077 3.51663 4.45761 3.49775 4.06C3.47887 3.66238 3.33597 3.2821 3.09079 2.97707C2.84562 2.67204 2.51161 2.45897 2.13964 2.37032C1.76768 2.28166 1.37813 2.32228 1.03034 2.48599C0.682542 2.6497 0.395556 2.92752 0.213088 3.27715C0.0306189 3.62677 -0.0373334 4.02904 0.0195799 4.42269C0.0764932 4.81633 0.255153 5.17979 0.52835 5.45769C0.801547 5.7356 1.15431 5.91273 1.53291 5.9621L2.43788 11.6281C2.47679 11.8717 2.59725 12.093 2.77783 12.2527C2.95841 12.4123 3.18742 12.5 3.4241 12.5H11.5764C11.813 12.5 12.042 12.4123 12.2226 12.2527C12.4032 12.093 12.5237 11.8717 12.5626 11.6281L13.4669 5.96471C13.8901 5.90956 14.2795 5.69504 14.5618 5.36146C14.8441 5.02788 14.9999 4.59821 15 4.15319ZM7.50023 1.54481C7.64856 1.54481 7.79356 1.59071 7.91689 1.67669C8.04023 1.76267 8.13635 1.88488 8.19312 2.02787C8.24988 2.17086 8.26473 2.32819 8.2358 2.47999C8.20686 2.63178 8.13543 2.77121 8.03054 2.88065C7.92566 2.99008 7.79202 3.06461 7.64654 3.0948C7.50106 3.125 7.35027 3.1095 7.21322 3.05027C7.07618 2.99105 6.95905 2.89075 6.87665 2.76207C6.79424 2.63338 6.75025 2.48209 6.75025 2.32733C6.75025 2.11979 6.82927 1.92075 6.96991 1.774C7.11056 1.62725 7.30132 1.54481 7.50023 1.54481ZM1.00043 4.15319C1.00043 3.99842 1.04441 3.84713 1.12682 3.71845C1.20923 3.58977 1.32636 3.48947 1.4634 3.43024C1.60044 3.37102 1.75124 3.35552 1.89672 3.38571C2.0422 3.41591 2.17583 3.49043 2.28072 3.59987C2.3856 3.70931 2.45703 3.84874 2.48597 4.00053C2.51491 4.15232 2.50006 4.30966 2.44329 4.45265C2.38653 4.59563 2.2904 4.71784 2.16707 4.80383C2.04374 4.88981 1.89874 4.9357 1.7504 4.9357C1.5515 4.9357 1.36074 4.85326 1.22009 4.70651C1.07944 4.55976 1.00043 4.36073 1.00043 4.15319ZM13.2501 4.9357C13.1017 4.9357 12.9567 4.88981 12.8334 4.80383C12.7101 4.71784 12.6139 4.59563 12.5572 4.45265C12.5004 4.30966 12.4855 4.15232 12.5145 4.00053C12.5434 3.84874 12.6149 3.70931 12.7197 3.59987C12.8246 3.49043 12.9583 3.41591 13.1037 3.38571C13.2492 3.35552 13.4 3.37102 13.5371 3.43024C13.6741 3.48947 13.7912 3.58977 13.8736 3.71845C13.956 3.84713 14 3.99842 14 4.15319C14 4.36073 13.921 4.55976 13.7804 4.70651C13.6397 4.85326 13.449 4.9357 13.2501 4.9357Z" fill="#FF9900"/>
</svg>