<svg width="15" height="15" viewBox="0 0 15 15" fill="none" xmlns="http://www.w3.org/2000/svg">
<path d="M10.6731 6.92308C10.6731 7.55065 10.487 8.16413 10.1383 8.68594C9.78966 9.20775 9.29409 9.61445 8.71429 9.85462C8.13448 10.0948 7.49648 10.1576 6.88097 10.0352C6.26545 9.91275 5.70006 9.61054 5.2563 9.16678C4.81254 8.72302 4.51033 8.15763 4.3879 7.54211C4.26546 6.9266 4.3283 6.2886 4.56846 5.70879C4.80862 5.12899 5.21533 4.63342 5.73713 4.28476C6.25894 3.9361 6.87243 3.75 7.5 3.75C8.34126 3.75095 9.14779 4.08557 9.74265 4.68043C10.3375 5.27529 10.6721 6.08182 10.6731 6.92308ZM15 7.5C15 8.98336 14.5601 10.4334 13.736 11.6668C12.9119 12.9001 11.7406 13.8614 10.3701 14.4291C8.99968 14.9967 7.49168 15.1453 6.03682 14.8559C4.58197 14.5665 3.2456 13.8522 2.1967 12.8033C1.14781 11.7544 0.433503 10.418 0.144114 8.96318C-0.145275 7.50832 0.00324963 6.00032 0.570907 4.62987C1.13856 3.25943 2.09986 2.08809 3.33323 1.26398C4.56659 0.439867 6.01664 0 7.5 0C9.48848 0.00209987 11.3949 0.79295 12.801 2.19902C14.207 3.60509 14.9979 5.51152 15 7.5ZM13.8462 7.5C13.8452 6.64582 13.6721 5.80059 13.337 5.01487C13.0019 4.22915 12.5118 3.51908 11.896 2.92712C11.2802 2.33515 10.5514 1.87345 9.75304 1.56964C8.95471 1.26582 8.10332 1.12612 7.24976 1.15889C3.85313 1.29014 1.14447 4.11923 1.15385 7.51803C1.15711 9.06528 1.72776 10.5576 2.7577 11.7123C3.17713 11.1039 3.70994 10.5821 4.32693 10.1755C4.37953 10.1407 4.44207 10.1242 4.50497 10.1283C4.56788 10.1325 4.62768 10.1572 4.67524 10.1986C5.45927 10.8767 6.46123 11.2499 7.49784 11.2499C8.53445 11.2499 9.53641 10.8767 10.3204 10.1986C10.368 10.1572 10.4278 10.1325 10.4907 10.1283C10.5536 10.1242 10.6161 10.1407 10.6688 10.1755C11.2865 10.5819 11.8201 11.1037 12.2401 11.7123C13.2752 10.5534 13.8469 9.05379 13.8462 7.5Z" fill="#FF9900"/>
</svg>
