<svg width="15" height="16" viewBox="0 0 15 16" fill="none" xmlns="http://www.w3.org/2000/svg">
<path opacity="0.2" d="M5.51101 3.71452C5.51101 2.10741 7.11812 1.03601 7.11812 1.03601C7.11812 1.03601 8.72522 2.10741 8.72522 3.71452C8.72522 4.14075 8.5559 4.54952 8.25451 4.85092C7.95312 5.15231 7.54435 5.32163 7.11812 5.32163C6.69189 5.32163 6.28311 5.15231 5.98172 4.85092C5.68033 4.54952 5.51101 4.14075 5.51101 3.71452ZM12.4751 6.92873H1.7611C1.47695 6.92873 1.20443 7.04161 1.0035 7.24254C0.802577 7.44346 0.689697 7.71598 0.689697 8.00013V9.56238C0.689697 10.7302 1.60508 11.7172 2.77224 11.7494C3.05861 11.7574 3.34369 11.708 3.61062 11.604C3.87755 11.4999 4.12091 11.3434 4.3263 11.1437C4.5317 10.944 4.69496 10.7051 4.80644 10.4412C4.91791 10.1773 4.97534 9.89372 4.97531 9.60724C4.97531 10.1755 5.20107 10.7206 5.60293 11.1224C6.00478 11.5243 6.54981 11.75 7.11812 11.75C7.68643 11.75 8.23146 11.5243 8.63331 11.1224C9.03517 10.7206 9.26093 10.1755 9.26093 9.60724C9.26081 9.89378 9.31817 10.1774 9.42961 10.4414C9.54104 10.7054 9.70429 10.9444 9.90969 11.1441C10.1151 11.3439 10.3585 11.5005 10.6255 11.6046C10.8924 11.7086 11.1776 11.7581 11.464 11.75C12.6312 11.7179 13.5465 10.7309 13.5465 9.56304V8.00013C13.5465 7.71598 13.4337 7.44346 13.2327 7.24254C13.0318 7.04161 12.7593 6.92873 12.4751 6.92873Z" fill="#C45500"/>
<path d="M14.0823 8.00017C14.0823 7.57394 13.913 7.16517 13.6116 6.86378C13.3102 6.56239 12.9014 6.39307 12.4752 6.39307H7.65388V5.7904C8.11368 5.67097 8.52089 5.4024 8.8117 5.02676C9.10252 4.65112 9.26053 4.18962 9.26098 3.71456C9.26098 1.8396 7.49049 0.6403 7.41549 0.590078C7.32746 0.531344 7.224 0.5 7.11818 0.5C7.01235 0.5 6.90889 0.531344 6.82086 0.590078C6.74586 0.6403 4.97537 1.8396 4.97537 3.71456C4.97582 4.18962 5.13383 4.65112 5.42465 5.02676C5.71547 5.4024 6.12267 5.67097 6.58247 5.7904V6.39307H1.76116C1.33493 6.39307 0.926154 6.56239 0.624763 6.86378C0.323372 7.16517 0.154053 7.57394 0.154053 8.00017V9.56242C0.154602 10.1468 0.342343 10.7157 0.689755 11.1856V13.8929C0.689755 14.3191 0.859074 14.7279 1.16046 15.0293C1.46186 15.3307 1.87063 15.5 2.29686 15.5H11.9395C12.3657 15.5 12.7745 15.3307 13.0759 15.0293C13.3773 14.7279 13.5466 14.3191 13.5466 13.8929V11.1856C13.894 10.7157 14.0817 10.1468 14.0823 9.56242V8.00017ZM6.04677 3.71456C6.04677 2.80587 6.7164 2.07665 7.11818 1.71974C7.51995 2.07665 8.18958 2.80587 8.18958 3.71456C8.18958 3.99871 8.0767 4.27123 7.87577 4.47216C7.67485 4.67308 7.40233 4.78596 7.11818 4.78596C6.83402 4.78596 6.56151 4.67308 6.36058 4.47216C6.15965 4.27123 6.04677 3.99871 6.04677 3.71456ZM1.22546 8.00017C1.22546 7.8581 1.2819 7.72184 1.38236 7.62138C1.48282 7.52091 1.61908 7.46447 1.76116 7.46447H12.4752C12.6173 7.46447 12.7535 7.52091 12.854 7.62138C12.9545 7.72184 13.0109 7.8581 13.0109 8.00017V9.56242C13.0109 10.4497 12.3105 11.1903 11.4493 11.2137C11.2345 11.2198 11.0207 11.1828 10.8205 11.1048C10.6203 11.0268 10.4377 10.9094 10.2836 10.7596C10.1295 10.6099 10.0071 10.4307 9.92342 10.2328C9.83978 10.0349 9.79669 9.82216 9.79669 9.60728C9.79669 9.4652 9.74025 9.32895 9.63978 9.22848C9.53932 9.12802 9.40306 9.07158 9.26098 9.07158C9.11891 9.07158 8.98265 9.12802 8.88218 9.22848C8.78172 9.32895 8.72528 9.4652 8.72528 9.60728C8.72528 10.0335 8.55596 10.4423 8.25457 10.7437C7.95318 11.0451 7.54441 11.2144 7.11818 11.2144C6.69195 11.2144 6.28317 11.0451 5.98178 10.7437C5.68039 10.4423 5.51107 10.0335 5.51107 9.60728C5.51107 9.4652 5.45463 9.32895 5.35417 9.22848C5.2537 9.12802 5.11745 9.07158 4.97537 9.07158C4.83329 9.07158 4.69703 9.12802 4.59657 9.22848C4.49611 9.32895 4.43967 9.4652 4.43967 9.60728C4.43975 9.82222 4.39672 10.035 4.31313 10.233C4.22953 10.431 4.10706 10.6102 3.95297 10.7601C3.79888 10.9099 3.6163 11.0273 3.41603 11.1054C3.21576 11.1834 3.00188 11.2205 2.78703 11.2144C1.92589 11.1903 1.22546 10.4497 1.22546 9.56242V8.00017ZM11.9395 14.4286H2.29686C2.15478 14.4286 2.01853 14.3722 1.91806 14.2717C1.8176 14.1712 1.76116 14.035 1.76116 13.8929V12.0554C2.07473 12.1975 2.41344 12.2758 2.75756 12.2858C3.11558 12.2969 3.47216 12.2356 3.80587 12.1054C4.13958 11.9753 4.44353 11.779 4.69948 11.5284C4.79941 11.431 4.89165 11.326 4.97537 11.2144C5.22486 11.547 5.54839 11.817 5.92031 12.003C6.29224 12.189 6.70235 12.2858 7.11818 12.2858C7.534 12.2858 7.94412 12.189 8.31604 12.003C8.68797 11.817 9.01149 11.547 9.26098 11.2144C9.34497 11.3256 9.43743 11.4301 9.53754 11.5271C10.0359 12.0152 10.7062 12.2877 11.4038 12.2858C11.4292 12.2858 11.4547 12.2858 11.4801 12.2858C11.8238 12.2757 12.162 12.1974 12.4752 12.0554V13.8929C12.4752 14.035 12.4188 14.1712 12.3183 14.2717C12.2178 14.3722 12.0816 14.4286 11.9395 14.4286Z" fill="#FF9900"/>
</svg>
