<svg width="20" height="16" viewBox="0 0 20 16" fill="none" xmlns="http://www.w3.org/2000/svg">
<path opacity="0.2" d="M13.0294 6.29746C13.0294 7.3086 12.7295 8.29703 12.1678 9.13776C11.606 9.97849 10.8076 10.6338 9.8734 11.0207C8.93924 11.4077 7.9113 11.5089 6.91959 11.3116C5.92788 11.1144 5.01694 10.6275 4.30196 9.91248C3.58697 9.1975 3.10006 8.28655 2.9028 7.29484C2.70554 6.30313 2.80678 5.2752 3.19373 4.34103C3.58067 3.40686 4.23594 2.60841 5.07667 2.04665C5.9174 1.4849 6.90583 1.18506 7.91697 1.18506C9.27287 1.18506 10.5732 1.72369 11.532 2.68245C12.4908 3.64121 13.0294 4.94157 13.0294 6.29746Z" fill="#C45500"/>
<path d="M10.9844 11.2122C12.053 10.5466 12.8757 9.55118 13.3281 8.37641C13.7806 7.20163 13.8381 5.91146 13.492 4.70108C13.1459 3.4907 12.415 2.42598 11.4098 1.66799C10.4047 0.910008 9.18009 0.5 7.9212 0.5C6.66231 0.5 5.43767 0.910008 4.43255 1.66799C3.42743 2.42598 2.69653 3.4907 2.35042 4.70108C2.00431 5.91146 2.06182 7.20163 2.51426 8.37641C2.9667 9.55118 3.78944 10.5466 4.85801 11.2122C3.09849 11.7882 1.51535 12.8644 0.242365 14.3793C0.125984 14.5177 0.0693546 14.6967 0.0849345 14.8769C0.100514 15.0571 0.187027 15.2237 0.325442 15.34C0.463856 15.4564 0.642833 15.513 0.823 15.4975C1.00317 15.4819 1.16977 15.3954 1.28615 15.257C2.99625 13.2154 5.35307 12.0915 7.91694 12.0915C10.4808 12.0915 12.8376 13.2154 14.5528 15.257C14.6692 15.3954 14.8358 15.4819 15.016 15.4975C15.1962 15.513 15.3751 15.4564 15.5135 15.34C15.652 15.2237 15.7385 15.0571 15.7541 14.8769C15.7696 14.6967 15.713 14.5177 15.5966 14.3793C14.3228 12.8644 12.7396 11.7882 10.9844 11.2122ZM3.48619 6.29747C3.48619 5.42115 3.74604 4.56451 4.2329 3.83587C4.71976 3.10724 5.41175 2.53934 6.22136 2.20399C7.03097 1.86863 7.92185 1.78089 8.78133 1.95185C9.64081 2.12281 10.4303 2.5448 11.0499 3.16445C11.6696 3.7841 12.0916 4.57359 12.2626 5.43307C12.4335 6.29255 12.3458 7.18343 12.0104 7.99304C11.6751 8.80266 11.1072 9.49465 10.3785 9.9815C9.6499 10.4684 8.79326 10.7282 7.91694 10.7282C6.74224 10.7269 5.61605 10.2596 4.78542 9.42899C3.95478 8.59835 3.48754 7.47216 3.48619 6.29747ZM16.3831 2.6847C16.8689 3.82721 17.1192 5.05597 17.1192 6.29747C17.1192 7.53897 16.8689 8.76772 16.3831 9.91023C16.3306 10.0331 16.2432 10.1379 16.1317 10.2115C16.0202 10.2851 15.8896 10.3244 15.756 10.3243C15.6431 10.3244 15.532 10.2965 15.4326 10.2431C15.3333 10.1896 15.2487 10.1124 15.1865 10.0182C15.1244 9.92403 15.0866 9.81591 15.0765 9.70352C15.0664 9.59113 15.0844 9.478 15.1288 9.37428C15.5427 8.40129 15.756 7.35481 15.756 6.29747C15.756 5.24012 15.5427 4.19364 15.1288 3.22065C15.0578 3.05433 15.0557 2.86658 15.123 2.69872C15.1904 2.53086 15.3217 2.39663 15.488 2.32555C15.6543 2.25448 15.842 2.25239 16.0099 2.31975C16.1778 2.3871 16.312 2.51838 16.3831 2.6847ZM19.8459 6.29747C19.8491 7.91307 19.5217 9.51224 18.8839 10.9966C18.8093 11.1575 18.6749 11.283 18.5094 11.3464C18.3438 11.4098 18.16 11.4062 17.997 11.3364C17.834 11.2665 17.7046 11.1359 17.6364 10.9723C17.5681 10.8086 17.5663 10.6248 17.6314 10.4598C18.193 9.14401 18.4826 7.72814 18.4826 6.29747C18.4826 4.8668 18.193 3.45092 17.6314 2.13512C17.593 2.05238 17.5716 1.96279 17.5685 1.87164C17.5654 1.7805 17.5806 1.68966 17.6132 1.60449C17.6458 1.51933 17.6952 1.44158 17.7584 1.37585C17.8217 1.31011 17.8974 1.25773 17.9812 1.22181C18.0651 1.18589 18.1552 1.16715 18.2464 1.1667C18.3376 1.16626 18.428 1.18412 18.5122 1.21923C18.5963 1.25434 18.6726 1.30598 18.7365 1.37109C18.8003 1.43621 18.8504 1.51347 18.8839 1.59831C19.5217 3.08269 19.8491 4.68187 19.8459 6.29747Z" fill="#FF9900"/>
</svg>
