<svg width="25" height="26" viewBox="0 0 25 26" fill="none" xmlns="http://www.w3.org/2000/svg">
<g clip-path="url(#clip0_248_7940)">
<path d="M17.1864 0.5C15.8536 0.592187 14.2958 1.44531 13.388 2.55624C12.5599 3.56404 11.8786 5.06091 12.1443 6.51559C13.6005 6.5609 15.1052 5.68747 15.977 4.55779C16.7927 3.50623 17.4098 2.01874 17.1864 0.5Z" fill="black"/>
<path d="M22.4536 8.88749C21.1739 7.28281 19.3755 6.35156 17.6771 6.35156C15.4349 6.35156 14.4865 7.42499 12.9287 7.42499C11.3224 7.42499 10.1021 6.35469 8.16306 6.35469C6.25838 6.35469 4.23027 7.51874 2.94434 9.50936C1.13654 12.3125 1.44591 17.5827 4.37558 22.0718C5.42401 23.678 6.82401 25.4843 8.65525 25.4999C10.2849 25.5155 10.7443 24.4546 12.9521 24.4436C15.1599 24.4311 15.5786 25.514 17.2052 25.4968C19.038 25.4827 20.5146 23.4812 21.563 21.8749C22.3145 20.7234 22.5942 20.1437 23.177 18.8437C18.938 17.2296 18.2583 11.2015 22.4536 8.88749Z" fill="black"/>
</g>
<defs>
<clipPath id="clip0_248_7940">
<rect width="25" height="25" fill="white" transform="translate(0 0.5)"/>
</clipPath>
</defs>
</svg>
