<svg width="16" height="13" viewBox="0 0 16 13" fill="none" xmlns="http://www.w3.org/2000/svg">
<path d="M14.6667 0.5H1.33333C1.11232 0.5 0.900358 0.590306 0.744078 0.751051C0.587797 0.911797 0.5 1.12981 0.5 1.35714V11.0714C0.5 11.4503 0.646329 11.8137 0.906796 12.0816C1.16726 12.3495 1.52053 12.5 1.88889 12.5H14.1111C14.4795 12.5 14.8327 12.3495 15.0932 12.0816C15.3537 11.8137 15.5 11.4503 15.5 11.0714V1.35714C15.5 1.12981 15.4122 0.911797 15.2559 0.751051C15.0996 0.590306 14.8877 0.5 14.6667 0.5ZM12.5243 2.21429L8 6.48L3.47569 2.21429H12.5243ZM2.16667 10.7857V3.30571L7.43681 8.275C7.59051 8.41996 7.79146 8.50038 8 8.50038C8.20854 8.50038 8.40949 8.41996 8.5632 8.275L13.8333 3.30571V10.7857H2.16667Z" fill="#FFFDF2"/>
</svg>
