<svg width="16" height="15" viewBox="0 0 16 15" fill="none" xmlns="http://www.w3.org/2000/svg">
<path d="M15.4014 13.2679C14.4492 11.6512 12.9624 10.3914 11.1803 9.69146C12.0666 9.04842 12.7212 8.15191 13.0515 7.12892C13.3818 6.10593 13.371 5.00833 13.0207 3.99159C12.6704 2.97485 11.9983 2.09052 11.0996 1.46387C10.201 0.837211 9.1213 0.5 8.01353 0.5C6.90577 0.5 5.82609 0.837211 4.92742 1.46387C4.02876 2.09052 3.35667 2.97485 3.00636 3.99159C2.65606 5.00833 2.64529 6.10593 2.97559 7.12892C3.30589 8.15191 3.96051 9.04842 4.84672 9.69146C3.06464 10.3914 1.57785 11.6512 0.625693 13.2679C0.566694 13.3597 0.527371 13.462 0.510063 13.5688C0.492754 13.6756 0.497813 13.7847 0.524939 13.8895C0.552065 13.9943 0.600704 14.0929 0.667964 14.1792C0.735225 14.2655 0.819733 14.3378 0.916466 14.3919C1.0132 14.4459 1.12018 14.4806 1.23105 14.4939C1.34193 14.5072 1.45442 14.4987 1.56186 14.4691C1.6693 14.4395 1.76948 14.3892 1.85645 14.3214C1.94342 14.2536 2.0154 14.1695 2.06812 14.0742C3.32651 11.9698 5.54884 10.7147 8.01353 10.7147C10.4782 10.7147 12.7006 11.9705 13.9589 14.0742C14.0732 14.2519 14.2544 14.3797 14.4643 14.4305C14.6741 14.4814 14.8962 14.4512 15.0835 14.3465C15.2709 14.2418 15.4087 14.0707 15.4681 13.8695C15.5274 13.6682 15.5035 13.4525 15.4014 13.2679ZM4.40226 5.60838C4.40226 4.91737 4.61405 4.24187 5.01087 3.66731C5.40768 3.09276 5.97168 2.64494 6.63156 2.3805C7.29143 2.11606 8.01754 2.04688 8.71806 2.18169C9.41858 2.3165 10.062 2.64925 10.5671 3.13787C11.0721 3.62649 11.4161 4.24903 11.5554 4.92677C11.6948 5.60451 11.6232 6.307 11.3499 6.94541C11.0766 7.58383 10.6137 8.12949 10.0199 8.5134C9.42598 8.8973 8.72778 9.10221 8.01353 9.10221C7.0561 9.10115 6.1382 8.7327 5.46119 8.07771C4.78419 7.42273 4.40336 6.53468 4.40226 5.60838Z" fill="#FFFDF2"/>
</svg>
