<svg width="16" height="17" viewBox="0 0 16 17" fill="none" xmlns="http://www.w3.org/2000/svg">
<path d="M14 5.46429H11.9V3.94643C11.9 2.89977 11.4891 1.89598 10.7577 1.15588C10.0263 0.415783 9.03434 0 8 0C6.96566 0 5.97368 0.415783 5.24228 1.15588C4.51089 1.89598 4.1 2.89977 4.1 3.94643V5.46429H2C1.60218 5.46429 1.22064 5.6242 0.93934 5.90886C0.658035 6.19351 0.5 6.57958 0.5 6.98214V15.4821C0.5 15.8847 0.658035 16.2708 0.93934 16.5554C1.22064 16.8401 1.60218 17 2 17H14C14.3978 17 14.7794 16.8401 15.0607 16.5554C15.342 16.2708 15.5 15.8847 15.5 15.4821V6.98214C15.5 6.57958 15.342 6.19351 15.0607 5.90886C14.7794 5.6242 14.3978 5.46429 14 5.46429ZM5.9 3.94643C5.9 3.38284 6.12125 2.84234 6.51508 2.44383C6.9089 2.04531 7.44305 1.82143 8 1.82143C8.55696 1.82143 9.0911 2.04531 9.48493 2.44383C9.87875 2.84234 10.1 3.38284 10.1 3.94643V5.46429H5.9V3.94643ZM13.7 15.1786H2.3V7.28571H13.7V15.1786Z" fill="#FFFDF2"/>
</svg>
