<svg width="20" height="20" viewBox="0 0 20 20" fill="none" xmlns="http://www.w3.org/2000/svg">
<path opacity="0.2" d="M12.2472 15.5597C11.4999 16.3071 10.5477 16.8161 9.51115 17.0223C8.47455 17.2285 7.40009 17.1227 6.42362 16.7183C5.44716 16.3138 4.61256 15.6289 4.02536 14.7501C3.43817 13.8713 3.12476 12.8382 3.12476 11.7813C3.12476 10.7243 3.43817 9.69117 4.02536 8.81239C4.61256 7.9336 5.44716 7.24868 6.42362 6.84424C7.40009 6.43979 8.47455 6.33399 9.51115 6.54021C10.5477 6.74643 11.4999 7.2554 12.2472 8.00278C13.2493 9.00491 13.8123 10.3641 13.8123 11.7813C13.8123 13.1984 13.2493 14.5576 12.2472 15.5597Z" fill="#FFFDF2"/>
<path d="M16.7812 2.875H13.2187C13.0613 2.875 12.9102 2.93756 12.7989 3.04891C12.6875 3.16026 12.625 3.31128 12.625 3.46875C12.625 3.62622 12.6875 3.77724 12.7989 3.88859C12.9102 3.99994 13.0613 4.0625 13.2187 4.0625H15.3481L12.2257 7.18488C11.0463 6.22083 9.54148 5.74695 8.0225 5.86124C6.50351 5.97553 5.08655 6.66926 4.06469 7.79894C3.04282 8.92861 2.49422 10.4078 2.53235 11.9306C2.57048 13.4534 3.19242 14.9033 4.26954 15.9805C5.34666 17.0576 6.79656 17.6795 8.31937 17.7176C9.84217 17.7558 11.3214 17.2072 12.4511 16.1853C13.5807 15.1634 14.2745 13.7465 14.3888 12.2275C14.503 10.7085 14.0292 9.2037 13.0651 8.0243L16.1875 4.90266V7.03125C16.1875 7.18872 16.25 7.33975 16.3614 7.45109C16.4727 7.56244 16.6238 7.625 16.7812 7.625C16.9387 7.625 17.0897 7.56244 17.2011 7.45109C17.3124 7.33975 17.375 7.18872 17.375 7.03125V3.46875C17.375 3.31128 17.3124 3.16026 17.2011 3.04891C17.0897 2.93756 16.9387 2.875 16.7812 2.875ZM11.8264 15.1426C11.162 15.8067 10.3156 16.2589 9.39429 16.442C8.47294 16.6251 7.51798 16.5309 6.65016 16.1713C5.78233 15.8118 5.04061 15.2029 4.51877 14.4218C3.99693 13.6408 3.7184 12.7225 3.7184 11.7831C3.7184 10.8437 3.99693 9.92546 4.51877 9.14437C5.04061 8.36328 5.78233 7.75446 6.65016 7.39488C7.51798 7.0353 8.47294 6.94111 9.39429 7.12422C10.3156 7.30733 11.162 7.75951 11.8264 8.42359C12.7158 9.31542 13.2153 10.5236 13.2153 11.7831C13.2153 13.0427 12.7158 14.2508 11.8264 15.1426Z" fill="#FFFDF2"/>
</svg>
