<svg width="20" height="20" viewBox="0 0 20 20" fill="none" xmlns="http://www.w3.org/2000/svg">
<path opacity="0.2" d="M15.0938 7.625C15.0938 8.68189 14.7803 9.71505 14.1932 10.5938C13.606 11.4726 12.7714 12.1575 11.795 12.562C10.8185 12.9664 9.74407 13.0723 8.70749 12.8661C7.6709 12.6599 6.71874 12.1509 5.9714 11.4036C5.22406 10.6563 4.71512 9.7041 4.50893 8.66751C4.30274 7.63093 4.40857 6.55648 4.81302 5.58004C5.21748 4.60359 5.9024 3.76901 6.78117 3.18183C7.65995 2.59466 8.69311 2.28125 9.75 2.28125C11.1673 2.28125 12.5265 2.84425 13.5286 3.8464C14.5308 4.84855 15.0938 6.20775 15.0938 7.625Z" fill="#FFFDF2"/>
<path d="M15.6875 7.62499C15.6875 6.47598 15.3541 5.35166 14.7277 4.38838C14.1014 3.42511 13.209 2.66426 12.1588 2.19812C11.1086 1.73198 9.94567 1.58058 8.81111 1.76227C7.67656 1.94396 6.6191 2.45094 5.76698 3.22172C4.91485 3.99251 4.30468 4.99398 4.01046 6.10468C3.71624 7.21538 3.75061 8.38759 4.10941 9.47914C4.4682 10.5707 5.13601 11.5347 6.03183 12.2542C6.92765 12.9738 8.013 13.4179 9.15625 13.5328V15.3437H6.78125C6.62378 15.3437 6.47276 15.4063 6.36141 15.5176C6.25006 15.629 6.1875 15.78 6.1875 15.9375C6.1875 16.095 6.25006 16.246 6.36141 16.3573C6.47276 16.4687 6.62378 16.5312 6.78125 16.5312H9.15625V18.3125C9.15625 18.47 9.21881 18.621 9.33016 18.7323C9.44151 18.8437 9.59253 18.9062 9.75 18.9062C9.90747 18.9062 10.0585 18.8437 10.1698 18.7323C10.2812 18.621 10.3438 18.47 10.3438 18.3125V16.5312H12.7188C12.8762 16.5312 13.0272 16.4687 13.1386 16.3573C13.2499 16.246 13.3125 16.095 13.3125 15.9375C13.3125 15.78 13.2499 15.629 13.1386 15.5176C13.0272 15.4063 12.8762 15.3437 12.7188 15.3437H10.3438V13.5328C11.8076 13.3838 13.1642 12.6974 14.1513 11.6061C15.1383 10.5149 15.6857 9.09641 15.6875 7.62499ZM5 7.62499C5 6.68553 5.27858 5.76716 5.80052 4.98603C6.32246 4.2049 7.06431 3.59608 7.93225 3.23656C8.8002 2.87705 9.75527 2.78298 10.6767 2.96626C11.5981 3.14954 12.4445 3.60193 13.1088 4.26623C13.7731 4.93053 14.2255 5.7769 14.4087 6.69831C14.592 7.61972 14.4979 8.57479 14.1384 9.44274C13.7789 10.3107 13.1701 11.0525 12.389 11.5745C11.6078 12.0964 10.6895 12.375 9.75 12.375C8.49064 12.3736 7.28326 11.8727 6.39276 10.9822C5.50226 10.0917 5.00138 8.88435 5 7.62499Z" fill="#FFFDF2"/>
</svg>
