<svg width="167" height="205" viewBox="0 0 167 205" fill="none" xmlns="http://www.w3.org/2000/svg">
<path fill-rule="evenodd" clip-rule="evenodd" d="M92.2018 49.0752C99.2757 59.127 98.6925 61.0179 97.7177 72.8678C97.3838 78.1539 96.7676 83.4121 95.7063 88.6034C95.2127 91.6422 94.3812 94.6428 92.9963 97.3518C93.054 97.4723 93.0993 97.6053 93.1344 97.7506C93.3291 98.883 92.9685 99.8908 92.3584 100.803C92.3553 100.815 92.3533 100.825 92.3492 100.838C92.2605 101.165 91.9112 101.558 91.4156 101.979C90.7592 102.691 90.0245 103.344 89.4052 103.953C88.9611 104.394 88.3099 104.561 87.7225 104.433C86.9332 104.899 86.2377 105.299 85.8296 105.566C82.2716 107.387 78.1962 107.817 74.4465 109.13C72.8153 109.723 71.178 110.298 69.5149 110.792C68.8719 113.612 69.4438 116.632 69.8528 119.465C69.9724 120.389 69.4881 121.025 68.8389 121.309C68.7575 121.46 68.6483 121.607 68.5112 121.748C66.064 124.066 63.6383 128.139 59.732 127.216C57.667 126.669 55.8308 125.562 53.9667 124.555C52.4736 123.818 51.0444 122.942 49.8409 121.778C47.6955 119.939 48.7126 116.921 48.15 114.467C47.9562 113.779 48.0212 112.322 47.678 111.408C47.4379 111.486 47.1762 111.506 46.9011 111.453C44.6238 110.982 42.1621 110.368 40.329 108.872C37.8951 108.298 35.5581 107.336 33.2304 106.437C30.2401 105.572 28.0401 103.383 25.7258 101.427C23.2775 99.3055 20.9807 96.9448 19.3835 94.1008C18.8095 93.0023 18.1655 91.9317 17.537 90.858C17.2783 90.9116 16.9898 90.9044 16.6755 90.822C13.4771 90.1202 11.0999 87.7616 8.44447 86.0078C6.4475 84.6806 4.70195 82.9876 3.55096 80.868C2.61945 78.9452 -0.453288 74.0322 1.82808 72.3763C1.84972 72.233 1.87342 72.0929 1.89815 71.9558C0.806927 67.6651 6.60309 64.6274 10.2807 65.4477C11.2833 65.6568 12.9897 65.9794 14.4055 66.5729C14.524 66.4121 14.6456 66.2545 14.76 66.101C15.7739 64.7521 16.8775 63.4703 17.8873 62.1163C21.6762 55.8399 26.3482 49.951 29.8341 43.4274C29.2962 42.094 30.2473 40.9667 31.3097 40.7864C32.5905 39.6231 34.9038 41.0739 34.1743 42.8256C39.2388 46.1962 46.1314 43.686 50.9177 40.7462C53.4598 39.5252 55.498 43.3151 59.8144 42.9019C62.8975 43.0379 65.9537 39.5623 68.8307 41.7117C73.8241 46.1467 80.8434 42.9957 86.5478 41.9364C87.4371 41.6922 88.1285 42.0837 88.5005 42.6865C89.1085 42.8421 89.6319 43.3007 89.7659 44.0941C90.2831 45.8829 91.1765 47.5295 92.2018 49.0752Z" fill="#F9C8A8"/>
<path fill-rule="evenodd" clip-rule="evenodd" d="M132.89 139.101C135.671 140.059 133.378 143.004 132.612 144.575C129.453 150.753 126.702 157.119 123.533 163.291C122.377 165.618 121.24 167.956 120.11 170.296C119.865 170.872 119.324 171.27 118.729 171.372C117.475 173.171 116.201 174.955 114.837 176.668C112.514 179.457 109.61 181.805 106.433 183.553C101.384 184.887 103.52 174.861 103.43 172.205C103.931 167.714 102.551 163.358 102.12 158.916C96.6893 164.472 92.7376 171.321 88.249 177.629C85.6276 181.547 82.5559 185.107 79.5141 188.698C73.7385 194.987 67.8156 203.441 58.4779 203.782C55.671 203.88 53.1732 202.71 50.8476 201.258C45.2966 198.777 41.65 193.664 38.0455 188.981C36.9811 187.563 36.0011 186.088 35.049 184.592C34.4318 183.499 32.8511 182.244 32.5657 180.977C31.9608 180.409 31.7444 179.432 32.2236 178.681C32.947 177.705 34.067 177.088 34.946 176.261C38.3052 172.625 41.9694 169.19 46.0159 166.322C47.8016 165.061 49.372 164.196 50.9609 162.939C51.9697 161.898 53.3154 160.341 54.8683 161.378C57.329 163.612 59.0292 166.591 61.1488 169.163C61.5929 168.728 62.0803 168.325 62.4378 167.952C64.4276 166.104 66.4575 164.298 68.471 162.476C68.2484 161.422 69.114 160.653 69.8404 160.033C70.945 159.001 72.0651 157.984 73.1945 156.979C77.9324 152.942 82.3251 148.526 87.0269 144.459C89.4618 142.437 89.2846 139.117 90.213 136.341C91.8679 129.827 92.9385 121.618 100.568 119.651C102.504 119.07 104.539 119.038 106.541 118.928C108.239 118.581 110.281 119.206 110.129 121.274C112.603 121.38 114.2 123.038 114.167 125.522C117.271 125.174 117.908 128.444 117.21 130.815C117.733 131.036 118.253 131.259 118.703 131.619C119.166 131.989 119.529 132.49 119.724 133.05C121.04 134.012 120.328 135.613 119.348 136.519C118.436 137.726 117.455 138.874 116.478 140.025C116.273 140.561 115.86 141.066 115.484 141.516C114.595 142.697 113.705 143.878 112.821 145.062C112.731 145.182 112.641 145.303 112.553 145.424C113.1 145.323 113.61 145.211 114.041 145.052C118.504 143.907 122.936 142.093 127.373 140.944C128.484 140.539 129.625 140.194 130.705 139.709C131.373 139.316 132.082 138.865 132.89 139.101Z" fill="#F9C8A8"/>
<path fill-rule="evenodd" clip-rule="evenodd" d="M160.988 107.271C160.266 107.27 159.611 106.831 159.327 106.17C159.166 105.799 159.145 105.412 159.194 105.023C158.098 106.088 156.111 105.219 156.153 103.691C156.647 100.817 158.2 98.1916 158.602 95.2889C158.271 95.6639 157.907 96.005 157.452 96.2101C157.335 96.2626 157.214 96.2997 157.088 96.3224C156.487 97.6238 156.046 99.0242 155.281 100.236C154.158 101.726 151.719 100.589 152.057 98.782C152.478 96.3842 153.36 94.073 153.56 91.6329C152.36 93.2857 150.256 97.7052 148.007 94.8715C147.103 93.1662 149.386 87.9326 150.152 86.0954C151.322 83.7141 151.197 80.0705 153.905 78.8195C155.163 78.462 156.521 79.1225 157.414 79.9963C157.999 80.5208 158.119 81.3513 158.716 81.8397C158.786 81.8521 158.855 81.8675 158.926 81.8871C159.187 81.9603 159.425 82.0644 159.644 82.1942C160.855 82.1355 161.649 83.338 161.615 84.4704C161.734 85.2412 162.16 85.9903 161.843 86.7847C164.375 88.2737 164.585 91.4629 164.344 94.0833C164.701 95.2106 165.382 96.2492 165.266 97.5022C165.305 99.5909 164.537 101.573 163.846 103.51C163.229 104.908 162.889 107.21 160.988 107.271Z" fill="#F9C8A8"/>
<path fill-rule="evenodd" clip-rule="evenodd" d="M14.3313 90.2192C10.7279 89.5824 4.81526 82.0984 4.24749 78.5465C3.9497 76.6969 5.26453 74.4093 7.35939 74.7896C10.1457 75.7262 12.8176 78.4363 14.2231 80.9989C14.7867 80.8969 15.2473 81.0412 15.6348 81.3276C15.2793 77.3316 15.1226 73.3233 15.3648 69.3015C15.4081 68.9883 15.4318 68.6596 15.4483 68.3236C15.1886 68.1412 14.9763 67.8867 14.8527 67.5632C14.5013 66.6925 14.9289 65.8743 15.6863 65.1211C15.8295 64.4698 16.0778 63.866 16.5209 63.3621C16.6734 63.2343 16.8404 63.1416 17.0135 63.0808C17.0526 62.3636 17.1072 61.6465 17.1845 60.9313C17.3236 60.4007 17.5802 60.0081 17.8955 59.7463C18.0017 58.6252 18.1222 57.5062 18.2572 56.3902C18.7889 54.9435 21.0404 54.959 21.5803 56.3902C21.9307 57.2517 21.4423 58.0647 21.4773 58.9354C21.4587 59.2507 21.4402 59.567 21.4216 59.8824C23.0951 57.2826 25.2013 54.8879 26.6676 52.1583C27.6454 50.1819 28.4646 48.1252 29.223 46.052C28.3265 44.7412 28.3678 42.903 30.3998 42.7051C30.5646 42.2538 30.7718 41.8241 31.1169 41.4841C31.8486 40.7391 33.2036 40.7885 33.8198 41.6572C34.303 42.565 34.303 43.8674 34.0722 45.2719C36.2495 46.325 38.976 46.3518 41.3295 46.3559C43.6954 46.0612 45.9665 45.1575 47.9933 43.8932C47.8738 43.4944 47.7996 43.075 47.7779 42.634C47.9789 40.9699 49.9254 40.6381 50.8878 41.5098C51.9532 40.1672 52.9971 38.4907 54.7086 39.6221C55.4814 40.2187 55.6411 41.379 55.0332 42.1518C54.8776 42.3507 54.721 42.5485 54.5633 42.7463C56.0327 43.2698 57.6206 43.4625 59.1755 43.4213C60.6593 43.2214 62.1019 42.7927 63.5332 42.33C63.5909 42.0992 63.6909 41.8715 63.8444 41.6489C64.3101 41.0492 65.1025 40.7865 65.8311 40.9967C66.1505 41.0822 66.3772 41.2254 66.5565 41.414C66.844 41.4027 67.1284 41.4738 67.3849 41.6046C67.7868 41.2368 68.1804 40.8637 68.5679 40.4897C69.2737 39.8055 70.4154 39.7869 71.1182 40.4897C71.8034 41.1749 71.824 42.3558 71.1182 43.039C70.4855 43.6356 69.8518 44.2332 69.2006 44.8103C69.6302 45.0906 70.1527 45.3657 70.7998 45.6274C71.1893 42.2218 77.0071 45.9602 85.2835 42.4949C85.7358 40.1888 87.4639 40.027 88.381 40.9008C88.484 40.838 88.587 40.7751 88.6901 40.7092C90.3666 39.6643 92.4223 41.6118 91.3486 43.3172C90.7262 44.2147 89.9184 44.9721 89.0466 45.6521C89.7246 50.1314 92.4872 54.2346 95.1962 57.7669C97.1746 55.4412 98.9068 58.719 99.6837 60.3904C100.647 62.2029 99.2036 64.6368 97.0737 64.1545C94.1081 63.2653 92.6047 60.072 90.7582 57.8174C88.4119 54.8405 86.792 51.3525 85.8111 47.6996C82.3457 49.3679 78.4219 50.1314 74.5948 50.1067C71.6138 49.9655 68.5998 49.0021 66.2927 47.0855C63.3786 49.0144 59.8412 50.049 56.346 49.5482C54.2738 49.2257 51.8059 48.3426 50.0511 46.8639C46.5734 49.0412 42.5083 50.4086 38.3784 49.8985C36.6215 49.746 34.8121 49.4513 33.1603 48.8032C32.8007 49.915 32.4246 50.9331 32.1649 51.7039C31.2725 54.1315 30.0896 56.4613 28.6089 58.5737C29.5476 58.9282 30.0876 59.8782 29.3415 61.2549C31.8156 61.2631 34.4164 60.6552 36.2979 58.9735C37.2264 56.8117 40.5031 58.1925 39.6221 60.377C37.4057 64.0783 32.3545 64.9582 28.3482 64.8521C26.6892 64.9016 25.2528 64.138 24.6077 63.053C23.9215 63.6517 23.1971 64.2122 22.4356 64.7274C22.0028 65.0294 21.5659 65.3261 21.129 65.6239C20.8353 72.7545 20.8611 79.8902 21.9729 86.9713C22.0327 87.4721 22.0966 87.9698 22.1646 88.4634C22.721 90.7602 23.466 93.0117 24.4624 95.1972C26.7469 99.8383 30.7511 103.303 34.6719 106.545C36.3278 107.643 38.1929 108.362 40.094 108.907C41.1451 109.209 41.5016 110.116 41.3543 110.938C41.1945 110.894 41.0338 110.849 40.873 110.806C40.839 110.779 40.803 110.754 40.7669 110.729C40.5042 110.552 40.1899 110.444 39.8993 110.324C39.5902 110.196 39.2821 110.07 38.974 109.945C38.6504 109.813 38.3299 109.669 38.0012 109.555C37.8642 109.508 37.7271 109.466 37.588 109.431C37.215 109.284 36.842 109.137 36.47 108.986C35.0223 108.345 33.6044 107.653 32.2051 106.909C31.4858 106.527 30.7738 106.135 30.0608 105.741C29.3755 105.361 28.6934 104.918 27.9556 104.651C27.7619 104.581 27.5599 104.548 27.3579 104.549C26.6057 103.805 25.8412 103.074 25.057 102.364C24.4233 101.788 23.7659 101.242 23.1115 100.69L23.0961 100.677L22.9869 100.584L22.9776 100.577L22.9498 100.553L22.9333 100.539L22.9137 100.522L22.889 100.501L22.8776 100.492L22.8447 100.464L22.8416 100.461L22.8055 100.43L22.8004 100.426C22.6077 100.262 22.416 100.098 22.2264 99.932L22.2089 99.9155L22.2007 99.9083L22.1955 99.9032C22.1965 99.9042 22.1965 99.9052 22.1976 99.9063L22.1986 99.9073L22.1996 99.9094L22.178 99.8908L22.1553 99.8702L22.1296 99.8465L22.1285 99.8455L22.1254 99.8424L22.1244 99.8413L22.1192 99.8372L22.1141 99.8331L22.1131 99.8321L22.1069 99.8259L22.0852 99.8073L22.0832 99.8063C22.1059 99.8269 22.1285 99.8465 22.1512 99.8671L22.1563 99.8712L22.1584 99.8723L22.1594 99.8733L22.1605 99.8743L22.1615 99.8754L22.1636 99.8764L22.1646 99.8774H22.1666H22.1687C22.1749 99.8836 22.1821 99.8887 22.1883 99.8939L22.1873 99.8929L22.1811 99.8867L22.179 99.8846C22.0152 99.7332 21.8565 99.5755 21.7009 99.4137C21.6731 99.3684 21.6442 99.323 21.6164 99.2777L21.6112 99.2705L21.6061 99.2633L21.6009 99.2561C21.535 99.1489 21.4701 99.0407 21.4072 98.9315L21.4031 98.9232L21.3887 98.8985C21.3413 98.8058 21.2949 98.713 21.2506 98.6182C21.2351 98.5853 21.2187 98.5533 21.2011 98.5214L21.198 98.5142V98.5131L21.1949 98.5069L21.1919 98.4997V98.4987L21.1888 98.4925L21.1816 98.4791C21.1239 98.3812 21.0589 98.2885 20.9878 98.204L20.9662 98.1514L20.961 98.138L20.9559 98.1246C20.8518 97.8701 20.7508 97.6156 20.6396 97.3632C20.3737 96.7635 20.0934 96.1668 19.7812 95.5898C19.6174 95.2868 19.4422 94.9891 19.2691 94.6913C19.1846 94.4141 19.1032 94.1359 19.0249 93.8556C18.9558 93.8659 18.8868 93.8731 18.8167 93.8762C18.7446 93.7371 18.6766 93.5959 18.6117 93.4537C18.4787 93.1106 18.3757 92.7582 18.2799 92.4047C18.3005 92.4831 18.3201 92.5593 18.3407 92.6356C18.3139 92.5336 18.2871 92.4315 18.2603 92.3295C18.0831 91.6556 17.4648 91.2084 16.8002 91.1002C16.7322 90.6108 16.6652 90.1203 16.5992 89.6308C16.0346 90.1141 15.2824 90.3624 14.3313 90.2192ZM159.925 106.188C159.426 105.802 159.164 105.166 159.232 104.549C157.401 106.663 154.381 104.048 156.484 102.125C158.603 100.471 160.015 98.1061 161.267 95.7681C161.006 94.0122 161.532 92.2358 161.231 90.4871C160.217 88.3428 160.082 85.8842 158.789 83.8676C158.212 82.8619 158.666 81.915 159.42 81.4554C159.433 81.4781 159.447 81.5007 159.461 81.5234C159.753 81.982 160.194 82.2921 160.626 82.6043C160.738 82.7167 160.848 82.831 160.954 82.9475C161.056 83.067 161.155 83.1907 161.249 83.3164C161.294 83.3885 161.338 83.4637 161.382 83.5389C161.449 83.6811 161.509 83.8244 161.565 83.9727C161.701 84.3818 161.812 84.7971 161.907 85.2154C162.043 85.811 162.133 86.5179 162.539 86.9981C162.74 87.2341 162.988 87.4216 163.261 87.5452C163.305 87.7245 163.351 87.9049 163.4 88.0831C163.63 88.9044 163.966 89.7225 164.787 90.0914C165.002 91.4784 164.93 92.9179 164.808 94.343C166.763 96.7284 164.257 102.378 163.041 104.852C162.727 105.788 161.88 106.57 160.972 106.57C160.624 106.571 160.266 106.456 159.925 106.188ZM151.64 99.7043C151.64 100.686 152.461 101.508 153.443 101.508C155.928 101.266 158.855 95.8443 159.941 93.7113C160.817 91.1301 157.094 90.1801 156.405 92.7757C155.506 94.4646 154.414 96.0514 153.196 97.526C152.607 98.2267 151.587 98.612 151.64 99.7043ZM148.349 96.4121C149.205 96.7923 150.265 96.3822 150.665 95.5455C150.651 95.5754 150.636 95.6042 150.622 95.6341C150.584 95.6897 150.546 95.7464 150.508 95.8031C152.528 93.2445 154.697 90.7756 156.069 87.7833C156.968 85.606 153.692 84.2293 152.746 86.3798C152.278 87.4185 151.62 88.3624 150.999 89.3114C150.081 91.3403 145.094 94.5058 148.349 96.4121ZM132.991 138.936C134.6 139.087 135.06 141.015 134.218 142.219C129.816 149.523 125.898 157.092 121.805 164.565C117.94 170.09 112.605 181.072 106.011 183.076C103.82 183.032 103.657 180.575 103.794 178.901C103.844 176.891 103.837 174.881 103.714 172.873C103.551 168.497 103.022 164.144 102.9 159.766C101.159 158.796 102.228 156.653 103.366 155.636C104.84 153.941 106.165 152.128 107.537 150.354C109.349 147.204 112.888 146.418 116.136 145.492C120.179 144.414 123.939 142.57 127.765 140.917C129.522 140.34 131.13 139.044 132.991 138.936ZM57.7618 174.217C56.1656 173.56 56.8395 171.686 56.4603 170.37C55.9297 167.537 54.0873 165.137 52.1284 163.115C50.6899 161.807 52.3026 159.37 54.08 160.161C55.2042 160.806 55.9554 162.031 56.8055 162.99C58.2389 164.488 59.8072 166.133 60.4017 168.171C61.0416 170.213 60.9571 175.074 57.7618 174.217ZM119.415 131.799C117.315 131.254 115.472 133.119 113.936 134.326C106.222 142.588 98.7945 151.187 91.6258 159.966C84.9053 167.76 78.5867 176.287 70.2722 182.582C60.5192 188.925 52.9579 186.309 45.8696 177.828C44.3363 175.978 43.1194 174.28 41.8179 172.177C41.2121 170.656 38.8606 170.85 38.4289 172.407C36.1846 172.149 31.5611 178.519 32.4637 180.766C34.5194 185.292 37.7395 189.32 41.3512 192.718C42.7237 194.447 44.3343 196.01 45.5399 197.861C45.8923 199.45 46.6517 200.939 48.3746 201.361C50.321 201.886 52.2315 202.608 54.2274 202.924C63.5682 205.54 69.2902 198.682 75.0802 192.554C81.6842 184.803 88.1821 176.876 93.6104 168.246C98.4431 161.77 103.382 155.366 108.415 149.046C112.19 144.824 116.214 140.588 119.306 135.888C120.483 134.787 121.267 132.639 119.415 131.799ZM56.4449 120.006C56.9312 120.127 57.5608 120.188 58.2842 120.188C62.9314 120.188 71.4067 117.705 70.0538 113.273C70.266 112.924 70.366 112.504 70.3103 112.088C69.7292 109.974 67.725 110.471 65.8434 110.97C65.0026 111.193 64.1834 111.415 63.5301 111.405C61.6547 111.485 59.7948 111.368 57.9308 111.249C55.906 111.12 53.8771 110.992 51.8234 111.12C50.1933 111.035 47.51 111.405 48.1633 113.657C47.9418 113.705 47.7285 113.792 47.5379 113.916C47.7759 114.449 47.8748 115.057 47.9593 115.619C48.0459 116.194 48.0428 116.785 48.0562 117.366C50.3149 118.972 54.8869 119.809 56.4449 120.006ZM87.9183 102.599C88.3469 103.784 89.9276 103.986 90.7891 103.245C90.8066 103.254 90.8241 103.263 90.8416 103.272C91.158 103.017 91.4702 102.757 91.7721 102.486C92.2286 102.076 92.6655 101.644 93.0972 101.208C93.19 101.112 93.2827 101.012 93.3775 100.911C93.5764 100.7 93.7804 100.481 93.9978 100.281C93.9782 100.107 93.9319 99.9258 93.8546 99.7383C91.6165 95.0931 90.178 90.1223 88.0419 85.436C85.7771 80.8093 83.7791 76.0622 82.0448 71.2109C82.0881 71.1851 82.1304 71.1604 82.1737 71.1357C83.3999 70.8121 84.7229 70.8502 84.7951 69.15C84.7951 68.4926 84.4272 67.9073 83.8903 67.592C82.5137 65.8568 80.3879 67.963 78.8412 68.5441C76.7309 69.4746 77.2194 72.0311 77.8088 73.8014C80.6847 83.574 84.2871 93.09 87.9183 102.599ZM42.3795 89.128C44.3724 90.8436 46.2292 87.7987 47.341 86.4015C48.0582 85.3164 48.3612 84.0696 48.7146 82.8434C49.2999 80.8526 46.4064 79.6687 45.3925 81.4575C44.9968 82.2808 44.9834 83.2504 44.5249 84.0634C43.8098 85.7544 40.5794 87.0877 42.3795 89.128ZM60.6336 80.9855C60.954 84.0459 65.2489 82.6538 66.5379 81C68.0795 79.4523 68.4411 74.805 65.3014 75.3058C63.1324 76.1116 64.6028 77.5604 63.765 78.698C62.6213 79.6285 60.8139 78.7145 60.6336 80.9855ZM60.5161 73.1213C62.9252 73.3449 62.715 70.368 62.7078 68.7255C62.7078 67.7425 61.8876 66.9222 60.9046 66.9222C59.0076 66.9604 59.0457 68.8935 59.0766 70.3093C58.7407 71.4984 59.1322 72.9358 60.5161 73.1213ZM75.5397 64.2122C78.5393 64.3451 81.9789 64.5955 84.6168 62.9417C85.8945 62.0617 85.2814 59.871 83.7595 59.7278C83.1083 59.6124 82.6342 59.9751 82.084 60.2533C79.3091 60.8365 76.2868 60.9973 73.5562 60.1338C75.4707 59.3888 74.6927 56.3439 72.636 56.6612C70.4742 56.8498 69.0285 59.4238 69.8631 61.3971C70.8575 63.5023 73.4418 63.9886 75.5397 64.2122Z" fill="#E4AE8A"/>
<path fill-rule="evenodd" clip-rule="evenodd" d="M24.9076 90.1337C20.3304 88.7735 18.5354 83.0505 21.1548 79.1627C23.9709 75.6706 29.6496 75.3748 33.3014 77.6933C34.8955 78.5877 36.0888 80.0633 36.7936 81.7336C41.2718 89.3722 30.6821 92.8056 24.9076 90.1337Z" fill="#FFAC8E"/>
<path fill-rule="evenodd" clip-rule="evenodd" d="M70.5783 42.2909C70.5814 42.2816 70.5834 42.2733 70.5865 42.2641C70.4855 42.498 70.3372 42.7133 70.1455 42.8947C70.1671 42.8761 70.1888 42.8576 70.2104 42.838C70.2588 42.7813 70.3083 42.7278 70.3557 42.6711C70.3959 42.6103 70.4371 42.5505 70.4794 42.4887C70.5113 42.4258 70.5443 42.3578 70.5783 42.2909ZM102.745 33.7476C103.037 38.5257 102.479 43.2718 101.923 48.0087C101.672 51.5987 100.852 55.1506 100.632 58.7334C100.72 60.719 98.0567 61.2085 97.253 59.7113C96.9552 59.6443 96.6584 59.4836 96.3885 59.2053C94.8572 57.7813 93.8835 55.9585 92.8809 54.1562C91.3651 51.6945 89.9442 49.1782 89.2579 46.3466C89.0436 45.3152 88.517 44.2847 88.2068 43.2419C87.4969 43.5531 86.7818 43.852 86.0574 44.1302C81.1937 45.9901 75.5439 46.8278 70.467 45.4151C68.3144 44.4723 67.385 43.3058 67.1707 42.2744C66.3813 42.6154 65.6023 42.9143 65.0789 43.2399C62.1689 44.6639 58.8963 44.8556 55.7762 44.057C54.6788 43.9488 53.3011 43.3862 52.6612 42.5557C50.4179 43.6201 47.9624 44.4249 47.001 44.7907C41.0307 46.6042 36.7411 46.5146 31.2685 43.3058C28.9685 47.2359 24.1348 59.3846 20.079 60.7685C18.183 62.5357 16.1232 67.1541 13.1061 66.3441C10.1787 65.5126 10.7207 62.2801 10.9463 59.9225C11.408 55.4319 10.8979 50.626 12.2601 46.3147C12.2828 44.7525 12.6517 36.5534 14.2107 32.2174C14.0747 31.1426 14.5539 29.8113 14.9156 28.8788C15.9151 24.8199 19.2279 22.5911 22.4542 26.1904C25.5496 21.8502 27.6249 16.8022 31.2922 12.8618C33.2108 10.8556 35.1192 8.30939 37.9796 7.71792C41.8881 7.50874 41.8077 12.429 41.3564 15.1854C45.1257 10.7742 49.0619 6.28872 54.4768 3.88576C58.0514 2.19688 64.134 -0.257596 63.8341 6.14652C63.4838 8.7535 62.5368 11.2348 61.9814 13.7985C66.1948 9.4511 70.1455 4.07742 76.1766 2.23707C82.9939 1.07372 81.1783 10.5516 79.8109 14.6682C80.7713 13.4564 81.7966 12.3044 82.9774 11.2966C88.6046 6.07336 98.3504 3.8569 98.4246 14.4198C98.5029 18.5426 96.7821 22.4139 96.27 26.4645C102.125 24.2851 102.509 29.3394 102.745 33.7476Z" fill="#C68974"/>
<path fill-rule="evenodd" clip-rule="evenodd" d="M28.1525 61.8371C26.104 61.867 25.6949 58.8179 27.6723 58.2945C28.4214 58.111 29.2015 57.9977 29.9516 57.7978C32.0939 57.2063 38.0776 54.4561 39.0874 57.4577C39.5501 59.2651 37.6366 59.9019 36.2125 60.0287C33.5056 60.5562 30.8996 61.5382 28.1525 61.8371Z" fill="#C68974"/>
<path fill-rule="evenodd" clip-rule="evenodd" d="M82.0572 61.8999C80.0159 61.6176 71.824 61.4383 71.7828 58.9498C71.6426 56.349 75.0513 56.4603 76.8638 56.7426C79.1895 57.399 83.203 57.2795 84.6374 59.362C85.37 61.0127 83.5791 62.2575 82.0572 61.8999Z" fill="#C68974"/>
<path fill-rule="evenodd" clip-rule="evenodd" d="M70.7235 20.657C70.0136 19.6348 70.9976 18.59 71.5097 17.7254C72.3877 16.3086 73.2542 14.8866 74.0209 13.4069C75.4254 10.5433 76.1353 7.25421 75.9117 4.06813C74.328 2.22057 77.6047 0.534786 78.1519 3.05934C81.3246 2.14638 79.4925 11.312 79.0082 12.8845C78.5465 15.204 73.3995 23.3289 70.7235 20.657ZM82.7713 61.3177C79.7109 61.0024 76.7216 60.8159 73.6942 60.5768C73.1306 60.5305 72.4186 60.4109 71.9003 60.3089C70.0249 60.1306 70.6535 57.3815 72.4402 57.9729C76.0055 58.4985 79.5357 58.518 83.0969 58.9343C84.6415 59.125 84.3097 61.5362 82.7713 61.3177ZM26.3038 60.3625C26.3017 59.6711 26.9138 59.1095 27.6011 59.162C29.3528 58.9797 31.1159 58.8632 32.8501 58.5531C34.4854 58.5726 37.6478 55.9481 38.5742 57.8235C39.6458 60.2965 31.0768 61.2806 29.4394 61.3919C28.2977 61.4836 26.3955 62.0266 26.3038 60.3625ZM46.8495 33.2787C45.5275 32.441 46.7939 31.156 47.2658 30.2049C47.4874 29.4589 48.2169 28.8778 49 29.2157C49.6039 29.4703 49.8944 30.1874 49.6399 30.7913C49.0752 31.8268 48.3962 34.0505 46.8495 33.2787ZM39.4747 35.2159C41.7376 37.2737 46.0582 28.4749 46.1509 26.6386C46.2344 25.9895 45.7768 25.3733 45.1236 25.2846C43.9561 25.1208 43.7448 26.3542 43.4996 27.2074C42.2281 32.2236 37.9023 33.5621 39.4747 35.2159ZM28.1771 40.7967C26.005 43.041 22.4129 45.1977 20.4809 42.0312C18.6055 37.115 20.2305 31.4858 22.245 26.8509C22.8488 25.8205 21.7689 24.8622 20.8724 25.0878C20.6983 24.9714 20.4788 24.9013 20.216 24.9003C14.0613 25.3207 13.3235 39.0151 12.6877 43.786C12.2405 49.2308 9.74688 60.956 12.3044 65.4611C14.4982 68.6492 18.2551 63.3518 19.9832 61.8226C21.365 60.2203 27.2065 53.5648 26.2935 51.7357C28.2256 49.3503 29.2477 46.0818 31.6322 44.1415C35.6879 45.3584 39.9518 46.7227 44.2322 45.7685C46.9237 45.4316 49.0732 43.4532 51.7523 43.1585C56.075 44.9257 60.7428 44.5516 65.3066 43.9313C67.2654 43.6026 68.8141 45.0431 70.6401 45.4532C76.5908 46.8742 82.5477 44.8071 88.3181 43.583C89.5525 45.9118 96.2122 63.3786 99.6054 59.4578C100.386 58.0183 100.254 56.2501 100.707 54.6879C101.44 51.3936 102.185 47.7325 102.442 44.2868C102.78 40.569 102.913 36.8347 102.841 33.1025C102.672 32.2637 102.971 30.8428 102.763 29.8288C102.816 29.6722 102.865 29.5125 102.906 29.3497C103.082 28.7191 102.697 28.0441 102.066 27.871C102.025 27.8607 101.985 27.8514 101.946 27.8453C101.771 27.566 101.538 27.2754 101.241 26.9756C99.6538 25.466 97.2395 26.2697 95.2704 26.1007C95.36 25.6948 95.4476 25.2867 95.5208 24.8766C97.0582 22.3273 97.8918 19.3205 98.3009 16.4054C98.5049 14.5177 99.0768 9.23985 96.5553 8.84725C96.4142 7.99406 96.2627 6.79567 95.1519 6.79567C94.7778 6.79567 94.4399 6.9729 94.2183 7.24803C91.8298 6.22687 92.0256 9.91581 91.6433 11.5109C91.0879 14.1076 90.2213 16.628 89.0136 18.9939C87.1249 22.893 84.386 26.3233 81.1288 29.1694C80.5219 29.6629 79.9046 30.1421 79.2864 30.6171C77.6789 31.427 76.2806 32.7099 74.601 33.4384C70.7328 35.1603 65.0469 37.8342 61.123 35.0119C60.6408 34.407 60.8592 33.6806 60.9252 32.9768C61.6321 31.7959 62.2833 30.578 62.9149 29.3559C63.7104 28.0143 61.6083 26.7963 60.8386 28.142C60.4388 28.8427 60.073 29.5558 59.7021 30.2709C59.496 30.6758 59.2796 31.0736 59.0519 31.4652C58.6273 31.6661 58.2265 32.0041 57.94 32.3379C54.8147 34.8378 51.1794 36.979 47.3246 38.3443C42.6145 40.1311 36.7008 41.4016 32.4235 38.1166C33.2242 36.5514 33.8177 35.2747 34.0269 34.7656C34.4576 33.2653 32.1113 32.6285 31.7084 34.1257C30.6852 36.4246 29.4858 38.6462 28.1771 40.7967ZM33.9568 23.3413C33.5292 22.1872 34.5359 21.1094 34.9491 20.1037C36.1805 17.7131 37.1893 15.1998 37.7034 12.5537C37.9209 11.2234 38.1032 9.88799 38.1022 8.53916C38.0888 6.9863 40.5217 6.98115 40.5062 8.53916C40.5062 9.18833 40.4691 9.83749 40.4083 10.4836C41.9004 11.6747 40.9101 17.238 40.1868 18.8991C39.5098 20.6354 35.8466 26.1389 33.9568 23.3413ZM55.5422 20.8291C53.0166 19.7564 55.7586 17.1824 56.3521 15.6409C57.4413 13.4306 58.1791 11.0689 58.7098 8.66796C58.9993 7.06152 59.326 5.41902 59.123 3.78476C58.9066 3.4138 58.9189 2.91198 59.1384 2.54C59.7247 1.51163 61.3147 1.94132 61.4332 3.07994C66.6554 2.9058 60.5419 21.7936 55.5422 20.8291Z" fill="#B0735E"/>
<path fill-rule="evenodd" clip-rule="evenodd" d="M103.627 195.881C103.93 199.097 103.624 200.614 99.9486 200.493C96.4008 200.431 92.8541 200.192 89.3074 200.467C86.5788 200.708 83.8708 201.241 81.1227 201.246C77.5811 201.184 74.0529 201.055 70.535 201.516C69.3273 201.512 68.335 200.431 68.5401 199.215C69.0141 197.344 71.1636 196.531 72.5186 195.356C74.9803 193.627 76.9999 191.393 79.1906 189.352C80.4065 188.095 81.8409 186.936 82.8208 185.505C84.3345 182.301 86.0378 179.171 88.4088 176.514C89.3238 175.292 90.5449 174.375 91.463 173.175C92.9994 171.221 94.3132 169.106 95.8722 167.17C97.6281 165.39 98.4565 163.091 99.4818 160.868C100.02 159.265 102.152 158.545 103.139 160.184C104.162 163.408 103.322 166.983 103.155 170.305C102.617 174.151 103.062 178.001 103.312 181.848C103.663 186.52 103.45 191.205 103.627 195.881ZM91.4692 127.488C91.2796 126.821 90.7603 126.349 90.1492 126.053C87.5371 123.751 84.5797 121.87 81.1938 120.945C80.9506 120.823 80.7136 120.758 80.4879 120.74C80.3766 120.55 80.2221 120.377 80.0222 120.238C78.1066 118.763 75.8726 117.878 73.6345 117.023C72.4258 116.241 70.5566 116.566 70.3392 118.181C70.6102 120.287 67.7013 122.271 66.3669 123.741C64.4782 125.713 61.9371 126.509 59.8392 128.05C56.1492 126.077 52.4623 124.043 49.1083 121.53C48.7724 119.222 48.5859 116.076 45.3987 117.655C44.2807 118.374 43.3307 119.327 42.5084 120.353C41.717 120.811 40.8412 121.096 40.0158 121.482C37.7076 122.692 30.949 125.774 30.3194 128.181C24.7943 131.274 21.7772 134.465 19.9121 140.635C19.469 143.201 18.3665 146.212 18.5344 148.905C18.5252 148.939 18.5138 148.971 18.5045 149.003C17.7276 155.141 20.1203 161.132 22.0698 166.861C25.09 172.768 19.7112 197.538 24.2966 200.063C25.2384 200.658 26.3039 200.213 27.3085 200.102C29.2509 200.073 31.1757 200.472 33.1212 200.405C36.8616 199.975 40.4146 201.103 44.0685 201.588C49.0423 202.262 48.3695 196.892 45.3256 197.816C44.9536 197.283 44.2848 196.995 43.7975 196.557C42.7413 195.532 41.9684 194.242 41.1328 193.039C37.6468 187.511 32.6884 185.604 32.4184 177.881C35.7302 173.352 40.4681 170.302 44.8918 166.977C47.5606 165.022 50.0089 162.75 52.789 160.954C53.9534 160.545 55.3774 162.411 56.3563 163.002C57.9339 164.42 58.7005 166.473 59.9134 168.155C60.9541 169.271 62.9377 168.52 63.0232 167.035C63.5085 166.67 63.9042 166.098 64.1752 165.552C65.1139 164.264 66.1464 163.04 67.1717 161.82C72.0436 156.835 77.4708 152.398 83.0351 148.212C84.6416 146.968 85.9059 145.387 86.8962 143.637C87.3763 143.423 87.7679 143.005 87.9307 142.465C88.7891 139.672 89.6494 136.874 90.4274 134.057C90.8942 131.921 92.0009 129.695 91.4692 127.488Z" fill="#FFD66D"/>
<path fill-rule="evenodd" clip-rule="evenodd" d="M44.426 123.689C44.3868 123.622 44.3549 123.55 44.3291 123.477C44.2117 123.407 44.1066 123.318 44.019 123.212C43.4656 123.377 42.8031 123.172 42.4888 122.669C42.4177 122.677 42.3487 122.678 42.2806 122.674C42.3487 122.825 42.3827 122.991 42.3713 123.161C42.3672 123.251 42.3559 123.335 42.3383 123.413L42.3785 123.435C45.4028 124.967 48.2169 126.835 51.0413 128.686C51.2 128.764 51.3587 128.843 51.5174 128.921C52.0986 129.022 52.4706 129.339 52.655 129.718C55.6958 131.317 58.9066 132.463 62.1009 133.67C62.2782 133.234 62.711 132.836 63.1983 132.823C63.8166 132.493 64.4184 132.13 65.0088 131.748C65.5044 131.246 66.2371 130.89 66.7379 130.438C66.9326 130.292 67.1325 130.148 67.3365 130.009C70.4701 127.113 73.1296 123.781 76.4455 121.068C77.9963 119.555 80.0304 119.856 79.9758 121.225C80.8496 121.377 81.811 121.765 82.4364 121.908C84.5509 122.409 91.2033 125.756 90.8818 128.205C91.7618 129.008 91.8226 130.266 91.2662 131.267C91.0951 131.735 90.8911 132.306 90.582 132.734C90.7056 132.907 90.8303 133.079 90.9622 133.246C91.6948 134.18 90.7448 135.275 89.8329 135.176C90.0719 136.703 90.0729 138.187 89.4969 139.016C89.1641 140.46 89.4732 142.988 87.7267 143.491C87.195 143.545 86.6736 143.279 86.4541 142.768C86.2511 139.743 86.5674 136.499 85.1681 133.696C82.0552 127.669 74.769 128.452 69.5272 131.46C69.0615 131.82 68.5947 132.178 68.1289 132.536C66.2917 134.009 64.1659 136.346 61.63 136.054C57.7876 134.615 53.8781 133.243 50.3221 131.149C50.149 131.028 49.9769 130.909 49.8038 130.789C46.1118 129.091 42.53 126.887 38.2908 127.462C35.6282 127.734 32.8151 127.924 30.4256 129.231C29.0901 130.024 27.8557 127.925 29.2128 127.156C30.168 126.604 31.2066 126.215 32.2731 125.944C33.0253 124.687 35.6292 123.641 37.9724 122.889C38.1435 122.399 38.6206 122.037 39.3872 122.186C39.5356 122.232 39.6819 122.279 39.8282 122.329C40.3414 122.182 40.8009 122.055 41.1719 121.95H41.1781C40.9545 121.519 40.9576 120.974 41.3213 120.534C41.7314 120.047 42.292 119.696 42.7773 119.287C43.5883 118.61 45.0515 117.374 46.0273 117.906C46.9609 117.434 47.8965 117.195 48.4704 118.206C48.6848 118.834 48.4869 119.26 48.1057 119.582C48.1304 119.669 48.1469 119.758 48.1541 119.849C48.2963 120.704 49.0629 121.613 48.4127 122.427C47.3545 123.181 45.5966 125.306 44.426 123.689ZM103.544 165.453C103.662 170.486 102.031 174.446 99.7363 178.803C97.6384 183.355 95.1447 187.696 92.0689 191.662C90.9272 193.128 83.608 202.929 82.0459 199.944C79.1339 200.513 76.2446 201.439 73.246 201.259C71.924 201.224 69.7715 200.974 69.8446 199.235C70.1548 197.791 73.3975 196.039 74.5073 194.763C76.8793 192.681 78.7846 190.189 80.8012 187.796C86.4695 180.919 90.2564 172.721 95.9423 165.85C97.5003 163.885 98.6863 161.6 100.474 159.832C103.91 157.396 103.566 163.491 103.544 165.453ZM46.2612 197.897C45.7759 197.825 45.2895 197.783 44.8031 197.76C44.0664 197.126 43.4368 196.365 42.7526 195.68C42.7794 195.386 42.7 195.08 42.5156 194.823C41.5861 193.541 40.6278 192.278 39.7365 190.968C37.147 186.755 33.7497 183.12 31.0078 179.008C30.981 178.973 30.9542 178.938 30.9274 178.902C32.1124 179.159 32.9666 177.835 33.6704 176.927C34.673 175.732 35.6416 174.5 36.8204 173.472C40.4444 170.469 42.0539 170.856 38.4639 166.494C34.334 161.008 30.3153 155.381 27.3436 149.167C25.5774 145.284 23.7917 141.158 24.0956 136.802C24.0503 135.819 24.7541 134.888 24.5171 133.934C24.0658 132.716 22.4026 133.133 22.2069 134.153C21.7123 135.525 21.6123 137.022 21.6741 138.47C19.5648 138.43 19.3011 149.992 19.3773 151.874C19.2588 156.762 19.604 161.915 21.9359 166.305C22.686 167.62 23.431 168.965 24.2059 170.298C24.1523 170.36 24.1029 170.431 24.0585 170.51C23.0178 174.726 23.3393 179.285 23.1312 183.626C22.8468 187.03 23.7226 190.373 23.8978 193.714C24.0441 195.916 22.6407 200.349 25.9803 200.489C29.8372 200.601 33.6879 199.849 37.5407 200.057C39.7005 200.279 41.8705 200.097 44.0303 200.151C44.3281 200.316 44.6465 200.448 44.9886 200.535C45.5141 200.646 45.9273 200.524 46.2107 200.286C47.5142 200.207 47.7059 198.078 46.2612 197.897ZM39.7417 124.879C39.719 124.888 39.6953 124.897 39.6737 124.906C39.718 124.905 39.7612 124.905 39.8045 124.905L39.7417 124.879ZM70.1774 124.413C72.1043 126.39 73.7592 122.234 74.7711 120.985C76.1519 120.777 77.2843 119.07 75.9118 118.078C75.0174 117.486 73.9261 117.206 72.8854 116.989C70.8586 116.365 68.8059 118.601 69.959 120.484C69.8302 120.653 69.7065 120.827 69.6107 121.016C68.9203 120.693 67.995 120.993 67.7951 121.772C67.4375 123.336 69.5375 123.321 70.1774 124.413Z" fill="#F3AB55"/>
<path fill-rule="evenodd" clip-rule="evenodd" d="M165.616 121.497C165.798 122.463 165.078 123.268 164.223 123.484C164.344 124.133 164.122 124.836 163.368 125.288C156.579 128.586 149.501 131.239 142.581 134.238C135.86 137.319 129.26 140.693 122.29 143.189C120.035 143.783 117.274 146.09 115.018 145.571C113.344 144.845 113.858 142.811 115.027 141.852C116.22 140.36 117.45 138.902 118.741 137.49C119.313 136.842 119.832 136.149 120.272 135.408C119.871 134.745 120.064 133.809 120.164 132.939C117.935 131.495 116.99 131.264 117.447 128.21C118.016 125.455 113.33 126.346 114.516 123.187C113.536 121.148 109.817 122.746 110.248 119.675C108.728 118.773 106.655 118.716 104.901 118.689C103.199 118.764 100.776 119.763 99.7776 117.809C96.4328 109.854 93.5857 101.687 90.0843 93.7886C88.6531 90.3387 87.6371 86.7363 86.1955 83.2926C84.8096 79.7119 80.2437 70.2433 81.8697 66.9006C82.7497 66.137 83.4628 65.9989 84.0491 66.2524C86.1131 64.7284 90.0689 64.0844 92.0349 63.1405C100.101 60.6036 107.793 57.6865 115.669 54.7456C120.911 52.9918 126.407 51.0381 131.568 49.2194C132.763 49.0092 134.297 47.9396 135.647 47.6336C136.171 46.0241 138.677 46.1065 139.11 47.7552C139.526 48.8557 139.921 49.9655 140.3 51.0783C140.805 51.4998 141.219 52.2303 141.374 53.3257C144.141 60.3738 146.442 67.458 149.098 74.4773C149.675 76.1919 150.306 77.8921 151.029 79.5491C151.277 80.123 151.219 80.6465 150.979 81.0638C151.538 81.7027 151.694 82.7042 150.885 83.6224C149.156 87.2608 147.581 91.4959 148.556 95.5444C148.945 95.4589 149.289 95.4434 149.586 95.4836C150.12 95.0395 150.802 94.9117 151.62 95.2703C153.908 96.8118 150.542 99.628 152.322 101.858C153.039 101.855 153.135 101.04 153.634 100.675C154.585 99.899 156.192 100.408 156.475 101.624C156.679 102.892 156.399 104.205 156.598 105.48C158.168 104.763 159.391 106.121 159.862 107.502C161.837 109.875 162.943 112.77 163.953 115.702C164.587 117.61 165.236 119.522 165.616 121.497Z" fill="white"/>
<path fill-rule="evenodd" clip-rule="evenodd" d="M113.836 145.578C112.392 143.578 115.951 142.499 116.857 141.1C118 140.117 118.133 137.87 119.75 137.567C120.565 136.293 119.823 133.603 121.689 133.346C122.889 133.361 123.052 134.666 122.755 135.585C122.481 137.446 121.803 139.186 120.808 140.727C121.781 140.441 122.642 140.195 123.054 139.956C132.36 136.516 141.256 132.034 150.512 128.423C154.661 126.639 158.704 124.621 162.876 122.888C161.342 118.558 159.692 114.227 158.669 109.744C158.428 109.672 158.199 109.557 157.993 109.393C157.571 109.07 157.308 108.638 157.184 108.151C154.995 108.353 153.707 106.038 153.953 104.089C150.695 104.886 148.862 100.805 149.957 98.1833C149.977 98.1483 149.999 98.1143 150.02 98.0823C149.524 98.1916 149.014 98.2256 148.508 98.1699C146.288 97.8866 147.148 94.6541 149.165 95.7876C149.969 95.6742 150.754 95.293 151.293 94.6809C152.237 93.4454 154.164 94.9303 153.196 96.1503C152.676 96.7624 152.008 97.2827 151.266 97.6455C151.922 97.8309 152.458 98.5234 152.083 99.2972C151.788 102.026 153.802 102.606 155.268 100.408C156.22 99.4209 157.859 100.689 157.156 101.865C156.644 102.823 155.532 105.49 157.174 105.739C158.15 105.179 159.182 105.466 159.486 106.302C159.617 106.296 159.755 106.311 159.899 106.354C160.346 106.485 160.672 106.856 160.759 107.289C161.382 107.68 161.682 108.628 160.991 109.215C161.163 109.923 161.37 110.623 161.56 111.326C162.648 115.273 164.076 119.112 165.447 122.96C165.608 123.518 165.378 123.961 165.008 124.215C164.914 124.491 164.704 124.735 164.348 124.882C154.443 129.383 144.408 133.575 134.391 137.816C130.366 139.912 125.981 141.554 121.698 142.961C120.531 143.094 118.621 144.545 117.358 144.389C117.251 144.468 117.143 144.545 117.034 144.622C116.148 145.273 114.931 146.542 113.836 145.578ZM118.671 131.694C119.714 132.78 121.428 131.174 120.422 130.053C120.432 130.065 120.442 130.075 120.451 130.085C120.474 130.119 120.496 130.153 120.519 130.186C119.409 127.96 116.89 130.034 118.671 131.694Z" fill="#EDDFDF"/>
<path fill-rule="evenodd" clip-rule="evenodd" d="M122.282 121.177C112.876 119.329 115.259 106.781 113.722 99.8124C112.466 92.4181 105.055 86.862 106.63 78.8463C106.306 75.7076 107.639 72.9348 109.797 70.8069C109.949 70.7842 110.099 70.7441 110.246 70.6843C110.475 70.5905 110.681 70.4298 110.891 70.303C111.205 70.1155 111.525 69.9403 111.847 69.7672C112.921 69.217 114.01 68.6832 115.138 68.2576C115.773 68.0443 116.418 67.8856 117.069 67.7352C118.202 67.492 119.349 67.3179 120.502 67.2107C121.295 67.154 122.087 67.1386 122.883 67.1262C123.691 67.1139 124.495 67.1159 125.302 67.1602C125.742 67.1942 126.181 67.2385 126.618 67.2952C131.657 68.9769 135.921 72.8255 138.93 77.2017C143.664 84.2849 141.63 96.0874 140.272 104.118C139.391 107.952 137.961 111.827 135.232 114.74C132.326 117.968 128.388 121.319 123.882 121.32C123.357 121.32 122.824 121.274 122.282 121.177Z" fill="#F9C8A8"/>
<path fill-rule="evenodd" clip-rule="evenodd" d="M114.189 106.698C113.519 104.917 114.14 102.813 113.888 100.925C113.657 98.5141 113.283 96.0297 112.194 93.8442C110.11 89.6472 106.34 85.9078 106.931 80.8618C106.999 79.0184 106.638 74.2784 109.064 74.027C110.895 70.4339 114.328 68.2545 118.229 67.7599C118.353 67.661 118.507 67.5806 118.695 67.5291C122.37 66.9026 126.268 66.6635 129.799 68.068C130.865 68.4925 130.624 69.8434 129.849 70.2649C129.06 69.9063 128.24 69.5425 127.388 69.3663C126.469 69.1757 125.519 69.0716 124.578 69.0922C123.685 69.1108 122.797 69.252 121.917 69.4034C121.399 69.4921 120.88 69.5848 120.364 69.693L120.329 69.6971L120.326 69.7012C119.976 69.7754 119.628 69.8568 119.281 69.9496C118.979 70.031 118.68 70.1206 118.385 70.2195C116.579 70.5008 114.787 70.9717 113.428 72.2742C110.91 74.806 109.027 78.6247 109.513 82.2416C111.455 89.3361 117.997 95.0065 116.912 102.873C116.799 104.121 116.627 107.179 115.262 107.179C114.963 107.182 114.61 107.037 114.189 106.698ZM132.233 78.3537C132.224 78.329 132.213 78.3043 132.202 78.2806C128.922 75.0883 122.903 73.0347 118.71 75.5541C117.811 74.6452 115.508 74.8627 114.682 80.125C111.928 80.9576 113.954 87.3999 114.658 89.3463C115.511 91.3845 119.158 92.2079 120.836 90.9724C124.549 91.1331 126.659 93.634 125.548 97.2961C123.523 99.0921 121.4 106.021 125.339 106.824C125.538 107.006 125.76 107.168 126.002 107.304C126.31 107.578 126.729 107.699 127.218 107.699C130.541 107.698 137.073 102.079 133.607 100.415C126.536 101.933 131.343 95.3383 129.59 91.7586C128.247 88.0903 124.219 87.3679 121.061 86.2355C120.971 86.1582 120.883 86.0789 120.796 85.9964C119.16 84.7877 118.777 82.5033 119.742 80.734C122.614 76.0569 131.057 78.8586 133.349 82.9402C134.136 85.8563 138.426 83.3864 133.185 79.14C132.884 78.8617 132.567 78.599 132.233 78.3537ZM121.674 120.229C122.068 120.274 122.457 120.293 122.846 120.293C127.632 120.293 132.017 117.095 135.201 113.735C142.524 104.86 142.369 91.9791 140.64 81.1617C140.208 79.8922 140.37 77.8622 138.965 77.2543C138.382 77.2079 138.01 77.3316 137.785 77.5665C138.24 78.6237 138.544 79.7335 138.735 80.8793C139.005 82.4919 138.979 84.1344 138.914 85.7615C138.908 85.9222 138.878 86.0778 138.828 86.2242C139.857 97.7897 135.934 112.554 124.962 116.957C123.847 117.237 122.443 117.565 121.193 117.423C120.932 117.467 120.67 117.499 120.408 117.52C120.252 117.533 120.098 117.539 119.945 117.539C118.985 117.539 118.048 117.3 117.219 116.833C116.392 118.145 119.426 119.916 120.897 119.779C121.084 120.019 121.356 120.19 121.674 120.229Z" fill="#E4AE8A"/>
<path fill-rule="evenodd" clip-rule="evenodd" d="M48.8465 112.098C43.3863 111.875 38.0971 110.175 33.1026 108.045C28.0277 105.951 23.5433 102.303 20.4046 97.8041C16.5044 91.5587 15.4008 84.084 14.8279 76.8669C14.6167 73.959 14.4889 71.0439 14.4714 68.1288C14.5136 67.3024 14.3271 66.4152 14.6373 65.6311C15.066 64.884 16.2664 65.1653 16.2664 66.0515C16.1077 66.9119 16.2015 67.8011 16.1943 68.677C16.2169 71.0181 16.321 73.5509 16.4735 75.8138C17.1495 85.0021 18.5478 95.3342 26.0555 101.572C28.6398 103.884 31.6012 105.704 34.8522 106.91C38.4927 108.432 42.2971 109.582 46.2055 110.158C48.5518 110.463 50.9249 110.436 53.2866 110.445C57.8411 110.436 62.3997 110.48 66.9418 110.106C70.7483 109.951 74.5711 109.224 78.1271 107.88C82.4271 106.351 86.8755 104.775 90.3872 101.762C90.7303 101.458 91.0662 101.147 91.3929 100.825C92.1729 100.06 93.4063 101.204 92.6088 102.039C88.8529 105.827 83.7317 107.724 78.7969 109.46C74.4423 111.162 69.8054 111.754 65.1613 111.939C59.733 112.249 54.283 112.198 48.8465 112.098Z" fill="#693738"/>
<path fill-rule="evenodd" clip-rule="evenodd" d="M17.5895 91.3433C13.3101 90.2758 9.32958 88.147 6.10536 85.1309C4.00638 83.3101 2.2629 81.0442 1.25514 78.4413C-0.141094 74.9977 -0.599636 70.7234 1.74459 67.5848C4.45152 63.7423 10.563 62.3718 14.1262 65.8052C14.7239 66.3297 15.2999 66.8892 15.7254 67.5229C15.8553 67.7125 15.9284 67.9279 15.8965 68.1639C15.8264 68.8903 14.7878 69.1799 14.3673 68.5719C14.253 68.3988 14.1324 68.2329 13.9954 68.0773C13.1937 67.221 12.3044 66.3833 11.206 65.934C7.6644 64.6254 3.44171 66.8243 2.21138 70.3329C1.29532 73.2088 2.10318 76.2847 3.35 78.9349C5.40571 82.8804 9.12968 85.8213 13.0123 87.8584C14.659 88.6323 16.3046 89.2402 18.048 89.6854C19.1207 89.9955 18.689 91.6164 17.5895 91.3433Z" fill="#693738"/>
<path fill-rule="evenodd" clip-rule="evenodd" d="M15.1165 82.5363C13.5925 80.258 11.8243 78.0024 9.30282 76.7855C8.59182 76.4568 7.85301 76.0971 7.05649 76.0827C6.14662 75.9622 6.0611 74.6432 6.94829 74.4C9.19875 74.2784 12.0747 76.2692 13.6059 77.8324C14.7218 79.0122 15.7111 80.3116 16.5993 81.6697C16.8559 82.0613 16.6797 82.6187 16.2902 82.8454C15.8831 83.0865 15.3751 82.933 15.1165 82.5363Z" fill="#693738"/>
<path fill-rule="evenodd" clip-rule="evenodd" d="M15.3586 66.3926C14.6105 66.304 14.3529 65.3199 14.9186 64.8387C16.0346 63.9927 17.2062 63.2106 18.2479 62.2667C19.6524 61.0096 20.9095 59.5979 22.0399 58.0914C23.9637 55.4546 25.734 52.8126 27.2013 49.9088C27.9484 48.391 28.648 46.8495 29.2993 45.2884C29.7238 44.3321 30.037 43.3254 30.4976 42.3877C30.9624 41.5768 31.9495 41.7849 32.4843 42.4052C35.8177 45.616 43.9973 45.5171 47.9758 43.5459C49.2391 42.8988 50.4375 42.126 51.506 41.1893C52.3067 40.4773 53.0877 39.7436 53.8441 38.9852C54.1738 38.6534 54.7282 38.6534 55.0579 38.9852C55.3897 39.315 55.3876 39.8683 55.0579 40.1991C54.4057 40.8534 53.7338 41.4881 53.0475 42.1095C50.4096 44.5774 47.0412 46.2498 43.41 46.4929C39.7107 46.9618 34.6142 46.4641 31.6682 43.9952C29.8711 48.7176 27.6052 53.2577 24.6623 57.3753C22.6746 60.3048 20.3242 63.0272 17.4483 65.1179C17.0341 65.4199 16.5972 65.6981 16.1891 66.0113C16.016 66.2782 15.6863 66.4235 15.3586 66.3926Z" fill="#693738"/>
<path fill-rule="evenodd" clip-rule="evenodd" d="M57.056 45.2307C55.3898 44.9483 51.402 43.9025 50.6333 42.3558C50.3911 41.4511 51.5967 40.8668 52.1532 41.617C52.9342 42.2033 53.8657 42.5433 54.7705 42.8916C60.0792 44.9236 65.9197 42.6433 70.0167 39.0904C70.57 38.6122 71.2604 37.6416 72.0178 38.3567C72.3465 38.6864 72.3506 39.2439 72.0178 39.5705C68.1073 43.3244 62.578 46.0643 57.056 45.2307Z" fill="#693738"/>
<path fill-rule="evenodd" clip-rule="evenodd" d="M74.228 46.7114C72.5423 46.5867 66.234 44.903 66.6369 42.7309C66.7636 42.2868 67.2376 42.0034 67.6931 42.1312C68.0846 42.2054 68.1732 42.5784 68.4061 42.8174C70.7658 44.5279 73.8097 45.106 76.6774 45.1555C80.4642 45.0751 84.0892 43.6397 87.4433 41.9879C88.1491 41.6263 88.8488 41.2543 89.5402 40.8658C90.5171 40.3228 91.3754 41.7561 90.4068 42.3486C85.5081 45.0493 79.9428 47.511 74.228 46.7114Z" fill="#693738"/>
<path fill-rule="evenodd" clip-rule="evenodd" d="M96.8366 60.3872C95.5238 59.363 94.5593 57.9729 93.6392 56.6025C91.467 53.3597 89.8513 49.7934 88.588 46.1086C88.385 45.5429 88.1923 44.9679 87.945 44.4176C87.7039 44.1776 87.639 43.7757 87.7781 43.4604C87.9234 43.1049 88.3077 42.8926 88.6849 42.9441C89.232 43.0163 89.434 43.5243 89.6226 43.9694C91.1177 48.1993 92.7674 52.3798 95.3435 56.0677C96.0916 57.13 96.851 58.2254 97.8866 59.0291C98.7614 59.7298 97.7475 61.058 96.8366 60.3872Z" fill="#693738"/>
<path fill-rule="evenodd" clip-rule="evenodd" d="M80.3601 67.5137C80.1293 67.1211 80.257 66.5616 80.6671 66.34C82.1561 65.5353 83.7749 64.9953 85.3453 64.3781C87.84 63.4105 90.3078 62.3729 92.7726 61.3373C98.3411 59.1858 104.066 56.9982 109.686 55.0733C113.796 53.4875 118.037 51.9346 122.21 50.5755C127.492 48.7599 132.85 47.2503 137.92 44.9607C138.937 44.5516 139.638 46.0674 138.588 46.5434C131.751 49.5616 124.339 51.5214 117.347 54.0316C108.921 57.2321 100.366 60.0895 92.0235 63.5136C89.4938 64.579 86.9507 65.6064 84.388 66.5904C83.5493 66.9109 82.7126 67.2386 81.9037 67.627C81.4225 67.9547 80.7104 68.1227 80.3601 67.5137Z" fill="#693738"/>
<path fill-rule="evenodd" clip-rule="evenodd" d="M99.1242 118.401C96.511 111.902 93.4599 105.585 90.957 99.0375C88.2006 92.2501 85.4607 85.4524 83.4555 78.397C82.4281 75.2305 81.2112 72.1475 80.356 68.9284C80.2199 68.2154 79.7789 67.4188 80.1045 66.7161C80.6548 65.8732 81.8511 66.3626 81.7274 67.3498C82.5806 71.0027 84.0006 74.4876 85.1454 78.0518C86.8889 84.0479 89.0486 89.8904 91.4619 95.6412C94.0122 102.265 96.8469 108.771 99.7177 115.261C100.069 116.075 100.396 116.899 100.705 117.731C100.869 118.169 100.692 118.668 100.247 118.856C99.8331 119.035 99.287 118.838 99.1242 118.401Z" fill="#693738"/>
<path fill-rule="evenodd" clip-rule="evenodd" d="M150.945 80.5465C148.463 74.1053 146.251 67.5642 143.744 61.1322C141.942 56.1717 140.132 51.1711 137.766 46.4486C137.097 45.1812 138.96 44.497 139.407 45.8809C143.28 53.913 145.973 62.4501 149.17 70.7616C150.245 73.8178 151.348 76.8617 152.529 79.8788C152.934 80.9134 151.412 81.5862 150.945 80.5465Z" fill="#693738"/>
<path fill-rule="evenodd" clip-rule="evenodd" d="M10.5959 64.3183C10.2343 58.9343 10.53 53.5421 10.7969 48.1612C10.9288 45.3883 11.1245 42.6134 11.5532 39.8694C11.9242 37.1604 12.5548 34.4936 13.342 31.8763C14.29 28.6727 16.1572 23.5206 20.1954 23.6597C21.0775 23.7318 21.841 24.2728 22.3305 24.9889C22.8075 25.7308 23.8823 27.3229 22.587 27.7927C22.0461 27.9452 21.5844 27.5413 21.4773 27.0302C21.1887 26.2935 20.7415 25.3496 19.8327 25.3475C15.9078 26.0771 14.663 33.8022 13.7563 37.1202C12.8351 41.7818 12.5465 46.5239 12.3724 51.2638C12.1364 55.503 12.0458 59.7577 12.2941 63.9979C12.5909 65.2787 10.7268 65.6888 10.5959 64.3183Z" fill="#693738"/>
<path fill-rule="evenodd" clip-rule="evenodd" d="M22.3644 28.5233C21.3258 28.0349 21.9863 26.5737 22.281 25.8143C22.9456 24.1337 23.7246 22.5025 24.5191 20.8806C26.2378 17.6574 28.2471 14.528 30.7398 11.8458C32.3246 10.1837 33.8764 8.36605 36.0073 7.39539C37.6426 6.4917 40.0363 6.67924 41.1141 8.34132C41.9652 9.74786 42.4331 11.4223 42.3001 13.07C46.4775 7.72616 51.9759 2.94188 58.5768 0.988185C65.2849 0.0164911 64.3657 8.1373 63.1694 12.3878C62.7109 13.9963 62.175 15.577 61.5135 17.1144C61.0416 18.1407 59.5207 17.4946 59.9318 16.4467C60.2378 15.7346 60.5202 15.0144 60.7798 14.2838C61.834 11.0843 62.8263 7.56129 61.9617 4.2093C60.9076 1.42818 57.5917 2.97691 55.7215 3.92388C53.3422 5.1336 51.0835 6.57517 49.0886 8.35472C46.257 10.9555 43.3656 13.7119 41.889 17.339C41.5654 17.9408 41.4954 18.9826 40.6288 18.9918C39.9518 19.0001 39.6056 18.2664 39.8457 17.6801C40.2547 15.3596 41.0368 12.8824 40.263 10.565C39.8694 9.2718 39.215 8.39697 37.7364 8.5845C34.9676 9.36351 33.1819 11.8489 31.255 13.8191C28.65 16.9588 26.4851 20.4787 24.8385 24.2099C24.38 25.2702 23.8627 26.3161 23.5443 27.43C23.6947 28.1173 23.0868 28.8304 22.3644 28.5233Z" fill="#693738"/>
<path fill-rule="evenodd" clip-rule="evenodd" d="M76.8195 18.6569C76.4197 18.422 76.2724 17.8841 76.5124 17.4812C76.9081 16.8207 77.2708 16.1437 77.5934 15.5049C78.0097 14.6692 78.4064 13.8294 78.732 12.9535C79.4986 10.6577 80.1787 8.1981 79.6006 5.78175C79.3657 4.72659 79.0762 3.41588 77.8973 3.06863C75.8818 2.35454 73.3305 4.53596 71.5849 5.45613C70.3598 6.26089 69.3139 7.3006 68.3061 8.35782C65.7713 11.0751 63.5321 14.0581 61.3672 17.0732C60.8489 18.2407 59.1909 17.5884 59.7525 16.4086C61.7423 13.545 63.8742 10.7587 66.1772 8.1373C68.03 5.97959 70.1753 4.10627 72.706 2.78526C74.6742 1.56729 77.2471 0.423518 79.3853 1.9063C81.1999 3.20877 81.477 5.88891 81.543 7.96007C81.4719 10.2404 80.7743 12.4754 79.9324 14.5816C79.3544 15.8707 78.7176 17.135 77.9952 18.3509C77.7541 18.7538 77.2204 18.8939 76.8195 18.6569Z" fill="#693738"/>
<path fill-rule="evenodd" clip-rule="evenodd" d="M99.999 59.5144C99.5456 59.3898 99.2767 58.9106 99.3993 58.4583C99.5951 57.7308 99.7785 57.0002 99.9331 56.2624C100.241 54.6611 100.449 53.0403 100.728 51.4349C101.533 46.7289 101.946 41.9693 102.28 37.2108C102.391 34.5461 103.192 25.6772 98.7265 26.5964C97.9979 26.7705 97.3004 27.0333 96.5873 27.2631C96.2132 27.3836 95.8155 27.4362 95.4538 27.2538C94.7603 26.9065 94.8521 26.0482 95.1375 25.4547C96.3256 22.5653 97.7537 19.6698 97.9938 16.5105C98.2339 11.7768 97.3632 6.52569 91.296 8.12492C88.5324 8.53812 86.2696 10.0508 84.2376 11.8922C82.998 13.0153 81.6461 14.1282 80.5415 15.375C79.612 16.4755 78.7021 17.5966 77.8685 18.7723C77.6047 19.1587 77.0174 19.202 76.664 18.9279C76.292 18.6497 76.226 18.0892 76.5094 17.7234C77.2276 16.6981 78.0221 15.7212 78.8175 14.7526C80.3137 12.9617 82.1283 11.4635 83.8852 9.93744C85.3402 8.74626 86.8858 7.59734 88.6994 7.02339C90.4769 6.46799 92.3481 6.07642 94.2163 6.14031C98.7759 6.61534 99.9341 11.8932 99.7507 15.7254C99.7363 19.0979 98.3545 22.2387 97.0664 25.2908C106.635 22.0038 103.817 37.8023 103.534 43.0193C103.246 46.6124 102.695 50.1767 102.097 53.7276C101.847 55.4772 101.536 57.2145 101.056 58.9158C100.934 59.3692 100.44 59.6381 99.999 59.5144Z" fill="#693738"/>
<path fill-rule="evenodd" clip-rule="evenodd" d="M60.482 80.7485C60.277 79.8366 61.1384 79.6676 61.8061 79.4718C62.3399 79.2739 62.8726 79.0442 63.3054 78.6691C64.6779 77.4903 65.0747 74.8359 63.3775 73.7797C62.3327 73.3634 61.261 74.1383 60.2461 74.3454C58.3995 74.7813 58.5603 72.6751 58.6221 71.4612C58.6592 70.2701 58.7118 69.0799 58.7118 67.8887C58.7118 67.4209 59.1033 67.0304 59.5701 67.0304C60.0379 67.0304 60.4285 67.4209 60.4285 67.8887C60.4346 69.4364 60.3295 70.9811 60.3161 72.5288C61.8422 71.9084 63.7537 71.5128 65.0097 72.8709C66.8491 74.7813 66.4699 78.0426 64.6058 79.8046C63.7743 80.6176 62.6428 81.0514 61.5382 81.3503C61.0962 81.4708 60.6057 81.2039 60.482 80.7485Z" fill="#693738"/>
<path fill-rule="evenodd" clip-rule="evenodd" d="M32.102 72.3876C31.1427 71.6745 29.2364 67.0994 31.7074 67.592C32.0856 67.7527 32.3019 68.1793 32.2133 68.5719C32.3648 69.7703 33.0428 72.0094 34.6451 71.285C36.4731 70.7059 37.0182 68.6605 37.4963 67.0149C37.621 66.5636 38.1022 66.2905 38.5536 66.4152C39.0049 66.5389 39.2769 67.0201 39.1533 67.4714C38.941 68.2411 38.7009 69.0078 38.3846 69.7414C37.5736 72.0949 34.2979 74.3815 32.102 72.3876Z" fill="#693738"/>
<path fill-rule="evenodd" clip-rule="evenodd" d="M77.8974 72.7843C76.9123 72.7029 76.1292 71.9518 75.6912 71.1099C75.1688 70.1866 73.6963 66.2411 75.9282 66.7605C76.6227 67.0469 76.3857 67.8445 76.5413 68.4246C76.8299 69.7415 77.5945 72.0672 79.2586 70.6565C80.0335 70.1547 80.1386 68.4771 81.3195 68.8873C82.6899 69.5756 80.933 71.4427 80.2478 72.0672C79.5966 72.6112 78.7351 72.8441 77.8974 72.7843Z" fill="#693738"/>
<path fill-rule="evenodd" clip-rule="evenodd" d="M26.987 62.242C25.8278 62.039 24.7026 60.9014 25.2775 59.6886C25.6856 58.7859 26.5491 58.178 27.3466 57.636C28.7954 56.6931 30.476 56.1985 32.1227 55.7276C33.8507 55.2196 35.722 54.827 37.4716 55.4525C39.3542 55.9832 40.7123 58.1388 38.973 59.6721C37.111 61.191 34.605 61.5825 32.3154 62.0658C30.9387 62.3183 29.5466 62.4862 28.1699 62.7376C27.7083 62.9231 27.1612 62.7273 26.987 62.242ZM28.5512 60.7252C28.6955 60.7355 28.8274 60.7891 28.9376 60.8726C31.4714 60.3862 36.299 60.0307 38.06 58.1131C38.0373 58.145 38.0188 58.1728 37.9982 58.2038C38.2815 57.0888 35.7632 56.7519 34.9852 56.8601C32.3277 57.3609 28.6594 58.1553 26.8819 60.3079C26.8768 60.3192 26.8716 60.3306 26.8665 60.3419C27.3435 60.6891 27.9876 60.6572 28.5512 60.7252Z" fill="#693738"/>
<path fill-rule="evenodd" clip-rule="evenodd" d="M80.4178 61.9556C78.9371 62.1153 77.4378 61.9236 75.9571 61.8464C73.754 61.6341 70.1898 61.4053 69.9662 58.5789C70.2454 54.8178 75.6768 54.722 78.4095 55.6133C80.7434 56.3408 83.7348 57.0693 85.2887 59.0786C86.0986 60.3502 85.1052 61.5578 83.8172 61.869C82.929 62.1617 81.9995 62.2328 81.068 62.2565C80.8125 62.2647 80.5755 62.1421 80.4178 61.9556ZM80.8826 60.2574C81.0237 60.3162 81.1463 60.4141 81.237 60.5346C82.1572 60.4914 83.0238 60.4419 83.8316 59.9937C82.3849 58.3161 77.0947 56.7406 74.8628 56.855C73.9004 56.923 72.8905 57.1167 72.127 57.7463C71.1975 58.4985 71.89 59.3105 72.8133 59.5578C75.1018 60.2636 77.5707 60.2698 79.9479 60.2832C80.2643 60.2698 80.5724 60.108 80.8826 60.2574Z" fill="#693738"/>
<path fill-rule="evenodd" clip-rule="evenodd" d="M41.4068 88.7446C40.9225 87.9028 41.9303 87.4586 42.4527 87.0063C43.5284 86.0408 44.4033 84.83 44.8732 83.4565C45.1977 82.6692 45.205 81.7078 45.7449 81.0308C46.5105 80.3106 47.6491 81.2936 47.0463 82.1509C46.662 83.4513 46.3446 84.795 45.5821 85.9398C44.8072 87.1701 43.7974 88.251 42.5805 89.0527C42.194 89.3124 41.6325 89.131 41.4068 88.7446Z" fill="#693738"/>
<path fill-rule="evenodd" clip-rule="evenodd" d="M57.7875 90.5778C53.2289 90.4552 48.8805 88.7993 45.0515 86.3922C45.1679 86.455 45.2946 86.4808 45.4245 86.4829C44.3034 86.4458 44.3013 84.7847 45.4276 84.7651C46.5219 85.0372 47.4019 85.8852 48.4313 86.3438C50.2829 87.2742 52.2377 87.9914 54.2625 88.4345C55.2836 88.6365 56.313 88.758 57.2352 88.8271C57.8473 88.8137 58.65 88.9435 58.6469 89.7194C58.6459 90.1697 58.2512 90.6015 57.7875 90.5778Z" fill="#693738"/>
<path fill-rule="evenodd" clip-rule="evenodd" d="M47.4832 119.801C46.9783 119.589 46.8536 119.005 47.0741 118.541C47.2699 117.978 47.3781 117.392 47.4235 116.797C47.5121 115.274 47.3142 113.753 47.0793 112.255C47.0978 111.194 48.6425 111.101 48.7898 112.147C49.0794 113.886 49.2854 115.673 49.0855 117.435C48.8887 118.309 48.8176 120.232 47.4832 119.801Z" fill="#693738"/>
<path fill-rule="evenodd" clip-rule="evenodd" d="M69.5169 118.52C68.8719 116.86 68.8101 115.042 68.9265 113.284C69.0708 112.486 68.774 111.042 69.9219 110.978C70.7452 111.014 70.8771 111.783 70.7174 112.45C70.5546 114.246 70.4557 116.134 71.0997 117.851C71.5067 118.902 69.9755 119.55 69.5169 118.52Z" fill="#693738"/>
<path fill-rule="evenodd" clip-rule="evenodd" d="M60.31 128.243C58.9241 128.203 57.7401 127.366 56.5428 126.756C55.8225 126.365 55.1094 125.962 54.4015 125.548C51.945 124.108 49.4462 122.625 47.4276 120.591C46.8608 120.052 46.8753 119.02 47.7697 118.867C48.5198 118.753 48.6878 119.594 49.2061 119.933C51.0866 121.575 53.2176 122.882 55.3732 124.126C56.9354 124.957 58.4336 126.039 60.1451 126.52C61.5362 126.555 62.7387 125.653 63.8732 124.949C65.6085 123.779 66.9861 122.169 68.234 120.508C68.6967 119.877 69.1284 119.223 69.5756 118.581C69.8425 118.195 70.4237 118.15 70.7802 118.425C71.1635 118.722 71.2016 119.246 70.9348 119.63C70.5009 120.253 70.0826 120.89 69.6333 121.501C67.5168 124.366 64.0474 127.951 60.31 128.243Z" fill="#693738"/>
<path fill-rule="evenodd" clip-rule="evenodd" d="M62.2101 134.66C58.3203 133.716 54.8941 131.428 51.4061 129.588C48.1901 127.995 45.0164 126.219 42.2054 123.975C40.8184 122.856 38.6319 120.921 40.8679 119.424C41.9354 118.625 43.1297 117.972 44.3404 117.416C45.309 116.991 46.3055 116.545 47.3668 116.439C48.2293 116.347 49.0814 117.292 48.3869 118.029C48.1015 118.314 47.6904 118.342 47.3606 118.162C45.3008 118.682 43.3368 119.715 41.6531 121.001C43.2616 123.023 45.5749 124.317 47.7439 125.638C49.4545 126.719 51.267 127.601 53.0692 128.513C54.7148 129.404 56.3027 130.4 57.9812 131.232C59.5052 131.931 60.9077 132.532 62.443 132.956C62.8397 132.977 63.1344 132.57 63.4374 132.357C64.069 131.78 64.6667 131.166 65.2756 130.565C68.4133 127.538 71.5427 124.499 74.566 121.357C75.0101 120.815 75.7737 120.383 75.9499 119.689C75.4604 118.885 74.5289 118.487 73.6798 118.166C73.0853 117.969 72.4814 117.808 71.8683 117.678C71.1779 117.556 70.1867 117.519 70.2835 116.561C70.3464 116.104 70.7895 115.754 71.2511 115.827C72.9833 116.11 74.7597 116.526 76.2229 117.537C78.3858 119.08 77.9067 120.656 76.1055 122.245C74.9246 123.431 73.7839 124.657 72.5886 125.829C70.7462 127.634 68.9151 129.454 67.049 131.234C65.726 132.329 64.0618 134.907 62.2101 134.66Z" fill="#693738"/>
<path fill-rule="evenodd" clip-rule="evenodd" d="M30.5235 180.051C26.7253 176.137 23.5145 171.597 21.0178 166.752C20.2192 165.1 19.637 163.354 19.1393 161.593C18.0842 158.041 17.4329 154.376 17.6658 150.661C17.8224 147.005 18.0347 143.277 19.1486 139.769C20.3573 136.315 22.5222 133.245 24.986 130.57C26.8675 128.575 29.1262 127.011 31.3241 125.392C33.3469 123.821 35.6416 122.645 37.991 121.644C38.7494 121.335 39.3831 121.155 40.0622 120.878C40.4888 120.685 41.0091 120.913 41.1874 121.335C41.5367 122.245 40.5465 122.583 39.8767 122.775C39.2337 122.998 38.601 123.241 37.9776 123.515C35.3706 124.629 33.0419 126.16 30.8182 127.894C27.832 129.969 25.2199 132.499 23.2322 135.519C22.0668 137.319 21.0034 139.225 20.4799 141.32C19.4649 145.659 19.2496 150.176 19.4289 154.619C19.7524 157.639 20.5799 160.594 21.5206 163.473C23.3672 168.507 26.7356 173.064 30.1062 177.12C30.6338 177.708 31.1768 178.28 31.7353 178.836C32.5112 179.615 31.3478 180.846 30.5235 180.051Z" fill="#693738"/>
<path fill-rule="evenodd" clip-rule="evenodd" d="M30.7234 179.851C30.8192 178.933 31.6219 178.255 32.1227 177.528C33.8281 175.348 35.791 173.396 37.8849 171.591C40.599 169.253 43.2792 166.866 46.1489 164.716C48.5014 162.908 51.1558 161.428 53.2671 159.331C52.9982 158.211 52.2934 157.254 51.738 156.26C51.0476 155.076 50.2923 153.929 49.3875 152.895C48.8239 152.26 48.2314 151.655 47.6255 151.063C47.2906 150.735 47.2968 150.176 47.6255 149.849C47.9583 149.515 48.5045 149.521 48.8394 149.849C50.826 151.685 52.4211 153.879 53.7215 156.245C55.9627 159.89 55.0415 160.358 51.9492 162.672C49.0774 164.754 46.1273 166.735 43.4523 169.075C40.5681 171.582 37.5273 173.941 34.9718 176.799C34.0836 177.846 33.149 178.872 32.4184 180.037C32.2041 181.005 30.7316 180.876 30.7234 179.851Z" fill="#693738"/>
<path fill-rule="evenodd" clip-rule="evenodd" d="M23.5042 201.618C23.3187 201.476 23.2239 201.28 23.1786 201.054C22.8375 199.37 22.6448 197.66 22.4552 195.954C22.2594 194.187 22.1306 192.418 22.0822 190.642C21.9977 186.97 21.8823 183.292 22.0461 179.621C22.144 176.528 22.5541 173.457 22.6366 170.366C22.6603 169.251 24.3265 169.229 24.3543 170.366C24.2183 174.307 23.6907 178.232 23.6845 182.182C23.6783 185.8 23.7278 189.422 23.9081 193.035C24.1276 195.641 24.3893 198.251 24.8798 200.822C25.022 201.55 24.0668 202.094 23.5042 201.618Z" fill="#693738"/>
<path fill-rule="evenodd" clip-rule="evenodd" d="M58.176 204.068C49.4648 203.773 43.207 197.067 38.2867 190.562C36.5638 188.357 34.9244 186.092 33.2737 183.833C32.6132 182.907 31.8919 182.01 31.3447 181.009C30.9655 180.406 31.2406 179.551 32.0238 179.538C32.4287 179.538 32.7719 179.829 32.8615 180.209C33.9445 181.995 35.2851 183.618 36.4896 185.324C41.6469 192.047 46.9073 200.286 55.7823 202.034C61.6929 203.472 66.6111 200.36 70.807 196.573C75.6634 192.237 79.7759 187.132 83.7008 181.957C86.926 177.339 90.3769 172.88 93.5651 168.234C97.5477 162.425 101.405 156.459 106.232 151.303C109.289 148.039 111.729 144.442 114.614 141.057C115.751 139.69 117.127 138.3 118.288 137.017C119.163 136.056 119.968 134.936 120.1 133.606C120.169 133.322 119.903 133.179 119.703 133.038C119.14 132.657 118.486 132.461 117.832 132.302C115.484 131.823 116.792 129.731 116.883 128.181C117.075 125.503 112.891 127.573 113.202 124.774C113.37 124.113 113.349 123.362 112.668 123.002C111.626 122.324 110.341 122.383 109.177 122.129C108.047 121.752 108.308 120.643 109.06 120.017C103.445 118.359 96.3637 120.657 93.8763 126.218C92.6325 128.764 91.8638 131.489 91.1642 134.221C90.2996 137.604 89.8061 141.189 87.8987 144.189C86.1367 146.857 83.7976 149.089 81.3421 151.11C78.8269 153.202 76.5074 155.318 74.0663 157.408C71.3006 159.807 68.8832 162.567 66.3772 165.228C64.6275 167.081 62.9624 169.007 61.4652 171.07C60.5738 172.266 59.7011 173.476 58.8252 174.682C58.5511 175.061 57.9823 175.117 57.6217 174.837C57.2435 174.544 57.1909 174.012 57.4661 173.633C59.6228 170.671 61.7248 167.657 64.2556 164.994C66.7647 162.311 69.2006 159.546 71.8993 157.052C73.7468 155.391 75.6469 153.789 77.4986 152.134C79.849 150.069 82.3756 148.187 84.452 145.829C87.2692 142.957 88.2532 139.526 89.0456 135.697C89.6639 133.017 90.3769 130.358 91.3311 127.777C93.0107 123.018 95.9247 119.846 100.854 118.432C102.58 117.87 104.402 117.682 106.209 117.82C107.892 117.951 111.542 118.067 110.693 120.616C112.906 120.818 115.572 122.148 114.939 124.778C116.373 124.841 117.97 125.519 118.466 126.967C118.836 128.167 118.42 129.428 118.163 130.61C121.606 131.429 122.799 132.971 120.978 136.295C119.829 138.175 118.088 139.647 116.67 141.301C114.323 143.918 112.31 146.802 110.079 149.513C108.403 151.46 106.82 153.202 105.191 155.096C100.409 160.67 96.6739 167.034 92.3481 172.952C86.8127 180.433 81.6379 188.238 75.0658 194.877C70.5051 199.385 65.0407 204.482 58.176 204.068Z" fill="#693738"/>
<path fill-rule="evenodd" clip-rule="evenodd" d="M60.4708 169.254C59.1456 167.25 57.4629 165.51 55.8647 163.728C55.2506 163.053 54.6303 162.381 54.0471 161.679C53.7606 161.303 53.3598 160.941 53.3454 160.44C53.3402 159.523 54.6458 159.259 54.993 160.104C57.2362 162.923 59.9823 165.353 61.9546 168.386C62.5028 169.361 61.0777 170.212 60.4708 169.254Z" fill="#693738"/>
<path fill-rule="evenodd" clip-rule="evenodd" d="M90.8849 128.116C87.6669 124.418 82.9413 122.296 78.3745 120.929C77.5872 120.614 76.1529 120.655 76.0869 119.562C76.0869 119.094 76.4774 118.703 76.9453 118.703C80.526 119.7 84.0913 120.978 87.3042 122.912C89.1476 124.022 90.8488 125.425 92.243 127.067C92.5459 127.424 92.446 127.995 92.0884 128.271C91.7123 128.565 91.1899 128.476 90.8849 128.116Z" fill="#693738"/>
<path fill-rule="evenodd" clip-rule="evenodd" d="M103.349 199.521C103.508 192.404 103.309 185.284 103.083 178.17C102.838 171.546 102.955 164.828 101.587 158.313C101.314 157.235 102.916 156.765 103.243 157.857C105.064 166.899 104.565 176.229 105.021 185.404C105.097 190.108 105.18 194.816 105.066 199.52C105.025 200.637 103.381 200.663 103.349 199.521Z" fill="#693738"/>
<path fill-rule="evenodd" clip-rule="evenodd" d="M103.885 183.73C103.885 183.361 104.12 183.059 104.411 182.937C106.837 182.088 108.87 180.458 110.799 178.803C114.635 175.42 117.517 171.176 120.147 166.829C124.027 160.749 127.362 154.337 130.408 147.804C131.681 145.168 132.937 142.319 133.881 139.591C134.214 138.815 134.315 137.303 135.506 137.709C136.277 138.056 135.984 138.87 135.739 139.464C135.185 141.104 134.562 142.72 133.896 144.318C130.235 152.538 126.172 160.608 121.318 168.196C118.482 172.9 115.242 177.434 110.956 180.929C109.2 182.353 107.338 183.729 105.181 184.467C104.635 184.803 103.869 184.381 103.885 183.73Z" fill="#693738"/>
<path fill-rule="evenodd" clip-rule="evenodd" d="M110.894 146.874C110.943 145.926 112.237 145.752 112.919 145.358C116.014 143.988 119.267 143.037 122.469 141.957C131.019 138.92 139.448 135.545 147.713 131.796C153.716 129.097 159.902 126.689 165.613 123.416C166.016 123.177 166.553 123.324 166.788 123.726C167.025 124.131 166.881 124.662 166.48 124.899C165.06 125.744 163.572 126.48 162.096 127.219C157.354 129.569 152.438 131.542 147.616 133.72C139.372 137.444 130.957 140.787 122.423 143.785C119.868 144.645 117.297 145.406 114.809 146.431C113.959 146.776 113.11 147.129 112.292 147.545C111.776 147.992 110.853 147.575 110.894 146.874Z" fill="#693738"/>
<path fill-rule="evenodd" clip-rule="evenodd" d="M147.521 96.0885C146.406 94.7747 147.027 92.6943 147.287 91.1548C147.847 88.5097 149.161 86.1294 150.25 83.6832C150.629 82.7517 151.103 81.8078 151.141 80.7866C151.165 79.6655 152.832 79.6563 152.859 80.7866C152.817 82.2911 152.123 83.6821 151.523 85.0299C150.126 88.0934 148.327 91.3877 148.713 94.8499C148.699 94.8097 148.689 94.7809 148.676 94.7438C148.897 95.3126 150.15 94.1822 150.433 93.9534C151.905 92.6139 153.123 91.0085 154.051 89.2495C154.632 88.2933 156.075 89.1218 155.534 90.1161C154.472 92.1646 150.154 98.4678 147.521 96.0885Z" fill="#693738"/>
<path fill-rule="evenodd" clip-rule="evenodd" d="M151.637 101.424C149.324 99.256 153.075 93.2744 153.831 90.6983C154.297 89.4505 154.582 88.147 154.834 86.8425C155.163 85.7708 156.772 86.2036 156.49 87.2989C156.183 88.9909 155.745 90.6561 155.077 92.2429C154.206 94.5305 152.945 96.7408 152.621 99.1952C152.307 101.448 154.864 99.2396 155.45 98.545C156.649 97.2024 157.414 95.564 157.978 93.869C158.42 92.8406 159.982 93.4856 159.56 94.5367C158.726 97.0344 157.399 99.5044 155.207 101.055C154.199 101.741 152.684 102.381 151.637 101.424Z" fill="#693738"/>
<path fill-rule="evenodd" clip-rule="evenodd" d="M157.141 106.3C152.598 105.781 158.052 95.8546 158.148 93.1807C158.174 92.0585 159.838 92.0513 159.866 93.1807C159.478 96.3544 157.837 99.2118 157.239 102.337C157.118 103.071 156.957 103.848 157.173 104.576C159.24 103.7 160.275 101.428 160.977 99.4251C161.298 98.3421 162.923 98.7965 162.634 99.8826C161.813 102.385 160.023 105.896 157.141 106.3Z" fill="#693738"/>
<path fill-rule="evenodd" clip-rule="evenodd" d="M159.64 107.83C158.707 107.299 158.379 103.972 159.924 104.156C160.373 104.218 160.741 104.663 160.659 105.123C160.577 105.524 160.578 105.939 160.65 106.341C161.633 105.762 162.094 104.63 162.637 103.678C163.072 102.803 163.446 101.907 163.768 100.984C164.302 99.2107 165.297 96.9613 163.827 95.3899C163.257 94.4367 163.671 93.2693 163.707 92.2316C163.809 91.0332 163.616 89.7617 162.773 88.8487C162.407 88.417 161.914 88.1171 161.54 87.6957C160.014 85.6245 161.535 83.2659 158.355 82.0716C157.484 81.6285 157.112 80.6651 156.403 80.0396C155.586 79.2235 154.128 79.3739 153.427 80.2653C153.124 80.6228 152.605 80.7176 152.222 80.4209C151.12 79.3647 153.043 78.2374 153.946 77.9344C155.297 77.5357 156.791 77.9283 157.757 78.9556C158.328 79.4347 158.604 80.2189 159.248 80.6022C161.537 81.475 162.355 83.5121 162.53 85.8048C162.603 86.555 163.264 86.9156 163.756 87.3896C165.644 89.1115 165.574 91.702 165.261 94.0328C165.143 94.5563 165.64 94.8675 165.846 95.2992C166.503 96.477 166.365 97.899 166.083 99.1674C165.541 101.496 162.927 109.584 159.64 107.83Z" fill="#693738"/>
<path fill-rule="evenodd" clip-rule="evenodd" d="M164.928 123.104C164.015 119.32 162.717 115.55 161.482 111.877C161.054 110.478 160.358 109.122 160.187 107.662C160.214 106.537 161.88 106.533 161.905 107.665C163.427 112.697 165.397 117.522 166.585 122.648C166.851 123.736 165.251 124.188 164.928 123.104Z" fill="#693738"/>
<path fill-rule="evenodd" clip-rule="evenodd" d="M122.074 121.309C117.343 120.968 114.489 116.343 113.719 112.059C112.992 108.299 113.381 104.454 113.187 100.654C113.046 98.543 112.476 96.479 111.574 94.5686C110.466 92.3573 108.727 90.5613 107.38 88.5035C105.025 84.8558 104.577 80.019 106.638 76.1394C107.983 70.7328 113.497 67.5858 118.701 66.7646C121.295 66.4173 123.942 66.778 126.511 67.1726C131.775 67.9547 136.505 71.3727 139.252 75.8859C140.507 78.2518 141.436 80.8062 142.085 83.4039C142.946 87.8441 142.683 92.4243 142.342 96.9077C141.901 101.387 141.114 105.897 139.258 110.027C137.41 114.141 134.157 117.745 130.126 119.803C127.651 121.001 124.811 121.502 122.074 121.309ZM123.755 119.631C125.723 119.475 127.707 119.126 129.475 118.212C132.826 116.453 135.54 113.515 137.292 110.183C138.958 106.749 139.854 103.009 140.335 99.2365C140.868 95.2147 141.079 91.1352 140.839 87.0836C140.604 83.2216 139.306 79.409 137.352 76.0827C135.377 73.2171 132.446 70.8286 129.2 69.6158C127.024 68.8759 124.727 68.5915 122.444 68.4133C121.165 68.3236 119.763 68.2762 118.523 68.541C114.685 69.2974 110.717 71.2325 108.942 74.9008C109.213 75.3573 108.946 75.7901 108.639 76.1425C108.245 76.7288 107.928 77.3605 107.683 78.023C106.605 80.8083 106.936 83.9037 108.239 86.555C109.295 88.5623 110.887 90.212 112.124 92.0997C114.095 95.0746 114.976 98.6697 114.962 102.214C115.014 105.406 114.809 108.632 115.414 111.785C116.227 116.019 118.951 120.109 123.755 119.631Z" fill="#693738"/>
<path fill-rule="evenodd" clip-rule="evenodd" d="M125.26 109.029C121.854 108.101 121.579 104.309 122.453 101.433C122.921 99.7136 123.836 98.2009 124.644 96.6346C125.642 94.9736 125.186 93.0601 123.413 92.1894C122.247 91.6803 120.926 91.94 119.692 91.7793C116.879 91.6154 113.994 90.6015 113.216 87.5947C112.142 84.1026 112.609 80.2271 114.292 77.0163C114.703 76.3187 115.197 74.9142 116.167 75.0513C118.171 73.2563 121.065 72.4835 123.713 72.8977C126.171 73.4119 128.67 74.1651 130.783 75.5583C132.226 76.5454 133.452 77.8067 134.346 79.3111C135.768 81.5038 137.048 83.8573 137.482 86.4633C139.178 93.7845 135.513 111.47 125.26 109.029ZM127.566 107.527C130.495 107.396 132.326 104.592 133.586 102.25C135.857 97.3941 136.785 91.7411 135.733 86.454C135.253 84.0253 133.983 81.8614 132.63 79.8222C131.314 77.7407 129.161 76.3249 126.856 75.5469C123.844 74.4093 120.826 73.9013 117.983 75.7953C117.586 76.0384 117.225 76.5124 116.712 76.3939C116.387 76.7494 116.149 77.1699 115.924 77.5923C115.927 77.5872 115.929 77.582 115.931 77.5769C115.945 77.5501 115.958 77.5233 115.972 77.4965C114.53 80.2086 113.959 83.2236 114.645 86.2119C114.917 88.1305 116.101 89.5247 118.058 89.8173C120.979 90.4984 124.131 89.365 126.087 92.2986C127.885 94.6748 126.32 97.2344 125.105 99.4518C123.453 102.486 122.406 107.996 127.566 107.527Z" fill="#693738"/>
<path fill-rule="evenodd" clip-rule="evenodd" d="M132.377 66.2359C130.45 65.1375 128.243 64.7851 126.08 64.4584C124.481 64.1926 122.868 63.9566 121.242 64.0772C120.413 64.1266 119.593 64.2771 118.762 64.2977C117.64 64.2729 117.632 62.6078 118.762 62.58C119.728 62.5398 120.683 62.3584 121.65 62.3368C124.396 62.2935 127.123 62.853 129.804 63.3981C131.005 63.699 132.159 64.1586 133.245 64.7531C134.204 65.3415 133.365 66.7759 132.377 66.2359Z" fill="#693738"/>
<path fill-rule="evenodd" clip-rule="evenodd" d="M133.556 63.1365C132.208 61.732 130.283 61.09 128.393 60.8407C127.933 60.8314 127.552 60.445 127.552 59.9823C127.637 58.7242 129.079 59.2043 129.883 59.3641C131.709 59.7494 133.462 60.5707 134.77 61.9216C135.547 62.7356 134.375 63.9124 133.556 63.1365Z" fill="#693738"/>
<path fill-rule="evenodd" clip-rule="evenodd" d="M137.6 120.788C137.113 120.302 137.43 119.66 137.87 119.276C138.21 118.886 138.521 118.481 138.812 118.052C140.154 116 141.289 113.796 141.925 111.419C142.046 111.009 142.162 110.599 142.319 110.201C142.775 109.177 144.313 109.816 143.9 110.871C143.335 112.578 142.895 114.337 142.023 115.927C141.219 117.466 140.371 119.027 139.219 120.338C138.821 120.887 138.216 121.348 137.6 120.788Z" fill="#693738"/>
<path fill-rule="evenodd" clip-rule="evenodd" d="M142.089 121.661C141.458 121 142.148 120.356 142.623 119.874C143.153 119.265 143.634 118.624 144.089 117.958C144.301 117.624 144.484 117.32 144.632 117.023C144.903 116.4 145.228 115.556 146.074 115.886C146.501 116.067 146.717 116.583 146.531 117.011C146.179 117.835 145.741 118.621 145.215 119.346C144.641 120.17 144.001 120.939 143.305 121.661C142.978 121.997 142.417 121.986 142.089 121.661Z" fill="#693738"/>
<path fill-rule="evenodd" clip-rule="evenodd" d="M41.0184 201.395C31.1726 201.395 21.3259 201.395 11.4791 201.395C10.5053 201.395 9.53261 201.395 8.55989 201.395C8.09207 201.395 7.70154 201.005 7.70154 200.537C7.70154 200.069 8.09207 199.679 8.55989 199.679C21.2249 199.679 33.8888 199.679 46.5528 199.679C47.2071 199.679 47.8635 199.679 48.5189 199.679C49.6307 199.701 49.6575 201.368 48.5189 201.396C46.0191 201.395 43.5182 201.395 41.0184 201.395Z" fill="#693738"/>
<path fill-rule="evenodd" clip-rule="evenodd" d="M106.659 201.395C93.9174 201.395 81.1741 201.395 68.4318 201.395C67.3252 201.374 67.2891 199.706 68.4318 199.677C82.2015 199.677 95.9711 199.677 109.741 199.677C111.762 199.677 113.786 199.677 115.808 199.677C116.916 199.699 116.95 201.366 115.808 201.395C112.758 201.395 109.708 201.395 106.659 201.395Z" fill="#693738"/>
<path fill-rule="evenodd" clip-rule="evenodd" d="M105.765 123.636C104.341 122.077 107.853 121.313 108.866 120.985C109.96 120.715 110.403 122.316 109.323 122.641C108.591 122.836 107.865 123.069 107.182 123.399C106.756 123.677 106.247 124.03 105.765 123.636Z" fill="#693738"/>
<path fill-rule="evenodd" clip-rule="evenodd" d="M111.802 126.852C111.776 125.96 112.791 125.661 113.44 125.316C113.865 125.119 114.389 125.353 114.566 125.773C114.906 126.64 114.01 126.932 113.414 127.259C113.014 128.032 111.793 127.728 111.802 126.852Z" fill="#693738"/>
<path fill-rule="evenodd" clip-rule="evenodd" d="M115.411 132.158C115.411 131.688 115.753 131.366 116.082 131.083C116.626 130.585 117.373 130.136 117.9 130.918C118.336 131.686 117.536 132.106 117.043 132.526C116.672 133.337 115.403 133.057 115.411 132.158Z" fill="#693738"/>
<path fill-rule="evenodd" clip-rule="evenodd" d="M74.7062 35.4282C74.7062 34.8296 75.2472 34.4452 75.6655 34.1011C76.4795 33.4364 77.2802 32.7625 78.02 32.0165C78.8341 31.2396 80.0119 32.4142 79.2339 33.2303C78.7712 33.6951 78.2849 34.1351 77.7902 34.5647C77.3183 34.9821 76.8093 35.3571 76.3446 35.7817C76.2075 36.0774 75.9066 36.2856 75.5645 36.2856C75.0957 36.2866 74.7062 35.8971 74.7062 35.4282Z" fill="#693738"/>
<path fill-rule="evenodd" clip-rule="evenodd" d="M56.1523 36.81C55.7875 36.3556 56.0719 35.7857 56.2594 35.6477C57.0487 34.947 57.8112 34.2081 58.5192 33.426C59.3249 32.644 60.5038 33.8156 59.733 34.6409C58.9911 35.4601 58.1915 36.2412 57.3568 36.9656C57.0044 37.2726 56.4264 37.1644 56.1523 36.81Z" fill="#693738"/>
<path fill-rule="evenodd" clip-rule="evenodd" d="M106.29 46.3404C105.053 45.8984 106.062 44.4043 106.115 43.5088C107.034 39.4881 106.772 35.5828 106.809 31.5342C106.838 30.4121 108.502 30.4038 108.527 31.5342C108.51 32.4461 108.505 33.357 108.52 34.27C108.587 37.0243 108.554 39.7972 108.043 42.5134C107.86 43.6005 107.639 44.6794 107.346 45.7418C107.222 46.1941 106.732 46.4641 106.29 46.3404Z" fill="#693738"/>
<path fill-rule="evenodd" clip-rule="evenodd" d="M125.516 146.396C125.344 145.639 125.934 145.389 126.515 145.148C127.915 144.466 129.298 143.751 130.708 143.084C135.501 140.662 140.504 138.928 145.511 137.039C145.945 136.861 146.453 137.062 146.637 137.496C146.819 137.924 146.614 138.443 146.181 138.621C144.456 139.33 142.693 139.936 140.936 140.561C137.611 141.749 134.397 143.222 131.214 144.744C130.029 145.313 128.855 145.905 127.678 146.489C126.985 146.856 125.898 147.488 125.516 146.396Z" fill="#693738"/>
<path fill-rule="evenodd" clip-rule="evenodd" d="M152.02 135.185C152.02 134.717 152.411 134.327 152.879 134.327C153.029 134.314 153.171 134.26 153.316 134.218C154.327 133.861 155.309 133.422 156.294 132.995C157.341 132.582 157.992 134.113 156.964 134.578C155.864 135.041 154.78 135.547 153.642 135.915C152.984 136.179 152.038 136.056 152.02 135.185Z" fill="#693738"/>
<path fill-rule="evenodd" clip-rule="evenodd" d="M13.0484 155.525C11.9448 150.039 11.6037 144.102 14.1066 138.94C15.1278 136.608 16.4385 134.409 17.9347 132.353C18.3128 131.904 18.6343 131.226 19.2938 131.201C19.7606 131.201 20.1522 131.593 20.1522 132.06C20.1522 132.323 20.0275 132.563 19.8348 132.721C19.4494 133.157 19.1094 133.656 18.8064 134.081C16.5549 137.451 14.5569 141.176 14.0376 145.245C13.7996 148.43 14.0304 151.837 14.6713 154.907C15.0897 156.075 13.443 156.7 13.0484 155.525Z" fill="#693738"/>
<path fill-rule="evenodd" clip-rule="evenodd" d="M16.2128 164.935C15.9995 164.846 15.8573 164.682 15.7563 164.479C15.4689 163.903 15.2246 163.315 15.0041 162.711C14.6012 161.658 16.1314 161.015 16.5869 162.043C16.8074 162.647 17.0526 163.234 17.3381 163.811C17.6668 164.482 16.8785 165.251 16.2128 164.935Z" fill="#693738"/>
<path fill-rule="evenodd" clip-rule="evenodd" d="M6.39079 55.8348C5.96832 52.115 5.75296 48.3488 6.19707 44.6207C6.30733 43.649 6.51754 42.6979 6.78442 41.7571C6.91219 41.3078 7.38722 41.0327 7.8406 41.1574C8.94832 41.5232 8.22496 42.7556 8.10337 43.5418C7.6067 46.3271 7.59124 49.1813 7.76847 51.9985C7.85297 53.2021 7.95086 54.4036 8.09306 55.6009C8.14664 56.0656 7.82721 56.5056 7.35734 56.5685C6.90498 56.6324 6.44438 56.3016 6.39079 55.8348Z" fill="#693738"/>
<path fill-rule="evenodd" clip-rule="evenodd" d="M23.9369 107.649C22.3758 106.619 20.8724 105.467 19.5565 104.136C18.6405 103.293 13.9613 97.4095 16.4333 96.886C16.8826 96.8252 17.3566 97.1549 17.4009 97.6217C17.4658 98.0597 17.6822 98.4584 17.8646 98.8582C18.8043 100.681 20.0614 102.33 21.5896 103.7C22.6097 104.588 23.671 105.427 24.8045 106.167C25.7587 106.765 24.9189 108.203 23.9369 107.649Z" fill="#693738"/>
<path fill-rule="evenodd" clip-rule="evenodd" d="M77.5573 130.346C75.5809 129.385 73.4232 128.927 71.2995 128.414C70.8451 128.306 70.5792 127.797 70.6998 127.358C70.8276 126.895 71.3026 126.649 71.756 126.758C73.9559 127.272 76.1755 127.783 78.225 128.762C79.2513 129.235 78.6001 130.767 77.5573 130.346Z" fill="#693738"/>
<path fill-rule="evenodd" clip-rule="evenodd" d="M77.5831 125.036C76.9947 124.831 76.3919 124.683 75.7705 124.633C75.2028 124.704 74.5773 124.411 74.5814 123.77C74.5814 123.302 74.972 122.912 75.4398 122.912C76.3352 122.969 78.9793 123.07 78.6382 124.438C78.5208 124.873 78.021 125.185 77.5831 125.036Z" fill="#693738"/>
</svg>
