<svg width="30" height="30" viewBox="0 0 30 30" fill="none" xmlns="http://www.w3.org/2000/svg">
<g clip-path="url(#clip0_95_16769)">
<path d="M14.8069 21.068C17.7532 21.068 20.1503 18.6709 20.1503 15.7246V5.91712C20.1503 2.97075 17.7532 0.57373 14.8069 0.57373C11.8605 0.57373 9.46349 2.97075 9.46349 5.91712V15.7246C9.46349 18.6709 11.8605 21.068 14.8069 21.068ZM14.8069 1.71062C17.1264 1.71062 19.0134 3.59759 19.0134 5.91712V10.615H10.6004V5.91712C10.6004 3.59759 12.4873 1.71062 14.8069 1.71062ZM10.6004 11.7519H19.0134V15.7246C19.0134 18.0441 17.1264 19.9311 14.8069 19.9311C12.4873 19.9311 10.6004 18.0441 10.6004 15.7246V11.7519Z" fill="#FF9900"/>
<path d="M13.4237 8.03801H16.19C16.504 8.03801 16.7584 7.78355 16.7584 7.46957C16.7584 7.15559 16.504 6.90112 16.19 6.90112H13.4237C13.1097 6.90112 12.8553 7.15559 12.8553 7.46957C12.8553 7.78355 13.1097 8.03801 13.4237 8.03801Z" fill="#FF9900"/>
<path d="M13.4237 5.91961H16.19C16.504 5.91961 16.7584 5.66514 16.7584 5.35116C16.7584 5.03718 16.504 4.78271 16.19 4.78271H13.4237C13.1097 4.78271 12.8553 5.03718 12.8553 5.35116C12.8553 5.66514 13.1097 5.91961 13.4237 5.91961Z" fill="#FF9900"/>
<path d="M22.0848 15.156C21.771 15.156 21.5163 15.4105 21.5163 15.7245C21.5163 19.424 18.5064 22.4339 14.8069 22.4339C11.1073 22.4339 8.09745 19.424 8.09745 15.7245C8.09745 15.4105 7.84298 15.156 7.529 15.156C7.21502 15.156 6.96056 15.4105 6.96056 15.7245C6.96056 19.4757 9.60716 22.6202 13.1309 23.39V26.2638H13.0862C11.517 26.2638 10.2404 27.5403 10.2404 29.1096C10.2404 29.4235 10.4949 29.678 10.8089 29.678H18.8049C19.1188 29.678 19.3733 29.4235 19.3733 29.1096C19.3733 27.5406 18.0968 26.2638 16.5275 26.2638H16.4829V23.39C20.0068 22.6202 22.6532 19.4757 22.6532 15.7245C22.6532 15.4105 22.3987 15.156 22.0848 15.156ZM18.1394 28.5411H11.4746C11.7093 27.8774 12.343 27.4007 13.0862 27.4007H16.5278C17.2707 27.4007 17.9045 27.8774 18.1394 28.5411ZM15.346 26.2638H14.2677V23.5519C14.446 23.5641 14.6257 23.5708 14.8069 23.5708C14.9881 23.5708 15.1677 23.5641 15.346 23.5519V26.2638Z" fill="#FF9900"/>
<path d="M3.0969 5.8833C2.78293 5.8833 2.52846 6.13777 2.52846 6.45175V12.0005C2.52846 12.3143 2.78293 12.569 3.0969 12.569C3.41088 12.569 3.66535 12.3143 3.66535 12.0005V6.45175C3.66535 6.13777 3.41088 5.8833 3.0969 5.8833Z" fill="#FF9900"/>
<path d="M7.64446 11.1483C7.95844 11.1483 8.21291 10.8938 8.21291 10.5798V7.87216C8.21291 7.55818 7.95844 7.30371 7.64446 7.30371C7.33049 7.30371 7.07602 7.55818 7.07602 7.87216V10.5798C7.07602 10.8938 7.33049 11.1483 7.64446 11.1483Z" fill="#FF9900"/>
<path d="M0.823122 3.64331C0.509145 3.64331 0.254677 3.89778 0.254677 4.21176V13.6668C0.254677 13.9808 0.509145 14.2353 0.823122 14.2353C1.1371 14.2353 1.39157 13.9808 1.39157 13.6668V4.21176C1.39157 3.89778 1.1371 3.64331 0.823122 3.64331Z" fill="#FF9900"/>
<path d="M5.37068 5.30981C5.05671 5.30981 4.80224 5.56428 4.80224 5.87826V13.5618C4.80224 13.8758 5.05671 14.1303 5.37068 14.1303C5.68466 14.1303 5.93913 13.8758 5.93913 13.5618V5.87826C5.93913 5.56428 5.68466 5.30981 5.37068 5.30981Z" fill="#FF9900"/>
<path d="M26.5168 5.8833C26.2029 5.8833 25.9484 6.13777 25.9484 6.45175V12.0005C25.9484 12.3143 26.2029 12.569 26.5168 12.569C26.8308 12.569 27.0853 12.3143 27.0853 12.0005V6.45175C27.0853 6.13777 26.8308 5.8833 26.5168 5.8833Z" fill="#FF9900"/>
<path d="M21.9693 11.1483C22.2833 11.1483 22.5377 10.8938 22.5377 10.5798V7.87216C22.5377 7.55818 22.2833 7.30371 21.9693 7.30371C21.6553 7.30371 21.4008 7.55818 21.4008 7.87216V10.5798C21.4008 10.8938 21.6553 11.1483 21.9693 11.1483Z" fill="#FF9900"/>
<path d="M28.7906 3.64331C28.4766 3.64331 28.2222 3.89778 28.2222 4.21176V13.6668C28.2222 13.9808 28.4766 14.2353 28.7906 14.2353C29.1046 14.2353 29.3591 13.9808 29.3591 13.6668V4.21176C29.3591 3.89778 29.1046 3.64331 28.7906 3.64331Z" fill="#FF9900"/>
<path d="M24.2431 12.9937C24.0936 12.9937 23.9468 13.054 23.8412 13.1597C23.7355 13.2661 23.6746 13.4122 23.6746 13.5621C23.6746 13.7118 23.7355 13.8583 23.8412 13.964C23.9468 14.0699 24.0936 14.1305 24.2431 14.1305C24.3925 14.1305 24.5393 14.0699 24.645 13.964C24.7507 13.8583 24.8115 13.7118 24.8115 13.5621C24.8115 13.4122 24.7507 13.2661 24.645 13.1597C24.5393 13.054 24.3925 12.9937 24.2431 12.9937Z" fill="#FF9900"/>
<path d="M24.2431 5.30981C23.9291 5.30981 23.6746 5.56428 23.6746 5.87826V11.1484C23.6746 11.4623 23.9291 11.7168 24.2431 11.7168C24.557 11.7168 24.8115 11.4623 24.8115 11.1484V5.87826C24.8115 5.56428 24.557 5.30981 24.2431 5.30981Z" fill="#FF9900"/>
<path d="M14.8069 18.6786C16.4358 18.6786 17.7612 17.3534 17.7612 15.7245C17.7612 15.4105 17.5065 15.156 17.1928 15.156C16.8788 15.156 16.6243 15.4105 16.6243 15.7245C16.6243 16.7263 15.809 17.5417 14.8069 17.5417C14.4929 17.5417 14.2384 17.7962 14.2384 18.1101C14.2384 18.4241 14.4929 18.6786 14.8069 18.6786Z" fill="#FF9900"/>
<path d="M17.1926 14.3303C17.3422 14.3303 17.4888 14.2694 17.5945 14.1637C17.7002 14.058 17.761 13.9112 17.761 13.7618C17.761 13.6124 17.7004 13.4656 17.5945 13.3599C17.4888 13.2542 17.3422 13.1934 17.1926 13.1934C17.0431 13.1934 16.8966 13.2542 16.7909 13.3599C16.6852 13.4656 16.6241 13.6124 16.6241 13.7618C16.6241 13.9112 16.685 14.058 16.7909 14.1637C16.8966 14.2694 17.0431 14.3303 17.1926 14.3303Z" fill="#FF9900"/>
</g>
<defs>
<clipPath id="clip0_95_16769">
<rect width="29.1044" height="29.1045" fill="white" transform="translate(0.254677 0.57373)"/>
</clipPath>
</defs>
</svg>
