<svg width="127" height="132" viewBox="0 0 127 132" fill="none" xmlns="http://www.w3.org/2000/svg">
<path opacity="0.36" d="M125.222 116.826C126.192 108.445 99.3434 98.4555 65.2551 94.5128C31.1668 90.57 2.74696 94.1674 1.77765 102.548C0.808345 110.928 27.6566 120.918 61.7449 124.861C95.8332 128.804 124.253 125.206 125.222 116.826Z" fill="#F3D077"/>
<path d="M100.249 87.8498C103.175 95.1109 110.09 101.362 116.397 106.833C125.121 114.402 120.136 116.028 118.564 114.89C117.281 116.559 115.69 116.289 114.067 115.811C114.067 115.811 112.874 117.328 110.328 116.136C107.781 114.944 105.451 112.126 105.451 112.126L85.7805 102.221C85.7805 102.221 79.6572 97.7121 79.8739 97.3868C80.0907 97.0618 91.3077 87.3622 91.3077 87.3622L100.249 87.8498Z" fill="#F3D077"/>
<path d="M112.311 116.589V117.924" stroke="#933642" stroke-width="2" stroke-miterlimit="10" stroke-linecap="round" stroke-linejoin="round"/>
<path d="M116.94 116.058V117.518" stroke="#933642" stroke-width="2" stroke-miterlimit="10" stroke-linecap="round" stroke-linejoin="round"/>
<path d="M120.602 115.008V116.057" stroke="#933642" stroke-width="2" stroke-miterlimit="10" stroke-linecap="round" stroke-linejoin="round"/>
<path d="M118.565 114.89C119.743 115.743 123.614 114.423 121.409 110.826C120.674 109.627 118.578 108.726 116.397 106.834C114.631 105.302 112.818 103.709 111.058 102.05C108.155 102.055 109.136 106.589 109.136 106.589C109.136 106.589 106.101 103.958 105.749 104.317C105.397 104.675 106.914 107.032 106.914 107.032C106.914 107.032 104.015 104.838 102.145 105.082C100.589 105.285 100.276 107.404 100.916 109.843L105.451 112.126C105.451 112.126 107.781 114.944 110.328 116.136C112.874 117.328 114.067 115.811 114.067 115.811C115.691 116.289 117.282 116.56 118.565 114.89Z" fill="#E5952A"/>
<path opacity="0.7" d="M104.321 94.7629C102.99 93.0256 101.828 91.2241 100.92 89.3538L88.6699 89.6477C85.3398 92.5368 80.0227 97.1641 79.8742 97.3869C79.6574 97.7119 85.7808 102.221 85.7808 102.221L105.451 112.126C105.451 112.126 107.781 114.944 110.328 116.136C112.493 117.149 113.675 116.207 113.983 115.901C111.049 110.961 103.92 101.379 104.321 94.7629Z" fill="#F3D077"/>
<path d="M114.067 115.81C115.042 114.401 114.663 112.559 114.663 112.559" stroke="#F3D077" stroke-width="2" stroke-miterlimit="10" stroke-linecap="round" stroke-linejoin="round"/>
<path d="M118.565 114.889C119.269 113.155 118.131 112.126 117.535 111.746" stroke="#F3D077" stroke-width="2" stroke-miterlimit="10" stroke-linecap="round" stroke-linejoin="round"/>
<path d="M81.4457 49.6474C80.3077 47.1006 78.4112 46.342 78.3571 48.5094C78.303 50.6768 78.0862 51.8692 78.0862 51.8692C78.0862 51.8692 76.5147 46.9923 72.9384 42.4946C69.3618 37.9971 61.559 32.1988 56.7903 29.9772C52.0217 27.7554 47.9036 27.4845 47.8492 27.9181C47.7951 28.3516 49.2581 29.5437 49.2581 29.5437C49.2581 29.5437 42.2679 28.4057 41.9426 29.1102C41.6176 29.8146 44.1103 30.844 44.1103 30.844C44.1103 30.844 36.8489 31.5485 33.9771 31.9279C32.6595 32.102 31.4337 31.6204 30.4135 30.872C28.6479 29.0857 30.0076 26.116 29.4387 25.5877C28.9537 25.1375 27.7584 25.8218 27.3418 27.5646C24.8189 27.9903 14.5233 37.6174 14.5233 37.6174C16.2998 39.8208 18.6149 41.6045 21.7574 42.7439C15.8545 44.5494 11.9273 47.9438 11.7597 54.3616C6.7202 56.8543 5.9556 78.1501 11.7597 88.7439C11.7597 88.7439 8.87437 89.4754 9.68704 94.1899C10.5 98.9041 11.8409 102.684 13.6698 106.26C15.4987 109.836 18.7499 109.146 18.7499 109.146C18.7499 109.146 20.0911 110.365 22.0418 109.918C23.9924 109.471 24.4395 108.455 24.4395 108.455C24.4395 108.455 26.9187 108.902 26.9187 107.114C26.9187 105.325 26.1057 104.635 23.8301 101.79C21.5541 98.945 21.107 97.9694 21.107 97.9694C21.9721 98.0451 22.663 97.797 23.0986 97.0753C23.0986 97.0753 22.4077 98.1726 24.8054 97.6444C27.2031 97.1161 30.0076 93.824 30.0076 93.824C31.6418 96.1276 33.8009 98.0834 36.9978 99.3512C36.9978 99.3512 33.1638 99.0127 34.6812 100.692C36.1986 102.372 43.7306 104.594 48.5534 104.865C48.5534 104.865 45.816 106.601 49.4204 107.087C57.0609 108.116 62.9676 105.461 62.9676 105.461L70.6081 93.8649C84.0291 97.9441 82.3309 75.886 83.8569 59.4014V57.9385C82.6378 55.6625 82.5837 52.1945 81.4457 49.6474Z" fill="#F3D077"/>
<path d="M13.3854 38.0862C16.3116 41.1129 19.9691 42.6899 22.4077 42.064" stroke="#F3D077" stroke-width="2" stroke-miterlimit="10" stroke-linecap="round" stroke-linejoin="round"/>
<path opacity="0.7" d="M65.0791 102.256C62.7042 100.657 59.2494 98.521 57.4401 98.2956C54.5138 97.9308 53.1671 95.4902 53.1671 95.4902C53.1671 95.4902 49.0678 95.6529 45.1662 95.0961C41.2647 94.5394 44.7597 92.4486 44.7597 92.4486C44.7597 92.4486 40.0455 91.6701 38.7449 90.8572C37.4443 90.0445 40.9396 89.3536 40.9396 89.3536C40.9396 89.3536 34.5183 87.0371 32.5677 82.3125L28.2884 93.8646L28.679 95.1946C29.4762 94.4473 30.007 93.824 30.007 93.824C31.6413 96.1276 33.8003 98.0834 36.9972 99.3512C36.9972 99.3512 33.1633 99.0127 34.6807 100.692C36.198 102.372 43.73 104.594 48.5528 104.865C48.5528 104.865 45.8154 106.601 49.4199 107.087C57.0604 108.116 62.967 105.461 62.967 105.461L65.0791 102.256Z" fill="#F3D077"/>
<path d="M39.0705 92.449C42.0779 93.54 45.7725 92.449 45.7725 92.449" stroke="#F3D077" stroke-width="2" stroke-miterlimit="10" stroke-linecap="round" stroke-linejoin="round"/>
<path d="M74.2425 92.3167C77.2191 94.5693 79.7846 91.863 82.1688 94.3016C84.553 96.7401 87.027 99.1753 94.8843 104.269C102.742 109.363 108.215 111.151 108.54 113.264C108.865 115.377 106.914 115.648 106.914 115.648C106.914 115.648 107.456 117.816 105.451 118.52C103.446 119.225 102.2 118.52 102.2 118.52C102.2 118.52 101.712 121.392 98.6235 121.23C95.5349 121.067 95.914 117.762 95.914 117.762C95.914 117.762 88.2194 118.249 82.096 117.328C75.9729 116.407 80.4704 114.889 80.4704 114.889C80.4704 114.889 75.1058 113.751 70.4457 111.963C65.7856 110.175 64.9185 108.495 65.4061 108.224C65.8938 107.953 67.1944 108.17 67.1944 108.17C67.1944 108.17 62.5343 105.948 59.5539 103.022C56.5736 100.096 55.1106 98.2955 55.1106 98.2955C55.1106 98.2955 52.6179 100.53 50.2337 96.7364C47.8495 92.9431 46.7656 86.9826 47.1451 83.1352C47.5245 79.2878 66.4903 90.1798 66.4903 90.1798L74.2425 92.3167Z" fill="#F3D077"/>
<path d="M98.9755 120.2V122.069" stroke="#933642" stroke-width="2" stroke-miterlimit="10" stroke-linecap="round" stroke-linejoin="round"/>
<path d="M106.397 117.924V119.143" stroke="#933642" stroke-width="2" stroke-miterlimit="10" stroke-linecap="round" stroke-linejoin="round"/>
<path d="M108.114 115.008V116.589" stroke="#933642" stroke-width="2" stroke-miterlimit="10" stroke-linecap="round" stroke-linejoin="round"/>
<path d="M108.54 113.263C108.273 111.528 104.534 110.011 98.8566 106.705C92.8927 105.887 95.2637 109.633 95.2637 109.633C95.2637 109.633 92.771 107.397 92.3374 108.108C91.9039 108.82 94.776 110.825 94.776 110.825C94.776 110.825 90.4409 108.495 87.6232 108.928C84.8055 109.362 84.9137 112.559 84.9137 112.559C84.9137 112.559 82.7351 110.066 79.8687 110.446C77.8305 110.715 77.4612 112.908 77.4177 114.152C79.2261 114.625 80.4703 114.889 80.4703 114.889C80.4703 114.889 75.9729 116.406 82.096 117.328C88.2194 118.249 95.914 117.761 95.914 117.761C95.914 117.761 95.5346 121.067 98.6235 121.229C101.712 121.392 102.2 118.52 102.2 118.52C102.2 118.52 103.446 119.224 105.451 118.52C107.456 117.815 106.914 115.648 106.914 115.648C106.914 115.648 108.865 115.377 108.54 113.263Z" fill="#E5952A"/>
<path d="M85.2577 108.715C90.0805 107.306 94.776 110.825 94.776 110.825" stroke="#E5952A" stroke-width="2" stroke-miterlimit="10" stroke-linecap="round" stroke-linejoin="round"/>
<path d="M76.479 111.371C79.7303 108.39 82.9441 110.063 84.9135 112.56" stroke="#E5952A" stroke-width="2" stroke-miterlimit="10" stroke-linecap="round" stroke-linejoin="round"/>
<path d="M102.2 118.52C102.958 115.052 99.9238 114.185 99.9238 114.185" stroke="#F3D077" stroke-width="2" stroke-miterlimit="10" stroke-linecap="round" stroke-linejoin="round"/>
<path d="M106.914 115.648C106.751 112.559 103.283 112.559 103.283 112.559" stroke="#F3D077" stroke-width="2" stroke-miterlimit="10" stroke-linecap="round" stroke-linejoin="round"/>
<path opacity="0.7" d="M83.8296 57.882C82.8977 56.1012 82.6536 53.6157 82.0523 51.4069C80.3319 53.0944 78.6142 56.1925 78.6142 56.1925C78.6142 56.1925 72.8837 51.3274 72.071 52.1942C71.2581 53.061 72.7214 56.1925 72.7214 56.1925C72.7214 56.1925 62.1235 54.9578 60.7573 55.3099C59.391 55.6619 63.4947 57.7752 63.4947 57.7752C63.4947 57.7752 47.5239 56.1922 48.5534 61.5602C49.1737 64.795 54.593 68.7827 54.593 68.7827C54.593 68.7827 46.4542 70.2926 47.0702 73.2185C47.6863 76.1448 56.024 78.8767 56.024 78.8767C56.024 78.8767 54.1707 83.7985 57.7625 85.5951C61.3543 87.3917 63.0487 87.3615 63.0487 87.3615C63.0487 87.3615 63.7224 93.8948 68.9824 93.1054C74.2425 92.3161 79.8687 88.2142 79.8687 88.2142L83.8296 57.882Z" fill="#F3D077"/>
<path d="M74.7417 45.0302C74.2091 44.1947 73.6089 43.3377 72.9381 42.4943C69.3616 37.9968 61.5587 32.1984 56.7901 29.9769C52.0214 27.7551 47.9033 27.4842 47.8489 27.9177C47.7948 28.3513 49.2578 29.5434 49.2578 29.5434C49.2578 29.5434 42.2676 28.4054 41.9423 29.1098C41.6173 29.8143 44.11 30.8437 44.11 30.8437C44.11 30.8437 33.5433 32.659 33.3806 36.3168C33.218 39.9745 40.4523 40.7872 40.4523 40.7872C40.4523 40.7872 36.876 41.031 37.6887 42.8193C38.5016 44.6076 45.7725 46.477 45.7725 46.477C45.7725 46.477 41.7526 48.2653 48.9866 50.0533C56.2206 51.8416 62.699 52.248 61.8169 50.0533C61.8169 50.0533 64.0238 50.5409 64.1864 48.9153C64.3491 47.2897 63.3735 44.9326 63.3735 44.9326C63.3735 44.9326 75.6807 52.607 74.7417 45.0302Z" fill="#E5952A"/>
<path d="M45.7728 48.4548C52.9429 53.8738 60.9625 52.6814 60.6916 50.9475" stroke="#E5952A" stroke-width="2" stroke-miterlimit="10" stroke-linecap="round" stroke-linejoin="round"/>
<path d="M38.2578 42.4943C39.4499 47.3711 47.0371 46.4499 47.0371 46.4499" stroke="#E5952A" stroke-width="2" stroke-miterlimit="10" stroke-linecap="round" stroke-linejoin="round"/>
<path d="M64.8641 49.3219C65.1891 47.9671 64.5391 45.6371 62.2631 44.12" stroke="#E5952A" stroke-width="2" stroke-miterlimit="10" stroke-linecap="round" stroke-linejoin="round"/>
<path opacity="0.7" d="M71.6631 41.0238C67.7374 36.8059 61.0526 31.963 56.7901 29.9769C52.0214 27.7551 47.9033 27.4842 47.8489 27.9177C47.7948 28.3513 49.2578 29.5434 49.2578 29.5434C49.2578 29.5434 42.2676 28.4054 41.9423 29.1098C41.6173 29.8143 44.11 30.8437 44.11 30.8437C44.11 30.8437 36.8486 31.5481 33.9768 31.9275C31.105 32.307 26.9866 36.5877 32.5138 37.6715C38.041 38.7554 38.7996 36.6962 38.7996 36.6962C38.7996 36.6962 38.366 35.1788 40.5335 35.8291C42.7009 36.4794 44.6193 37.9867 44.6193 37.9867C44.6193 37.9867 44.1172 34.8538 45.6309 35.2873C47.1445 35.7209 51.6693 37.9867 51.6693 37.9867C51.6693 37.9867 50.6125 34.5288 52.4549 36.0459C54.2973 37.563 62.439 42.6569 64.3289 42.0066C66.2188 41.3563 65.4332 37.238 65.4332 37.238C65.4332 37.238 68.5751 41.5008 71.6631 41.0238Z" fill="#F3D077"/>
<path d="M99.7611 59.0219C105.613 54.5786 106.21 51.1106 103.609 50.8394C101.008 50.5685 84.751 54.0365 84.751 59.2928C84.751 64.5491 99.7611 59.0219 99.7611 59.0219Z" fill="#E5952A"/>
<path opacity="0.57" d="M99.8662 56.7086C97.4958 56.001 95.7072 54.4851 94.8606 52.4668C89.8962 53.9445 84.751 56.3355 84.751 59.2929C84.751 64.5492 99.7611 59.022 99.7611 59.022C100.638 58.3564 101.394 57.7136 102.041 57.0993C101.32 57.0495 100.594 56.9257 99.8662 56.7086Z" fill="#E5952A"/>
<path d="M103.988 52.2481C101.007 51.7063 93.4031 55.3468 91.5244 58.4256" stroke="#933642" stroke-width="2" stroke-miterlimit="10" stroke-linecap="round" stroke-linejoin="round"/>
<path d="M82.1688 94.302C89.1953 100.536 95.0656 95.2232 96.6996 92.8897C100.853 92.1611 104.607 90.2314 106.291 82.0791C108.265 82.1563 109.376 80.372 109.054 75.4952C112.279 67.692 108.16 62.5984 100.639 59.8077C100.639 59.8077 104.056 58.6698 98.8535 57.5724C93.6513 56.475 90.075 57.8162 90.075 57.8162C90.075 57.8162 87.2708 56.5156 80.8901 57.5724C74.5093 58.6292 75.4849 59.9295 71.1769 59.3607C66.8688 58.7915 58.6186 57.735 54.3514 59.4013C50.0842 61.0675 52.0349 64.4002 55.6114 66.8791C59.1877 69.3583 62.3984 70.293 62.3984 70.293C62.3984 70.293 59.8245 72.9483 59.5536 77.3376C59.2827 81.7268 62.3713 81.9436 62.3713 81.9436C62.3713 81.9436 62.2087 86.3328 66.002 88.8796C69.7951 91.4264 72.2878 91.047 72.2878 91.047C73.5484 92.8367 76.479 94.8184 82.1688 94.302Z" fill="#F3D077"/>
<path d="M101.788 89.3535C107.185 88.7438 106.372 81.0221 106.21 80.453" stroke="#F3D077" stroke-width="2" stroke-miterlimit="10" stroke-linecap="round" stroke-linejoin="round"/>
<path d="M110.518 65.9118C107.348 61.1083 100.604 60.9459 100.604 60.9459" stroke="#F3D077" stroke-width="2" stroke-miterlimit="10" stroke-linecap="round" stroke-linejoin="round"/>
<path d="M58.7407 80.6097C56.9524 76.3894 60.9867 71.5123 63.6026 70.7808" stroke="#F3D077" stroke-width="2" stroke-miterlimit="10" stroke-linecap="round" stroke-linejoin="round"/>
<path d="M100.639 59.8081C101.066 59.6351 101.416 59.3841 101.704 59.0841C101.887 58.6647 101.418 58.114 98.8534 57.5728C93.6512 56.4754 90.075 57.8166 90.075 57.8166C90.075 57.8166 87.2708 56.516 80.89 57.5728C76.742 58.2596 75.7025 59.0493 74.2994 59.3616C68.1947 62.5092 72.1521 66.3918 76.2164 66.4733C80.2806 66.5544 85.1575 64.9288 85.1575 64.9288C85.1575 64.9288 83.9383 67.2701 87.0269 66.9529C90.1156 66.6356 92.5542 64.1973 92.5542 64.1973C92.5542 64.1973 93.2856 65.9856 96.3743 64.0347C99.4629 62.0838 95.6428 60.7834 95.6428 60.7834C95.6428 60.7834 97.8318 60.9461 100.639 59.8081Z" fill="#E5952A"/>
<path d="M72.3963 64.3593C73.2092 68.5858 82.4497 67.9358 86.4454 64.3593" stroke="#E5952A" stroke-width="2" stroke-miterlimit="10" stroke-linecap="round" stroke-linejoin="round"/>
<path d="M90.197 66.7063C92.9606 65.3348 92.8225 62.0614 92.8225 62.0614" stroke="#E5952A" stroke-width="2" stroke-miterlimit="10" stroke-linecap="round" stroke-linejoin="round"/>
<path d="M53.6078 61.8157C52.695 62.2889 53.5344 65.1438 55.6114 66.8791C58.9511 69.6689 62.3984 70.293 62.3984 70.293C62.3984 70.293 64.6472 67.7462 66.6523 66.5C68.6571 65.2532 56.5341 60.2983 53.6078 61.8157Z" fill="#F3D077"/>
<path d="M104.259 67.3663C98.6235 65.0904 95.3722 69.4255 95.3722 69.4255" stroke="#4E1D23" stroke-width="2" stroke-miterlimit="10" stroke-linecap="round" stroke-linejoin="round"/>
<path d="M89.1944 70.5207C83.559 68.2448 80.3074 72.5799 80.3074 72.5799" stroke="#4E1D23" stroke-width="2" stroke-miterlimit="10" stroke-linecap="round" stroke-linejoin="round"/>
<path d="M96.4131 71.0578C96.4837 71.4859 95.1283 72.0656 93.3861 72.3527C91.6439 72.6397 90.1743 72.5251 90.1038 72.097C90.0332 71.669 91.3886 71.0892 93.1308 70.8022C94.8733 70.5152 96.3426 70.6297 96.4131 71.0578Z" fill="#933642"/>
<path d="M83.8569 75.0611C89.7906 81.9972 94.0172 75.9282 93.8004 73.1105C93.8004 73.1105 94.8725 77.1347 98.7314 75.9823C102.679 74.8038 101.739 70.2925 101.739 70.2925" stroke="#E17F1D" stroke-width="2" stroke-miterlimit="10" stroke-linecap="round" stroke-linejoin="round"/>
<path d="M90.6847 79.9575C94.6675 83.3714 97.6343 80.0792 97.7564 77.7627" stroke="#E17F1D" stroke-width="2" stroke-miterlimit="10" stroke-linecap="round" stroke-linejoin="round"/>
<path d="M105.762 72.5797C118.361 76.0639 123.685 80.7821 123.685 80.7821" stroke="#E5952A" stroke-width="2" stroke-miterlimit="10" stroke-linecap="round" stroke-linejoin="round"/>
<path d="M106.21 70.9428C116.533 70.2925 125.717 73.869 125.717 73.869" stroke="#E5952A" stroke-width="2" stroke-miterlimit="10" stroke-linecap="round" stroke-linejoin="round"/>
<path d="M76.9885 74.8037C66.5438 77.0391 55.2139 84.2705 51.669 88.0526" stroke="#E5952A" stroke-width="2" stroke-miterlimit="10" stroke-linecap="round" stroke-linejoin="round"/>
<path d="M56.5868 93.255C61.8172 86.793 63.9022 82.6143 78.6141 76.3484" stroke="#E5952A" stroke-width="2" stroke-miterlimit="10" stroke-linecap="round" stroke-linejoin="round"/>
<path d="M21.7574 42.7438C15.8545 44.5494 11.9273 47.9437 11.7597 54.3616C8.07408 56.1844 6.67587 68.0641 8.46041 78.4598C10.0118 77.397 11.2721 73.7879 11.2721 73.7879C11.2721 73.7879 12.3289 79.5589 14.9298 78.9898C17.5308 78.4209 18.0999 65.8221 18.0999 65.8221C34.3562 59.7261 34.1124 42.413 21.7574 42.7438Z" fill="#E5952A"/>
<path d="M8.72525 74.1945C4.17336 64.7116 8.50848 52.5193 12.7351 54.4158" stroke="#E5952A" stroke-width="2" stroke-miterlimit="10" stroke-linecap="round" stroke-linejoin="round"/>
<path d="M15.4445 77.7175C17.5037 79.45 20.0505 68.8833 17.7746 64.8193" stroke="#E5952A" stroke-width="2" stroke-miterlimit="10" stroke-linecap="round" stroke-linejoin="round"/>
<path d="M33.7059 70.781C33.7059 70.781 17.5987 84.3079 10.0253 84.738C10.5201 86.1834 11.0965 87.5344 11.7594 88.7444C11.7594 88.7444 8.87407 89.4759 9.68675 94.1904C10.4997 98.9046 11.8406 102.684 13.6695 106.261C15.4984 109.837 18.7496 109.146 18.7496 109.146C18.7496 109.146 20.0908 110.365 22.0415 109.918C23.9921 109.471 24.4392 108.455 24.4392 108.455C24.4392 108.455 26.9184 108.902 26.9184 107.114C26.9184 105.326 26.1054 104.635 23.8298 101.79C21.5538 98.9455 21.1068 97.9699 21.1068 97.9699C21.9949 97.9883 22.7168 97.773 23.0983 97.0757C23.0983 97.0757 22.4074 98.1731 24.8051 97.6449C27.2028 97.1166 30.0073 93.8245 30.0073 93.8245C32.6218 90.5597 33.6515 85.5202 33.9765 81.3477C34.3018 77.1753 33.7059 70.781 33.7059 70.781Z" fill="#F3D077"/>
<path opacity="0.4" d="M24.2411 102.3C24.1096 102.138 23.9728 101.968 23.8301 101.79C21.5541 98.9449 21.107 97.9693 21.107 97.9693C21.6341 97.9803 22.1005 97.9054 22.4742 97.6999L21.8083 97.0346L16.6907 95.5987C12.0306 93.1601 13.2227 100.309 17.9914 101.774C20.4708 102.536 22.6852 102.505 24.2411 102.3Z" fill="#F3D077"/>
<path d="M24.4398 108.455C25.7945 105.84 23.1392 104.323 23.1392 104.323" stroke="#E5952A" stroke-width="2" stroke-miterlimit="10" stroke-linecap="round" stroke-linejoin="round"/>
<path d="M18.7499 109.146C20.9173 106.816 18.8582 104.757 19.0749 104.811" stroke="#E5952A" stroke-width="2" stroke-miterlimit="10" stroke-linecap="round" stroke-linejoin="round"/>
<path d="M30.0076 93.8244C32.6221 90.5596 33.6518 85.5201 33.9768 81.3476C33.9918 81.1556 34.0042 80.9578 34.0154 80.7572C33.18 77.3649 30.4984 77.4685 28.3955 82.8647C28.3955 82.8647 28.2872 79.5049 26.499 81.2391C24.7107 82.9732 24.223 90.722 24.223 90.722C24.223 90.722 23.0309 88.8254 22.8142 89.9634C22.5974 91.1014 23.4103 92.6188 23.4103 92.6188C23.4103 92.6188 21.8863 92.8896 21.8083 94.0276C21.7303 95.1656 22.1638 95.5991 22.1638 95.5991C22.1638 95.5991 17.1784 94.8947 16.6908 95.5991C16.2463 96.2411 19.3067 97.468 21.2706 97.9675C22.0827 97.9562 22.7413 97.7288 23.0986 97.0756C23.0986 97.0756 22.4077 98.173 24.8054 97.6448C27.2034 97.1162 30.0076 93.8244 30.0076 93.8244Z" fill="#E5952A"/>
<path d="M27.0949 81.4282C23.6268 81.5638 23.826 89.8002 24.2411 91.8052" stroke="#E5952A" stroke-width="2" stroke-miterlimit="10" stroke-linecap="round" stroke-linejoin="round"/>
<path d="M22.8954 95.9513C19.7253 94.8946 21.2792 92.2936 24.2412 92.4563" stroke="#E5952A" stroke-width="2" stroke-miterlimit="10" stroke-linecap="round" stroke-linejoin="round"/>
<path d="M33.1368 77.6483C30.5358 76.8356 28.0972 81.5092 28.3005 83.6631" stroke="#E5952A" stroke-width="2" stroke-miterlimit="10" stroke-linecap="round" stroke-linejoin="round"/>
<path d="M15.6475 38.8771C13.331 36.9127 13.3854 35.3412 13.3854 35.3412C13.3854 35.3412 9.30675 31.6835 7.68831 23.7991C6.06988 15.9148 9.8088 10.8753 10.8656 10.8753C11.9224 10.8753 12.41 12.2571 12.41 12.2571C12.41 12.2571 14.2795 6.97375 18.6687 4.21016C23.058 1.44656 28.4225 0.958902 28.3413 1.85304C28.2602 2.74718 27.2846 3.55985 27.2846 3.55985C27.2846 3.55985 33.0556 1.60921 41.9152 3.3972C50.7749 5.18547 54.1076 9.00557 54.0261 9.57469C53.945 10.1435 51.8314 10.0624 51.8314 10.0624C51.8314 10.0624 53.2944 12.2571 57.6836 14.4516C62.0728 16.646 59.5531 17.784 59.5531 17.784C59.5531 17.784 64.2673 18.597 69.876 17.7028C75.4844 16.8087 82.881 17.5402 83.8566 24.2865C84.832 31.0329 79.3862 34.1217 79.3862 34.1217C79.3862 34.1217 79.4674 36.3165 75.7285 37.2918C71.9896 38.2671 65.2484 35.3343 65.2484 35.3343C65.2484 35.3343 62.2358 37.2918 57.7654 35.2597C53.2949 33.2276 51.4255 29.5699 47.4424 25.0183C43.4597 20.4667 37.6887 17.3781 32.1614 18.9223C26.6342 20.4667 27.8534 27.7439 27.8534 27.7439L21.1882 36.0727L15.6475 38.8771Z" fill="#F3D077"/>
<path d="M53.2046 23.5422C49.5287 18.3806 45.7728 18.2721 45.7728 18.2721C45.7728 18.2721 51.3158 13.0699 47.0084 10.5775C42.7012 8.08477 41.4006 12.9616 41.4006 12.9616C41.4006 12.9616 37.7157 10.9025 35.8733 13.0699C34.5865 14.5835 35.4669 17.1531 36.1152 18.5663C40.0147 18.9037 43.7951 21.1695 46.7438 24.2555C51.8832 26.4255 55.7914 27.1749 53.2046 23.5422Z" fill="#E5952A"/>
<path d="M25.1307 1C19.1564 2.01591 16.8399 6.60837 16.8399 6.60837" stroke="#E5952A" stroke-width="2" stroke-miterlimit="10" stroke-linecap="round" stroke-linejoin="round"/>
<path d="M33.378 11.0651C31.4841 8.95177 25.1307 12.8533 25.1307 12.8533" stroke="#E5952A" stroke-width="2" stroke-miterlimit="10" stroke-linecap="round" stroke-linejoin="round"/>
<path d="M47.0372 11.6461C53.8638 14.5338 48.3907 19.1398 45.0854 18.4353" stroke="#E5952A" stroke-width="2" stroke-miterlimit="10" stroke-linecap="round" stroke-linejoin="round"/>
<path d="M55.1644 25.0995C55.0018 19.5182 43.8933 17.9712 43.8933 17.9712" stroke="#E5952A" stroke-width="2" stroke-miterlimit="10" stroke-linecap="round" stroke-linejoin="round"/>
<path d="M37.4449 18.5072C42.6468 19.6135 44.8009 23.6777 44.8009 23.6777" stroke="#E5952A" stroke-width="2" stroke-miterlimit="10" stroke-linecap="round" stroke-linejoin="round"/>
<path d="M27.7446 26.4141C27.6899 24.3697 28.0759 20.5464 31.4824 19.1588C31.8612 17.4843 30.503 17.1472 27.6366 17.9714C27.6366 17.9714 34.2477 15.4542 32.8388 12.6365C31.43 9.81876 25.5775 12.4197 25.5775 12.4197C25.5775 12.4197 35.9816 2.34065 27.2843 3.56009C27.2843 3.56009 28.2596 2.74713 28.3411 1.85328C28.4223 0.959146 23.0577 1.44681 18.6685 4.2104C18.0058 4.62753 17.4015 5.10281 16.8514 5.60803C16.8166 5.65956 13.6643 10.3231 15.1731 13.3409C16.6905 16.3754 23.0845 14.3162 23.0845 14.3162C23.0845 14.3162 16.2572 20.2228 18.6958 24.7747C20.1268 27.4462 24.4314 27.1304 27.7446 26.4141Z" fill="#E5952A"/>
<path d="M80.3618 20.1616C75.2411 14.696 69.5242 16.6466 62.2631 19.0037" stroke="#F3D077" stroke-width="2" stroke-miterlimit="10" stroke-linecap="round" stroke-linejoin="round"/>
<path d="M49.5287 9.08765C54.4326 13.3142 60.6982 14.696 60.6982 14.696" stroke="#F3D077" stroke-width="2" stroke-miterlimit="10" stroke-linecap="round" stroke-linejoin="round"/>
<path d="M51.9215 7.86868C53.1323 3.31681 40.0461 1.61 34.7627 3.07298" stroke="#F3D077" stroke-width="2" stroke-miterlimit="10" stroke-linecap="round" stroke-linejoin="round"/>
<path d="M9.32115 15.0762C3.71277 22.5799 7.12639 31.4706 15.336 36.4946" stroke="#F3D077" stroke-width="2" stroke-miterlimit="10" stroke-linecap="round" stroke-linejoin="round"/>
<path d="M15.336 5.75427C12.7351 8.84316 11.7597 11.6068 12.3286 13.5574" stroke="#F3D077" stroke-width="2" stroke-miterlimit="10" stroke-linecap="round" stroke-linejoin="round"/>
<path d="M79.3866 34.1225C78.132 37.988 72.1983 38.4201 65.2487 35.335C58.8478 37.5669 54.2758 34.153 49.772 27.8318C49.772 27.8318 46.882 24.0376 43.8936 21.536" stroke="#933642" stroke-width="2" stroke-miterlimit="10" stroke-linecap="round" stroke-linejoin="round"/>
<path d="M101.256 58.3421C95.9304 55.9519 90.0751 57.8165 90.0751 57.8165C81.7791 56.0656 76.6417 58.9173 74.2995 59.3615C71.9574 59.806 65.8101 58.0137 58.5962 58.5793C52.9072 59.0255 49.9758 61.1431 53.0129 64.555C56.0499 67.9669 59.2097 69.6939 62.3985 70.2935" stroke="#933642" stroke-width="2" stroke-miterlimit="10" stroke-linecap="round" stroke-linejoin="round"/>
<path d="M69.5242 61.894C65.6768 64.0073 53.5512 60.8389 53.2414 62.2158C52.9317 63.5927 53.8368 65.4366 55.6115 66.8794" stroke="#933642" stroke-width="2" stroke-miterlimit="10" stroke-linecap="round" stroke-linejoin="round"/>
<path d="M67.9173 65.8247C64.0157 67.8577 62.0236 70.9129 61.0121 72.2892" stroke="#933642" stroke-width="2" stroke-miterlimit="10" stroke-linecap="round" stroke-linejoin="round"/>
<path d="M66.0021 88.8796C68.6761 91.3214 72.2878 91.047 72.2878 91.047C72.2878 91.047 73.553 93.2553 76.9885 94.1008C79.2596 94.6599 82.1689 94.3017 82.1689 94.3017C82.1689 94.3017 84.7168 97.2136 88.2922 97.228C90.6848 97.2375 93.8903 97.0587 96.6997 92.8897" stroke="#933642" stroke-width="2" stroke-miterlimit="10" stroke-linecap="round" stroke-linejoin="round"/>
<path d="M83.8297 95.7178C88.7146 101.442 98.8568 106.705 105.561 110.475C105.561 110.475 108.235 111.803 108.54 113.264C108.938 115.171 106.914 115.648 106.914 115.648" stroke="#933642" stroke-width="2" stroke-miterlimit="10" stroke-linecap="round" stroke-linejoin="round"/>
<path d="M55.1103 98.2952C60.0059 104.218 64.0595 106.595 67.1942 108.17C67.1942 108.17 63.7684 107.704 65.6301 109.145C67.4918 110.587 69.072 112.312 80.4701 114.889" stroke="#933642" stroke-width="2" stroke-miterlimit="10" stroke-linecap="round" stroke-linejoin="round"/>
<path d="M26.5177 41.6307C18.796 42.7687 12.1202 45.5527 11.7597 54.3617" stroke="#933642" stroke-width="2" stroke-miterlimit="10" stroke-linecap="round" stroke-linejoin="round"/>
<path d="M35.7297 64.8193C35.7297 64.8193 38.2224 75.0642 36.9218 77.1833C35.6211 79.3023 34.402 75.6944 34.402 75.6944C34.402 75.6944 33.8329 86.8394 31.3232 91.805C28.7467 96.9021 22.8493 99.4829 23.0986 97.0748C23.0986 97.0748 21.722 100.089 14.9756 94.8176" stroke="#933642" stroke-width="2" stroke-miterlimit="10" stroke-linecap="round" stroke-linejoin="round"/>
<path d="M30.0505 93.7706C30.7483 95.3963 35.0425 98.6475 37.3133 99.1049C37.3133 99.1049 34.0848 99.328 34.3297 99.9896C34.5497 100.584 37.1201 102.69 41.5145 103.446" stroke="#933642" stroke-width="2" stroke-miterlimit="10" stroke-linecap="round" stroke-linejoin="round"/>
</svg>
